<svg width="32" height="22" viewBox="0 0 32 22" fill="none" xmlns="http://www.w3.org/2000/svg">
<path d="M0 4C0 1.79086 1.79086 0 4 0H28C30.2091 0 32 1.79086 32 4V18C32 20.2091 30.2091 22 28 22H4C1.79086 22 0 20.2091 0 18V4Z" fill="#F54848"/>
<path fill-rule="evenodd" clip-rule="evenodd" d="M20.7971 5.69051C19.9619 5.24961 19.0101 5 18 5C14.6863 5 12 7.68629 12 11C12 14.3137 14.6863 17 18 17C19.0101 17 19.9619 16.7504 20.7971 16.3095C19.4404 17.6631 17.5679 18.5 15.5 18.5C11.3579 18.5 8 15.1421 8 11C8 6.85786 11.3579 3.5 15.5 3.5C17.5679 3.5 19.4404 4.33691 20.7971 5.69051Z" fill="white"/>
<path d="M21 8L21.6736 10.0729H23.8532L22.0898 11.3541L22.7634 13.4271L21 12.1459L19.2367 13.4271L19.9102 11.3541L18.1469 10.0729H20.3265L21 8Z" fill="white"/>
</svg>
