<svg width="80" height="80" viewBox="0 0 80 80" fill="none" xmlns="http://www.w3.org/2000/svg">
<g clip-path="url(#clip0_857_775)">
<rect width="80" height="80" rx="24" fill="url(#paint0_linear_857_775)"/>
<g filter="url(#filter0_d_857_775)">
<path d="M54.484 14C45.9717 14 39.0315 20.835 38.968 29.2718L29.3122 43.0369C26.6123 42.7989 24.2937 43.354 22.2291 44.591L0 36.5V51.2224L16.8294 56.9288C17.4086 59.5054 18.8438 61.8072 20.8988 63.4559C22.9539 65.1045 25.5065 66.0017 28.1369 66C34.1242 66 39.0951 61.4327 39.635 55.5967L54.5159 44.7971C63.044 44.7971 70 37.9146 70 29.3828C69.9842 20.9143 63.044 14 54.484 14ZM28.121 62.9552C26.5798 62.9599 25.0664 62.5432 23.7431 61.7498C22.4198 60.9563 21.3365 59.8161 20.6096 58.4513C21.9913 58.9746 23.4046 59.5614 24.7864 60.1006C25.6087 60.4381 26.4893 60.6094 27.3776 60.6047C28.2659 60.6 29.1446 60.4194 29.9633 60.0733C30.782 59.7271 31.5247 59.2222 32.1488 58.5874C32.773 57.9526 33.2663 57.2004 33.6005 56.3739C33.9303 55.5526 34.0945 54.6737 34.0835 53.7882C34.0725 52.9026 33.8865 52.0281 33.5364 51.2153C33.1863 50.4025 32.679 49.6675 32.0439 49.0531C31.4088 48.4386 30.6586 47.9569 29.8367 47.6358L26.295 46.2086C26.8993 46.0697 27.5174 46.0005 28.1372 46.0025C29.253 45.9921 30.3597 46.204 31.3934 46.6259C32.427 47.0477 33.3672 47.6711 34.1594 48.4601C34.9517 49.2491 35.5803 50.188 36.0089 51.2224C36.4376 52.2569 36.6577 53.3664 36.6567 54.4869C36.6556 55.6073 36.4334 56.7164 36.0028 57.7501C35.5722 58.7837 34.9419 59.7214 34.1482 60.5089C33.3544 61.2964 32.4131 61.9181 31.3787 62.3379C30.3442 62.7578 29.2368 62.9676 28.121 62.9552ZM54.4997 39.7224C48.7507 39.7224 44.0816 35.1235 44.0816 29.398C44.0816 23.7055 48.7348 19.0736 54.4997 19.0736C60.2011 19.0736 64.8702 23.7044 64.8702 29.398C64.8867 35.1235 60.2013 39.7384 54.4997 39.7224Z" fill="white"/>
</g>
<path d="M54.5 36C58.0899 36 61 33.0899 61 29.5C61 25.9102 58.0899 23 54.5 23C50.9101 23 48 25.9102 48 29.5C48 33.0899 50.9101 36 54.5 36Z" fill="white"/>
</g>
<defs>
<filter id="filter0_d_857_775" x="-9" y="7" width="88" height="70" filterUnits="userSpaceOnUse" color-interpolation-filters="sRGB">
<feFlood flood-opacity="0" result="BackgroundImageFix"/>
<feColorMatrix in="SourceAlpha" type="matrix" values="0 0 0 0 0 0 0 0 0 0 0 0 0 0 0 0 0 0 127 0" result="hardAlpha"/>
<feOffset dy="2"/>
<feGaussianBlur stdDeviation="4.5"/>
<feComposite in2="hardAlpha" operator="out"/>
<feColorMatrix type="matrix" values="0 0 0 0 0 0 0 0 0 0 0 0 0 0 0 0 0 0 0.15 0"/>
<feBlend mode="normal" in2="BackgroundImageFix" result="effect1_dropShadow_857_775"/>
<feBlend mode="normal" in="SourceGraphic" in2="effect1_dropShadow_857_775" result="shape"/>
</filter>
<linearGradient id="paint0_linear_857_775" x1="81.25" y1="-3.5" x2="-5.25" y2="81.5" gradientUnits="userSpaceOnUse">
<stop stop-color="#1384B5"/>
<stop offset="1" stop-color="#101C2F"/>
</linearGradient>
<clipPath id="clip0_857_775">
<rect width="80" height="80" fill="white"/>
</clipPath>
</defs>
</svg>
