<?xml version="1.0"?>
<svg xmlns="http://www.w3.org/2000/svg" xmlns:xlink="http://www.w3.org/1999/xlink" xmlns:svgjs="http://svgjs.com/svgjs" version="1.1" width="512" height="512" x="0" y="0" viewBox="0 0 24 24" style="enable-background:new 0 0 512 512" xml:space="preserve" class=""><g><path xmlns="http://www.w3.org/2000/svg" clip-rule="evenodd" d="m10 2h8c1.6569 0 3 1.34314 3 3v14c0 1.6569-1.3431 3-3 3h-8c-.55228 0-1-.4477-1-1s.44772-1 1-1h8c.5523 0 1-.4477 1-1v-14c0-.55229-.4477-1-1-1h-8c-.55229 0-1-.44771-1-1 0-.55228.44771-1 1-1zm.2929 5.29289c.3905-.39052 1.0237-.39052 1.4142 0l4 4.00001c.1875.1875.2929.4419.2929.7071s-.1054.5196-.2929.7071l-4 4c-.3905.3905-1.0237.3905-1.4142 0-.39053-.3905-.39053-1.0237 0-1.4142l2.2929-2.2929h-8.5858c-.55228 0-1-.4477-1-1s.44772-1 1-1h8.5858l-2.2929-2.29289c-.39053-.39053-.39053-1.02369 0-1.41422z" fill="#cfd1d4" fill-rule="evenodd" data-original="#000000" class=""/></g></svg>
