<svg width="32" height="32" viewBox="0 0 32 32" fill="none" xmlns="http://www.w3.org/2000/svg">
<path d="M16.0641 4.66797C12.8433 4.66797 10.2324 7.27896 10.2324 10.4997C10.2324 13.7205 12.8433 16.3316 16.0641 16.3316C19.2849 16.3316 21.8959 13.7205 21.8959 10.4997C21.8959 7.27896 19.2849 4.66797 16.0641 4.66797ZM16.0641 12.9106C14.7328 12.9106 13.6534 11.8311 13.6534 10.4998C13.6534 9.1684 14.7328 8.08907 16.0641 8.08907C17.3955 8.08907 18.4748 9.1684 18.4748 10.4998C18.4748 11.8311 17.3955 12.9106 16.0641 12.9106Z" fill="white"/>
<path d="M18.1221 20.9673C20.4568 20.4917 21.8558 19.3861 21.9299 19.3267C22.613 18.7789 22.7228 17.7809 22.1749 17.0976C21.6271 16.4145 20.6292 16.3047 19.9459 16.8525C19.9314 16.8642 18.4392 18.0089 15.9841 18.0106C13.529 18.0089 12.0052 16.8642 11.9908 16.8525C11.3075 16.3047 10.3096 16.4145 9.76177 17.0976C9.21389 17.7809 9.32363 18.7789 10.0068 19.3267C10.0818 19.3869 11.5386 20.5213 13.9387 20.9858L10.5937 24.4815C9.98585 25.112 10.0041 26.1158 10.6346 26.7237C10.9423 27.0204 11.3388 27.1678 11.7351 27.1678C12.1505 27.1678 12.5656 27.0055 12.8767 26.6828L15.9841 23.3725L19.4055 26.7042C20.0254 27.3231 21.0292 27.3221 21.648 26.7025C22.2667 26.0827 22.2659 25.0788 21.6462 24.46L18.1221 20.9673Z" fill="white"/>
</svg>
