<svg width="131" height="32" viewBox="0 0 131 32" fill="none" xmlns="http://www.w3.org/2000/svg">
<g clip-path="url(#clip0_37_131)">
<path d="M115.524 0.319998C117.9 0.319998 120.161 0.863998 122.189 1.83717C122.507 1.98023 122.827 2.15247 123.144 2.3247L121.754 3.55764L119.669 1.408L116.076 4.55906L113.96 2.29647L107.353 8.16941L111.584 12.7812L109.932 14.2118L114.105 18.8235L112.454 20.256L118.424 26.816L121.958 23.6066L125.031 27.0456C124.422 27.504 123.755 27.9633 123.032 28.3633C120.829 29.5962 118.279 30.3096 115.554 30.3096C107.179 30.3096 100.37 23.5802 100.37 15.3016C100.342 7.08047 107.151 0.318115 115.525 0.318115L115.524 0.319998ZM112.742 14.384L116.365 11.1746L119.61 14.7567L115.987 17.9642L112.742 14.3831V14.384ZM115.32 20.5722L118.916 17.3346L122.189 20.9158L118.566 24.1252L115.321 20.5722H115.32ZM110.165 8.28235L113.785 5.07482L117.032 8.65506L113.409 11.8645L110.165 8.28235ZM116.8 6.5647L119.494 4.15812L121.928 6.82164L119.232 9.25647L116.798 6.5647H116.8ZM121.609 17.5925L124.303 15.1868L126.738 17.8786L124.042 20.2861L121.608 17.5925H121.609ZM123.985 23.0071L126.68 20.6005L129.113 23.264L126.419 25.6988L123.985 23.0071ZM125.086 10.6306L126.884 9.02776L128.505 10.8038L126.71 12.4075L125.085 10.6306H125.086ZM122.768 5.33176L124.566 3.69976L126.189 5.50494L124.392 7.10964L122.769 5.3327L122.768 5.33176ZM127.377 15.9322L129.173 14.3275L130.824 16.1035L128.998 17.7073L127.376 15.9322H127.377ZM119.292 11.9492L121.987 9.54353L124.421 12.2071L121.727 14.6136L119.292 11.9501V11.9492ZM7.94824 10.6504H7.81176L5.24518 20.3972H3.14824L0 6.55059H2.17694L4.35294 16.8819H4.48847L7.01365 6.55059H8.74353L11.4447 16.8819H11.5821L13.5642 6.55059H15.8381L12.6889 20.3972H10.5901L7.94824 10.6504ZM18.5995 14.5016H23.0485C22.9515 12.4518 21.9595 11.6311 20.9101 11.6311C19.7242 11.6311 18.8113 12.5506 18.5986 14.5016H18.5995ZM24.6033 18.1741V19.6593C23.728 20.1675 22.5628 20.5581 21.1624 20.5581C17.8965 20.5581 16.5581 18.5261 16.5581 15.4409C16.5581 12.4715 18.0546 10.3238 20.9685 10.3238C23.3967 10.3238 24.8932 11.9049 24.8932 15.088V15.8108H18.5591C18.5591 18.1544 19.5096 19.1896 21.5125 19.1896C22.5628 19.1896 23.5341 18.8169 24.6024 18.1732L24.6033 18.1741ZM29.4155 18.9929C30.0367 19.2659 30.7181 19.3054 31.2038 19.3054C32.6438 19.3054 33.7289 18.4066 33.7289 15.2423C33.7289 12.7624 32.8348 11.9623 31.5341 11.9623C30.7567 11.9623 30.1929 12.1769 29.4165 12.6061V18.992L29.4155 18.9929ZM29.4344 11.1623C30.0179 10.8499 31.008 10.4376 32.0584 10.4376C34.4678 10.4376 35.7704 12.1176 35.7704 15.2423C35.7704 18.8941 34.0198 20.6729 31.2038 20.6729C30.1732 20.6729 28.5798 20.3398 27.4136 19.7129V6.08564L29.4353 5.59623V11.1623H29.4344ZM44.5176 17.4588H44.6136L48.7708 6.54117H51.1802V20.3887H49.0814V10.3501H48.9073L44.9431 20.3887H43.7007L39.7365 10.5854H39.5605V20.3887H37.8118V6.54117H40.1647L44.5176 17.4588ZM59.7553 15.4409C59.7553 12.8056 58.688 11.6922 57.3675 11.6922C56.0856 11.6922 54.9769 12.8047 54.9769 15.4409C54.9769 18.1167 55.9878 19.1896 57.3675 19.1896C58.7464 19.1896 59.7562 18.1167 59.7562 15.44L59.7553 15.4409ZM52.9384 15.44C52.9384 12.0216 54.8038 10.3228 57.3685 10.3228C59.9351 10.3228 61.7995 12.0207 61.7995 15.4391C61.7995 18.7774 60.032 20.5562 57.3694 20.5562C54.7059 20.5562 52.9393 18.7774 52.9393 15.4391L52.9384 15.44ZM63.3355 11.7694C64.2108 11.2424 66.0574 10.3238 68.2899 10.3238C70.6221 10.3238 71.4955 11.2405 71.4955 13.2508V20.3228H69.4758V13.7035C69.4758 12.16 68.72 11.8871 67.7271 11.8871C66.9506 11.8871 65.9576 12.2391 65.3553 12.5901V20.3238H63.3355V11.7685V11.7694ZM75.7741 14.5016H80.2221C80.128 12.4518 79.1351 11.6311 78.0856 11.6311C76.8998 11.6311 75.9868 12.5506 75.7732 14.5016H75.7741ZM81.776 18.1741V19.6593C80.9026 20.1675 79.7365 20.5581 78.336 20.5581C75.0748 20.5581 73.7337 18.5261 73.7337 15.4409C73.7337 12.4715 75.2282 10.3238 78.1431 10.3238C80.5713 10.3238 82.0696 11.9049 82.0696 15.088V15.8108H75.7355C75.7355 18.1544 76.6861 19.1896 78.6871 19.1896C79.7365 19.1896 80.7106 18.8169 81.776 18.1732V18.1741ZM90.1421 10.3247H92.2221L88.704 20.0847C87.7318 22.7802 86.5487 24.1864 84.3134 24.1864V22.5882C85.6348 22.5882 86.4499 21.5341 86.9176 20.0866L83.1868 10.3247H85.3233L87.8118 17.5096H87.9285L90.1421 10.3238V10.3247Z" fill="#006CB4"/>
<path d="M20.9901 29.3967V28.5534C21.7101 28.9205 22.3962 29.1031 23.0457 29.1031C23.5878 29.1031 24.0019 29.0033 24.2918 28.8019C24.5807 28.6042 24.7266 28.3351 24.7266 27.9953C24.7266 27.6565 24.6071 27.4005 24.369 27.2311C24.1308 27.0616 23.6866 26.8508 23.0372 26.6033C22.8113 26.5186 22.6664 26.4621 22.6024 26.4367L22.2259 26.2795C22.0377 26.2014 21.9153 26.1412 21.8588 26.1026C21.8005 26.0621 21.7035 26.0038 21.5642 25.9266C21.4259 25.8466 21.3327 25.7779 21.2838 25.7158C21.2367 25.6536 21.1708 25.5746 21.0861 25.4805C21.0014 25.3864 20.945 25.2922 20.9167 25.1953C20.8885 25.1012 20.8602 24.9929 20.8358 24.8687C20.8094 24.7435 20.7981 24.6099 20.7981 24.4668C20.7981 23.9115 21.0014 23.4645 21.4099 23.1238C21.8193 22.7849 22.3831 22.6136 23.104 22.6136C23.7412 22.6136 24.3765 22.7313 25.0052 22.9666V23.8588C24.3934 23.5576 23.7835 23.4089 23.1718 23.4089C22.7388 23.4089 22.4188 23.4993 22.2061 23.6819C21.9934 23.8645 21.8861 24.1054 21.8861 24.4066C21.8861 24.7266 21.9934 24.9713 22.2061 25.1379C22.4179 25.3045 22.7991 25.4889 23.345 25.6913C24.2861 26.0376 24.9318 26.3501 25.2857 26.6325C25.6395 26.9129 25.8174 27.3318 25.8174 27.8861C25.8174 28.4696 25.5746 28.944 25.0889 29.3129C24.6033 29.6828 23.936 29.8682 23.0842 29.8682C22.3068 29.8682 21.6085 29.7082 20.9911 29.3958L20.9901 29.3967ZM30.8122 29.7195H29.8965L29.8278 29.152C29.2744 29.6094 28.7209 29.8391 28.1675 29.8391C27.7045 29.8391 27.3459 29.712 27.0908 29.4607C26.8367 29.2085 26.7097 28.8913 26.7097 28.5045C26.7097 28.3012 26.7454 28.1092 26.8198 27.9209C26.8951 27.7355 27.0174 27.5539 27.1868 27.3779C27.3562 27.1991 27.6151 27.0579 27.9586 26.9506C28.3031 26.8424 28.7172 26.7887 29.1991 26.7887H29.7986V26.5252C29.7986 26.0866 29.7177 25.7882 29.5567 25.6273C29.3948 25.4673 29.1238 25.3873 28.7473 25.3873C28.2824 25.3873 27.712 25.5793 27.0381 25.9652V25.1812C27.7318 24.8612 28.4141 24.6993 29.0824 24.6993C29.7318 24.6993 30.1835 24.8339 30.4339 25.1021C30.6852 25.3694 30.8104 25.776 30.8104 26.3162V29.7176L30.8122 29.7195ZM29.809 27.4748H29.297C28.241 27.4748 27.7129 27.792 27.7129 28.4254C27.7129 28.6494 27.7845 28.8094 27.9257 28.912C28.0687 29.0118 28.2457 29.0626 28.4584 29.0626C28.7285 29.0626 28.9892 28.9967 29.2395 28.8649C29.4908 28.736 29.6819 28.5854 29.8099 28.4151V27.4739L29.809 27.4748ZM32.3812 31.6819V25.4184C32.6635 25.2019 32.9995 25.0278 33.3864 24.8969C33.7722 24.7671 34.1506 24.7012 34.5252 24.7012C35.8635 24.7012 36.5327 25.52 36.5327 27.1624C36.5327 28.0122 36.3595 28.6616 36.0113 29.1125C35.6631 29.5642 35.1642 29.7873 34.5148 29.7873C34.065 29.7873 33.6866 29.6725 33.3854 29.4447V31.68H32.3812V31.6819ZM33.376 25.7496V28.7209C33.505 28.8433 33.6678 28.9355 33.8626 28.9986C34.0602 29.0607 34.2297 29.0908 34.3784 29.0908C34.7322 29.0908 35.0108 28.9534 35.2141 28.6767C35.4174 28.3972 35.5172 27.8927 35.5172 27.1614C35.5172 26.5685 35.4137 26.1318 35.2047 25.8588C34.9958 25.5831 34.7247 25.4447 34.3887 25.4447C34.0085 25.4447 33.6706 25.5482 33.3741 25.7487L33.376 25.7496ZM38.8348 24.752V29.7186H37.8315V24.9976L38.8358 24.7529L38.8348 24.752ZM37.6772 23.3092C37.6772 23.1322 37.7431 22.9779 37.8748 22.8433C38.0066 22.7096 38.16 22.6428 38.3332 22.6428C38.5064 22.6428 38.6588 22.7087 38.7915 22.8424C38.9233 22.9769 38.9892 23.1313 38.9892 23.3082C38.9892 23.4842 38.9233 23.6395 38.7915 23.7751C38.6598 23.9068 38.5064 23.9746 38.3322 23.9746C38.1581 23.9746 38.0047 23.9068 37.8711 23.7751C37.7412 23.6395 37.6734 23.4833 37.6734 23.3082L37.6772 23.3092ZM42.5958 29.1511C43.0598 29.1511 43.5708 28.9816 44.1299 28.6428V29.3864C43.616 29.6875 43.0457 29.8381 42.4217 29.8381C41.6367 29.8381 41.0588 29.6122 40.6899 29.1605C40.3191 28.7087 40.1346 28.0781 40.1346 27.2687C40.1346 26.4969 40.3228 25.8758 40.7031 25.4071C41.0833 24.9365 41.6235 24.7012 42.3257 24.7012C42.944 24.7012 43.4231 24.9035 43.7657 25.3092C44.1045 25.7139 44.2758 26.3068 44.2758 27.0918V27.456H41.1294C41.1294 28.0376 41.2471 28.4659 41.4852 28.7388C41.7233 29.0136 42.0941 29.1511 42.5958 29.1511ZM42.2946 25.3581C41.9934 25.3581 41.7393 25.4786 41.5322 25.7195C41.328 25.9624 41.1981 26.3219 41.1464 26.7981H43.3581C43.3318 26.3144 43.2198 25.9548 43.0193 25.7158C42.8217 25.4767 42.5798 25.3581 42.2965 25.3581H42.2946ZM45.5539 29.7186V25.4268C46.3464 24.9421 47.1671 24.7002 48.0179 24.7002C48.5901 24.7002 48.9986 24.8188 49.2433 25.0541C49.488 25.2894 49.6104 25.6631 49.6104 26.1722V29.7205H48.6071V26.3981C48.6071 26.0386 48.5318 25.7958 48.384 25.6734C48.2362 25.5482 48.0207 25.4852 47.7374 25.4852C47.3515 25.4852 46.9591 25.6038 46.561 25.8391V29.7195H45.553L45.5539 29.7186ZM52.1346 24.9374H53.6593L53.4184 25.6028H52.1346V28.1911C52.1346 28.8433 52.4113 29.1699 52.9647 29.1699C53.1774 29.1699 53.392 29.1247 53.6122 29.0334V29.6593C53.3111 29.7769 52.9487 29.8362 52.5299 29.8362C52.048 29.8362 51.6941 29.6979 51.4692 29.4184C51.2433 29.1416 51.1304 28.7765 51.1304 28.3247V24.2871L52.1346 23.5511V24.9346V24.9374ZM55.6264 24.7511V29.7176H54.6193V24.9976L55.6264 24.7529V24.7511ZM54.4668 23.3082C54.4668 23.1313 54.5327 22.9769 54.6645 22.8424C54.7962 22.7087 54.9487 22.6419 55.1228 22.6419C55.296 22.6419 55.4494 22.7078 55.5812 22.8414C55.713 22.976 55.7788 23.1304 55.7788 23.3073C55.7788 23.4833 55.713 23.6386 55.5812 23.7741C55.4494 23.9059 55.296 23.9736 55.1228 23.9736C54.9487 23.9736 54.7962 23.9059 54.6635 23.7741C54.5318 23.6386 54.4659 23.4824 54.4659 23.3073L54.4668 23.3082ZM62.4593 25.0918V25.8748C61.9774 25.5482 61.488 25.3854 60.993 25.3854C60.7417 25.3854 60.5355 25.4344 60.3746 25.5332C60.2146 25.6311 60.1337 25.7892 60.1337 26.0038C60.1337 26.208 60.2221 26.3689 60.4 26.4894C60.576 26.6099 60.8546 26.7341 61.2358 26.8565C61.4485 26.928 61.6075 26.9845 61.713 27.0231C61.8202 27.0635 61.9595 27.1285 62.1337 27.2207C62.3068 27.312 62.4377 27.4024 62.5252 27.4936C62.6099 27.5878 62.6899 27.7073 62.7605 27.8579C62.832 28.0085 62.8668 28.1741 62.8668 28.3567C62.8668 28.8085 62.688 29.1661 62.3304 29.4344C61.9746 29.7035 61.4965 29.8372 60.8979 29.8372C60.2297 29.8372 59.6715 29.6941 59.2292 29.4042V28.6419C59.7939 28.9807 60.3115 29.1501 60.7821 29.1501C61.4908 29.1501 61.8457 28.9148 61.8457 28.4442C61.8457 28.3539 61.824 28.2682 61.7826 28.1901C61.7402 28.112 61.6922 28.0489 61.6377 27.9991C61.5831 27.9501 61.4937 27.8955 61.3713 27.8315C61.249 27.7713 61.1454 27.7252 61.0626 27.696C60.9779 27.6678 60.848 27.6188 60.6673 27.5529C60.4038 27.456 60.1939 27.3704 60.0395 27.2988C59.8842 27.2264 59.7308 27.1332 59.5765 27.0193C59.4212 26.9045 59.3092 26.7671 59.2377 26.6108C59.1671 26.4546 59.1322 26.2682 59.1322 26.0527C59.1322 25.7798 59.1981 25.5445 59.3252 25.3487C59.4532 25.1511 59.6207 25.0099 59.8259 24.9252C60.0329 24.8405 60.2212 24.7812 60.3906 24.7501C60.5619 24.7153 60.7294 24.6984 60.8988 24.6984C61.4447 24.6984 61.9661 24.8301 62.4612 25.0908L62.4593 25.0918ZM67.7929 29.7176H66.8762L66.8075 29.1501C66.2522 29.6075 65.7017 29.8372 65.1482 29.8372C64.6852 29.8372 64.3257 29.7101 64.0715 29.4588C63.8174 29.2066 63.6904 28.8894 63.6904 28.5026C63.6904 28.2993 63.728 28.1073 63.8033 27.9191C63.8758 27.7336 63.9981 27.552 64.1704 27.376C64.3398 27.1972 64.5967 27.056 64.9421 26.9487C65.2847 26.8405 65.6998 26.7868 66.1807 26.7868H66.7802V26.5233C66.7802 26.0847 66.6993 25.7864 66.5393 25.6254C66.3774 25.4654 66.1064 25.3854 65.728 25.3854C65.2649 25.3854 64.6946 25.5774 64.0188 25.9633V25.1793C64.7134 24.8593 65.3948 24.6974 66.064 24.6974C66.7153 24.6974 67.1652 24.832 67.4165 25.1002C67.6668 25.3675 67.7929 25.7741 67.7929 26.3144V29.7158V29.7176ZM66.7897 27.4729H66.2777C65.2217 27.4729 64.6937 27.7901 64.6937 28.4235C64.6937 28.6475 64.7652 28.8075 64.9064 28.9101C65.0475 29.0099 65.2245 29.0607 65.4381 29.0607C65.7082 29.0607 65.968 28.9948 66.2193 28.8631C66.4706 28.7341 66.6617 28.5835 66.7897 28.4132V27.472V27.4729ZM70.3191 24.9355H71.8438L71.6009 25.6019H70.3181V28.1901C70.3181 28.8424 70.5948 29.1689 71.1464 29.1689C71.36 29.1689 71.5746 29.1238 71.7939 29.0325V29.6584C71.4927 29.776 71.1332 29.8353 70.7134 29.8353C70.2315 29.8353 69.8777 29.6969 69.6527 29.4174C69.4268 29.1407 69.3139 28.7755 69.3139 28.3238V24.2861L70.3191 23.5501V24.9336V24.9355Z" fill="#B6B6B6"/>
</g>
<defs>
<clipPath id="clip0_37_131">
<rect width="130.824" height="32" fill="white"/>
</clipPath>
</defs>
</svg>
