<svg width="81" height="80" viewBox="0 0 81 80" fill="none" xmlns="http://www.w3.org/2000/svg">
<rect x="0.5" y="0.00012207" width="80" height="80" rx="24" fill="url(#paint0_linear_873_211)"/>
<g filter="url(#filter0_d_873_211)">
<path d="M24.9981 33.3671H17.7778V38.1807H24.9981V33.3671Z" fill="#81D4FA"/>
<path d="M18.3795 30.9604C19.3765 30.9604 20.1846 30.1522 20.1846 29.1553C20.1846 28.1584 19.3765 27.3502 18.3795 27.3502C17.3826 27.3502 16.5745 28.1584 16.5745 29.1553C16.5745 30.1522 17.3826 30.9604 18.3795 30.9604Z" fill="#81D4FA"/>
<path d="M12.9643 44.1976H17.7778C18.0285 44.1976 18.2729 44.2758 18.477 44.4214L24.4247 48.6697L23.7947 45.6462C23.7583 45.4711 23.7613 45.2901 23.8036 45.1163C23.8459 44.9426 23.9264 44.7804 24.0393 44.6417C24.1521 44.5029 24.2944 44.3911 24.4559 44.3143C24.6174 44.2375 24.794 44.1976 24.9728 44.1976H34.6252C35.5827 44.1976 36.5009 43.8172 37.178 43.1402C37.855 42.4632 38.2353 41.5449 38.2353 40.5874V26.1468C38.2353 25.1894 37.855 24.2711 37.178 23.5941C36.5009 22.917 35.5827 22.5367 34.6252 22.5367H12.9643C12.0068 22.5367 11.0885 22.917 10.4115 23.5941C9.73448 24.2711 9.35413 25.1894 9.35413 26.1468V40.5874C9.35413 41.5449 9.73448 42.4632 10.4115 43.1402C11.0885 43.8172 12.0068 44.1976 12.9643 44.1976ZM17.8557 24.9755C18.5004 24.8947 19.1551 24.9648 19.7681 25.1802C20.381 25.3957 20.9356 25.7506 21.388 26.2169C21.7737 25.8183 22.2346 25.4999 22.7439 25.2801C23.2532 25.0603 23.801 24.9435 24.3557 24.9362C24.9104 24.929 25.461 25.0316 25.9759 25.238C26.4908 25.4445 26.9597 25.7507 27.3557 26.1392C27.7518 26.5276 28.067 26.9906 28.2834 27.5014C28.4998 28.0121 28.613 28.5607 28.6165 29.1154C28.62 29.6701 28.5138 30.2201 28.3039 30.7336C28.0939 31.247 27.7845 31.7139 27.3935 32.1073C27.3945 32.127 27.4049 32.1437 27.4049 32.1638V32.6233L30.4755 31.0828C30.6589 30.9908 30.8629 30.9472 31.0679 30.9562C31.273 30.9653 31.4723 31.0266 31.647 31.1344C31.8216 31.2421 31.9658 31.3928 32.0659 31.572C32.1659 31.7513 32.2184 31.9531 32.2184 32.1583V39.3335C32.2184 39.5372 32.1666 39.7376 32.0679 39.9159C31.9693 40.0941 31.827 40.2444 31.6543 40.3527C31.4817 40.4609 31.2845 40.5235 31.0811 40.5347C30.8776 40.5459 30.6747 40.5052 30.4913 40.4166L27.4049 38.9245V39.3841C27.4049 39.7032 27.2781 40.0093 27.0524 40.235C26.8267 40.4607 26.5207 40.5874 26.2015 40.5874H16.5744C16.2553 40.5874 15.9492 40.4607 15.7235 40.235C15.4978 40.0093 15.371 39.7032 15.371 39.3841V32.1638C15.371 32.1437 15.3814 32.127 15.3825 32.1073C14.8301 31.5486 14.4453 30.8463 14.2716 30.08C14.0979 29.3137 14.1422 28.5141 14.3997 27.7717C14.6571 27.0294 15.1173 26.374 15.7281 25.8798C16.339 25.3856 17.076 25.0723 17.8557 24.9755Z" fill="white"/>
<path d="M50.2691 63.0733V55.853C50.268 54.8958 49.8874 53.9782 49.2105 53.3014C48.5337 52.6246 47.6161 52.2439 46.659 52.2428L44.2083 52.1966C44.0258 52.1932 43.8465 52.1483 43.6839 52.0653C43.5213 51.9824 43.3797 51.8635 43.2699 51.7177C43.16 51.572 43.0848 51.4031 43.0498 51.224C43.0148 51.0448 43.0211 50.8601 43.0681 50.6837L43.6046 48.6697L37.6289 52.0843C37.4471 52.1882 37.2413 52.2428 37.0319 52.2428H27.4048C26.4474 52.2428 25.5291 52.6232 24.8521 53.3002C24.175 53.9773 23.7947 54.8955 23.7947 55.853V63.0733C23.7947 64.0308 24.175 64.949 24.8521 65.626C25.5291 66.3031 26.4474 66.6834 27.4048 66.6834H46.659C47.6164 66.6834 48.5347 66.3031 49.2117 65.626C49.8888 64.949 50.2691 64.0308 50.2691 63.0733ZM41.8454 55.853H47.8624V58.2597H41.8454V55.853ZM26.2014 55.853H39.4387V58.2597H26.2014V55.853ZM26.2014 63.0733V60.6665H47.8624V63.0733H26.2014Z" fill="white"/>
<path d="M29.8117 34.111L27.4049 35.3144V36.2335L29.8117 37.4369V34.111Z" fill="#81D4FA"/>
<path d="M24.3964 30.9604C25.3933 30.9604 26.2015 30.1522 26.2015 29.1553C26.2015 28.1584 25.3933 27.3502 24.3964 27.3502C23.3995 27.3502 22.5913 28.1584 22.5913 29.1553C22.5913 30.1522 23.3995 30.9604 24.3964 30.9604Z" fill="#81D4FA"/>
<path d="M58.1776 23.2233C59.327 23.2233 60.2587 22.2916 60.2587 21.1422C60.2587 19.9929 59.327 19.0612 58.1776 19.0612C57.0283 19.0612 56.0966 19.9929 56.0966 21.1422C56.0966 22.2916 57.0283 23.2233 58.1776 23.2233Z" fill="#FFCA28"/>
<path d="M57.5868 31.3047L49.8549 25.5058L42.6199 30.9316C42.7341 31.6652 43.1063 32.334 43.6696 32.8176C44.2329 33.3013 44.9503 33.5681 45.6927 33.57H55.0642C55.2184 33.57 55.3706 33.6042 55.51 33.6703C55.6493 33.7363 55.7722 33.8325 55.8698 33.9518C55.9673 34.0712 56.0372 34.2107 56.0743 34.3603C56.1113 34.51 56.1147 34.666 56.0841 34.8171L55.5534 37.4369L60.6963 33.7635C60.8727 33.6376 61.0841 33.57 61.3009 33.57H66.5036C67.2397 33.5684 67.9516 33.3066 68.5134 32.8308C69.0751 32.355 69.4505 31.6959 69.5732 30.9701L64.4225 27.5363L58.7932 31.3343C58.6139 31.4553 58.4015 31.5175 58.1852 31.5122C57.969 31.507 57.7599 31.4344 57.5868 31.3047Z" fill="#9CCC65"/>
<path d="M66.5036 14.8402H45.6928C44.8652 14.8411 44.0717 15.1703 43.4865 15.7555C42.9013 16.3408 42.5721 17.1342 42.5712 17.9618V28.3673L49.2306 23.3727C49.4106 23.2376 49.6296 23.1646 49.8546 23.1646C50.0796 23.1646 50.2985 23.2376 50.4785 23.3727L58.2144 29.1737L63.8449 25.4201C64.0159 25.3062 64.2168 25.2455 64.4222 25.2455C64.6276 25.2455 64.8284 25.3062 64.9994 25.4201L69.6253 28.5041V17.9618C69.6243 17.1342 69.2952 16.3408 68.7099 15.7555C68.1247 15.1703 67.3313 14.8411 66.5036 14.8402ZM58.1793 25.2456C57.3561 25.2456 56.5514 25.0015 55.8669 24.5442C55.1825 24.0868 54.649 23.4368 54.334 22.6763C54.0189 21.9157 53.9365 21.0788 54.0971 20.2715C54.2577 19.4641 54.6541 18.7225 55.2362 18.1404C55.8183 17.5583 56.5599 17.1619 57.3673 17.0013C58.1747 16.8407 59.0116 16.9231 59.7721 17.2381C60.5326 17.5531 61.1827 18.0866 61.64 18.7711C62.0974 19.4556 62.3415 20.2603 62.3415 21.0835C62.3403 22.187 61.9014 23.245 61.1211 24.0253C60.3408 24.8056 59.2828 25.2445 58.1793 25.2456Z" fill="white"/>
</g>
<mask id="mask0_873_211" style="mask-type:alpha" maskUnits="userSpaceOnUse" x="0" y="0" width="81" height="81">
<rect x="0.5" y="0.00012207" width="80" height="80" rx="24" fill="url(#paint1_linear_873_211)"/>
</mask>
<g mask="url(#mask0_873_211)">
<g filter="url(#filter1_d_873_211)">
<circle cx="64.7502" cy="64.2501" r="15.25" fill="#FFD600"/>
<g filter="url(#filter2_i_873_211)">
<circle cx="64.7507" cy="64.2501" r="13.1705" fill="#FFC702"/>
</g>
<path d="M64.2319 72.8212H66.4373V71.2015C67.6087 71.0245 68.5421 70.5761 69.2376 69.8562C69.9392 69.1363 70.29 68.2395 70.29 67.1658C70.29 66.2385 70.0368 65.4942 69.5304 64.9329C69.0301 64.3655 68.2096 63.914 67.0687 63.5785L64.6986 62.8922C64.0702 62.7091 63.6096 62.4926 63.3167 62.2424C63.03 61.9862 62.8866 61.675 62.8866 61.309C62.8866 60.8209 63.1124 60.4152 63.5638 60.0919C64.0153 59.7685 64.5735 59.613 65.2385 59.6252C65.934 59.6435 66.5258 59.854 67.0138 60.2566C67.508 60.6532 67.8191 61.1778 67.9473 61.8306L70.2076 61.4188C69.9697 60.4 69.5243 59.5703 68.8715 58.9297C68.2248 58.2891 67.4134 57.8742 66.4373 57.6851V56.0104H64.2319V57.6394C63.1398 57.798 62.2765 58.2128 61.6421 58.8839C61.0137 59.5489 60.6995 60.3939 60.6995 61.4188C60.6995 63.0965 61.6238 64.2191 63.4723 64.7865L66.6478 65.7748C67.1603 65.9334 67.5324 66.1347 67.7642 66.3788C67.9961 66.6228 68.112 66.9339 68.112 67.3122C68.112 67.8552 67.8679 68.3066 67.3799 68.6666C66.8918 69.0265 66.2695 69.2065 65.513 69.2065C64.726 69.2065 64.0519 68.9869 63.4906 68.5476C62.9293 68.1084 62.5602 67.5105 62.3833 66.754L60.2053 67.1017C60.3761 68.1938 60.8185 69.0967 61.5322 69.8105C62.246 70.5243 63.1459 70.9788 64.2319 71.174V72.8212Z" fill="white"/>
</g>
</g>
<defs>
<filter id="filter0_d_873_211" x="0.354126" y="7.84021" width="78.2711" height="69.8432" filterUnits="userSpaceOnUse" color-interpolation-filters="sRGB">
<feFlood flood-opacity="0" result="BackgroundImageFix"/>
<feColorMatrix in="SourceAlpha" type="matrix" values="0 0 0 0 0 0 0 0 0 0 0 0 0 0 0 0 0 0 127 0" result="hardAlpha"/>
<feOffset dy="2"/>
<feGaussianBlur stdDeviation="4.5"/>
<feComposite in2="hardAlpha" operator="out"/>
<feColorMatrix type="matrix" values="0 0 0 0 0 0 0 0 0 0 0 0 0 0 0 0 0 0 0.25 0"/>
<feBlend mode="normal" in2="BackgroundImageFix" result="effect1_dropShadow_873_211"/>
<feBlend mode="normal" in="SourceGraphic" in2="effect1_dropShadow_873_211" result="shape"/>
</filter>
<filter id="filter1_d_873_211" x="31.0002" y="32.5001" width="67.5" height="67.5" filterUnits="userSpaceOnUse" color-interpolation-filters="sRGB">
<feFlood flood-opacity="0" result="BackgroundImageFix"/>
<feColorMatrix in="SourceAlpha" type="matrix" values="0 0 0 0 0 0 0 0 0 0 0 0 0 0 0 0 0 0 127 0" result="hardAlpha"/>
<feOffset dy="2"/>
<feGaussianBlur stdDeviation="9.25"/>
<feComposite in2="hardAlpha" operator="out"/>
<feColorMatrix type="matrix" values="0 0 0 0 1 0 0 0 0 0.780392 0 0 0 0 0 0 0 0 1 0"/>
<feBlend mode="normal" in2="BackgroundImageFix" result="effect1_dropShadow_873_211"/>
<feBlend mode="normal" in="SourceGraphic" in2="effect1_dropShadow_873_211" result="shape"/>
</filter>
<filter id="filter2_i_873_211" x="51.5802" y="51.0797" width="26.3409" height="26.3409" filterUnits="userSpaceOnUse" color-interpolation-filters="sRGB">
<feFlood flood-opacity="0" result="BackgroundImageFix"/>
<feBlend mode="normal" in="SourceGraphic" in2="BackgroundImageFix" result="shape"/>
<feColorMatrix in="SourceAlpha" type="matrix" values="0 0 0 0 0 0 0 0 0 0 0 0 0 0 0 0 0 0 127 0" result="hardAlpha"/>
<feOffset/>
<feGaussianBlur stdDeviation="1.15909"/>
<feComposite in2="hardAlpha" operator="arithmetic" k2="-1" k3="1"/>
<feColorMatrix type="matrix" values="0 0 0 0 0 0 0 0 0 0 0 0 0 0 0 0 0 0 0.09 0"/>
<feBlend mode="normal" in2="shape" result="effect1_innerShadow_873_211"/>
</filter>
<linearGradient id="paint0_linear_873_211" x1="80.5" y1="-8.99988" x2="0.499999" y2="84.2501" gradientUnits="userSpaceOnUse">
<stop stop-color="#0B6BED"/>
<stop offset="1" stop-color="#0048AA"/>
</linearGradient>
<linearGradient id="paint1_linear_873_211" x1="80.5" y1="-8.99988" x2="0.499999" y2="84.2501" gradientUnits="userSpaceOnUse">
<stop stop-color="#FF8844"/>
<stop offset="1" stop-color="#FF5D00"/>
</linearGradient>
</defs>
</svg>
