<svg width="16" height="16" viewBox="0 0 16 16" fill="none" xmlns="http://www.w3.org/2000/svg">
<path fill-rule="evenodd" clip-rule="evenodd" d="M5.3335 5.33333C5.3335 4.59695 5.93045 4 6.66683 4H12.0002C12.7365 4 13.3335 4.59695 13.3335 5.33333V13.3333C13.3335 14.0697 12.7365 14.6667 12.0002 14.6667H6.66683C5.93045 14.6667 5.3335 14.0697 5.3335 13.3333V5.33333ZM12.0002 5.33333L6.66683 5.33333V13.3333H12.0002V5.33333Z" fill="#9DA4AE"/>
<path fill-rule="evenodd" clip-rule="evenodd" d="M2.6665 2.66659C2.6665 1.93021 3.26346 1.33325 3.99984 1.33325H9.99984C10.368 1.33325 10.6665 1.63173 10.6665 1.99992C10.6665 2.36811 10.368 2.66659 9.99984 2.66659L3.99984 2.66659V11.3333C3.99984 11.7014 3.70136 11.9999 3.33317 11.9999C2.96498 11.9999 2.6665 11.7014 2.6665 11.3333V2.66659Z" fill="#9DA4AE"/>
</svg>
