<svg width="32" height="32" viewBox="0 0 32 32" fill="none" xmlns="http://www.w3.org/2000/svg">
<path fill-rule="evenodd" clip-rule="evenodd" d="M14.5 21C18.0899 21 21 18.0899 21 14.5C21 10.9101 18.0899 8 14.5 8C10.9101 8 8 10.9101 8 14.5C8 18.0899 10.9101 21 14.5 21ZM14.5 19C16.9853 19 19 16.9853 19 14.5C19 12.0147 16.9853 10 14.5 10C12.0147 10 10 12.0147 10 14.5C10 16.9853 12.0147 19 14.5 19Z" fill="#6C737F"/>
<path d="M20.7071 19.2929L19.2929 20.7071L22.2306 23.6448C22.4252 23.8395 22.7406 23.8402 22.9361 23.6465L23.6456 22.9435C23.8424 22.7485 23.8431 22.4307 23.6473 22.2348L20.7071 19.2929Z" fill="#6C737F"/>
</svg>
