<svg width="33" height="32" viewBox="0 0 33 32" fill="none" xmlns="http://www.w3.org/2000/svg">
<mask id="mask0_544_2384" style="mask-type:alpha" maskUnits="userSpaceOnUse" x="0" y="0" width="33" height="32">
<rect x="0.666992" width="32" height="32" rx="8" fill="#C4C4C4"/>
</mask>
<g mask="url(#mask0_544_2384)">
<path fill-rule="evenodd" clip-rule="evenodd" d="M15.667 22C11.801 22 8.66699 18.866 8.66699 15C8.66699 11.134 11.801 8 15.667 8C19.533 8 22.667 11.134 22.667 15C22.667 18.866 19.533 22 15.667 22ZM6.66699 15C6.66699 19.9706 10.6964 24 15.667 24C17.792 24 19.745 23.2635 21.2847 22.0319L24.9599 25.7071C25.3504 26.0976 25.9836 26.0976 26.3741 25.7071C26.7646 25.3166 26.7646 24.6834 26.3741 24.2929L22.6989 20.6177C23.9305 19.078 24.667 17.125 24.667 15C24.667 10.0294 20.6376 6 15.667 6C10.6964 6 6.66699 10.0294 6.66699 15Z" fill="#6C737F"/>
</g>
</svg>
