<svg width="32" height="32" viewBox="0 0 32 32" fill="none" xmlns="http://www.w3.org/2000/svg">
<path fill-rule="evenodd" clip-rule="evenodd" d="M14.1238 22.2533C18.6105 22.2533 22.2477 18.6149 22.2477 14.1266C22.2477 9.63842 18.6105 6 14.1238 6C9.63716 6 6 9.63842 6 14.1266C6 18.6149 9.63716 22.2533 14.1238 22.2533ZM14.1238 19.7528C17.23 19.7528 19.748 17.2339 19.748 14.1266C19.748 11.0194 17.23 8.50051 14.1238 8.50051C11.0177 8.50051 8.49963 11.0194 8.49963 14.1266C8.49963 17.2339 11.0177 19.7528 14.1238 19.7528Z" fill="#036CB5"/>
<path d="M21.8816 20.119L20.1141 21.8871L23.7857 25.56C24.029 25.8033 24.4231 25.8042 24.6674 25.562L25.5542 24.6831C25.8001 24.4393 25.8011 24.0421 25.5563 23.7971L21.8816 20.119Z" fill="#036CB5"/>
</svg>
