<svg width="32" height="32" viewBox="0 0 32 32" fill="none" xmlns="http://www.w3.org/2000/svg">
<path fill-rule="evenodd" clip-rule="evenodd" d="M7.6665 9.18178C7.6665 8.34498 8.34486 7.66663 9.18166 7.66663H10.6968C11.5336 7.66663 12.212 8.34498 12.212 9.18178V10.6969C12.212 11.5337 11.5336 12.2121 10.6968 12.2121H9.18166C8.34486 12.2121 7.6665 11.5337 7.6665 10.6969V9.18178ZM7.6665 15.2424C7.6665 14.4056 8.34486 13.7272 9.18166 13.7272H10.6968C11.5336 13.7272 12.212 14.4056 12.212 15.2424V16.7575C12.212 17.5943 11.5336 18.2727 10.6968 18.2727H9.18166C8.34486 18.2727 7.6665 17.5943 7.6665 16.7575V15.2424ZM9.18166 19.7878C8.34486 19.7878 7.6665 20.4662 7.6665 21.303V22.8181C7.6665 23.6549 8.34486 24.3333 9.18166 24.3333H10.6968C11.5336 24.3333 12.212 23.6549 12.212 22.8181V21.303C12.212 20.4662 11.5336 19.7878 10.6968 19.7878H9.18166ZM13.7271 9.18178C13.7271 8.34498 14.4055 7.66663 15.2423 7.66663H16.7574C17.5942 7.66663 18.2726 8.34498 18.2726 9.18178V10.6969C18.2726 11.5337 17.5942 12.2121 16.7574 12.2121H15.2423C14.4055 12.2121 13.7271 11.5337 13.7271 10.6969V9.18178ZM15.2424 13.7272C14.4057 13.7272 13.7273 14.4056 13.7273 15.2424V16.7575C13.7273 17.5943 14.4057 18.2727 15.2424 18.2727H16.7576C17.5944 18.2727 18.2727 17.5943 18.2727 16.7575V15.2424C18.2727 14.4056 17.5944 13.7272 16.7576 13.7272H15.2424ZM13.7273 21.303C13.7273 20.4662 14.4057 19.7878 15.2424 19.7878H16.7576C17.5944 19.7878 18.2727 20.4662 18.2727 21.303V22.8181C18.2727 23.6549 17.5944 24.3333 16.7576 24.3333H15.2424C14.4057 24.3333 13.7273 23.6549 13.7273 22.8181V21.303ZM21.3029 7.66663C20.4661 7.66663 19.7877 8.34498 19.7877 9.18178V10.6969C19.7877 11.5337 20.4661 12.2121 21.3029 12.2121H22.818C23.6548 12.2121 24.3332 11.5337 24.3332 10.6969V9.18178C24.3332 8.34498 23.6548 7.66663 22.818 7.66663H21.3029ZM19.7877 15.2424C19.7877 14.4056 20.466 13.7272 21.3028 13.7272H22.818C23.6548 13.7272 24.3331 14.4056 24.3331 15.2424V16.7575C24.3331 17.5943 23.6548 18.2727 22.818 18.2727H21.3028C20.466 18.2727 19.7877 17.5943 19.7877 16.7575V15.2424ZM21.3028 19.7878C20.466 19.7878 19.7877 20.4662 19.7877 21.303V22.8181C19.7877 23.6549 20.466 24.3333 21.3028 24.3333H22.818C23.6548 24.3333 24.3331 23.6549 24.3331 22.8181V21.303C24.3331 20.4662 23.6548 19.7878 22.818 19.7878H21.3028Z" fill="#036CB5"/>
</svg>
