<svg width="33" height="32" viewBox="0 0 33 32" fill="none" xmlns="http://www.w3.org/2000/svg">
<path fill-rule="evenodd" clip-rule="evenodd" d="M8.41553 9.18178C8.41553 8.34498 9.09388 7.66663 9.93068 7.66663H11.4458C12.2826 7.66663 12.961 8.34498 12.961 9.18178V10.6969C12.961 11.5337 12.2826 12.2121 11.4458 12.2121H9.93068C9.09388 12.2121 8.41553 11.5337 8.41553 10.6969V9.18178ZM8.41553 15.2424C8.41553 14.4056 9.09388 13.7272 9.93068 13.7272H11.4458C12.2826 13.7272 12.961 14.4056 12.961 15.2424V16.7575C12.961 17.5943 12.2826 18.2727 11.4458 18.2727H9.93068C9.09388 18.2727 8.41553 17.5943 8.41553 16.7575V15.2424ZM9.93068 19.7878C9.09388 19.7878 8.41553 20.4662 8.41553 21.303V22.8181C8.41553 23.6549 9.09388 24.3333 9.93068 24.3333H11.4458C12.2826 24.3333 12.961 23.6549 12.961 22.8181V21.303C12.961 20.4662 12.2826 19.7878 11.4458 19.7878H9.93068ZM14.4761 9.18178C14.4761 8.34498 15.1545 7.66663 15.9913 7.66663H17.5064C18.3432 7.66663 19.0216 8.34498 19.0216 9.18178V10.6969C19.0216 11.5337 18.3432 12.2121 17.5064 12.2121H15.9913C15.1545 12.2121 14.4761 11.5337 14.4761 10.6969V9.18178ZM15.9915 13.7272C15.1547 13.7272 14.4763 14.4056 14.4763 15.2424V16.7575C14.4763 17.5943 15.1547 18.2727 15.9915 18.2727H17.5066C18.3434 18.2727 19.0218 17.5943 19.0218 16.7575V15.2424C19.0218 14.4056 18.3434 13.7272 17.5066 13.7272H15.9915ZM14.4763 21.303C14.4763 20.4662 15.1547 19.7878 15.9915 19.7878H17.5066C18.3434 19.7878 19.0218 20.4662 19.0218 21.303V22.8181C19.0218 23.6549 18.3434 24.3333 17.5066 24.3333H15.9915C15.1547 24.3333 14.4763 23.6549 14.4763 22.8181V21.303ZM22.0519 7.66663C21.2151 7.66663 20.5367 8.34498 20.5367 9.18178V10.6969C20.5367 11.5337 21.2151 12.2121 22.0519 12.2121H23.567C24.4038 12.2121 25.0822 11.5337 25.0822 10.6969V9.18178C25.0822 8.34498 24.4038 7.66663 23.567 7.66663H22.0519ZM20.5367 15.2424C20.5367 14.4056 21.2151 13.7272 22.0519 13.7272H23.567C24.4038 13.7272 25.0822 14.4056 25.0822 15.2424V16.7575C25.0822 17.5943 24.4038 18.2727 23.567 18.2727H22.0519C21.2151 18.2727 20.5367 17.5943 20.5367 16.7575V15.2424ZM22.0519 19.7878C21.2151 19.7878 20.5367 20.4662 20.5367 21.303V22.8181C20.5367 23.6549 21.2151 24.3333 22.0519 24.3333H23.567C24.4038 24.3333 25.0822 23.6549 25.0822 22.8181V21.303C25.0822 20.4662 24.4038 19.7878 23.567 19.7878H22.0519Z" fill="#6C737F"/>
</svg>
