<svg width="32" height="32" viewBox="0 0 32 32" fill="none" xmlns="http://www.w3.org/2000/svg">
<path fill-rule="evenodd" clip-rule="evenodd" d="M8 9.45455C8 8.65122 8.65122 8 9.45455 8H10.9091C11.7124 8 12.3636 8.65122 12.3636 9.45455V10.9091C12.3636 11.7124 11.7124 12.3636 10.9091 12.3636H9.45455C8.65122 12.3636 8 11.7124 8 10.9091V9.45455ZM8 15.2727C8 14.4693 8.65122 13.8181 9.45455 13.8181H10.9091C11.7124 13.8181 12.3636 14.4693 12.3636 15.2727V16.7272C12.3636 17.5305 11.7124 18.1818 10.9091 18.1818H9.45455C8.65122 18.1818 8 17.5305 8 16.7272V15.2727ZM9.45455 19.6362C8.65122 19.6362 8 20.2875 8 21.0908V22.5453C8 23.3487 8.65122 23.9999 9.45455 23.9999H10.9091C11.7124 23.9999 12.3636 23.3487 12.3636 22.5453V21.0908C12.3636 20.2875 11.7124 19.6362 10.9091 19.6362H9.45455ZM13.82 9.45455C13.82 8.65122 14.4712 8 15.2745 8H16.7291C17.5324 8 18.1836 8.65122 18.1836 9.45455V10.9091C18.1836 11.7124 17.5324 12.3636 16.7291 12.3636H15.2745C14.4712 12.3636 13.82 11.7124 13.82 10.9091V9.45455ZM15.2745 13.8181C14.4712 13.8181 13.82 14.4693 13.82 15.2727V16.7272C13.82 17.5305 14.4712 18.1818 15.2745 18.1818H16.7291C17.5324 18.1818 18.1836 17.5305 18.1836 16.7272V15.2727C18.1836 14.4693 17.5324 13.8181 16.7291 13.8181H15.2745ZM13.82 21.0908C13.82 20.2875 14.4712 19.6362 15.2745 19.6362H16.7291C17.5324 19.6362 18.1836 20.2875 18.1836 21.0908V22.5453C18.1836 23.3487 17.5324 23.9999 16.7291 23.9999H15.2745C14.4712 23.9999 13.82 23.3487 13.82 22.5453V21.0908ZM21.0908 8C20.2875 8 19.6362 8.65122 19.6362 9.45455V10.9091C19.6362 11.7124 20.2875 12.3636 21.0908 12.3636H22.5453C23.3487 12.3636 23.9999 11.7124 23.9999 10.9091V9.45455C23.9999 8.65122 23.3487 8 22.5453 8H21.0908ZM19.6362 15.2727C19.6362 14.4693 20.2875 13.8181 21.0908 13.8181H22.5453C23.3487 13.8181 23.9999 14.4693 23.9999 15.2727V16.7272C23.9999 17.5305 23.3487 18.1818 22.5453 18.1818H21.0908C20.2875 18.1818 19.6362 17.5305 19.6362 16.7272V15.2727ZM21.0908 19.6362C20.2875 19.6362 19.6362 20.2875 19.6362 21.0908V22.5453C19.6362 23.3487 20.2875 23.9999 21.0908 23.9999H22.5453C23.3487 23.9999 23.9999 23.3487 23.9999 22.5453V21.0908C23.9999 20.2875 23.3487 19.6362 22.5453 19.6362H21.0908Z" fill="#6C737F"/>
</svg>
