<svg width="513" height="512" viewBox="0 0 513 512" fill="none" xmlns="http://www.w3.org/2000/svg">
<path d="M186.65 129.221C195.926 121.801 208.912 121.8 218.188 131.076L275.698 194.152C283.118 203.427 283.118 216.413 273.843 223.834L210.767 279.488C201.492 286.909 188.505 286.909 179.23 277.634L121.72 214.558C114.299 205.282 114.299 192.297 123.575 184.876L186.65 129.221ZM283.118 138.497C275.698 131.076 277.553 119.945 284.974 112.525L318.366 82.8425C325.787 75.4219 336.918 77.2766 344.338 84.6972L374.021 118.09C381.441 125.511 379.586 136.642 372.166 144.062L338.773 173.745C331.352 181.165 320.221 179.31 312.801 171.89L283.118 138.497ZM461.213 118.09C455.648 123.656 444.516 123.656 438.951 116.235L418.544 93.973C412.979 88.4075 412.979 77.277 420.399 71.7115L442.661 51.3047C448.227 45.7393 459.358 45.7394 464.923 53.16L485.33 75.4215C490.895 80.9869 490.895 92.1181 483.475 97.6835C483.475 99.5387 461.213 118.09 461.213 118.09ZM422.255 190.441L459.358 233.109C464.923 238.675 463.068 247.951 457.502 251.661L233.029 450.162L221.898 459.438C197.781 481.7 160.678 479.845 138.417 455.728L56.7895 364.825L27.1075 331.433C21.5421 325.867 23.3968 316.592 28.9622 312.881L66.0653 279.488C71.6307 273.923 80.9065 273.923 84.6168 279.488L177.374 375.956C182.94 381.522 190.361 381.522 197.781 375.956L403.703 188.586C407.413 184.876 416.689 184.876 422.255 190.441Z" stroke="#758793" stroke-width="30"/>
</svg>
