<svg width="80" height="80" viewBox="0 0 80 80" fill="none" xmlns="http://www.w3.org/2000/svg">
<rect y="0.00012207" width="80" height="80" rx="24" fill="url(#paint0_linear_930_78)"/>
<path d="M57.113 24H22.887C21.2926 24 20 25.2926 20 26.887V32.1598H60V26.887C60 25.2926 58.7075 24 57.113 24V24ZM25.0066 29.3244C24.3144 29.3244 23.7531 28.7631 23.7531 28.0709C23.7531 27.3786 24.3143 26.8173 25.0066 26.8173C25.6989 26.8173 26.2602 27.3786 26.2602 28.0709C26.2602 28.7631 25.6989 29.3244 25.0066 29.3244ZM30.1035 29.3244C29.4112 29.3244 28.85 28.7631 28.85 28.0709C28.85 27.3786 29.4112 26.8173 30.1035 26.8173C30.7958 26.8173 31.357 27.3786 31.357 28.0709C31.357 28.7631 30.7958 29.3244 30.1035 29.3244ZM35.4314 29.3244C34.7391 29.3244 34.1779 28.7631 34.1779 28.0709C34.1779 27.3786 34.7391 26.8173 35.4314 26.8173C36.1237 26.8173 36.6849 27.3786 36.6849 28.0709C36.6849 28.7631 36.1238 29.3244 35.4314 29.3244Z" fill="#CFD8DC"/>
<path d="M20 34.6503V54.7874C20 56.3819 21.2926 57.6744 22.887 57.6744H57.113C58.7075 57.6744 60 56.3819 60 54.7874V34.6503H20ZM33.1831 43.9473L31.5531 48.6893C31.3828 49.1848 30.9207 49.5206 30.397 49.5296C30.3898 49.5297 30.3825 49.5298 30.3753 49.5298C29.8602 49.5298 29.3972 49.2121 29.2125 48.7296L28.6235 47.1906L28.1084 48.6893C27.938 49.1848 27.4759 49.5206 26.9522 49.5296C26.945 49.5297 26.9377 49.5298 26.9305 49.5298C26.4154 49.5298 25.9523 49.2121 25.7677 48.7296L23.9529 43.9876C23.7071 43.3453 24.0285 42.6253 24.6708 42.3795C25.313 42.1334 26.033 42.4551 26.2788 43.0974L26.8678 44.6365L27.383 43.1378C27.6377 42.2349 29.1891 41.8502 29.7236 43.0974L30.3126 44.6365L30.8277 43.1378C31.0513 42.4874 31.7598 42.1417 32.4102 42.3649C33.0607 42.5885 33.4067 43.297 33.1831 43.9473V43.9473ZM44.6224 43.9473L42.9924 48.6893C42.8221 49.1848 42.36 49.5206 41.8362 49.5296C41.8291 49.5297 41.8218 49.5298 41.8146 49.5298C41.2995 49.5298 40.8364 49.2121 40.6518 48.7296L40.0628 47.1906L39.5477 48.6893C39.3773 49.1848 38.9152 49.5206 38.3915 49.5296C38.3843 49.5297 38.377 49.5298 38.3698 49.5298C37.8547 49.5298 37.3916 49.2121 37.207 48.7296L35.3922 43.9876C35.1464 43.3453 35.4678 42.6253 36.1101 42.3795C36.7523 42.1334 37.4723 42.4551 37.7181 43.0974L38.3071 44.6365L38.8223 43.1378C39.1077 42.173 40.701 41.9408 41.1629 43.0974L41.7519 44.6365L42.267 43.1378C42.4906 42.4874 43.199 42.1417 43.8495 42.3649C44.5 42.5885 44.846 43.297 44.6224 43.9473V43.9473ZM56.0618 43.9473L54.4318 48.6893C54.2615 49.1848 53.7994 49.5206 53.2756 49.5296C53.2684 49.5297 53.2612 49.5298 53.254 49.5298C52.7388 49.5298 52.2758 49.2121 52.0912 48.7296L51.5022 47.1906L50.987 48.6893C50.8167 49.1848 50.3546 49.5206 49.8309 49.5296C49.8237 49.5297 49.8164 49.5298 49.8092 49.5298C49.2941 49.5298 48.8311 49.2121 48.6464 48.7296L46.8315 43.9876C46.5857 43.3453 46.9071 42.6253 47.5494 42.3795C48.1918 42.1334 48.9117 42.4551 49.1575 43.0974L49.7466 44.6366L50.2617 43.1378C50.5441 42.21 52.0823 41.8667 52.6023 43.0974L53.1913 44.6365L53.7065 43.1378C53.9301 42.4874 54.6386 42.1417 55.2889 42.3649C55.9393 42.5885 56.2853 43.297 56.0618 43.9473V43.9473Z" fill="white"/>
<defs>
<linearGradient id="paint0_linear_930_78" x1="81.25" y1="-3.49988" x2="-5.25" y2="81.5001" gradientUnits="userSpaceOnUse">
<stop stop-color="#1472BD"/>
<stop offset="1" stop-color="#01579B"/>
</linearGradient>
</defs>
</svg>
