<svg width="80" height="80" viewBox="0 0 80 80" fill="none" xmlns="http://www.w3.org/2000/svg">
<rect y="-0.00012207" width="80" height="80" rx="16" fill="url(#paint0_linear_933_128)"/>
<path d="M57.113 23.9998H22.887C21.2926 23.9998 20 25.2923 20 26.8867V32.1595H60V26.8867C60 25.2923 58.7075 23.9998 57.113 23.9998V23.9998ZM25.0066 29.3241C24.3144 29.3241 23.7531 28.7629 23.7531 28.0706C23.7531 27.3784 24.3143 26.8171 25.0066 26.8171C25.6989 26.8171 26.2602 27.3784 26.2602 28.0706C26.2602 28.7629 25.6989 29.3241 25.0066 29.3241ZM30.1035 29.3241C29.4112 29.3241 28.85 28.7629 28.85 28.0706C28.85 27.3784 29.4112 26.8171 30.1035 26.8171C30.7958 26.8171 31.357 27.3784 31.357 28.0706C31.357 28.7629 30.7958 29.3241 30.1035 29.3241ZM35.4314 29.3241C34.7391 29.3241 34.1779 28.7629 34.1779 28.0706C34.1779 27.3784 34.7391 26.8171 35.4314 26.8171C36.1237 26.8171 36.6849 27.3784 36.6849 28.0706C36.6849 28.7629 36.1238 29.3241 35.4314 29.3241Z" fill="#CFD8DC"/>
<path d="M20 34.6501V54.7872C20 56.3816 21.2926 57.6741 22.887 57.6741H57.113C58.7075 57.6741 60 56.3816 60 54.7872V34.6501H20ZM33.1831 43.947L31.5531 48.6891C31.3828 49.1845 30.9207 49.5203 30.397 49.5294C30.3898 49.5295 30.3825 49.5295 30.3753 49.5295C29.8602 49.5295 29.3972 49.2119 29.2125 48.7294L28.6235 47.1903L28.1084 48.6891C27.938 49.1845 27.4759 49.5203 26.9522 49.5294C26.945 49.5295 26.9377 49.5295 26.9305 49.5295C26.4154 49.5295 25.9523 49.2119 25.7677 48.7294L23.9529 43.9874C23.7071 43.3451 24.0285 42.6251 24.6708 42.3793C25.313 42.1331 26.033 42.4549 26.2788 43.0972L26.8678 44.6363L27.383 43.1375C27.6377 42.2346 29.1891 41.8499 29.7236 43.0972L30.3126 44.6363L30.8277 43.1375C31.0513 42.4872 31.7598 42.1414 32.4102 42.3646C33.0607 42.5882 33.4067 43.2967 33.1831 43.947V43.947ZM44.6224 43.947L42.9924 48.6891C42.8221 49.1845 42.36 49.5203 41.8362 49.5294C41.8291 49.5295 41.8218 49.5295 41.8146 49.5295C41.2995 49.5295 40.8364 49.2119 40.6518 48.7294L40.0628 47.1903L39.5477 48.6891C39.3773 49.1845 38.9152 49.5203 38.3915 49.5294C38.3843 49.5295 38.377 49.5295 38.3698 49.5295C37.8547 49.5295 37.3916 49.2119 37.207 48.7294L35.3922 43.9874C35.1464 43.3451 35.4678 42.6251 36.1101 42.3793C36.7523 42.1331 37.4723 42.4549 37.7181 43.0972L38.3071 44.6363L38.8223 43.1375C39.1077 42.1727 40.701 41.9406 41.1629 43.0972L41.7519 44.6363L42.267 43.1375C42.4906 42.4872 43.199 42.1414 43.8495 42.3646C44.5 42.5882 44.846 43.2967 44.6224 43.947V43.947ZM56.0618 43.947L54.4318 48.6891C54.2615 49.1845 53.7994 49.5203 53.2756 49.5294C53.2684 49.5295 53.2612 49.5295 53.254 49.5295C52.7388 49.5295 52.2758 49.2119 52.0912 48.7294L51.5022 47.1903L50.987 48.6891C50.8167 49.1845 50.3546 49.5203 49.8309 49.5294C49.8237 49.5295 49.8164 49.5295 49.8092 49.5295C49.2941 49.5295 48.8311 49.2119 48.6464 48.7294L46.8315 43.9874C46.5857 43.3451 46.9071 42.6251 47.5494 42.3793C48.1918 42.1331 48.9117 42.4549 49.1575 43.0972L49.7466 44.6363L50.2617 43.1375C50.5441 42.2098 52.0823 41.8665 52.6023 43.0972L53.1913 44.6363L53.7065 43.1375C53.9301 42.4872 54.6386 42.1414 55.2889 42.3646C55.9393 42.5882 56.2853 43.2967 56.0618 43.947V43.947Z" fill="white"/>
<defs>
<linearGradient id="paint0_linear_933_128" x1="81.25" y1="-3.50012" x2="-5.25" y2="81.4999" gradientUnits="userSpaceOnUse">
<stop stop-color="#1472BD"/>
<stop offset="1" stop-color="#01579B"/>
</linearGradient>
</defs>
</svg>
