<svg width="80" height="80" viewBox="0 0 80 80" fill="none" xmlns="http://www.w3.org/2000/svg">
<rect y="-6.10352e-05" width="80" height="80" rx="16" fill="url(#paint0_linear_942_749)"/>
<path d="M46.25 32.5H33.75C33.06 32.5 32.5 33.06 32.5 33.75V58.75C32.5 59.44 33.06 60 33.75 60H46.25C46.94 60 47.5 59.44 47.5 58.75V33.75C47.5 33.06 46.94 32.5 46.25 32.5Z" fill="#FFC107"/>
<path d="M33.75 45H21.25C20.56 45 20 45.56 20 46.25V58.75C20 59.44 20.56 60 21.25 60H33.75C34.44 60 35 59.44 35 58.75V46.25C35 45.56 34.44 45 33.75 45Z" fill="#FFC107"/>
<path d="M58.75 20H46.25C45.56 20 45 20.56 45 21.25V58.75C45 59.44 45.56 60 46.25 60H58.75C59.44 60 60 59.44 60 58.75V21.25C60 20.56 59.44 20 58.75 20Z" fill="#FFA000"/>
<defs>
<linearGradient id="paint0_linear_942_749" x1="81.25" y1="-3.50006" x2="-5.25" y2="81.4999" gradientUnits="userSpaceOnUse">
<stop stop-color="#0288D1"/>
<stop offset="1" stop-color="#00598A"/>
</linearGradient>
</defs>
</svg>
