<svg width="80" height="80" viewBox="0 0 80 80" fill="none" xmlns="http://www.w3.org/2000/svg">
<rect width="80" height="80" rx="16" fill="url(#paint0_linear_933_468)"/>
<path d="M48.4981 13C45.9391 13.177 42.9481 14.815 41.2051 16.948C39.615 18.883 38.307 21.7569 38.817 24.5499C41.6131 24.6369 44.5021 22.9599 46.1761 20.7909C47.7421 18.772 48.9271 15.916 48.4981 13Z" fill="white"/>
<path d="M58.611 29.104C56.154 26.023 52.701 24.235 49.44 24.235C45.135 24.235 43.3139 26.296 40.3229 26.296C37.2389 26.296 34.8959 24.241 31.1729 24.241C27.5159 24.241 23.6219 26.476 21.1529 30.2979C17.6819 35.6799 18.2759 45.7988 23.9009 54.4178C25.9139 57.5018 28.6019 60.9697 32.1179 60.9997C35.2469 61.0297 36.1289 58.9927 40.3679 58.9717C44.607 58.9477 45.411 61.0267 48.534 60.9937C52.053 60.9667 54.888 57.1238 56.901 54.0398C58.344 51.8288 58.881 50.7158 60 48.2198C51.861 45.1208 50.556 33.5469 58.611 29.104Z" fill="white"/>
<defs>
<linearGradient id="paint0_linear_933_468" x1="81.25" y1="-3.5" x2="-5.25" y2="81.5" gradientUnits="userSpaceOnUse">
<stop stop-color="#00BFFC"/>
<stop offset="1" stop-color="#0073F6"/>
</linearGradient>
</defs>
</svg>
