<svg width="80" height="80" viewBox="0 0 80 80" fill="none" xmlns="http://www.w3.org/2000/svg">
<rect width="80" height="80" rx="16" fill="url(#paint0_linear_933_524)"/>
<g clip-path="url(#clip0_933_524)">
<path d="M46.9707 40.9644H51.6579V52.1875H46.9707V40.9644Z" fill="white"/>
<path d="M38.0942 40.9644H42.7817V52.1875H38.0942V40.9644Z" fill="white"/>
<path d="M29.2183 40.9644H33.9058V52.1875H29.2183V40.9644Z" fill="white"/>
<path d="M20.3418 40.9644H25.029V52.1875H20.3418V40.9644Z" fill="white"/>
<path d="M53.2205 37.4487V36.2769H18.7793V37.4487C18.7793 38.096 19.3039 38.6206 19.9512 38.6206H52.0486C52.6956 38.6206 53.2205 38.096 53.2205 37.4487Z" fill="white"/>
<path d="M54.8273 54.5312H17.1729C16.5256 54.5312 16.001 55.0558 16.001 55.7031V58.8281C16.001 59.4754 16.5256 60 17.1729 60H54.8273C55.4745 60 55.9991 59.4754 55.9991 58.8281V55.7031C55.9991 55.0558 55.4745 54.5312 54.8273 54.5312Z" fill="white"/>
<path d="M17.1723 33.9331H54.8285C55.3528 33.9331 55.8133 33.5849 55.9561 33.0804C56.0986 32.576 55.8893 32.038 55.4428 31.7633L36.6147 20.174C36.2381 19.942 35.763 19.942 35.3861 20.174L16.5579 31.7633C16.1115 32.0383 15.9021 32.576 16.0449 33.0804C16.1878 33.5849 16.6483 33.9331 17.1723 33.9331V33.9331ZM35.2039 26.8927H36.7972C37.4445 26.8927 37.9691 27.4173 37.9691 28.0646C37.9691 28.7119 37.4445 29.2365 36.7972 29.2365H35.2039C34.5566 29.2365 34.032 28.7119 34.032 28.0646C34.032 27.4173 34.5566 26.8927 35.2039 26.8927V26.8927Z" fill="white"/>
</g>
<g clip-path="url(#clip1_933_524)">
<path d="M64.7996 46.8263C69.7192 50.0382 71.3524 56.6196 68.3673 61.7571L66.2871 65.3372L66.7389 61.611C66.9841 57.7014 65.1038 54.018 61.8559 51.8925L59.475 55.9901L55.2076 44.6234L67.1819 42.7261L64.7996 46.8263Z" fill="white"/>
</g>
<defs>
<linearGradient id="paint0_linear_933_524" x1="81.25" y1="-3.5" x2="-5.25" y2="81.5" gradientUnits="userSpaceOnUse">
<stop stop-color="#D26B75"/>
<stop offset="1" stop-color="#B83F4B"/>
</linearGradient>
<clipPath id="clip0_933_524">
<rect width="40" height="40" fill="white" transform="translate(16 20)"/>
</clipPath>
<clipPath id="clip1_933_524">
<rect width="20" height="20" fill="white" transform="matrix(-0.86464 -0.502392 -0.502392 0.86464 76.3408 48.0479)"/>
</clipPath>
</defs>
</svg>
