<svg width="80" height="80" viewBox="0 0 80 80" fill="none" xmlns="http://www.w3.org/2000/svg">
<rect width="80" height="80" rx="16" fill="url(#paint0_linear_933_524)"/>
<g clip-path="url(#clip0_933_524)">
<path d="M50.9707 39.1761H55.6579V50.3993H50.9707V39.1761Z" fill="white"/>
<path d="M42.0942 39.1761H46.7817V50.3993H42.0942V39.1761Z" fill="white"/>
<path d="M33.2183 39.1761H37.9058V50.3993H33.2183V39.1761Z" fill="white"/>
<path d="M24.3418 39.1761H29.029V50.3993H24.3418V39.1761Z" fill="white"/>
<path d="M57.2205 35.6605V34.4886H22.7793V35.6605C22.7793 36.3078 23.3039 36.8324 23.9512 36.8324H56.0486C56.6956 36.8324 57.2205 36.3078 57.2205 35.6605Z" fill="white"/>
<path d="M58.8273 52.743H21.1729C20.5256 52.743 20.001 53.2676 20.001 53.9149V57.0399C20.001 57.6872 20.5256 58.2118 21.1729 58.2118H58.8273C59.4745 58.2118 59.9991 57.6872 59.9991 57.0399V53.9149C59.9991 53.2676 59.4745 52.743 58.8273 52.743Z" fill="white"/>
<path d="M21.1718 32.1449H58.828C59.3523 32.1449 59.8128 31.7967 59.9556 31.2922C60.0982 30.7878 59.8888 30.2498 59.4423 29.9751L40.6142 18.3857C40.2376 18.1538 39.7625 18.1538 39.3856 18.3857L20.5575 29.9751C20.111 30.2501 19.9016 30.7878 20.0445 31.2922C20.1873 31.7967 20.6478 32.1449 21.1718 32.1449V32.1449ZM39.2034 25.1045H40.7967C41.444 25.1045 41.9686 25.6291 41.9686 26.2764C41.9686 26.9236 41.444 27.4482 40.7967 27.4482H39.2034C38.5561 27.4482 38.0315 26.9236 38.0315 26.2764C38.0315 25.6291 38.5561 25.1045 39.2034 25.1045V25.1045Z" fill="white"/>
</g>
<defs>
<linearGradient id="paint0_linear_933_524" x1="81.25" y1="-3.5" x2="-5.25" y2="81.5" gradientUnits="userSpaceOnUse">
<stop stop-color="#D26B75"/>
<stop offset="1" stop-color="#B83F4B"/>
</linearGradient>
<clipPath id="clip0_933_524">
<rect width="40" height="40" fill="white" transform="translate(20 18.2118)"/>
</clipPath>
</defs>
</svg>
