<svg width="80" height="80" viewBox="0 0 80 80" fill="none" xmlns="http://www.w3.org/2000/svg">
<rect width="80" height="80" rx="24" fill="url(#paint0_linear_860_1247)"/>
<path d="M34.1935 20.4024C23.0462 23.3793 16.4255 34.8284 19.4024 45.9756C22.3792 57.1229 33.8284 63.7436 44.9756 60.7667C56.1163 57.7715 62.7311 46.3257 59.7625 35.1779C56.7779 24.0395 45.3344 17.4273 34.1935 20.4024ZM44.0759 57.409C34.7865 59.8981 25.2378 54.3851 22.7488 45.0957C20.2597 35.8064 25.7726 26.2577 35.062 23.7686C44.3507 21.2898 53.8914 26.7981 56.389 36.0818C58.8781 45.3712 53.3652 54.9199 44.0759 57.409Z" fill="#831515"/>
<path fill-rule="evenodd" clip-rule="evenodd" d="M40 68.0001C55.4639 68.0001 68 55.464 68 40.0001C68 24.5361 55.4639 12.0001 40 12.0001C24.536 12.0001 12 24.5361 12 40.0001C12 55.464 24.536 68.0001 40 68.0001ZM47.5913 31.6008C48.4768 33.5575 48.0462 35.86 46.5109 37.3639C48.9654 37.2984 51.1546 38.8967 51.8376 41.2532C52.9144 45.2716 51.6958 48.7611 45.6681 50.3762L45.0402 50.5445L46.3301 55.3583L43.4627 56.1266L42.1728 51.3128L40.2054 51.8399L41.4953 56.6538L38.5442 57.4445L37.2544 52.6307L31.5615 54.1561L30.7315 51.0585L32.9709 50.4584C33.5569 50.3014 34.0114 49.8206 33.7198 48.7324L30.2259 35.6931C30.0128 34.8978 29.453 34.7338 28.4693 34.9974L26.2716 35.5862L25.4585 32.5514L31.3607 30.9699L30.0989 26.2607L33.0291 25.4756L34.2909 30.1848L36.2582 29.6576L34.9964 24.9484L37.9266 24.1633L39.1996 28.9143C42.239 28.369 46.3259 28.5527 47.5913 31.6008ZM37.2474 32.8472L35.1544 33.408L36.6966 39.1636L40.5686 38.1261C42.0626 37.515 42.8251 35.8481 42.3074 34.3178C41.6681 31.9319 38.7124 32.4546 37.2474 32.8472ZM42.4307 47.5871L42.4363 47.608C45.5758 46.7668 46.7922 45.0276 46.1641 42.6835C45.536 40.3394 42.1506 40.9324 41.2716 41.168L37.5042 42.1774L39.1866 48.4564L42.4307 47.5871Z" fill="white"/>
<defs>
<linearGradient id="paint0_linear_860_1247" x1="81.25" y1="-3.5" x2="-5.25" y2="81.5" gradientUnits="userSpaceOnUse">
<stop stop-color="#7FDA83"/>
<stop offset="1" stop-color="#00A861"/>
</linearGradient>
</defs>
</svg>
