<svg width="80" height="80" viewBox="0 0 80 80" fill="none" xmlns="http://www.w3.org/2000/svg">
<rect width="80" height="80" rx="16" fill="url(#paint0_linear_933_461)"/>
<path d="M55.9367 35.1793C56.6865 30.1664 52.8708 27.4716 47.6534 25.6738L49.3459 18.8832L45.2136 17.8531L43.5659 24.4648C42.4796 24.194 41.3638 23.9385 40.2552 23.6854L41.9147 17.0301L37.7848 16L36.0911 22.7883C35.192 22.5834 34.3093 22.3809 33.4524 22.1679L33.4572 22.1467L27.7584 20.7233L26.6591 25.1382C26.6591 25.1382 29.7251 25.841 29.6603 25.8846C31.334 26.3025 31.6364 27.4104 31.5858 28.2886L29.658 36.0246C29.7733 36.0541 29.9228 36.0965 30.0876 36.1624C29.9499 36.1282 29.8027 36.0906 29.6509 36.0541L26.9487 46.8911C26.7439 47.3997 26.2248 48.1626 25.055 47.873C25.0962 47.933 22.0514 47.123 22.0514 47.123L20 51.8546L25.3774 53.1955C26.3778 53.4463 27.3582 53.7088 28.3233 53.956L26.6132 60.8244L30.7408 61.8545L32.4344 55.0592C33.5619 55.3653 34.6565 55.6478 35.7275 55.9139L34.0397 62.6775L38.172 63.7076L39.8821 56.8522C46.9284 58.1861 52.227 57.648 54.4573 51.273C56.2545 46.14 54.3679 43.1791 50.6605 41.2483C53.3604 40.6255 55.3942 38.849 55.9367 35.1793V35.1793ZM46.4953 48.4228C45.2183 53.5558 36.5784 50.7809 33.7773 50.0851L36.0464 40.9858C38.8475 41.6851 47.83 43.0696 46.4953 48.4228ZM47.7735 35.1052C46.6083 39.7743 39.4172 37.4021 37.0845 36.8205L39.1418 28.5676C41.4745 29.1492 48.9869 30.2347 47.7735 35.1052V35.1052Z" fill="white"/>
<defs>
<linearGradient id="paint0_linear_933_461" x1="81.25" y1="-3.5" x2="-5.25" y2="81.5" gradientUnits="userSpaceOnUse">
<stop stop-color="#FF9800"/>
<stop offset="1" stop-color="#EF6C00"/>
</linearGradient>
</defs>
</svg>
