<svg width="80" height="80" viewBox="0 0 80 80" fill="none" xmlns="http://www.w3.org/2000/svg">
<rect width="80" height="80" rx="24" fill="url(#paint0_linear_492_2352)"/>
<path d="M34.1936 20.4024C23.0464 23.3792 16.4257 34.8284 19.4025 45.9756C22.3793 57.1228 33.8285 63.7435 44.9757 60.7667C56.1164 57.7715 62.7312 46.3257 59.7626 35.1779C56.7781 24.0394 45.3346 17.4272 34.1936 20.4024ZM44.076 57.4089C34.7866 59.898 25.238 54.385 22.7489 45.0957C20.2598 35.8063 25.7727 26.2576 35.0621 23.7686C44.3508 21.2897 53.8916 26.7981 56.3892 36.0818C58.8782 45.3711 53.3653 54.9199 44.076 57.4089Z" fill="#831515"/>
<g filter="url(#filter0_d_492_2352)">
<path fill-rule="evenodd" clip-rule="evenodd" d="M40.0001 68.0001C55.4641 68.0001 68.0001 55.464 68.0001 40.0001C68.0001 24.5361 55.4641 12.0001 40.0001 12.0001C24.5361 12.0001 12.0001 24.5361 12.0001 40.0001C12.0001 55.464 24.5361 68.0001 40.0001 68.0001ZM47.5915 31.6008C48.4769 33.5575 48.0463 35.86 46.511 37.3639C48.9655 37.2984 51.1547 38.8967 51.8377 41.2532C52.9145 45.2716 51.6959 48.7611 45.6682 50.3762L45.0403 50.5445L46.3302 55.3583L43.4628 56.1266L42.1729 51.3128L40.2056 51.8399L41.4954 56.6538L38.5444 57.4445L37.2545 52.6307L31.5616 54.1561L30.7316 51.0585L32.971 50.4584C33.5571 50.3014 34.0115 49.8206 33.7199 48.7324L30.2261 35.6931C30.013 34.8978 29.4531 34.7338 28.4694 34.9974L26.2718 35.5862L25.4586 32.5514L31.3608 30.9699L30.099 26.2607L33.0292 25.4756L34.291 30.1848L36.2583 29.6576L34.9965 24.9484L37.9267 24.1633L39.1997 28.9143C42.2391 28.369 46.326 28.5527 47.5915 31.6008ZM37.2475 32.8472L35.1545 33.408L36.6968 39.1636L40.5687 38.1261C42.0627 37.515 42.8252 35.8481 42.3075 34.3178C41.6682 31.9319 38.7126 32.4546 37.2475 32.8472ZM42.4308 47.5871L42.4364 47.608C45.576 46.7668 46.7923 45.0276 46.1642 42.6835C45.5361 40.3394 42.1507 40.9324 41.2717 41.168L37.5043 42.1774L39.1867 48.4564L42.4308 47.5871Z" fill="white"/>
</g>
<defs>
<filter id="filter0_d_492_2352" x="3" y="5.00012" width="74" height="74" filterUnits="userSpaceOnUse" color-interpolation-filters="sRGB">
<feFlood flood-opacity="0" result="BackgroundImageFix"/>
<feColorMatrix in="SourceAlpha" type="matrix" values="0 0 0 0 0 0 0 0 0 0 0 0 0 0 0 0 0 0 127 0" result="hardAlpha"/>
<feOffset dy="2"/>
<feGaussianBlur stdDeviation="4.5"/>
<feComposite in2="hardAlpha" operator="out"/>
<feColorMatrix type="matrix" values="0 0 0 0 0 0 0 0 0 0 0 0 0 0 0 0 0 0 0.15 0"/>
<feBlend mode="normal" in2="BackgroundImageFix" result="effect1_dropShadow_492_2352"/>
<feBlend mode="normal" in="SourceGraphic" in2="effect1_dropShadow_492_2352" result="shape"/>
</filter>
<linearGradient id="paint0_linear_492_2352" x1="81.25" y1="-3.5" x2="-5.25" y2="81.5" gradientUnits="userSpaceOnUse">
<stop stop-color="#7FDA83"/>
<stop offset="1" stop-color="#00A861"/>
</linearGradient>
</defs>
</svg>
