<svg width="81" height="81" viewBox="0 0 81 81" fill="none" xmlns="http://www.w3.org/2000/svg">
<rect x="0.5" y="0.246094" width="80" height="80" rx="16" fill="url(#paint0_linear_933_279)"/>
<path d="M36.4704 23.5885L29.9575 15.1402L30.1553 34.7938L36.4704 23.5885Z" fill="#FF9500"/>
<path d="M36.4348 23.5291L59.5302 20.7095L30.0947 34.8139L36.4348 23.5291Z" fill="#F07326"/>
<path d="M30.1628 34.7763L29.9562 15.1284L21.6733 31.3575L30.1628 34.7763Z" fill="#46AF86"/>
<path d="M30.1721 34.7581L21.6573 31.3017L17.1089 56.0409L30.1721 34.7581Z" fill="#2A794E"/>
<path d="M45.5115 37.2748L59.5024 20.7235L30.1265 34.7763L45.5115 37.2748Z" fill="#37CEFF"/>
<path d="M47.1587 65.3638L59.5235 20.7026L45.3428 36.9366L47.1587 65.3638Z" fill="#409FD9"/>
<path d="M45.383 36.8844L30.1538 34.7763L47.162 65.3002L45.383 36.8844Z" fill="#4E76BA"/>
<path d="M63.9384 55.8626L59.5163 20.7026L58.3516 47.7788L63.9384 55.8626Z" fill="#E861AD"/>
<path d="M58.2688 47.568L47.1553 65.3455L63.9394 55.8719L58.2688 47.568Z" fill="#C23B88"/>
<path d="M58.3727 47.7788L59.5165 20.6956L47.1587 65.3364L58.3727 47.7788Z" fill="#F18EC7"/>
<path d="M47.147 65.3302C47.8233 65.8712 36.1747 44.9311 30.1447 34.7308L28.436 47.5877C34.466 53.3359 46.4707 64.7892 47.147 65.3302Z" fill="#FF835D"/>
<path d="M47.147 65.3302L28.4183 47.3921L17.0605 56.013L47.147 65.3302Z" fill="#DF463B"/>
<path d="M28.555 47.5289L30.1627 34.7581L17.1177 56.0168L28.555 47.5289Z" fill="#E16961"/>
<path d="M59.5441 20.7064L29.9775 15.1562L36.4469 23.5647L59.5441 20.7064Z" fill="#F9DA7A"/>
<mask id="mask0_933_279" style="mask-type:alpha" maskUnits="userSpaceOnUse" x="0" y="0" width="81" height="81">
<rect x="0.5" y="0.246094" width="80" height="80" rx="16" fill="url(#paint1_linear_933_279)"/>
</mask>
<g mask="url(#mask0_933_279)">
<circle cx="66.5" cy="66.2461" r="17" fill="#FFD600"/>
<circle cx="66.5007" cy="66.2461" r="14.6818" fill="#FFC702"/>
<path d="M65.9222 75.8008H68.3807V73.9951C69.6865 73.7979 70.727 73.298 71.5023 72.4955C72.2844 71.693 72.6755 70.6933 72.6755 69.4963C72.6755 68.4626 72.3933 67.6329 71.8288 67.0072C71.2711 66.3747 70.3564 65.8715 69.0846 65.4974L66.4425 64.7323C65.742 64.5283 65.2285 64.2868 64.9021 64.008C64.5824 63.7224 64.4226 63.3755 64.4226 62.9675C64.4226 62.4234 64.6742 61.9711 65.1775 61.6107C65.6808 61.2502 66.303 61.0768 67.0443 61.0904C67.8196 61.1108 68.4793 61.3455 69.0234 61.7943C69.5743 62.2364 69.9211 62.8213 70.0639 63.5489L72.5837 63.0899C72.3184 61.9541 71.822 61.0292 71.0943 60.3151C70.3734 59.601 69.4689 59.1386 68.3807 58.9277V57.0609H65.9222V58.8767C64.7048 59.0535 63.7425 59.516 63.0352 60.2641C62.3347 61.0054 61.9845 61.9473 61.9845 63.0899C61.9845 64.9601 63.0148 66.2115 65.0755 66.844L68.6154 67.9457C69.1866 68.1226 69.6015 68.347 69.8599 68.619C70.1184 68.8911 70.2476 69.2379 70.2476 69.6596C70.2476 70.2648 69.9755 70.7681 69.4315 71.1694C68.8874 71.5706 68.1937 71.7712 67.3504 71.7712C66.4731 71.7712 65.7216 71.5264 65.0959 71.0367C64.4702 70.5471 64.0587 69.8806 63.8615 69.0373L61.4336 69.4249C61.624 70.6423 62.1171 71.6488 62.9128 72.4445C63.7085 73.2402 64.7116 73.7469 65.9222 73.9645V75.8008Z" fill="white"/>
</g>
<defs>
<linearGradient id="paint0_linear_933_279" x1="80.5" y1="-8.75391" x2="0.499999" y2="84.4961" gradientUnits="userSpaceOnUse">
<stop stop-color="#1481E6"/>
<stop offset="1" stop-color="#0266C1"/>
</linearGradient>
<linearGradient id="paint1_linear_933_279" x1="80.5" y1="-8.75391" x2="0.499999" y2="84.4961" gradientUnits="userSpaceOnUse">
<stop stop-color="#FF8844"/>
<stop offset="1" stop-color="#FF5D00"/>
</linearGradient>
</defs>
</svg>
