<svg width="81" height="81" viewBox="0 0 81 81" fill="none" xmlns="http://www.w3.org/2000/svg">
<rect x="0.5" y="0.246094" width="80" height="80" rx="24" fill="url(#paint0_linear_873_177)"/>
<path d="M36.4704 23.5885L29.9575 15.1402L30.1553 34.7938L36.4704 23.5885Z" fill="#FF9500"/>
<path d="M36.4348 23.5291L59.5302 20.7095L30.0947 34.8139L36.4348 23.5291Z" fill="#F07326"/>
<path d="M30.1628 34.7763L29.9562 15.1284L21.6733 31.3575L30.1628 34.7763Z" fill="#46AF86"/>
<path d="M30.1719 34.7581L21.6572 31.3017L17.1088 56.0409L30.1719 34.7581Z" fill="#2A794E"/>
<path d="M45.5112 37.2748L59.5021 20.7235L30.1262 34.7763L45.5112 37.2748Z" fill="#37CEFF"/>
<path d="M47.1584 65.3638L59.5233 20.7026L45.3425 36.9366L47.1584 65.3638Z" fill="#409FD9"/>
<path d="M45.3829 36.8844L30.1537 34.7763L47.1619 65.3002L45.3829 36.8844Z" fill="#4E76BA"/>
<path d="M63.9383 55.8626L59.5162 20.7026L58.3514 47.7788L63.9383 55.8626Z" fill="#E861AD"/>
<path d="M58.2689 47.568L47.1554 65.3455L63.9395 55.8719L58.2689 47.568Z" fill="#C23B88"/>
<path d="M58.3723 47.7788L59.5162 20.6956L47.1583 65.3364L58.3723 47.7788Z" fill="#F18EC7"/>
<path d="M47.1468 65.3302C47.8231 65.8712 36.1746 44.9311 30.1446 34.7308L28.4359 47.5877C34.4659 53.3359 46.4706 64.7892 47.1468 65.3302Z" fill="#FF835D"/>
<path d="M47.1469 65.3302L28.4182 47.3921L17.0604 56.013L47.1469 65.3302Z" fill="#DF463B"/>
<path d="M28.555 47.5289L30.1627 34.7581L17.1177 56.0168L28.555 47.5289Z" fill="#E16961"/>
<path d="M59.5438 20.7064L29.9773 15.1562L36.4467 23.5647L59.5438 20.7064Z" fill="#F9DA7A"/>
<mask id="mask0_873_177" style="mask-type:alpha" maskUnits="userSpaceOnUse" x="0" y="0" width="81" height="81">
<rect x="0.5" y="0.246094" width="80" height="80" rx="24" fill="url(#paint1_linear_873_177)"/>
</mask>
<g mask="url(#mask0_873_177)">
<circle cx="64.7502" cy="64.4961" r="15.25" fill="#FFD600"/>
<circle cx="64.7507" cy="64.4961" r="13.1705" fill="#FFC702"/>
<path d="M64.2319 73.0672H66.4373V71.4475C67.6087 71.2705 68.5421 70.8221 69.2376 70.1022C69.9392 69.3823 70.29 68.4855 70.29 67.4118C70.29 66.4844 70.0368 65.7401 69.5304 65.1789C69.0301 64.6115 68.2096 64.16 67.0687 63.8245L64.6986 63.1381C64.0702 62.9551 63.6096 62.7385 63.3167 62.4884C63.03 62.2322 62.8866 61.921 62.8866 61.555C62.8866 61.0669 63.1124 60.6612 63.5638 60.3379C64.0153 60.0145 64.5735 59.859 65.2385 59.8712C65.934 59.8895 66.5258 60.0999 67.0138 60.5026C67.508 60.8991 67.8191 61.4238 67.9473 62.0766L70.2076 61.6648C69.9697 60.646 69.5243 59.8162 68.8715 59.1757C68.2248 58.5351 67.4134 58.1202 66.4373 57.9311V56.2564H64.2319V57.8853C63.1398 58.044 62.2765 58.4588 61.6421 59.1299C61.0137 59.7949 60.6995 60.6399 60.6995 61.6648C60.6995 63.3425 61.6238 64.4651 63.4723 65.0324L66.6478 66.0208C67.1603 66.1794 67.5324 66.3807 67.7642 66.6248C67.9961 66.8688 68.112 67.1799 68.112 67.5582C68.112 68.1012 67.8679 68.5526 67.3799 68.9126C66.8918 69.2725 66.2695 69.4525 65.513 69.4525C64.726 69.4525 64.0519 69.2329 63.4906 68.7936C62.9293 68.3543 62.5602 67.7565 62.3833 67L60.2053 67.3477C60.3761 68.4397 60.8185 69.3427 61.5322 70.0565C62.246 70.7703 63.1459 71.2248 64.2319 71.42V73.0672Z" fill="white"/>
</g>
<defs>
<linearGradient id="paint0_linear_873_177" x1="80.5" y1="-8.75391" x2="0.499999" y2="84.4961" gradientUnits="userSpaceOnUse">
<stop stop-color="#1481E6"/>
<stop offset="1" stop-color="#0266C1"/>
</linearGradient>
<linearGradient id="paint1_linear_873_177" x1="80.5" y1="-8.75391" x2="0.499999" y2="84.4961" gradientUnits="userSpaceOnUse">
<stop stop-color="#FF8844"/>
<stop offset="1" stop-color="#FF5D00"/>
</linearGradient>
</defs>
</svg>
