<svg width="81" height="81" viewBox="0 0 81 81" fill="none" xmlns="http://www.w3.org/2000/svg">
<rect x="0.5" y="0.246094" width="80" height="80" rx="24" fill="url(#paint0_linear_492_2202)"/>
<path fill-rule="evenodd" clip-rule="evenodd" d="M40.5 12.2461C25.0359 12.2461 12.5 24.7821 12.5 40.2461C12.5 55.7101 25.0359 68.2461 40.5 68.2461C55.9641 68.2461 68.5 55.7101 68.5 40.2461C68.5 24.7821 55.9641 12.2461 40.5 12.2461ZM40.5 35.3765C37.8105 35.3765 35.6304 37.5567 35.6304 40.2461C35.6304 42.9355 37.8105 45.1157 40.5 45.1157C43.1895 45.1157 45.3696 42.9355 45.3696 40.2461C45.3696 37.5567 43.1895 35.3765 40.5 35.3765Z" fill="url(#paint1_angular_492_2202)"/>
<mask id="mask0_492_2202" style="mask-type:alpha" maskUnits="userSpaceOnUse" x="0" y="0" width="81" height="81">
<rect x="0.5" y="0.246094" width="80" height="80" rx="24" fill="url(#paint2_linear_492_2202)"/>
</mask>
<g mask="url(#mask0_492_2202)">
<g filter="url(#filter0_d_492_2202)">
<circle cx="64.75" cy="64.4961" r="15.25" fill="#FFD600"/>
<g filter="url(#filter1_i_492_2202)">
<circle cx="64.7505" cy="64.4961" r="13.1705" fill="#FFC702"/>
</g>
<path d="M64.2316 73.0671H66.4371V71.4474C67.6084 71.2705 68.5418 70.822 69.2373 70.1021C69.9389 69.3822 70.2897 68.4854 70.2897 67.4117C70.2897 66.4844 70.0365 65.7401 69.5302 65.1788C69.0299 64.6114 68.2093 64.16 67.0685 63.8244L64.6983 63.1381C64.0699 62.955 63.6093 62.7385 63.3165 62.4883C63.0298 62.2321 62.8864 61.921 62.8864 61.5549C62.8864 61.0668 63.1121 60.6611 63.5636 60.3378C64.015 60.0144 64.5733 59.8589 65.2382 59.8711C65.9337 59.8894 66.5255 60.0999 67.0136 60.5025C67.5078 60.8991 67.8189 61.4237 67.947 62.0765L70.2074 61.6647C69.9694 60.6459 69.5241 59.8162 68.8713 59.1756C68.2246 58.535 67.4132 58.1201 66.4371 57.931V56.2563H64.2316V57.8853C63.1396 58.0439 62.2763 58.4587 61.6418 59.1298C61.0134 59.7948 60.6992 60.6398 60.6992 61.6647C60.6992 63.3424 61.6235 64.465 63.4721 65.0324L66.6475 66.0207C67.16 66.1793 67.5322 66.3806 67.764 66.6247C67.9958 66.8687 68.1117 67.1799 68.1117 67.5581C68.1117 68.1011 67.8677 68.5525 67.3796 68.9125C66.8916 69.2724 66.2693 69.4524 65.5128 69.4524C64.7258 69.4524 64.0516 69.2328 63.4904 68.7935C62.9291 68.3543 62.56 67.7564 62.3831 66.9999L60.2051 67.3476C60.3759 68.4397 60.8182 69.3426 61.532 70.0564C62.2458 70.7702 63.1457 71.2247 64.2316 71.4199V73.0671Z" fill="white"/>
</g>
</g>
<defs>
<filter id="filter0_d_492_2202" x="31" y="32.7461" width="67.5" height="67.5" filterUnits="userSpaceOnUse" color-interpolation-filters="sRGB">
<feFlood flood-opacity="0" result="BackgroundImageFix"/>
<feColorMatrix in="SourceAlpha" type="matrix" values="0 0 0 0 0 0 0 0 0 0 0 0 0 0 0 0 0 0 127 0" result="hardAlpha"/>
<feOffset dy="2"/>
<feGaussianBlur stdDeviation="9.25"/>
<feComposite in2="hardAlpha" operator="out"/>
<feColorMatrix type="matrix" values="0 0 0 0 1 0 0 0 0 0.780392 0 0 0 0 0 0 0 0 1 0"/>
<feBlend mode="normal" in2="BackgroundImageFix" result="effect1_dropShadow_492_2202"/>
<feBlend mode="normal" in="SourceGraphic" in2="effect1_dropShadow_492_2202" result="shape"/>
</filter>
<filter id="filter1_i_492_2202" x="51.5801" y="51.3257" width="26.3408" height="26.3408" filterUnits="userSpaceOnUse" color-interpolation-filters="sRGB">
<feFlood flood-opacity="0" result="BackgroundImageFix"/>
<feBlend mode="normal" in="SourceGraphic" in2="BackgroundImageFix" result="shape"/>
<feColorMatrix in="SourceAlpha" type="matrix" values="0 0 0 0 0 0 0 0 0 0 0 0 0 0 0 0 0 0 127 0" result="hardAlpha"/>
<feOffset/>
<feGaussianBlur stdDeviation="1.15909"/>
<feComposite in2="hardAlpha" operator="arithmetic" k2="-1" k3="1"/>
<feColorMatrix type="matrix" values="0 0 0 0 0 0 0 0 0 0 0 0 0 0 0 0 0 0 0.09 0"/>
<feBlend mode="normal" in2="shape" result="effect1_innerShadow_492_2202"/>
</filter>
<linearGradient id="paint0_linear_492_2202" x1="80.5" y1="-8.75391" x2="0.499999" y2="84.4961" gradientUnits="userSpaceOnUse">
<stop stop-color="#FF8844"/>
<stop offset="1" stop-color="#FF5D00"/>
</linearGradient>
<radialGradient id="paint1_angular_492_2202" cx="0" cy="0" r="1" gradientUnits="userSpaceOnUse" gradientTransform="translate(40.5 40.2461) rotate(-90) scale(28)">
<stop stop-color="white"/>
<stop offset="1" stop-color="white" stop-opacity="0.2"/>
</radialGradient>
<linearGradient id="paint2_linear_492_2202" x1="80.5" y1="-8.75391" x2="0.499999" y2="84.4961" gradientUnits="userSpaceOnUse">
<stop stop-color="#FF8844"/>
<stop offset="1" stop-color="#FF5D00"/>
</linearGradient>
</defs>
</svg>
