<svg width="81" height="81" viewBox="0 0 81 81" fill="none" xmlns="http://www.w3.org/2000/svg">
<rect x="0.462402" y="0.246094" width="80" height="80" rx="16" fill="url(#paint0_linear_934_581)"/>
<g clip-path="url(#clip0_934_581)">
<path d="M63.7481 33.9118C63.5731 33.7238 63.3208 33.6269 63.064 33.6269H60.2447C59.1062 28.9157 56.4441 24.6463 52.6843 21.5325C48.6545 18.1954 43.5496 16.3564 38.3085 16.3536C38.2222 16.3536 38.1351 16.3721 38.0616 16.4173C37.8632 16.5395 37.7921 16.7736 37.8671 16.9737L40.3838 23.6902C40.4509 23.8695 40.6222 23.9882 40.8136 23.9882C46.765 23.9882 51.9798 27.9841 53.5873 33.6269H51.1666C50.9097 33.6269 50.6575 33.7238 50.4825 33.9118C50.1525 34.2661 50.1542 34.7855 50.4433 35.1324L56.4101 42.2926C56.5845 42.5019 56.8429 42.623 57.1153 42.623C57.3878 42.623 57.6461 42.502 57.8206 42.2926L63.7874 35.1324C64.0764 34.7855 64.0779 34.2661 63.7481 33.9118V33.9118Z" fill="#AECAFF"/>
<path d="M37.8379 37.9259C43.4147 37.9259 47.9355 33.405 47.9355 27.8282C47.9355 22.2515 43.4147 17.7306 37.8379 17.7306C32.2611 17.7306 27.7402 22.2515 27.7402 27.8282C27.7402 33.405 32.2611 37.9259 37.8379 37.9259Z" fill="#FFEE78"/>
<path d="M47.9355 27.8282C47.9355 22.2515 43.4146 17.7306 37.8379 17.7306V37.9259C43.4146 37.9259 47.9355 33.405 47.9355 27.8282Z" fill="#FCD232"/>
<path d="M37.8379 39.3029C31.5108 39.3029 26.3633 34.1553 26.3633 27.8282C26.3633 21.5011 31.5108 16.3536 37.8379 16.3536C44.165 16.3536 49.3125 21.5011 49.3125 27.8282C49.3125 34.1553 44.165 39.3029 37.8379 39.3029ZM37.8379 19.1075C33.0293 19.1075 29.1172 23.0197 29.1172 27.8282C29.1172 32.6368 33.0293 36.549 37.8379 36.549C42.6465 36.549 46.5586 32.6368 46.5586 27.8282C46.5586 23.0197 42.6465 19.1075 37.8379 19.1075Z" fill="#FCD232"/>
<path d="M46.5586 27.8282C46.5586 32.6368 42.6465 36.549 37.8379 36.549V39.3029C44.165 39.3029 49.3125 34.1553 49.3125 27.8282C49.3125 21.5011 44.165 16.3536 37.8379 16.3536V19.1075C42.6465 19.1075 46.5586 23.0197 46.5586 27.8282Z" fill="#F7B90F"/>
<path d="M41.5098 30.1232C41.5098 28.0985 39.8626 26.4513 37.8379 26.4513C37.3317 26.4513 36.9199 26.0395 36.9199 25.5333C36.9199 25.0272 37.3317 24.6154 37.8379 24.6154C38.2726 24.6154 38.6508 24.9236 38.7371 25.3484C38.8884 26.0936 39.6157 26.575 40.3607 26.4238C41.1059 26.2724 41.5873 25.5455 41.4361 24.8002C41.1863 23.5705 40.3276 22.5846 39.2148 22.1315V21.8615C39.2148 21.101 38.5983 20.4845 37.8379 20.4845C37.0774 20.4845 36.4609 21.101 36.4609 21.8615V22.1303C35.1168 22.6762 34.166 23.9955 34.166 25.5333C34.166 27.558 35.8132 29.2052 37.8379 29.2052C38.3441 29.2052 38.7559 29.617 38.7559 30.1232C38.7559 30.6293 38.3441 31.0411 37.8379 31.0411C37.4031 31.0411 37.0249 30.7329 36.9386 30.3081C36.7874 29.5629 36.0606 29.0816 35.3151 29.2327C34.5698 29.3841 34.0884 30.111 34.2397 30.8563C34.4895 32.086 35.3482 33.072 36.4608 33.5251V33.795C36.4608 34.5555 37.0774 35.172 37.8378 35.172C38.5982 35.172 39.2148 34.5555 39.2148 33.795V33.5262C40.559 32.9803 41.5098 31.661 41.5098 30.1232Z" fill="#FCD232"/>
<path d="M37.8379 26.4513V29.2052C38.3441 29.2052 38.7559 29.617 38.7559 30.1232C38.7559 30.6293 38.3441 31.0411 37.8379 31.0411V35.172C38.5983 35.172 39.2148 34.5555 39.2148 33.795V33.5262C40.559 32.9803 41.5098 31.661 41.5098 30.1232C41.5098 28.0985 39.8626 26.4513 37.8379 26.4513Z" fill="#F7B90F"/>
<path d="M38.7371 25.3484C38.8884 26.0936 39.6157 26.575 40.3607 26.4238C41.1059 26.2724 41.5873 25.5455 41.4361 24.8002C41.1863 23.5705 40.3276 22.5846 39.2148 22.1315V21.8615C39.2148 21.101 38.5983 20.4845 37.8379 20.4845V24.6154C38.2726 24.6154 38.6508 24.9236 38.7371 25.3484Z" fill="#F7B90F"/>
<path d="M63.4186 48.5694C62.4009 47.1159 60.3975 46.7626 58.944 47.7804L49.0948 54.6769C48.7089 54.9471 48.2494 55.0919 47.7785 55.0919H40.5V61.5177H48.3573C49.7702 61.5177 51.1488 61.083 52.3062 60.2726L62.6296 53.044C64.0832 52.0263 64.4365 50.0229 63.4186 48.5694V48.5694Z" fill="#FABE8C"/>
<path d="M49.0948 54.6769C48.7089 54.9471 48.2494 55.0919 47.7785 55.0919L40.5 54.5275V57.8458H47.9355C51.2256 57.8458 53.9023 55.1691 53.9023 51.879C53.9023 51.6935 53.8926 51.5103 53.876 51.3291L49.0948 54.6769Z" fill="#E6A578"/>
<path d="M63.4186 48.5694C62.4009 47.1159 60.3975 46.7626 58.944 47.7804L50.6605 53.5806C50.9693 53.087 51.1484 52.5041 51.1484 51.879C51.1484 50.1046 49.71 48.6661 47.9355 48.6661H40.1328L39.2347 47.9925C37.446 46.651 35.2297 45.9122 32.9938 45.9122C31.1089 45.9122 29.2585 46.4247 27.6423 47.3945C27.6423 47.3945 26.111 48.3133 25.1957 48.8624C24.781 49.1113 24.5273 49.5594 24.5273 50.0431V60.1407C24.5273 60.9012 25.1439 61.5177 25.9043 61.5177H48.3573C49.7702 61.5177 51.1488 61.083 52.3062 60.2726L62.6296 53.044C64.0832 52.0263 64.4365 50.0229 63.4186 48.5694V48.5694Z" fill="#FFD2AA"/>
<path d="M40.5 61.5177H48.3573C49.7702 61.5177 51.1488 61.083 52.3062 60.2726L62.6296 53.044C64.0831 52.0263 64.4363 50.0229 63.4186 48.5694C62.4008 47.1159 60.3974 46.7626 58.9439 47.7804L50.6604 53.5806C50.9693 53.087 51.1484 52.5041 51.1484 51.879C51.1484 50.1046 49.71 48.6661 47.9355 48.6661H40.5V61.5177Z" fill="#FABE8C"/>
<path d="M53.876 51.3291L50.6605 53.5806C50.6406 53.6124 50.6207 53.6444 50.5997 53.6754C50.0224 54.53 49.0445 55.0919 47.9355 55.0919H38.2969C37.5364 55.0919 36.9199 55.7084 36.9199 56.4689C36.9199 57.2293 37.5364 57.8458 38.2969 57.8458H47.9355C51.2256 57.8458 53.9023 55.1691 53.9023 51.879C53.9023 51.6935 53.8926 51.5103 53.876 51.3291Z" fill="#FABE8C"/>
<path d="M25.9043 63.3536H18.377C17.6165 63.3536 17 62.7371 17 61.9767V46.3712C17 45.6108 17.6165 44.9943 18.377 44.9943H25.9043C26.6647 44.9943 27.2812 45.6108 27.2812 46.3712V61.9767C27.2812 62.7371 26.6647 63.3536 25.9043 63.3536Z" fill="#6496F7"/>
<path d="M53.876 51.3291L50.6605 53.5806C50.6406 53.6124 50.6207 53.6444 50.5997 53.6754C50.0224 54.53 49.0445 55.0919 47.9355 55.0919H40.5V57.8458H47.9355C51.2256 57.8458 53.9023 55.1691 53.9023 51.879C53.9023 51.6935 53.8926 51.5103 53.876 51.3291Z" fill="#E6A578"/>
</g>
<defs>
<linearGradient id="paint0_linear_934_581" x1="80.4624" y1="-8.75391" x2="0.462401" y2="84.4961" gradientUnits="userSpaceOnUse">
<stop offset="0.0001" stop-color="#D26B75"/>
<stop offset="1" stop-color="#B83F4B"/>
</linearGradient>
<clipPath id="clip0_934_581">
<rect width="47" height="47" fill="white" transform="translate(17 16.3536)"/>
</clipPath>
</defs>
</svg>
