<svg width="80" height="81" viewBox="0 0 80 81" fill="none" xmlns="http://www.w3.org/2000/svg">
<rect y="0.246094" width="80" height="80" rx="24" fill="url(#paint0_linear_507_2227)"/>
<g clip-path="url(#clip0_507_2227)">
<path d="M44.3252 45.8198H48.3093V55.3595H44.3252V45.8198Z" fill="white"/>
<path d="M36.7803 45.8198H40.7646V55.3595H36.7803V45.8198Z" fill="white"/>
<path d="M29.2354 45.8198H33.2197V55.3595H29.2354V45.8198Z" fill="white"/>
<path d="M21.6909 45.8198H25.675V55.3595H21.6909V45.8198Z" fill="white"/>
<path d="M49.6378 42.8315V41.8354H20.3628V42.8315C20.3628 43.3817 20.8087 43.8276 21.3589 43.8276H48.6417C49.1917 43.8276 49.6378 43.3817 49.6378 42.8315Z" fill="white"/>
<path d="M51.0033 57.3516H18.9971C18.4469 57.3516 18.001 57.7975 18.001 58.3477V61.0039C18.001 61.5541 18.4469 62 18.9971 62H51.0033C51.5535 62 51.9994 61.5541 51.9994 61.0039V58.3477C51.9994 57.7975 51.5535 57.3516 51.0033 57.3516Z" fill="white"/>
<path d="M18.996 39.8431H51.0038C51.4495 39.8431 51.8409 39.5472 51.9623 39.1184C52.0834 38.6896 51.9055 38.2323 51.526 37.9988L35.5221 28.1479C35.202 27.9507 34.7981 27.9507 34.4777 28.1479L18.4738 37.9988C18.0943 38.2325 17.9164 38.6896 18.0378 39.1184C18.1592 39.5472 18.5506 39.8431 18.996 39.8431V39.8431ZM34.3229 33.8588H35.6772C36.2274 33.8588 36.6733 34.3047 36.6733 34.8549C36.6733 35.4051 36.2274 35.851 35.6772 35.851H34.3229C33.7727 35.851 33.3268 35.4051 33.3268 34.8549C33.3268 34.3047 33.7727 33.8588 34.3229 33.8588V33.8588Z" fill="white"/>
</g>
<mask id="mask0_507_2227" style="mask-type:alpha" maskUnits="userSpaceOnUse" x="0" y="0" width="80" height="81">
<rect y="0.246094" width="80" height="80" rx="24" fill="url(#paint1_linear_507_2227)"/>
</mask>
<g mask="url(#mask0_507_2227)">
<circle cx="64.25" cy="64.4961" r="15.25" fill="#FFD600"/>
<circle cx="64.2505" cy="64.4961" r="13.1705" fill="#FFC702"/>
<path d="M63.7316 73.0671H65.9371V71.4474C67.1084 71.2705 68.0418 70.822 68.7373 70.1021C69.4389 69.3822 69.7897 68.4854 69.7897 67.4117C69.7897 66.4844 69.5365 65.7401 69.0302 65.1788C68.5299 64.6114 67.7093 64.16 66.5685 63.8244L64.1983 63.1381C63.5699 62.955 63.1093 62.7385 62.8165 62.4883C62.5298 62.2321 62.3864 61.921 62.3864 61.5549C62.3864 61.0668 62.6121 60.6611 63.0636 60.3378C63.515 60.0144 64.0733 59.8589 64.7382 59.8711C65.4337 59.8894 66.0255 60.0999 66.5136 60.5025C67.0078 60.8991 67.3189 61.4237 67.447 62.0765L69.7074 61.6647C69.4694 60.6459 69.0241 59.8162 68.3713 59.1756C67.7246 58.535 66.9132 58.1201 65.9371 57.931V56.2563H63.7316V57.8853C62.6396 58.0439 61.7763 58.4587 61.1418 59.1298C60.5134 59.7948 60.1992 60.6398 60.1992 61.6647C60.1992 63.3424 61.1235 64.465 62.9721 65.0324L66.1475 66.0207C66.66 66.1793 67.0322 66.3806 67.264 66.6247C67.4958 66.8687 67.6117 67.1799 67.6117 67.5581C67.6117 68.1011 67.3677 68.5525 66.8796 68.9125C66.3916 69.2724 65.7693 69.4524 65.0128 69.4524C64.2258 69.4524 63.5516 69.2328 62.9904 68.7935C62.4291 68.3543 62.06 67.7564 61.8831 66.9999L59.7051 67.3476C59.8759 68.4397 60.3182 69.3426 61.032 70.0564C61.7458 70.7702 62.6457 71.2247 63.7316 71.4199V73.0671Z" fill="white"/>
</g>
<path d="M52.0287 22.5943C54.0592 20.5638 54.0592 17.26 52.0287 15.2282C49.9947 13.1941 46.7001 13.1941 44.6639 15.2282C42.629 17.2631 42.6277 20.5581 44.6639 22.5943C46.7019 24.6318 50.0048 24.6182 52.0287 22.5943ZM47.0768 17.6424C47.7765 16.9422 48.913 16.9392 49.6158 17.6424C50.3155 18.3416 50.3155 19.4804 49.6158 20.1814C48.9161 20.8811 47.7773 20.8811 47.0768 20.1814C46.3771 19.4817 46.3736 18.3451 47.0768 17.6424Z" fill="#AED0FF"/>
<path d="M64.1395 27.3406C62.1112 25.3096 58.8149 25.2999 56.7747 27.3406C54.7437 29.3711 54.7437 32.6744 56.7747 34.7054C58.8122 36.7429 62.1085 36.7385 64.1395 34.7054C66.177 32.6674 66.1731 29.3715 64.1395 27.3406ZM61.7266 32.2925C61.0256 32.9931 59.889 32.9939 59.1876 32.2925C58.4879 31.5915 58.4879 30.4527 59.1876 29.753C59.8886 29.052 61.0251 29.0516 61.7266 29.753C62.4263 30.4527 62.4298 31.5893 61.7266 32.2925Z" fill="#AED0FF"/>
<path d="M61.0458 18.3222C60.3795 17.6559 59.2988 17.6559 58.6325 18.3222L47.7574 29.1978C47.0906 29.8641 47.0906 30.9444 47.7574 31.6111C48.4237 32.2774 49.504 32.2774 50.1703 31.6111L61.0458 20.7356C61.7121 20.0693 61.7121 18.989 61.0458 18.3222V18.3222Z" fill="#AED0FF"/>
<defs>
<linearGradient id="paint0_linear_507_2227" x1="80" y1="-8.75391" x2="-1.24346e-06" y2="84.4961" gradientUnits="userSpaceOnUse">
<stop stop-color="#F06292"/>
<stop offset="1" stop-color="#CB4A75"/>
</linearGradient>
<linearGradient id="paint1_linear_507_2227" x1="80" y1="-8.75391" x2="-1.24346e-06" y2="84.4961" gradientUnits="userSpaceOnUse">
<stop stop-color="#FF8844"/>
<stop offset="1" stop-color="#FF5D00"/>
</linearGradient>
<clipPath id="clip0_507_2227">
<rect width="34" height="34" fill="white" transform="translate(18 28)"/>
</clipPath>
</defs>
</svg>
