<svg width="81" height="81" viewBox="0 0 81 81" fill="none" xmlns="http://www.w3.org/2000/svg">
<rect x="0.875977" y="0.246094" width="80" height="80" rx="24" fill="url(#paint0_linear_521_2058)"/>
<path d="M25.987 43.8555V58.8937C25.987 59.8368 25.2227 60.5998 24.2804 60.5998H15.5826C14.6403 60.5998 13.876 59.8368 13.876 58.8937V43.8555C13.876 42.9137 14.6403 42.1489 15.5826 42.1489H24.2804C25.2227 42.1489 25.987 42.9137 25.987 43.8555Z" fill="#00CC76"/>
<path d="M25.987 51.375V58.8936C25.987 59.8368 25.2227 60.5998 24.2804 60.5998H15.5826C14.6403 60.5998 13.876 59.8368 13.876 58.8936V51.375H25.987Z" fill="#00AA63"/>
<path d="M69.1034 51.9515L58.7148 58.0039C55.7969 59.7035 52.4707 60.6023 49.094 60.6023H22.5742V43.8553C22.5742 39.9534 25.6002 37.3322 30.1052 37.3322C31.3929 37.5093 36.9812 36.4171 39.4324 40.4698C39.8385 41.141 40.5223 41.5413 41.2594 41.5413H46.9453C50.4952 41.5413 52.9911 45.0534 51.8462 48.3862V48.3875C56.1156 47.8302 57.1449 46.6067 64.758 43.4536C67.0509 42.4349 69.7446 43.3899 70.9102 45.5628C72.132 47.8439 71.3392 50.6492 69.1034 51.9515V51.9515Z" fill="#FFCEBF"/>
<path d="M69.1034 51.9516L58.7148 58.0041C55.7969 59.7036 52.4707 60.6024 49.094 60.6024H42.6768V41.5415H46.9452C50.4951 41.5415 52.9911 45.0536 51.8462 48.3864V48.3877C56.1177 47.8304 57.129 46.6134 64.758 43.4538C67.0509 42.435 69.7446 43.3901 70.9102 45.563C72.132 47.844 71.3391 50.6494 69.1034 51.9516V51.9516Z" fill="#FFBFAB"/>
<path d="M70.3518 44.7429C56.1553 51.0032 58.0324 50.1756 57.8606 50.2512C55.4024 51.3434 52.7927 51.8963 50.1033 51.8963H37.2267C36.2848 51.8963 35.5205 51.1329 35.5205 50.1897C35.5205 49.2478 36.2848 48.4835 37.2267 48.4835C58.1111 48.4361 50.5622 49.3335 64.7582 43.4538C66.7237 42.5801 69.0095 43.1545 70.3518 44.7429V44.7429Z" fill="#FFA78F"/>
<path d="M70.3516 44.7429C56.1551 51.0032 58.0322 50.1756 57.8604 50.2512C55.4022 51.3434 52.7924 51.8963 50.1031 51.8963H42.6768V48.4835C49.7739 48.4572 50.5971 48.5508 51.9244 48.3789C55.8474 47.9254 57.4349 46.4869 64.758 43.4538C66.7234 42.5801 69.0093 43.1545 70.3516 44.7429V44.7429Z" fill="#F89580"/>
<path d="M41.7216 24.8916C43.7521 22.8611 43.7521 19.5574 41.7216 17.5255C39.6875 15.4915 36.393 15.4915 34.3568 17.5255C32.3218 19.5604 32.3205 22.8554 34.3568 24.8916C36.3947 26.9292 39.6976 26.9156 41.7216 24.8916ZM36.7696 19.9397C37.4693 19.2396 38.6059 19.2365 39.3087 19.9397C40.0084 20.639 40.0084 21.7777 39.3087 22.4788C38.609 23.1785 37.4702 23.1785 36.7696 22.4788C36.07 21.7791 36.0664 20.6425 36.7696 19.9397Z" fill="#AED0FF"/>
<path d="M53.8324 29.6379C51.804 27.607 48.5077 27.5973 46.4676 29.6379C44.4366 31.6684 44.4366 34.9718 46.4676 37.0027C48.5051 39.0403 51.8014 39.0359 53.8324 37.0027C55.8699 34.9647 55.866 31.6689 53.8324 29.6379ZM51.4195 34.5898C50.7185 35.2904 49.5819 35.2913 48.8804 34.5898C48.1807 33.8888 48.1807 32.7501 48.8804 32.0504C49.5815 31.3494 50.718 31.3489 51.4195 32.0504C52.1192 32.7501 52.1227 33.8866 51.4195 34.5898Z" fill="#FFB99D"/>
<path d="M50.7387 20.6196C50.0724 19.9533 48.9917 19.9533 48.3254 20.6196L37.4502 31.4952C36.7835 32.1615 36.7835 33.2418 37.4502 33.9085C38.1165 34.5748 39.1968 34.5748 39.8631 33.9085L50.7387 23.0329C51.405 22.3666 51.405 21.2863 50.7387 20.6196V20.6196Z" fill="#AED0FF"/>
<path d="M53.8324 29.6375C51.804 27.607 48.5082 27.5969 46.4676 29.6375C44.4366 31.6685 44.4366 34.9718 46.4676 37.0023C48.5047 39.0399 51.8018 39.0368 53.8324 37.0023C55.8699 34.9652 55.8651 31.6685 53.8324 29.6375V29.6375ZM51.4195 34.5899C50.7185 35.2904 49.5823 35.2918 48.8804 34.5899C48.1807 33.8889 48.1807 32.7501 48.8804 32.0508C49.581 31.3498 50.7176 31.3485 51.4195 32.0508C52.1192 32.7501 52.1227 33.8867 51.4195 34.5899Z" fill="#8CBCFF"/>
<path d="M50.7391 23.0326L44.0942 29.6775V24.8504L48.3254 20.6197C48.9917 19.9529 50.0724 19.9529 50.7391 20.6197C51.4045 21.2864 51.4045 22.3672 50.7391 23.0326V23.0326Z" fill="#8CBCFF"/>
<mask id="mask0_521_2058" style="mask-type:alpha" maskUnits="userSpaceOnUse" x="0" y="0" width="81" height="81">
<rect x="0.875977" y="0.246094" width="80" height="80" rx="24" fill="url(#paint1_linear_521_2058)"/>
</mask>
<g mask="url(#mask0_521_2058)">
<circle cx="65.126" cy="64.4961" r="15.25" fill="#FFD600"/>
<circle cx="65.1265" cy="64.4961" r="13.1705" fill="#FFC702"/>
<path d="M64.6076 73.0671H66.813V71.4474C67.9844 71.2705 68.9178 70.822 69.6133 70.1021C70.3149 69.3822 70.6657 68.4854 70.6657 67.4117C70.6657 66.4844 70.4125 65.7401 69.9061 65.1788C69.4059 64.6114 68.5853 64.16 67.4445 63.8244L65.0743 63.1381C64.4459 62.955 63.9853 62.7385 63.6925 62.4883C63.4057 62.2321 63.2624 61.921 63.2624 61.5549C63.2624 61.0668 63.4881 60.6611 63.9396 60.3378C64.391 60.0144 64.9492 59.8589 65.6142 59.8711C66.3097 59.8894 66.9015 60.0999 67.3896 60.5025C67.8837 60.8991 68.1949 61.4237 68.323 62.0765L70.5833 61.6647C70.3454 60.6459 69.9 59.8162 69.2473 59.1756C68.6006 58.535 67.7892 58.1201 66.813 57.931V56.2563H64.6076V57.8853C63.5155 58.0439 62.6523 58.4587 62.0178 59.1298C61.3894 59.7948 61.0752 60.6398 61.0752 61.6647C61.0752 63.3424 61.9995 64.465 63.848 65.0324L67.0235 66.0207C67.536 66.1793 67.9081 66.3806 68.14 66.6247C68.3718 66.8687 68.4877 67.1799 68.4877 67.5581C68.4877 68.1011 68.2437 68.5525 67.7556 68.9125C67.2675 69.2724 66.6453 69.4524 65.8888 69.4524C65.1018 69.4524 64.4276 69.2328 63.8663 68.7935C63.3051 68.3543 62.936 67.7564 62.759 66.9999L60.5811 67.3476C60.7519 68.4397 61.1942 69.3426 61.908 70.0564C62.6218 70.7702 63.5216 71.2247 64.6076 71.4199V73.0671Z" fill="white"/>
</g>
<defs>
<linearGradient id="paint0_linear_521_2058" x1="80.876" y1="-8.75391" x2="0.875975" y2="84.4961" gradientUnits="userSpaceOnUse">
<stop stop-color="#FF8844"/>
<stop offset="1" stop-color="#E2661F"/>
</linearGradient>
<linearGradient id="paint1_linear_521_2058" x1="80.876" y1="-8.75391" x2="0.875975" y2="84.4961" gradientUnits="userSpaceOnUse">
<stop stop-color="#FF8844"/>
<stop offset="1" stop-color="#FF5D00"/>
</linearGradient>
</defs>
</svg>
