<svg width="80" height="81" viewBox="0 0 80 81" fill="none" xmlns="http://www.w3.org/2000/svg">
<rect y="0.246094" width="80" height="80" rx="16" fill="url(#paint0_linear_933_219)"/>
<g clip-path="url(#clip0_933_219)">
<path d="M44.3252 45.8197H48.3093V55.3594H44.3252V45.8197Z" fill="white"/>
<path d="M36.7803 45.8197H40.7646V55.3594H36.7803V45.8197Z" fill="white"/>
<path d="M29.2354 45.8197H33.2197V55.3594H29.2354V45.8197Z" fill="white"/>
<path d="M21.6909 45.8197H25.675V55.3594H21.6909V45.8197Z" fill="white"/>
<path d="M49.6378 42.8314V41.8353H20.3628V42.8314C20.3628 43.3816 20.8087 43.8275 21.3589 43.8275H48.6417C49.1917 43.8275 49.6378 43.3816 49.6378 42.8314Z" fill="white"/>
<path d="M51.0033 57.3516H18.9971C18.4469 57.3516 18.001 57.7975 18.001 58.3477V61.0039C18.001 61.5541 18.4469 62 18.9971 62H51.0033C51.5535 62 51.9994 61.5541 51.9994 61.0039V58.3477C51.9994 57.7975 51.5535 57.3516 51.0033 57.3516Z" fill="white"/>
<path d="M18.996 39.8431H51.0038C51.4495 39.8431 51.8409 39.5472 51.9623 39.1184C52.0834 38.6896 51.9055 38.2323 51.526 37.9988L35.5221 28.1479C35.202 27.9507 34.7981 27.9507 34.4777 28.1479L18.4738 37.9988C18.0943 38.2325 17.9164 38.6896 18.0378 39.1184C18.1592 39.5472 18.5506 39.8431 18.996 39.8431V39.8431ZM34.3229 33.8588H35.6772C36.2274 33.8588 36.6733 34.3047 36.6733 34.8549C36.6733 35.4051 36.2274 35.851 35.6772 35.851H34.3229C33.7727 35.851 33.3268 35.4051 33.3268 34.8549C33.3268 34.3047 33.7727 33.8588 34.3229 33.8588V33.8588Z" fill="white"/>
</g>
<mask id="mask0_933_219" style="mask-type:alpha" maskUnits="userSpaceOnUse" x="0" y="0" width="80" height="81">
<rect y="0.246094" width="80" height="80" rx="16" fill="url(#paint1_linear_933_219)"/>
</mask>
<g mask="url(#mask0_933_219)">
<circle cx="66" cy="66.2461" r="17" fill="#FFD600"/>
<circle cx="66.0007" cy="66.2461" r="14.6818" fill="#FFC702"/>
<path d="M65.4222 75.8008H67.8807V73.9951C69.1865 73.7979 70.227 73.298 71.0023 72.4955C71.7844 71.693 72.1755 70.6933 72.1755 69.4963C72.1755 68.4626 71.8933 67.6329 71.3288 67.0072C70.7711 66.3747 69.8564 65.8715 68.5846 65.4974L65.9425 64.7323C65.242 64.5283 64.7285 64.2868 64.4021 64.008C64.0824 63.7224 63.9226 63.3755 63.9226 62.9675C63.9226 62.4234 64.1742 61.9711 64.6775 61.6107C65.1808 61.2502 65.803 61.0768 66.5443 61.0904C67.3196 61.1108 67.9793 61.3455 68.5234 61.7943C69.0743 62.2364 69.4211 62.8213 69.5639 63.5489L72.0837 63.0899C71.8184 61.9541 71.322 61.0292 70.5943 60.3151C69.8734 59.601 68.9689 59.1386 67.8807 58.9277V57.0609H65.4222V58.8767C64.2048 59.0535 63.2425 59.516 62.5352 60.2641C61.8347 61.0054 61.4845 61.9473 61.4845 63.0899C61.4845 64.9601 62.5148 66.2115 64.5755 66.844L68.1154 67.9457C68.6866 68.1226 69.1015 68.347 69.3599 68.619C69.6184 68.8911 69.7476 69.2379 69.7476 69.6596C69.7476 70.2648 69.4755 70.7681 68.9315 71.1694C68.3874 71.5706 67.6937 71.7712 66.8504 71.7712C65.9731 71.7712 65.2216 71.5264 64.5959 71.0367C63.9702 70.5471 63.5587 69.8806 63.3615 69.0373L60.9336 69.4249C61.124 70.6423 61.6171 71.6488 62.4128 72.4445C63.2085 73.2402 64.2116 73.7469 65.4222 73.9645V75.8008Z" fill="white"/>
</g>
<path d="M52.0287 22.5942C54.0592 20.5637 54.0592 17.2599 52.0287 15.2281C49.9947 13.194 46.7001 13.194 44.6639 15.2281C42.629 17.263 42.6277 20.558 44.6639 22.5942C46.7019 24.6317 50.0048 24.6181 52.0287 22.5942ZM47.0768 17.6423C47.7765 16.9421 48.913 16.9391 49.6158 17.6423C50.3155 18.3415 50.3155 19.4803 49.6158 20.1813C48.9161 20.881 47.7773 20.881 47.0768 20.1813C46.3771 19.4816 46.3736 18.345 47.0768 17.6423Z" fill="#AED0FF"/>
<path d="M64.1395 27.3405C62.1112 25.3095 58.8149 25.2998 56.7747 27.3405C54.7437 29.371 54.7437 32.6743 56.7747 34.7053C58.8122 36.7428 62.1085 36.7384 64.1395 34.7053C66.177 32.6673 66.1731 29.3714 64.1395 27.3405ZM61.7266 32.2924C61.0256 32.993 59.889 32.9938 59.1876 32.2924C58.4879 31.5914 58.4879 30.4526 59.1876 29.7529C59.8886 29.0519 61.0251 29.0515 61.7266 29.7529C62.4263 30.4526 62.4298 31.5892 61.7266 32.2924Z" fill="#AED0FF"/>
<path d="M61.0458 18.3221C60.3795 17.6558 59.2988 17.6558 58.6325 18.3221L47.7574 29.1977C47.0906 29.864 47.0906 30.9443 47.7574 31.611C48.4237 32.2773 49.504 32.2773 50.1703 31.611L61.0458 20.7355C61.7121 20.0692 61.7121 18.9889 61.0458 18.3221V18.3221Z" fill="#AED0FF"/>
<defs>
<linearGradient id="paint0_linear_933_219" x1="80" y1="-8.75391" x2="-1.24346e-06" y2="84.4961" gradientUnits="userSpaceOnUse">
<stop stop-color="#F06292"/>
<stop offset="1" stop-color="#CB4A75"/>
</linearGradient>
<linearGradient id="paint1_linear_933_219" x1="80" y1="-8.75391" x2="-1.24346e-06" y2="84.4961" gradientUnits="userSpaceOnUse">
<stop stop-color="#FF8844"/>
<stop offset="1" stop-color="#FF5D00"/>
</linearGradient>
<clipPath id="clip0_933_219">
<rect width="34" height="34" fill="white" transform="translate(18 28)"/>
</clipPath>
</defs>
</svg>
