<svg width="80" height="81" viewBox="0 0 80 81" fill="none" xmlns="http://www.w3.org/2000/svg">
<rect y="0.246094" width="80" height="80" rx="24" fill="url(#paint0_linear_873_187)"/>
<path d="M25.111 43.8555V58.8936C25.111 59.8368 24.3467 60.5998 23.4044 60.5998H14.7066C13.7643 60.5998 13 59.8368 13 58.8936V43.8555C13 42.9136 13.7643 42.1488 14.7066 42.1488H23.4044C24.3467 42.1488 25.111 42.9136 25.111 43.8555Z" fill="#00CC76"/>
<path d="M25.111 51.375V58.8936C25.111 59.8368 24.3467 60.5997 23.4044 60.5997H14.7066C13.7643 60.5997 13 59.8368 13 58.8936V51.375H25.111Z" fill="#00AA63"/>
<path d="M68.2274 51.9516L57.8388 58.004C54.9209 59.7036 51.5948 60.6024 48.218 60.6024H21.6982V43.8554C21.6982 39.9535 24.7242 37.3323 29.2292 37.3323C30.5169 37.5094 36.1052 36.4172 38.5564 40.4699C38.9625 41.1411 39.6463 41.5414 40.3834 41.5414H46.0693C49.6192 41.5414 52.1151 45.0535 50.9702 48.3863V48.3876C55.2396 47.8303 56.2689 46.6068 63.882 43.4537C66.1749 42.435 68.8687 43.39 70.0342 45.5629C71.2561 47.844 70.4632 50.6493 68.2274 51.9516V51.9516Z" fill="#FFCEBF"/>
<path d="M68.2274 51.9516L57.8388 58.004C54.9209 59.7036 51.5947 60.6024 48.218 60.6024H41.8008V41.5415H46.0693C49.6192 41.5415 52.1151 45.0535 50.9702 48.3863V48.3876C55.2418 47.8303 56.2531 46.6133 63.882 43.4537C66.1749 42.435 68.8686 43.39 70.0342 45.5629C71.256 47.844 70.4632 50.6493 68.2274 51.9516V51.9516Z" fill="#FFBFAB"/>
<path d="M69.4758 44.7428C55.2793 51.0031 57.1565 50.1755 56.9846 50.2511C54.5265 51.3433 51.9167 51.8962 49.2273 51.8962H36.3507C35.4088 51.8962 34.6445 51.1328 34.6445 50.1896C34.6445 49.2478 35.4088 48.4835 36.3507 48.4835C57.2351 48.436 49.6862 49.3335 63.8822 43.4537C65.8477 42.58 68.1336 43.1544 69.4758 44.7428V44.7428Z" fill="#FFA78F"/>
<path d="M69.4756 44.7428C55.2791 51.0031 57.1562 50.1755 56.9844 50.2511C54.5262 51.3433 51.9165 51.8962 49.2271 51.8962H41.8008V48.4835C48.8979 48.4571 49.7211 48.5507 51.0484 48.3788C54.9715 47.9253 56.559 46.4868 63.882 43.4537C65.8475 42.58 68.1333 43.1544 69.4756 44.7428V44.7428Z" fill="#F89580"/>
<path d="M40.8453 24.8916C42.8759 22.8611 42.8759 19.5574 40.8453 17.5255C38.8113 15.4915 35.5168 15.4915 33.4805 17.5255C31.4456 19.5604 31.4443 22.8554 33.4805 24.8916C35.5185 26.9292 38.8214 26.9156 40.8453 24.8916ZM35.8934 19.9397C36.5931 19.2396 37.7297 19.2365 38.4325 19.9397C39.1321 20.639 39.1321 21.7777 38.4325 22.4788C37.7328 23.1785 36.594 23.1785 35.8934 22.4788C35.1937 21.7791 35.1902 20.6425 35.8934 19.9397Z" fill="#AED0FF"/>
<path d="M52.9564 29.6379C50.9281 27.6069 47.6318 27.5972 45.5916 29.6379C43.5606 31.6684 43.5606 34.9717 45.5916 37.0027C47.6291 39.0402 50.9254 39.0358 52.9564 37.0027C54.9939 34.9647 54.99 31.6688 52.9564 29.6379ZM50.5435 34.5898C49.8425 35.2904 48.7059 35.2912 48.0045 34.5898C47.3048 33.8888 47.3048 32.75 48.0045 32.0503C48.7055 31.3493 49.842 31.3489 50.5435 32.0503C51.2432 32.75 51.2467 33.8866 50.5435 34.5898Z" fill="#FFB99D"/>
<path d="M49.8627 20.6197C49.1964 19.9534 48.1157 19.9534 47.4494 20.6197L36.5743 31.4952C35.9075 32.1615 35.9075 33.2418 36.5743 33.9086C37.2406 34.5748 38.3209 34.5748 38.9872 33.9086L49.8627 23.033C50.529 22.3667 50.529 21.2864 49.8627 20.6197V20.6197Z" fill="#AED0FF"/>
<path d="M52.9564 29.6374C50.9281 27.6069 47.6322 27.5968 45.5916 29.6374C43.5606 31.6684 43.5606 34.9717 45.5916 37.0022C47.6287 39.0398 50.9259 39.0367 52.9564 37.0022C54.9939 34.9651 54.9891 31.6684 52.9564 29.6374V29.6374ZM50.5435 34.5898C49.8425 35.2904 48.7064 35.2917 48.0045 34.5898C47.3048 33.8888 47.3048 32.75 48.0045 32.0508C48.705 31.3497 49.8416 31.3484 50.5435 32.0508C51.2432 32.75 51.2467 33.8866 50.5435 34.5898Z" fill="#8CBCFF"/>
<path d="M49.8632 23.0325L43.2183 29.6774V24.8503L47.4494 20.6196C48.1157 19.9529 49.1964 19.9529 49.8632 20.6196C50.5286 21.2864 50.5286 22.3671 49.8632 23.0325V23.0325Z" fill="#8CBCFF"/>
<mask id="mask0_873_187" style="mask-type:alpha" maskUnits="userSpaceOnUse" x="0" y="0" width="80" height="81">
<rect y="0.246094" width="80" height="80" rx="24" fill="url(#paint1_linear_873_187)"/>
</mask>
<g mask="url(#mask0_873_187)">
<circle cx="64.2502" cy="64.4961" r="15.25" fill="#FFD600"/>
<circle cx="64.2505" cy="64.4961" r="13.1705" fill="#FFC702"/>
<path d="M63.7319 73.0672H65.9373V71.4475C67.1087 71.2705 68.0421 70.8221 68.7376 70.1022C69.4392 69.3823 69.79 68.4855 69.79 67.4118C69.79 66.4844 69.5368 65.7401 69.0304 65.1789C68.5301 64.6115 67.7096 64.16 66.5687 63.8245L64.1986 63.1381C63.5702 62.9551 63.1096 62.7385 62.8167 62.4884C62.53 62.2322 62.3866 61.921 62.3866 61.555C62.3866 61.0669 62.6124 60.6612 63.0638 60.3379C63.5153 60.0145 64.0735 59.859 64.7385 59.8712C65.434 59.8895 66.0258 60.0999 66.5138 60.5026C67.008 60.8991 67.3191 61.4238 67.4473 62.0766L69.7076 61.6648C69.4697 60.646 69.0243 59.8162 68.3715 59.1757C67.7248 58.5351 66.9134 58.1202 65.9373 57.9311V56.2564H63.7319V57.8853C62.6398 58.044 61.7765 58.4588 61.1421 59.1299C60.5137 59.7949 60.1995 60.6399 60.1995 61.6648C60.1995 63.3425 61.1238 64.4651 62.9723 65.0324L66.1478 66.0208C66.6603 66.1794 67.0324 66.3807 67.2642 66.6248C67.4961 66.8688 67.612 67.1799 67.612 67.5582C67.612 68.1012 67.3679 68.5526 66.8799 68.9126C66.3918 69.2725 65.7695 69.4525 65.013 69.4525C64.226 69.4525 63.5519 69.2329 62.9906 68.7936C62.4293 68.3543 62.0602 67.7565 61.8833 67L59.7053 67.3477C59.8761 68.4397 60.3185 69.3427 61.0322 70.0565C61.746 70.7703 62.6459 71.2248 63.7319 71.42V73.0672Z" fill="white"/>
</g>
<defs>
<linearGradient id="paint0_linear_873_187" x1="80" y1="-8.75391" x2="-1.24346e-06" y2="84.4961" gradientUnits="userSpaceOnUse">
<stop stop-color="#F06292"/>
<stop offset="1" stop-color="#CB4A75"/>
</linearGradient>
<linearGradient id="paint1_linear_873_187" x1="80" y1="-8.75391" x2="-1.24346e-06" y2="84.4961" gradientUnits="userSpaceOnUse">
<stop stop-color="#FF8844"/>
<stop offset="1" stop-color="#FF5D00"/>
</linearGradient>
</defs>
</svg>
