<svg width="80" height="80" viewBox="0 0 80 80" fill="none" xmlns="http://www.w3.org/2000/svg">
<rect width="80" height="80" rx="16" fill="url(#paint0_linear_933_253)"/>
<path d="M25.111 43.6094V58.6475C25.111 59.5907 24.3467 60.3537 23.4044 60.3537H14.7066C13.7643 60.3537 13 59.5907 13 58.6475V43.6094C13 42.6675 13.7643 41.9028 14.7066 41.9028H23.4044C24.3467 41.9028 25.111 42.6675 25.111 43.6094Z" fill="#00CC76"/>
<path d="M25.111 51.1288V58.6475C25.111 59.5907 24.3467 60.3536 23.4044 60.3536H14.7066C13.7643 60.3536 13 59.5907 13 58.6475V51.1288H25.111Z" fill="#00AA63"/>
<path d="M68.2274 51.7055L57.8388 57.7579C54.9209 59.4575 51.5948 60.3563 48.218 60.3563H21.6982V43.6093C21.6982 39.7074 24.7242 37.0862 29.2292 37.0862C30.5169 37.2633 36.1052 36.1711 38.5564 40.2238C38.9625 40.895 39.6463 41.2953 40.3834 41.2953H46.0693C49.6192 41.2953 52.1151 44.8074 50.9702 48.1402V48.1415C55.2396 47.5842 56.2689 46.3607 63.882 43.2076C66.1749 42.1889 68.8687 43.1439 70.0342 45.3168C71.2561 47.5979 70.4632 50.4032 68.2274 51.7055V51.7055Z" fill="#FFCEBF"/>
<path d="M68.2274 51.7055L57.8388 57.7579C54.9209 59.4575 51.5947 60.3563 48.218 60.3563H41.8008V41.2953H46.0693C49.6192 41.2953 52.1151 44.8074 50.9702 48.1402V48.1415C55.2418 47.5842 56.2531 46.3672 63.882 43.2076C66.1749 42.1889 68.8686 43.1439 70.0342 45.3168C71.256 47.5979 70.4632 50.4032 68.2274 51.7055V51.7055Z" fill="#FFBFAB"/>
<path d="M69.4758 44.4967C55.2793 50.757 57.1565 49.9295 56.9846 50.0051C54.5265 51.0972 51.9167 51.6501 49.2273 51.6501H36.3507C35.4088 51.6501 34.6445 50.8867 34.6445 49.9435C34.6445 49.0017 35.4088 48.2374 36.3507 48.2374C57.2351 48.1899 49.6862 49.0874 63.8822 43.2077C65.8477 42.3339 68.1336 42.9083 69.4758 44.4967V44.4967Z" fill="#FFA78F"/>
<path d="M69.4756 44.4967C55.2791 50.757 57.1562 49.9295 56.9844 50.0051C54.5262 51.0972 51.9165 51.6501 49.2271 51.6501H41.8008V48.2374C48.8979 48.211 49.7211 48.3046 51.0484 48.1328C54.9715 47.6792 56.559 46.2407 63.882 43.2077C65.8475 42.3339 68.1333 42.9083 69.4756 44.4967V44.4967Z" fill="#F89580"/>
<path d="M40.8456 24.6456C42.8761 22.615 42.8761 19.3113 40.8456 17.2794C38.8115 15.2454 35.517 15.2454 33.4808 17.2794C31.4459 19.3143 31.4445 22.6093 33.4808 24.6456C35.5188 26.6831 38.8217 26.6695 40.8456 24.6456ZM35.8937 19.6936C36.5934 18.9935 37.7299 18.9904 38.4327 19.6936C39.1324 20.3929 39.1324 21.5317 38.4327 22.2327C37.733 22.9324 36.5942 22.9324 35.8937 22.2327C35.194 21.533 35.1905 20.3964 35.8937 19.6936Z" fill="#AED0FF"/>
<path d="M52.9564 29.3918C50.9281 27.3608 47.6318 27.3511 45.5916 29.3918C43.5606 31.4223 43.5606 34.7256 45.5916 36.7566C47.6291 38.7941 50.9254 38.7897 52.9564 36.7566C54.9939 34.7186 54.99 31.4227 52.9564 29.3918ZM50.5435 34.3437C49.8425 35.0443 48.7059 35.0451 48.0045 34.3437C47.3048 33.6427 47.3048 32.5039 48.0045 31.8042C48.7055 31.1032 49.842 31.1028 50.5435 31.8042C51.2432 32.5039 51.2467 33.6405 50.5435 34.3437Z" fill="#FFB99D"/>
<path d="M49.8627 20.3736C49.1964 19.7073 48.1157 19.7073 47.4494 20.3736L36.5743 31.2491C35.9075 31.9154 35.9075 32.9957 36.5743 33.6625C37.2406 34.3288 38.3209 34.3288 38.9872 33.6625L49.8627 22.7869C50.529 22.1206 50.529 21.0403 49.8627 20.3736V20.3736Z" fill="#AED0FF"/>
<path d="M40.8456 24.6456C42.8761 22.615 42.8761 19.3113 40.8456 17.2794C38.8115 15.2454 35.517 15.2454 33.4808 17.2794C31.4459 19.3143 31.4445 22.6093 33.4808 24.6456C35.5188 26.6831 38.8217 26.6695 40.8456 24.6456ZM35.8937 19.6936C36.5934 18.9935 37.7299 18.9904 38.4327 19.6936C39.1324 20.3929 39.1324 21.5317 38.4327 22.2327C37.733 22.9324 36.5942 22.9324 35.8937 22.2327C35.194 21.533 35.1905 20.3964 35.8937 19.6936Z" fill="#AED0FF"/>
<path d="M52.9564 29.3918C50.9281 27.3609 47.6318 27.3512 45.5916 29.3918C43.5606 31.4224 43.5606 34.7257 45.5916 36.7566C47.6291 38.7942 50.9254 38.7898 52.9564 36.7566C54.9939 34.7186 54.99 31.4228 52.9564 29.3918ZM50.5435 34.3438C49.8425 35.0443 48.7059 35.0452 48.0045 34.3438C47.3048 33.6427 47.3048 32.504 48.0045 31.8043C48.7055 31.1033 49.842 31.1028 50.5435 31.8043C51.2432 32.504 51.2467 33.6405 50.5435 34.3438Z" fill="#FFB99D"/>
<path d="M49.8627 20.3735C49.1964 19.7072 48.1157 19.7072 47.4494 20.3735L36.5743 31.2491C35.9075 31.9154 35.9075 32.9957 36.5743 33.6624C37.2406 34.3287 38.3209 34.3287 38.9872 33.6624L49.8627 22.7868C50.529 22.1205 50.529 21.0402 49.8627 20.3735V20.3735Z" fill="#AED0FF"/>
<path d="M52.9564 29.3913C50.9281 27.3608 47.6322 27.3507 45.5916 29.3913C43.5606 31.4223 43.5606 34.7256 45.5916 36.7561C47.6287 38.7937 50.9259 38.7906 52.9564 36.7561C54.9939 34.719 54.9891 31.4223 52.9564 29.3913V29.3913ZM50.5435 34.3437C49.8425 35.0443 48.7064 35.0456 48.0045 34.3437C47.3048 33.6427 47.3048 32.5039 48.0045 31.8047C48.705 31.1037 49.8416 31.1023 50.5435 31.8047C51.2432 32.5039 51.2467 33.6405 50.5435 34.3437Z" fill="#8CBCFF"/>
<path d="M49.8632 22.7864L43.2183 29.4313V24.6042L47.4494 20.3736C48.1157 19.7068 49.1964 19.7068 49.8632 20.3736C50.5286 21.0403 50.5286 22.121 49.8632 22.7864V22.7864Z" fill="#8CBCFF"/>
<mask id="mask0_933_253" style="mask-type:alpha" maskUnits="userSpaceOnUse" x="0" y="0" width="80" height="80">
<rect width="80" height="80" rx="16" fill="url(#paint1_linear_933_253)"/>
</mask>
<g mask="url(#mask0_933_253)">
<circle cx="66" cy="66" r="17" fill="#FFD600"/>
<circle cx="66.0007" cy="66" r="14.6818" fill="#FFC702"/>
<path d="M65.4222 75.5547H67.8807V73.749C69.1865 73.5518 70.227 73.052 71.0023 72.2494C71.7844 71.4469 72.1755 70.4472 72.1755 69.2502C72.1755 68.2165 71.8933 67.3868 71.3288 66.7611C70.7711 66.1286 69.8564 65.6254 68.5846 65.2513L65.9425 64.4862C65.242 64.2822 64.7285 64.0408 64.4021 63.7619C64.0824 63.4763 63.9226 63.1294 63.9226 62.7214C63.9226 62.1773 64.1742 61.725 64.6775 61.3646C65.1808 61.0041 65.803 60.8307 66.5443 60.8443C67.3196 60.8647 67.9793 61.0994 68.5234 61.5482C69.0743 61.9903 69.4211 62.5752 69.5639 63.3029L72.0837 62.8438C71.8184 61.708 71.322 60.7831 70.5943 60.069C69.8734 59.3549 68.9689 58.8925 67.8807 58.6816V56.8148H65.4222V58.6306C64.2048 58.8075 63.2425 59.2699 62.5352 60.018C61.8347 60.7593 61.4845 61.7012 61.4845 62.8438C61.4845 64.714 62.5148 65.9654 64.5755 66.5979L68.1154 67.6996C68.6866 67.8765 69.1015 68.1009 69.3599 68.3729C69.6184 68.645 69.7476 68.9918 69.7476 69.4135C69.7476 70.0188 69.4755 70.522 68.9315 70.9233C68.3874 71.3245 67.6937 71.5252 66.8504 71.5252C65.9731 71.5252 65.2216 71.2803 64.5959 70.7907C63.9702 70.301 63.5587 69.6345 63.3615 68.7912L60.9336 69.1788C61.124 70.3962 61.6171 71.4027 62.4128 72.1984C63.2085 72.9941 64.2116 73.5008 65.4222 73.7184V75.5547Z" fill="white"/>
</g>
<defs>
<linearGradient id="paint0_linear_933_253" x1="80" y1="-9" x2="-1.24346e-06" y2="84.25" gradientUnits="userSpaceOnUse">
<stop stop-color="#FF8844"/>
<stop offset="1" stop-color="#E2661F"/>
</linearGradient>
<linearGradient id="paint1_linear_933_253" x1="80" y1="-9" x2="-1.24346e-06" y2="84.25" gradientUnits="userSpaceOnUse">
<stop stop-color="#FF8844"/>
<stop offset="1" stop-color="#FF5D00"/>
</linearGradient>
</defs>
</svg>
