<svg width="80" height="81" viewBox="0 0 80 81" fill="none" xmlns="http://www.w3.org/2000/svg">
<rect y="0.246094" width="80" height="80" rx="24" fill="url(#paint0_linear_492_2190)"/>
<path d="M13 19.4784C13 18.8432 13.5844 18.369 14.2059 18.4998L39.7941 23.883C39.9299 23.9115 40.0701 23.9115 40.2059 23.883L65.7941 18.4998C66.4156 18.369 67 18.8432 67 19.4784V60.2544C67 60.7273 66.6687 61.1356 66.2059 61.233L40.2059 66.7028C40.0701 66.7313 39.9299 66.7313 39.7941 66.7028L13.7941 61.233C13.3313 61.1356 13 60.7273 13 60.2544V19.4784Z" fill="url(#paint1_angular_492_2190)"/>
<path opacity="0.5" d="M17 17.6343C17 16.9515 17.6691 16.4695 18.3167 16.6858L40 23.9263L61.6833 16.6858C62.3309 16.4695 63 16.9515 63 17.6343V19.0659L40 23.9263L17 19.0659V17.6343Z" fill="url(#paint2_angular_492_2190)"/>
<path opacity="0.2" d="M22 15.9193C22 15.1629 22.8074 14.6803 23.4736 15.0386L40 23.9263L56.5264 15.0386C57.1926 14.6803 58 15.1629 58 15.9193V17.9461L40 23.9263L22 17.9461V15.9193Z" fill="url(#paint3_angular_492_2190)"/>
<mask id="mask0_492_2190" style="mask-type:alpha" maskUnits="userSpaceOnUse" x="0" y="0" width="80" height="81">
<rect y="0.246094" width="80" height="80" rx="24" fill="url(#paint4_linear_492_2190)"/>
</mask>
<g mask="url(#mask0_492_2190)">
<g filter="url(#filter0_d_492_2190)">
<circle cx="64.25" cy="64.4961" r="15.25" fill="#FFD600"/>
<g filter="url(#filter1_i_492_2190)">
<circle cx="64.2505" cy="64.4961" r="13.1705" fill="#FFC702"/>
</g>
<path d="M63.7316 73.0671H65.9371V71.4474C67.1084 71.2705 68.0418 70.822 68.7373 70.1021C69.4389 69.3822 69.7897 68.4854 69.7897 67.4117C69.7897 66.4844 69.5365 65.7401 69.0302 65.1788C68.5299 64.6114 67.7093 64.16 66.5685 63.8244L64.1983 63.1381C63.5699 62.955 63.1093 62.7385 62.8165 62.4883C62.5298 62.2321 62.3864 61.921 62.3864 61.5549C62.3864 61.0668 62.6121 60.6611 63.0636 60.3378C63.515 60.0144 64.0733 59.8589 64.7382 59.8711C65.4337 59.8894 66.0255 60.0999 66.5136 60.5025C67.0078 60.8991 67.3189 61.4237 67.447 62.0765L69.7074 61.6647C69.4694 60.6459 69.0241 59.8162 68.3713 59.1756C67.7246 58.535 66.9132 58.1201 65.9371 57.931V56.2563H63.7316V57.8853C62.6396 58.0439 61.7763 58.4587 61.1418 59.1298C60.5134 59.7948 60.1992 60.6398 60.1992 61.6647C60.1992 63.3424 61.1235 64.465 62.9721 65.0324L66.1475 66.0207C66.66 66.1793 67.0322 66.3806 67.264 66.6247C67.4958 66.8687 67.6117 67.1799 67.6117 67.5581C67.6117 68.1011 67.3677 68.5525 66.8796 68.9125C66.3916 69.2724 65.7693 69.4524 65.0128 69.4524C64.2258 69.4524 63.5516 69.2328 62.9904 68.7935C62.4291 68.3543 62.06 67.7564 61.8831 66.9999L59.7051 67.3476C59.8759 68.4397 60.3182 69.3426 61.032 70.0564C61.7458 70.7702 62.6457 71.2247 63.7316 71.4199V73.0671Z" fill="white"/>
</g>
</g>
<defs>
<filter id="filter0_d_492_2190" x="30.5" y="32.7461" width="67.5" height="67.5" filterUnits="userSpaceOnUse" color-interpolation-filters="sRGB">
<feFlood flood-opacity="0" result="BackgroundImageFix"/>
<feColorMatrix in="SourceAlpha" type="matrix" values="0 0 0 0 0 0 0 0 0 0 0 0 0 0 0 0 0 0 127 0" result="hardAlpha"/>
<feOffset dy="2"/>
<feGaussianBlur stdDeviation="9.25"/>
<feComposite in2="hardAlpha" operator="out"/>
<feColorMatrix type="matrix" values="0 0 0 0 1 0 0 0 0 0.780392 0 0 0 0 0 0 0 0 1 0"/>
<feBlend mode="normal" in2="BackgroundImageFix" result="effect1_dropShadow_492_2190"/>
<feBlend mode="normal" in="SourceGraphic" in2="effect1_dropShadow_492_2190" result="shape"/>
</filter>
<filter id="filter1_i_492_2190" x="51.0801" y="51.3257" width="26.3408" height="26.3408" filterUnits="userSpaceOnUse" color-interpolation-filters="sRGB">
<feFlood flood-opacity="0" result="BackgroundImageFix"/>
<feBlend mode="normal" in="SourceGraphic" in2="BackgroundImageFix" result="shape"/>
<feColorMatrix in="SourceAlpha" type="matrix" values="0 0 0 0 0 0 0 0 0 0 0 0 0 0 0 0 0 0 127 0" result="hardAlpha"/>
<feOffset/>
<feGaussianBlur stdDeviation="1.15909"/>
<feComposite in2="hardAlpha" operator="arithmetic" k2="-1" k3="1"/>
<feColorMatrix type="matrix" values="0 0 0 0 0 0 0 0 0 0 0 0 0 0 0 0 0 0 0.09 0"/>
<feBlend mode="normal" in2="shape" result="effect1_innerShadow_492_2190"/>
</filter>
<linearGradient id="paint0_linear_492_2190" x1="80" y1="-8.75391" x2="-1.24346e-06" y2="84.4961" gradientUnits="userSpaceOnUse">
<stop stop-color="#FF8844"/>
<stop offset="1" stop-color="#FF5D00"/>
</linearGradient>
<radialGradient id="paint1_angular_492_2190" cx="0" cy="0" r="1" gradientUnits="userSpaceOnUse" gradientTransform="translate(40 23.7461) rotate(-11.5138) scale(27.5545 32.6385)">
<stop stop-color="white"/>
<stop offset="0.279817" stop-color="white" stop-opacity="0.08"/>
</radialGradient>
<radialGradient id="paint2_angular_492_2190" cx="0" cy="0" r="1" gradientUnits="userSpaceOnUse" gradientTransform="translate(40 23.7461) rotate(-11.5138) scale(27.5545 32.6385)">
<stop stop-color="white"/>
<stop offset="0.279817" stop-color="white" stop-opacity="0"/>
</radialGradient>
<radialGradient id="paint3_angular_492_2190" cx="0" cy="0" r="1" gradientUnits="userSpaceOnUse" gradientTransform="translate(40 23.7461) rotate(-11.5138) scale(27.5545 32.6385)">
<stop stop-color="white"/>
<stop offset="0.279817" stop-color="white" stop-opacity="0"/>
</radialGradient>
<linearGradient id="paint4_linear_492_2190" x1="80" y1="-8.75391" x2="-1.24346e-06" y2="84.4961" gradientUnits="userSpaceOnUse">
<stop stop-color="#FF8844"/>
<stop offset="1" stop-color="#FF5D00"/>
</linearGradient>
</defs>
</svg>
