<svg width="80" height="80" viewBox="0 0 80 80" fill="none" xmlns="http://www.w3.org/2000/svg">
<rect y="6.10352e-05" width="80" height="80" rx="24" fill="url(#paint0_linear_929_70)"/>
<path d="M47.498 38.2695H18.3184C17.5897 38.2695 17 38.8592 17 39.5879V58.0449C17 60.2258 18.7742 62 20.9551 62H44.8613C47.0422 62 48.8164 60.2258 48.8164 58.0449V39.5879C48.8164 38.8592 48.2267 38.2695 47.498 38.2695ZM40.7305 46.1797C40.7305 50.5416 37.1822 54.0898 32.8203 54.0898C28.4584 54.0898 24.9102 50.5416 24.9102 46.1797V44.8613C24.9102 44.1326 25.4998 43.543 26.2285 43.543C26.9572 43.543 27.5469 44.1326 27.5469 44.8613V46.1797C27.5469 49.0881 29.9119 51.4531 32.8203 51.4531C35.7287 51.4531 38.0938 49.0881 38.0938 46.1797V44.8613C38.0938 44.1326 38.6834 43.543 39.4121 43.543C40.1408 43.543 40.7305 44.1326 40.7305 44.8613V46.1797Z" fill="white"/>
<path d="M60.6816 27.7227H53.9141V24.9102C53.9141 20.5482 50.3658 17 46.0039 17C41.642 17 38.0938 20.5482 38.0938 24.9102V27.7227H31.3262C30.5975 27.7227 30.0078 28.3123 30.0078 29.041V35.6328H47.498C49.679 35.6328 51.4531 37.407 51.4531 39.5879V58.0449C51.4531 59.5345 50.9376 60.8949 50.1011 62H58.0449C60.2258 62 62 60.2258 62 58.0449V29.041C62 28.3123 61.4103 27.7227 60.6816 27.7227ZM51.2773 27.7227H40.7305V24.9102C40.7305 22.0018 43.0955 19.6367 46.0039 19.6367C48.9123 19.6367 51.2773 22.0018 51.2773 24.9102V27.7227Z" fill="#FFCC80"/>
<defs>
<linearGradient id="paint0_linear_929_70" x1="81.25" y1="-3.49994" x2="-5.25" y2="81.5001" gradientUnits="userSpaceOnUse">
<stop stop-color="#3498DB"/>
<stop offset="1" stop-color="#137CC2"/>
</linearGradient>
</defs>
</svg>
