<svg width="80" height="80" viewBox="0 0 80 80" fill="none" xmlns="http://www.w3.org/2000/svg">
<rect y="-0.00012207" width="80" height="80" rx="16" fill="url(#paint0_linear_933_134)"/>
<path d="M47.498 38.2693H18.3184C17.5897 38.2693 17 38.859 17 39.5877V58.0447C17 60.2257 18.7742 61.9998 20.9551 61.9998H44.8613C47.0422 61.9998 48.8164 60.2257 48.8164 58.0447V39.5877C48.8164 38.859 48.2267 38.2693 47.498 38.2693ZM40.7305 46.1795C40.7305 50.5414 37.1822 54.0897 32.8203 54.0897C28.4584 54.0897 24.9102 50.5414 24.9102 46.1795V44.8611C24.9102 44.1324 25.4998 43.5428 26.2285 43.5428C26.9572 43.5428 27.5469 44.1324 27.5469 44.8611V46.1795C27.5469 49.0879 29.9119 51.4529 32.8203 51.4529C35.7287 51.4529 38.0938 49.0879 38.0938 46.1795V44.8611C38.0938 44.1324 38.6834 43.5428 39.4121 43.5428C40.1408 43.5428 40.7305 44.1324 40.7305 44.8611V46.1795Z" fill="white"/>
<path d="M60.6816 27.7225H53.9141V24.91C53.9141 20.548 50.3658 16.9998 46.0039 16.9998C41.642 16.9998 38.0938 20.548 38.0938 24.91V27.7225H31.3262C30.5975 27.7225 30.0078 28.3121 30.0078 29.0408V35.6326H47.498C49.679 35.6326 51.4531 37.4068 51.4531 39.5877V58.0447C51.4531 59.5343 50.9376 60.8947 50.1011 61.9998H58.0449C60.2258 61.9998 62 60.2257 62 58.0447V29.0408C62 28.3121 61.4103 27.7225 60.6816 27.7225ZM51.2773 27.7225H40.7305V24.91C40.7305 22.0016 43.0955 19.6365 46.0039 19.6365C48.9123 19.6365 51.2773 22.0016 51.2773 24.91V27.7225Z" fill="#FFCC80"/>
<defs>
<linearGradient id="paint0_linear_933_134" x1="81.25" y1="-3.50012" x2="-5.25" y2="81.4999" gradientUnits="userSpaceOnUse">
<stop stop-color="#3498DB"/>
<stop offset="1" stop-color="#137CC2"/>
</linearGradient>
</defs>
</svg>
