<svg width="80" height="80" viewBox="0 0 80 80" fill="none" xmlns="http://www.w3.org/2000/svg">
<rect y="-6.10352e-05" width="80" height="80" rx="16" fill="url(#paint0_linear_942_735)"/>
<path d="M16 45.0625V62.5938C16 63.3704 16.6296 64 17.4062 64H62.5938C63.3704 64 64 63.3704 64 62.5938V45.0625H16ZM58.375 56.9688C58.375 57.7454 57.7454 58.375 56.9688 58.375H23.0312C22.2546 58.375 21.625 57.7454 21.625 56.9688V49.2812C21.625 48.5046 22.2546 47.875 23.0312 47.875H56.9688C57.7454 47.875 58.375 48.5046 58.375 49.2812V56.9688Z" fill="white"/>
<path d="M24.4375 50.6875H55.5625V55.5625H24.4375V50.6875Z" fill="white"/>
<path d="M41.8003 28.855C41.8619 28.4885 41.8871 27.6153 40.8726 27.188V30.1994C41.3999 29.8973 41.7149 29.3631 41.8003 28.855Z" fill="white"/>
<path d="M38.998 22.3661C38.7118 22.5855 38.5542 22.9176 38.4999 23.2057C38.425 23.6031 38.5198 23.9723 38.7416 24.1461C38.8197 24.2073 38.9057 24.2675 38.998 24.3267V22.3661Z" fill="white"/>
<path d="M40 36.625C45.6954 36.625 50.3125 32.0079 50.3125 26.3125C50.3125 20.6171 45.6954 16 40 16C34.3046 16 29.6875 20.6171 29.6875 26.3125C29.6875 32.0079 34.3046 36.625 40 36.625ZM36.4526 30.144C36.7361 29.7108 37.3172 29.5893 37.7504 29.8727C38.2567 30.2039 38.5742 30.3478 38.9978 30.4073V26.4479C38.3989 26.1735 37.9514 25.9094 37.5842 25.6213C36.8062 25.0112 36.451 23.9524 36.6572 22.8583C36.8818 21.666 37.7118 20.7174 38.823 20.3826C38.8818 20.3649 38.9401 20.3487 38.9978 20.3333V19.75C38.9978 19.2323 39.4175 18.8125 39.9353 18.8125C40.453 18.8125 40.8728 19.2323 40.8728 19.75V20.2307C41.7829 20.3882 42.4264 20.8363 42.738 21.194C43.0781 21.5844 43.0372 22.1766 42.6468 22.5167C42.2585 22.8549 41.6706 22.8165 41.3296 22.4318C41.3083 22.4102 41.1592 22.2667 40.8728 22.1612V25.1904C41.0392 25.2522 41.2055 25.3121 41.3688 25.3698C43.0167 25.9524 43.9333 27.4779 43.6496 29.1659C43.429 30.4779 42.4306 31.8085 40.8728 32.2037V32.875C40.8728 33.3927 40.453 33.8125 39.9353 33.8125C39.4175 33.8125 38.9978 33.3927 38.9978 32.875V32.2936C38.2409 32.2281 37.6134 32.0237 36.724 31.4418C36.2906 31.1583 36.1691 30.5773 36.4526 30.144V30.144Z" fill="white"/>
<path d="M60.1777 31.9616C59.9862 31.3874 59.4489 31 58.8436 31H52.2588C51.4031 33.2302 49.9562 35.1699 48.11 36.625H52.1874C52.964 36.625 53.5936 37.2546 53.5936 38.0312C53.5936 38.8079 52.964 39.4375 52.1874 39.4375H27.8124C27.0357 39.4375 26.4061 38.8079 26.4061 38.0312C26.4061 37.2546 27.0357 36.625 27.8124 36.625H31.8897C30.0435 35.1699 28.5966 33.2302 27.7409 31H21.1561C20.5508 31 20.0135 31.3874 19.822 31.9616L16.3926 42.25H63.6072L60.1777 31.9616Z" fill="white"/>
<defs>
<linearGradient id="paint0_linear_942_735" x1="81.25" y1="-3.50006" x2="-5.25" y2="81.4999" gradientUnits="userSpaceOnUse">
<stop stop-color="#1C9D72"/>
<stop offset="1" stop-color="#0A8B60"/>
</linearGradient>
</defs>
</svg>
