<svg width="80" height="80" viewBox="0 0 80 80" fill="none" xmlns="http://www.w3.org/2000/svg">
<rect width="80" height="80" rx="16" fill="url(#paint0_linear_942_693)"/>
<path d="M65.9115 42.7621C63.3209 33.6776 57.3402 29.7604 51.7918 31.3423C50.3529 31.7526 49.0901 32.4989 48.0481 33.5311C47.4506 34.1229 46.6615 34.4805 45.8206 34.4805H36.2584C35.4174 34.4805 34.6282 34.1226 34.0306 33.5308C32.9887 32.4989 31.726 31.7526 30.2873 31.3423C24.7387 29.7604 18.758 33.6776 16.1677 42.7621C13.577 51.8466 15.3578 62.658 20.9063 64.2401C25.0911 65.4334 30.222 61.0339 33.6034 54.9025C33.9623 54.2515 34.658 53.8585 35.4012 53.8585H46.6779C47.4212 53.8585 48.1169 54.2515 48.4758 54.9025C51.8572 61.0339 56.988 65.4334 61.1729 64.2401C66.7213 62.658 68.5019 51.8466 65.9115 42.7621Z" fill="#3A556A"/>
<path d="M54.4073 41.2302C55.8466 41.2302 57.0133 40.0635 57.0133 38.6242C57.0133 37.1849 55.8466 36.0182 54.4073 36.0182C52.968 36.0182 51.8013 37.1849 51.8013 38.6242C51.8013 40.0635 52.968 41.2302 54.4073 41.2302Z" fill="#FCD462"/>
<path d="M54.4073 50.6293C55.8466 50.6293 57.0133 49.4625 57.0133 48.0233C57.0133 46.584 55.8466 45.4172 54.4073 45.4172C52.968 45.4172 51.8013 46.584 51.8013 48.0233C51.8013 49.4625 52.968 50.6293 54.4073 50.6293Z" fill="#44C4A1"/>
<path d="M59.107 45.9299C60.5463 45.9299 61.713 44.7632 61.713 43.3239C61.713 41.8846 60.5463 40.7179 59.107 40.7179C57.6677 40.7179 56.501 41.8846 56.501 43.3239C56.501 44.7632 57.6677 45.9299 59.107 45.9299Z" fill="#27A2DB"/>
<path d="M49.7081 45.9299C51.1473 45.9299 52.3141 44.7632 52.3141 43.3239C52.3141 41.8846 51.1473 40.7179 49.7081 40.7179C48.2688 40.7179 47.1021 41.8846 47.1021 43.3239C47.1021 44.7632 48.2688 45.9299 49.7081 45.9299Z" fill="#E56353"/>
<path d="M32.3252 41.7966H28.4641V37.9353C28.4641 37.5312 28.1364 37.2034 27.7322 37.2034H24.5524C24.1482 37.2034 23.8205 37.5312 23.8205 37.9353V41.7966H19.9594C19.5552 41.7966 19.2275 42.1242 19.2275 42.5285V45.7083C19.2275 46.1124 19.5552 46.4402 19.9594 46.4402H23.8205V50.3013C23.8205 50.7054 24.1482 51.0332 24.5524 51.0332H27.7322C28.1364 51.0332 28.4641 50.7054 28.4641 50.3013V46.4402H32.3252C32.7294 46.4402 33.0571 46.1124 33.0571 45.7083V42.5285C33.0571 42.1242 32.7294 41.7966 32.3252 41.7966Z" fill="#EBF0F3"/>
<path d="M26.1426 37.8953L25.0127 39.0252L27.2728 39.0255L26.1426 37.8953Z" fill="#E1E6E9"/>
<path d="M26.1429 50.3412L27.2728 49.2112L25.0127 49.2109L26.1429 50.3412Z" fill="#E1E6E9"/>
<path d="M32.3651 44.118L31.2351 42.9882L31.2349 45.2482L32.3651 44.118Z" fill="#E1E6E9"/>
<path d="M19.9189 44.1184L21.0489 45.2482L21.0492 42.9882L19.9189 44.1184Z" fill="#E1E6E9"/>
<path d="M40.1144 36.792H35.7109V38.6243H40.1144V36.792Z" fill="#FCD462"/>
<path d="M46.3678 36.792H41.9644V38.6243H46.3678V36.792Z" fill="#44C4A1"/>
<path d="M41 30C45.9706 30 50 25.9706 50 21C50 16.0294 45.9706 12 41 12C36.0294 12 32 16.0294 32 21C32 25.9706 36.0294 30 41 30Z" fill="#FFE14D"/>
<path d="M50 21C50 16.0374 45.9626 12 41 12V30C45.9626 30 50 25.9626 50 21Z" fill="#FFBB33"/>
<path d="M41 27.8555C37.22 27.8555 34.1445 24.78 34.1445 21C34.1445 17.22 37.22 14.1445 41 14.1445C44.78 14.1445 47.8555 17.22 47.8555 21C47.8555 24.78 44.78 27.8555 41 27.8555Z" fill="#FFBB33"/>
<path d="M47.8555 21C47.8555 17.22 44.78 14.1445 41 14.1445V27.8555C44.78 27.8555 47.8555 24.78 47.8555 21Z" fill="#E68A2E"/>
<path d="M41.5273 20.5102V18.4252C42.1339 18.574 42.582 18.9643 42.582 19.4128C42.582 19.7043 42.8179 19.9402 43.1094 19.9402C43.4009 19.9402 43.6367 19.7043 43.6367 19.4128C43.6367 18.3939 42.7297 17.542 41.5273 17.3461V16.7761C41.5273 16.4846 41.2915 16.2488 41 16.2488C40.7085 16.2488 40.4727 16.4846 40.4727 16.7761V17.3461C39.2703 17.542 38.3633 18.3939 38.3633 19.4128C38.3633 20.4317 39.2703 21.2836 40.4727 21.4795V23.5645C39.8661 23.4157 39.418 23.0255 39.418 22.5769C39.418 22.2854 39.1821 22.0496 38.8906 22.0496C38.5991 22.0496 38.3633 22.2854 38.3633 22.5769C38.3633 23.5958 39.2703 24.4477 40.4727 24.6436V25.2188C40.4727 25.5102 40.7085 25.7461 41 25.7461C41.2915 25.7461 41.5273 25.5102 41.5273 25.2188V24.6436C42.7297 24.4477 43.6367 23.5958 43.6367 22.5769C43.6367 21.558 42.7297 20.7061 41.5273 20.5102V20.5102ZM39.418 19.4128C39.418 18.9643 39.8661 18.574 40.4727 18.4252V20.4005C39.8661 20.2516 39.418 19.8614 39.418 19.4128V19.4128ZM41.5273 23.5645V21.5893C42.1339 21.7381 42.582 22.1283 42.582 22.5769C42.582 23.0255 42.1339 23.4157 41.5273 23.5645Z" fill="#FFE14D"/>
<path d="M41.5273 25.2188V24.6436C42.7297 24.4477 43.6367 23.5958 43.6367 22.5769C43.6367 21.558 42.7297 20.7061 41.5273 20.5102V18.4252C42.1339 18.574 42.582 18.9643 42.582 19.4128C42.582 19.7043 42.8179 19.9402 43.1094 19.9402C43.4009 19.9402 43.6367 19.7043 43.6367 19.4128C43.6367 18.3939 42.7297 17.542 41.5273 17.3461V16.7761C41.5273 16.4846 41.2915 16.2488 41 16.2488V25.7461C41.2915 25.7461 41.5273 25.5102 41.5273 25.2188ZM41.5273 21.5893C42.1339 21.7381 42.582 22.1283 42.582 22.5769C42.582 23.0254 42.1339 23.4157 41.5273 23.5645V21.5893Z" fill="#FFBB33"/>
<defs>
<linearGradient id="paint0_linear_942_693" x1="81.25" y1="-3.5" x2="-5.25" y2="81.5" gradientUnits="userSpaceOnUse">
<stop stop-color="#E05B49"/>
<stop offset="1" stop-color="#D1402C"/>
</linearGradient>
</defs>
</svg>
