<svg width="80" height="81" viewBox="0 0 80 81" fill="none" xmlns="http://www.w3.org/2000/svg">
<rect y="0.246033" width="80" height="80" rx="16" fill="url(#paint0_linear_933_152)"/>
<path d="M33.1459 26.8613C34.1222 26.0805 35.489 26.0805 36.4653 27.0564L42.5183 33.6929C43.2993 34.6688 43.2993 36.0351 42.323 36.8158L35.6843 42.6715C34.708 43.4522 33.3411 43.4523 32.3648 42.4763L26.3118 35.8399C25.5308 34.8639 25.5308 33.4977 26.5071 32.7169L33.1459 26.8613ZM43.2993 27.8372C42.5183 27.0565 42.7136 25.8853 43.4946 25.1045L47.0092 21.9816C47.7902 21.2008 48.9618 21.396 49.7428 22.1767L52.867 25.6901C53.648 26.4709 53.4527 27.642 52.6717 28.4228L49.1571 31.5458C48.376 32.3265 47.2045 32.1313 46.4235 31.3506L43.2993 27.8372ZM62.0441 25.6901C61.4583 26.2757 60.2868 26.2757 59.701 25.4949L57.5532 23.1527C56.9674 22.5671 56.9674 21.396 57.7484 20.8104L60.0915 18.6634C60.6773 18.0778 61.8488 18.0778 62.4346 18.8586L64.5824 21.2008C65.1682 21.7863 65.1682 22.9575 64.3872 23.5431C64.3872 23.7382 62.0441 25.6901 62.0441 25.6901ZM57.9437 33.3025L61.8488 37.7918C62.4346 38.3773 62.2393 39.3533 61.6536 39.7436L38.0273 60.6288L36.8558 61.6047C34.3174 63.947 30.4123 63.7517 28.0692 61.2143L19.4778 51.6501L16.3537 48.1368C15.7679 47.5512 15.9631 46.5752 16.5489 46.1849L20.4541 42.6715C21.0399 42.0859 22.0161 42.0859 22.4067 42.6715L32.1696 52.8212C32.7553 53.4068 33.5364 53.4068 34.3174 52.8212L55.9911 33.1073C56.3816 32.7169 57.3579 32.7169 57.9437 33.3025Z" fill="white"/>
<defs>
<linearGradient id="paint0_linear_933_152" x1="81.25" y1="-3.25397" x2="-5.25" y2="81.746" gradientUnits="userSpaceOnUse">
<stop stop-color="#036CB5"/>
<stop offset="1" stop-color="#00528B"/>
</linearGradient>
</defs>
</svg>
