<svg width="80" height="80" viewBox="0 0 80 80" fill="none" xmlns="http://www.w3.org/2000/svg">
<rect y="-6.10352e-05" width="80" height="80" rx="16" fill="url(#paint0_linear_933_144)"/>
<path d="M53.1831 26.4284L45.7776 19.0227C45.0988 18.3439 44.3962 17.9999 43.6892 17.9999C42.6106 17.9999 41.5218 18.8614 41.5218 20.7855V22.8218C31.0076 23.4428 22.3034 31.5117 21.0098 42.076C20.9373 42.666 21.2728 43.2308 21.8257 43.4496C21.9822 43.5115 22.1452 43.5414 22.3061 43.5414C22.7137 43.5414 23.1091 43.3506 23.3609 43.0066C26.8307 38.2656 32.4019 35.4351 38.2636 35.4351C39.3501 35.4351 40.4419 35.5331 41.5218 35.727V37.9692C41.5218 38.6814 41.6644 39.2788 41.9448 39.7443C42.332 40.3867 42.9675 40.7548 43.6892 40.7548C44.3962 40.7548 45.0988 40.4105 45.7776 39.732L53.1831 32.3263C54.8091 30.7002 54.8091 28.0541 53.1831 26.4284V26.4284Z" fill="#00D8E0"/>
<path d="M59.1733 37.1469C58.6201 36.9281 57.9893 37.1105 57.6381 37.5902C54.1683 42.3309 48.5971 45.1614 42.7354 45.1614C41.6493 45.1614 40.5575 45.0634 39.4772 44.8694V42.6272C39.4772 40.7031 38.3888 39.8416 37.3098 39.8416C36.6028 39.8416 35.9002 40.186 35.2217 40.8648L27.816 48.2702C26.1899 49.8962 26.1899 52.542 27.816 54.1684L35.2217 61.5738C35.9002 62.2526 36.6028 62.5966 37.3098 62.5966C38.3888 62.5966 39.4772 61.7351 39.4772 59.811V57.7746C49.9918 57.1537 58.696 49.0847 59.9892 38.5208C60.0617 37.9305 59.7262 37.3657 59.1733 37.1469V37.1469Z" fill="#54E360"/>
<path d="M41.5219 37.9692C41.5219 38.6814 41.6645 39.2788 41.9449 39.7443C42.3321 40.3867 42.9677 40.7548 43.6893 40.7548C44.3963 40.7548 45.099 40.4105 45.7777 39.732L53.1832 32.3263C54.8092 30.7002 54.8092 28.0545 53.1832 26.4284L45.7777 19.0227C45.099 18.3439 44.3963 17.9999 43.6893 17.9999C42.6107 17.9999 41.5219 18.8614 41.5219 20.7855V22.8218C41.1793 22.8423 40.8384 22.8708 40.4995 22.9069V35.5736C40.8411 35.6158 41.1824 35.6661 41.5219 35.727V37.9692Z" fill="#00ACB3"/>
<path d="M59.1736 37.1469C58.6203 36.9281 57.9895 37.1105 57.6384 37.5902C54.1685 42.3309 48.5974 45.1614 42.7356 45.1614C41.9911 45.1614 41.244 45.1141 40.4995 45.0229V57.6896C50.5514 56.6246 58.738 48.7404 59.9895 38.5208C60.0619 37.9305 59.7265 37.3657 59.1736 37.1469V37.1469Z" fill="#00AB5E"/>
<defs>
<linearGradient id="paint0_linear_933_144" x1="81.25" y1="-3.50006" x2="-5.25" y2="81.4999" gradientUnits="userSpaceOnUse">
<stop stop-color="#1472BD"/>
<stop offset="1" stop-color="#01579B"/>
</linearGradient>
</defs>
</svg>
