<svg width="80" height="80" viewBox="0 0 80 80" fill="none" xmlns="http://www.w3.org/2000/svg">
<rect y="6.10352e-05" width="80" height="80" rx="24" fill="url(#paint0_linear_873_266)"/>
<path d="M53.1831 26.4286L45.7776 19.0228C45.0988 18.344 44.3962 18 43.6892 18C42.6106 18 41.5218 18.8615 41.5218 20.7856V22.822C31.0076 23.4429 22.3034 31.5118 21.0098 42.0761C20.9373 42.6661 21.2728 43.2309 21.8257 43.4497C21.9822 43.5116 22.1452 43.5416 22.3061 43.5416C22.7137 43.5416 23.1091 43.3507 23.3609 43.0067C26.8307 38.2657 32.4019 35.4352 38.2636 35.4352C39.3501 35.4352 40.4419 35.5332 41.5218 35.7271V37.9694C41.5218 38.6815 41.6644 39.279 41.9448 39.7444C42.332 40.3868 42.9675 40.7549 43.6892 40.7549C44.3962 40.7549 45.0988 40.4106 45.7776 39.7322L53.1831 32.3264C54.8091 30.7003 54.8091 28.0543 53.1831 26.4286V26.4286Z" fill="#00D8E0"/>
<path d="M59.1735 37.147C58.6202 36.9282 57.9894 37.1106 57.6383 37.5903C54.1684 42.331 48.5973 45.1615 42.7355 45.1615C41.6494 45.1615 40.5576 45.0635 39.4773 44.8696V42.6273C39.4773 40.7033 38.3889 39.8418 37.31 39.8418C36.6029 39.8418 35.9003 40.1861 35.2219 40.8649L27.8161 48.2703C26.19 49.8964 26.19 52.5421 27.8161 54.1685L35.2219 61.5739C35.9003 62.2527 36.6029 62.5967 37.31 62.5967C38.3889 62.5967 39.4773 61.7352 39.4773 59.8111V57.7747C49.9919 57.1538 58.6961 49.0849 59.9894 38.5209C60.0618 37.9306 59.7264 37.3658 59.1735 37.147V37.147Z" fill="#54E360"/>
<path d="M41.5218 37.9694C41.5218 38.6815 41.6644 39.279 41.9448 39.7444C42.332 40.3868 42.9675 40.7549 43.6892 40.7549C44.3962 40.7549 45.0988 40.4106 45.7776 39.7322L53.1831 32.3264C54.8091 30.7003 54.8091 28.0546 53.1831 26.4286L45.7776 19.0228C45.0988 18.344 44.3962 18 43.6892 18C42.6106 18 41.5218 18.8615 41.5218 20.7856V22.822C41.1792 22.8424 40.8383 22.871 40.4994 22.907V35.5737C40.841 35.6159 41.1823 35.6662 41.5218 35.7271V37.9694Z" fill="#00ACB3"/>
<path d="M59.1734 37.147C58.6202 36.9282 57.9894 37.1106 57.6382 37.5903C54.1684 42.331 48.5972 45.1615 42.7355 45.1615C41.991 45.1615 41.2438 45.1142 40.4994 45.023V57.6897C50.5513 56.6247 58.7379 48.7405 59.9893 38.5209C60.0618 37.9306 59.7263 37.3658 59.1734 37.147V37.147Z" fill="#00AB5E"/>
<defs>
<linearGradient id="paint0_linear_873_266" x1="81.25" y1="-3.49994" x2="-5.25" y2="81.5001" gradientUnits="userSpaceOnUse">
<stop stop-color="#1472BD"/>
<stop offset="1" stop-color="#01579B"/>
</linearGradient>
</defs>
</svg>
