<svg width="81" height="81" viewBox="0 0 81 81" fill="none" xmlns="http://www.w3.org/2000/svg">
<rect x="0.462402" y="0.245972" width="80" height="80" rx="16" fill="url(#paint0_linear_933_184)"/>
<path d="M23.9 60.946V63.246H17V60.946H23.9ZM26.2 63.246V60.946H37.6986L37.7 54.046H17V17.246H34.7263L40.4773 22.996H63V54.046H42.3V60.946H53.8V63.246H26.2ZM63 60.946V63.246H56.1V60.946H63ZM33.7728 19.546H19.3V51.746H60.7V25.296H39.5237L33.7728 19.546Z" fill="white"/>
<mask id="mask0_933_184" style="mask-type:alpha" maskUnits="userSpaceOnUse" x="0" y="0" width="80" height="81">
<rect y="0.246094" width="80" height="80" rx="16" fill="url(#paint1_linear_933_184)"/>
</mask>
<g mask="url(#mask0_933_184)">
<circle cx="66" cy="66.2461" r="17" fill="#FFD600"/>
<circle cx="66.0007" cy="66.2461" r="14.6818" fill="#FFC702"/>
<path d="M65.4222 75.8008H67.8807V73.9951C69.1865 73.7979 70.227 73.298 71.0023 72.4955C71.7844 71.693 72.1755 70.6933 72.1755 69.4963C72.1755 68.4626 71.8933 67.6329 71.3288 67.0072C70.7711 66.3747 69.8564 65.8715 68.5846 65.4974L65.9425 64.7323C65.242 64.5283 64.7285 64.2868 64.4021 64.008C64.0824 63.7224 63.9226 63.3755 63.9226 62.9675C63.9226 62.4234 64.1742 61.9711 64.6775 61.6107C65.1808 61.2502 65.803 61.0768 66.5443 61.0904C67.3196 61.1108 67.9793 61.3455 68.5234 61.7943C69.0743 62.2364 69.4211 62.8213 69.5639 63.5489L72.0837 63.0899C71.8184 61.9541 71.322 61.0292 70.5943 60.3151C69.8734 59.601 68.9689 59.1386 67.8807 58.9277V57.0609H65.4222V58.8767C64.2048 59.0535 63.2425 59.516 62.5352 60.2641C61.8347 61.0054 61.4845 61.9473 61.4845 63.0899C61.4845 64.9601 62.5148 66.2115 64.5755 66.844L68.1154 67.9457C68.6866 68.1226 69.1015 68.347 69.3599 68.619C69.6184 68.8911 69.7476 69.2379 69.7476 69.6596C69.7476 70.2648 69.4755 70.7681 68.9315 71.1694C68.3874 71.5706 67.6937 71.7712 66.8504 71.7712C65.9731 71.7712 65.2216 71.5264 64.5959 71.0367C63.9702 70.5471 63.5587 69.8806 63.3615 69.0373L60.9336 69.4249C61.124 70.6423 61.6171 71.6488 62.4128 72.4445C63.2085 73.2402 64.2116 73.7469 65.4222 73.9645V75.8008Z" fill="white"/>
</g>
<defs>
<linearGradient id="paint0_linear_933_184" x1="81.7124" y1="-3.25403" x2="-4.7876" y2="81.746" gradientUnits="userSpaceOnUse">
<stop stop-color="#1460A8"/>
<stop offset="1" stop-color="#014484"/>
</linearGradient>
<linearGradient id="paint1_linear_933_184" x1="80" y1="-8.75391" x2="-1.24346e-06" y2="84.4961" gradientUnits="userSpaceOnUse">
<stop stop-color="#FF8844"/>
<stop offset="1" stop-color="#FF5D00"/>
</linearGradient>
</defs>
</svg>
