<svg width="80" height="80" viewBox="0 0 80 80" fill="none" xmlns="http://www.w3.org/2000/svg">
<rect width="80" height="80" rx="16" fill="url(#paint0_linear_942_847)"/>
<path fill-rule="evenodd" clip-rule="evenodd" d="M32.4979 30.1952C33.678 28.1941 35.5869 26.6723 37.857 25.9969C36.7472 24.2003 34.7603 23 32.4979 23C30.2353 23 28.2485 24.2003 27.1387 25.9969C29.4089 26.6723 31.3177 28.1942 32.4979 30.1952ZM24.4959 28.6014C27.9671 28.6014 30.7912 31.4255 30.7912 34.8968C30.7912 38.368 27.9671 41.1921 24.4959 41.1921C21.0247 41.1921 18.2007 38.3679 18.2007 34.8968C18.2007 31.4256 21.0247 28.6014 24.4959 28.6014ZM56.5037 28.6014C59.9749 28.6014 62.799 31.4255 62.799 34.8968C62.799 38.368 59.9749 41.1921 56.5037 41.1921C53.0325 41.1921 50.2085 38.3679 50.2085 34.8968C50.2085 31.4256 53.0325 28.6014 56.5037 28.6014ZM48.5018 30.1952C47.3215 28.1941 45.4127 26.6723 43.1426 25.9969C44.2524 24.2003 46.2392 23.0001 48.5018 23C50.7642 23 52.7511 24.2003 53.8609 25.9969C51.5908 26.6723 49.6819 28.1941 48.5018 30.1952ZM46.7952 34.8968C46.7952 31.4255 43.9711 28.6014 40.4999 28.6014C37.0287 28.6014 34.2046 31.4255 34.2046 34.8968C34.2046 38.368 37.0286 41.1921 40.4998 41.1921C43.971 41.1921 46.7952 38.368 46.7952 34.8968ZM15 56.502V50.6881C15 45.452 19.26 41.1921 24.4961 41.1921C26.7474 41.1921 28.8179 41.9801 30.4473 43.2941C28.9198 45.3653 28.0156 47.923 28.0156 50.6881V56.502C28.0156 57.0258 28.1067 57.5285 28.2726 57.9962H16.4941C15.669 57.9962 15 57.3272 15 56.502ZM56.5039 41.1921C54.2525 41.1921 52.1821 41.9801 50.5527 43.2941C52.0802 45.3653 52.9845 47.923 52.9845 50.6881V56.502C52.9845 57.0258 52.8934 57.5285 52.7275 57.9962H64.5059C65.3311 57.9962 66.0001 57.3272 66.0001 56.502V50.6881C66.0001 45.452 61.7401 41.1921 56.5039 41.1921ZM31.0039 50.6881C31.0039 45.4521 35.2639 41.1921 40.5 41.1921C45.7361 41.1921 49.996 45.452 49.9961 50.6881V56.502C49.9961 57.3272 49.3272 57.9962 48.502 57.9962H32.498C31.6729 57.9962 31.0039 57.3272 31.0039 56.502V50.6881Z" fill="white"/>
<mask id="mask0_942_847" style="mask-type:alpha" maskUnits="userSpaceOnUse" x="0" y="0" width="80" height="80">
<rect width="80" height="80" rx="16" fill="url(#paint1_linear_942_847)"/>
</mask>
<g mask="url(#mask0_942_847)">
<circle cx="66" cy="66" r="17" fill="#FFD600"/>
<circle cx="66.0007" cy="66" r="14.6818" fill="#FFC702"/>
<path d="M65.4222 75.5547H67.8807V73.749C69.1865 73.5518 70.227 73.0519 71.0023 72.2494C71.7844 71.4469 72.1755 70.4472 72.1755 69.2502C72.1755 68.2165 71.8933 67.3868 71.3288 66.7611C70.7711 66.1286 69.8564 65.6253 68.5846 65.2513L65.9425 64.4862C65.242 64.2822 64.7285 64.0407 64.4021 63.7619C64.0824 63.4762 63.9226 63.1294 63.9226 62.7213C63.9226 62.1773 64.1742 61.725 64.6775 61.3646C65.1808 61.0041 65.803 60.8307 66.5443 60.8443C67.3196 60.8647 67.9793 61.0993 68.5234 61.5482C69.0743 61.9902 69.4211 62.5751 69.5639 63.3028L72.0837 62.8438C71.8184 61.708 71.322 60.7831 70.5943 60.069C69.8734 59.3549 68.9689 58.8924 67.8807 58.6816V56.8148H65.4222V58.6306C64.2048 58.8074 63.2425 59.2699 62.5352 60.018C61.8347 60.7593 61.4845 61.7012 61.4845 62.8438C61.4845 64.714 62.5148 65.9654 64.5755 66.5979L68.1154 67.6996C68.6866 67.8764 69.1015 68.1009 69.3599 68.3729C69.6184 68.6449 69.7476 68.9918 69.7476 69.4134C69.7476 70.0187 69.4755 70.522 68.9315 70.9232C68.3874 71.3245 67.6937 71.5251 66.8504 71.5251C65.9731 71.5251 65.2216 71.2803 64.5959 70.7906C63.9702 70.301 63.5587 69.6345 63.3615 68.7912L60.9336 69.1788C61.124 70.3962 61.6171 71.4027 62.4128 72.1984C63.2085 72.9941 64.2116 73.5008 65.4222 73.7184V75.5547Z" fill="white"/>
</g>
<defs>
<linearGradient id="paint0_linear_942_847" x1="81.25" y1="-3.5" x2="-5.25" y2="81.5" gradientUnits="userSpaceOnUse">
<stop stop-color="#9F4771"/>
<stop offset="1" stop-color="#843058"/>
</linearGradient>
<linearGradient id="paint1_linear_942_847" x1="80" y1="-9" x2="-1.24346e-06" y2="84.25" gradientUnits="userSpaceOnUse">
<stop stop-color="#FF8844"/>
<stop offset="1" stop-color="#FF5D00"/>
</linearGradient>
</defs>
</svg>
