<svg width="81" height="80" viewBox="0 0 81 80" fill="none" xmlns="http://www.w3.org/2000/svg">
<rect x="0.461914" y="0.00012207" width="80" height="80" rx="16" fill="url(#paint0_linear_933_491)"/>
<path d="M46.8487 52.78C47.8612 52.78 48.682 51.9592 48.682 50.9466C48.682 49.9341 47.8612 49.1133 46.8487 49.1133C45.8362 49.1133 45.0154 49.9341 45.0154 50.9466C45.0154 51.9592 45.8362 52.78 46.8487 52.78Z" fill="white"/>
<path d="M33.8123 52.78C34.8248 52.78 35.6456 51.9592 35.6456 50.9466C35.6456 49.9341 34.8248 49.1133 33.8123 49.1133C32.7998 49.1133 31.979 49.9341 31.979 50.9466C31.979 51.9592 32.7998 52.78 33.8123 52.78Z" fill="white"/>
<path d="M64.3524 51.5834L60.7519 38.9817C59.2929 33.8718 54.6231 30.3502 49.3098 30.3502L47.521 33.9241H43.1943V32.3443C43.1943 30.7637 41.9121 29.4814 40.3304 29.4814C39.5396 29.4814 38.8239 29.8018 38.3059 30.3198C37.7879 30.8378 37.4675 31.5545 37.4675 32.3443V33.9241H33.1437L31.3558 30.3502C28.6982 30.3512 26.2022 31.2313 24.1891 32.7512C22.174 34.271 20.6418 36.4286 19.9128 38.9836L16.3123 51.5843C14.8533 56.6885 18.6857 61.7699 23.9942 61.7699C27.8818 61.6149 31.027 59.0058 31.8786 55.2124C30.258 54.4748 29.1279 52.8409 29.1279 50.9465C29.1279 48.3631 31.2294 46.2615 33.8119 46.2615C36.3184 46.2615 38.3715 48.2405 38.4912 50.7175H42.1697C42.2894 48.2405 44.3425 46.2615 46.849 46.2615C49.4315 46.2615 51.533 48.3631 51.533 50.9465C51.533 52.8399 50.4038 54.4738 48.7842 55.2114C49.6615 59.0305 52.7744 61.6149 56.6695 61.7699C61.978 61.7699 65.8114 56.6876 64.3524 51.5834V51.5834ZM32.216 42.1506H29.3522V45.0145H26.5007V42.1506H23.6378V39.2991H26.5007V36.4353H29.3522V39.2991H32.216V42.1506ZM44.62 42.1506H36.0418V39.2991H44.62V42.1506ZM57.024 42.1506H54.1602V45.0145H51.3087V42.1506H48.4458V39.2991H51.3087V36.4353H54.1602V39.2991H57.024V42.1506Z" fill="white"/>
<path d="M33.25 24.6603L35.2663 26.6766C36.6195 25.3235 38.4186 24.5782 40.3323 24.5782C42.246 24.5782 44.0451 25.3234 45.3983 26.6766L47.4146 24.6603C45.5229 22.7685 43.0076 21.7267 40.3323 21.7267C37.6569 21.7268 35.1417 22.7686 33.25 24.6603Z" fill="white"/>
<path d="M40.3323 18.8515C43.7757 18.8515 47.0129 20.1924 49.4477 22.6273L51.464 20.611C48.4907 17.6375 44.5374 16 40.3323 16C36.1273 16 32.174 17.6375 29.2007 20.611L31.217 22.6273C33.6518 20.1924 36.8891 18.8515 40.3323 18.8515Z" fill="white"/>
<defs>
<linearGradient id="paint0_linear_933_491" x1="81.7119" y1="-3.49988" x2="-4.78808" y2="81.5001" gradientUnits="userSpaceOnUse">
<stop stop-color="#5C6BC0"/>
<stop offset="1" stop-color="#495AB6"/>
</linearGradient>
</defs>
</svg>
