<svg width="81" height="80" viewBox="0 0 81 80" fill="none" xmlns="http://www.w3.org/2000/svg">
<rect x="0.462158" y="0.00012207" width="80" height="80" rx="24" fill="url(#paint0_linear_903_54)"/>
<path d="M46.8489 52.78C47.8614 52.78 48.6822 51.9592 48.6822 50.9466C48.6822 49.9341 47.8614 49.1133 46.8489 49.1133C45.8364 49.1133 45.0156 49.9341 45.0156 50.9466C45.0156 51.9592 45.8364 52.78 46.8489 52.78Z" fill="white"/>
<path d="M33.8126 52.78C34.8251 52.78 35.6459 51.9592 35.6459 50.9466C35.6459 49.9341 34.8251 49.1133 33.8126 49.1133C32.8 49.1133 31.9792 49.9341 31.9792 50.9466C31.9792 51.9592 32.8 52.78 33.8126 52.78Z" fill="white"/>
<path d="M64.3526 51.5834L60.7521 38.9817C59.2931 33.8718 54.6233 30.3502 49.31 30.3502L47.5212 33.9241H43.1945V32.3443C43.1945 30.7637 41.9123 29.4814 40.3307 29.4814C39.5399 29.4814 38.8241 29.8018 38.3061 30.3198C37.7881 30.8378 37.4678 31.5545 37.4678 32.3443V33.9241H33.144L31.3561 30.3502C28.6985 30.3512 26.2025 31.2313 24.1893 32.7512C22.1743 34.271 20.6421 36.4286 19.913 38.9836L16.3125 51.5843C14.8535 56.6885 18.6859 61.7699 23.9945 61.7699C27.882 61.6149 31.0272 59.0058 31.8789 55.2124C30.2583 54.4748 29.1281 52.8409 29.1281 50.9465C29.1281 48.3631 31.2297 46.2615 33.8122 46.2615C36.3186 46.2615 38.3717 48.2405 38.4915 50.7175H42.1699C42.2897 48.2405 44.3427 46.2615 46.8492 46.2615C49.4317 46.2615 51.5333 48.3631 51.5333 50.9465C51.5333 52.8399 50.4041 54.4738 48.7844 55.2114C49.6617 59.0305 52.7746 61.6149 56.6697 61.7699C61.9783 61.7699 65.8116 56.6875 64.3526 51.5834ZM32.2163 42.1506H29.3524V45.0145H26.5009V42.1506H23.638V39.2991H26.5009V36.4353H29.3524V39.2991H32.2163V42.1506ZM44.6203 42.1506H36.042V39.2991H44.6203V42.1506ZM57.0243 42.1506H54.1604V45.0145H51.3089V42.1506H48.446V39.2991H51.3089V36.4353H54.1604V39.2991H57.0243V42.1506Z" fill="white"/>
<path d="M33.2504 24.6603L35.2667 26.6766C36.6199 25.3235 38.419 24.5782 40.3326 24.5782C42.2464 24.5782 44.0455 25.3234 45.3987 26.6766L47.415 24.6603C45.5233 22.7685 43.008 21.7267 40.3326 21.7267C37.6573 21.7268 35.142 22.7686 33.2504 24.6603Z" fill="white"/>
<path d="M40.3326 18.8515C43.776 18.8515 47.0132 20.1924 49.448 22.6273L51.4643 20.611C48.4909 17.6375 44.5377 16 40.3326 16C36.1276 16 32.1743 17.6375 29.2009 20.611L31.2172 22.6273C33.652 20.1924 36.8893 18.8515 40.3326 18.8515Z" fill="white"/>
<defs>
<linearGradient id="paint0_linear_903_54" x1="81.7122" y1="-3.49988" x2="-4.78784" y2="81.5001" gradientUnits="userSpaceOnUse">
<stop stop-color="#5C6BC0"/>
<stop offset="1" stop-color="#495AB6"/>
</linearGradient>
</defs>
</svg>
