<svg width="80" height="80" viewBox="0 0 80 80" fill="none" xmlns="http://www.w3.org/2000/svg">
<rect width="80" height="80" rx="16" fill="url(#paint0_linear_933_484)"/>
<path d="M49.5972 49.5475H53.3253V53.2834H49.5972V49.5475Z" fill="white"/>
<path d="M42.8105 29.2284C43.5336 28.5855 44.4642 28.2316 45.4308 28.2316C46.3973 28.2316 47.3279 28.5856 48.051 29.2284L49.0901 30.152V26.8519C49.0901 21.4194 44.6798 16.9999 39.2587 16.9999C34.5101 16.9999 30.5372 20.3911 29.6245 24.8836C31.1172 27.1556 33.7333 31.5967 34.8522 36.303L42.8105 29.2284Z" fill="white"/>
<path d="M61.697 59.3451H59.8792V46.7954L60.7359 47.5569C60.9864 47.7797 61.2983 47.8892 61.6088 47.8891C61.9721 47.8891 62.3338 47.7392 62.5939 47.4454C63.0763 46.9005 63.0265 46.0669 62.4827 45.5835L58.6243 42.1536V35.3181C58.6243 34.5898 58.035 33.9992 57.3081 33.9992C56.5812 33.9992 55.9919 34.5898 55.9919 35.3181V39.8136L46.3042 31.2016C45.8058 30.7586 45.0557 30.7586 44.5574 31.2016L28.379 45.5834C27.8352 46.0668 27.7855 46.9004 28.2678 47.4453C28.7502 47.9903 29.5821 48.0401 30.1258 47.5567L30.9825 46.7952V59.3449H26.7347V53.5908C27.2969 53.4186 27.8379 53.1358 28.3502 52.7482V50.4221C27.5635 50.2369 26.8441 49.8121 26.2987 49.196C24.854 47.5639 25.0035 45.0581 26.6321 43.6102L32.5728 38.3293C31.5728 31.9365 26.707 25.2712 26.4772 24.9595C26.229 24.6229 25.8362 24.4243 25.4186 24.4243C25.001 24.4243 24.6082 24.6229 24.36 24.9595C24.1037 25.307 18.0847 33.5509 18.0847 40.5105C18.0847 43.9073 18.7607 47.1215 19.9881 49.561C21.0709 51.713 22.5007 53.1011 24.1024 53.5909V59.3451H19.3162C18.5893 59.3451 18 59.9356 18 60.664C18 61.3924 18.5893 61.9829 19.3162 61.9998H59.8793H61.6971C62.424 61.9829 63.0133 61.3924 63.0133 60.664C63.0133 59.9356 62.4239 59.3451 61.697 59.3451V59.3451ZM46.9644 48.2286C46.9644 47.5002 47.5537 46.9097 48.2806 46.9097H54.6411C55.368 46.9097 55.9573 47.5002 55.9573 48.2286V54.6024C55.9573 55.3308 55.368 55.9214 54.6411 55.9214H48.2806C47.5537 55.9214 46.9644 55.3308 46.9644 54.6024V48.2286ZM39.7571 59.3451V49.5475H37.1247V59.3451H34.4924V48.2286C34.4924 47.5001 35.0817 46.9097 35.8086 46.9097H41.0733C41.8002 46.9097 42.3895 47.5002 42.3895 48.2286V59.3451H39.7571Z" fill="white"/>
<defs>
<linearGradient id="paint0_linear_933_484" x1="81.25" y1="-3.5" x2="-5.25" y2="81.5" gradientUnits="userSpaceOnUse">
<stop stop-color="#D15D43"/>
<stop offset="1" stop-color="#A04C39"/>
</linearGradient>
</defs>
</svg>
