<svg width="80" height="80" viewBox="0 0 80 80" fill="none" xmlns="http://www.w3.org/2000/svg">
<g clip-path="url(#clip0_903_94)">
<rect y="0.00012207" width="80" height="80" rx="24" fill="url(#paint0_linear_903_94)"/>
<path d="M49.5969 49.5476H53.325V53.2835H49.5969V49.5476Z" fill="white"/>
<path d="M42.8106 29.2285C43.5337 28.5856 44.4643 28.2317 45.4309 28.2317C46.3974 28.2317 47.328 28.5857 48.0511 29.2285L49.0902 30.1521V26.852C49.0902 21.4196 44.6799 17 39.2588 17C34.5102 17 30.5373 20.3912 29.6246 24.8837C31.1174 27.1558 33.7334 31.5969 34.8523 36.3031L42.8106 29.2285Z" fill="white"/>
<path d="M61.697 59.3452H59.8792V46.7955L60.7359 47.557C60.9864 47.7798 61.2983 47.8894 61.6088 47.8893C61.9721 47.8893 62.3338 47.7394 62.5939 47.4455C63.0763 46.9006 63.0265 46.067 62.4827 45.5837L58.6243 42.1538V35.3183C58.6243 34.5899 58.035 33.9993 57.3081 33.9993C56.5812 33.9993 55.9919 34.5899 55.9919 35.3183V39.8137L46.3042 31.2017C45.8058 30.7587 45.0557 30.7587 44.5574 31.2017L28.379 45.5836C27.8352 46.0669 27.7855 46.9006 28.2678 47.4455C28.7502 47.9905 29.5821 48.0402 30.1258 47.5569L30.9825 46.7953V59.345H26.7347V53.5909C27.2969 53.4187 27.8379 53.1359 28.3502 52.7483V50.4222C27.5635 50.237 26.8441 49.8123 26.2987 49.1961C24.854 47.5641 25.0035 45.0583 26.6321 43.6104L32.5728 38.3294C31.5728 31.9366 26.707 25.2713 26.4772 24.9596C26.229 24.623 25.8362 24.4244 25.4186 24.4244C25.001 24.4244 24.6082 24.623 24.36 24.9596C24.1037 25.3071 18.0847 33.5511 18.0847 40.5106C18.0847 43.9074 18.7607 47.1217 19.9881 49.5612C21.0709 51.7131 22.5007 53.1012 24.1024 53.591V59.3452H19.3162C18.5893 59.3452 18 59.9358 18 60.6641C18 61.3925 18.5893 61.9831 19.3162 62H59.8793H61.6971C62.424 61.9831 63.0133 61.3925 63.0133 60.6641C63.0133 59.9358 62.4239 59.3452 61.697 59.3452ZM46.9644 48.2287C46.9644 47.5003 47.5537 46.9098 48.2806 46.9098H54.6411C55.368 46.9098 55.9573 47.5003 55.9573 48.2287V54.6026C55.9573 55.331 55.368 55.9215 54.6411 55.9215H48.2806C47.5537 55.9215 46.9644 55.331 46.9644 54.6026V48.2287ZM39.7571 59.3452V49.5476H37.1247V59.3452H34.4924V48.2287C34.4924 47.5002 35.0817 46.9098 35.8086 46.9098H41.0733C41.8002 46.9098 42.3895 47.5003 42.3895 48.2287V59.3452H39.7571Z" fill="white"/>
</g>
<defs>
<linearGradient id="paint0_linear_903_94" x1="81.25" y1="-3.49988" x2="-5.25" y2="81.5001" gradientUnits="userSpaceOnUse">
<stop stop-color="#D15D43"/>
<stop offset="1" stop-color="#A04C39"/>
</linearGradient>
<clipPath id="clip0_903_94">
<rect width="80" height="80" fill="white"/>
</clipPath>
</defs>
</svg>
