<svg width="80" height="80" viewBox="0 0 80 80" fill="none" xmlns="http://www.w3.org/2000/svg">
<rect y="0.00012207" width="80" height="80" rx="24" fill="url(#paint0_linear_903_85)"/>
<path d="M52.0828 56.3162L45.5 54.3481V52.1478H34.5V54.3481L27.9172 56.3162C27.1902 56.5338 26.7777 57.2977 26.9951 58.0232C27.2134 58.7478 27.9799 59.1589 28.7078 58.9422L35.3895 56.944H44.6105L51.2922 58.9422C52.0154 59.1574 52.7854 58.752 53.0049 58.0232C53.2223 57.2977 52.8098 56.5338 52.0828 56.3162ZM60.625 22H19.375C18.6156 22 18 22.6135 18 23.3704V48.0367C18 48.7936 18.6156 49.4071 19.375 49.4071H60.625C61.3844 49.4071 62 48.7936 62 48.0367V23.3704C62 22.6136 61.3844 22 60.625 22ZM39.9854 43.2405C38.8484 43.2405 37.9229 42.3181 37.9229 41.185C37.9229 40.0518 38.8484 39.1294 39.9854 39.1294C41.1232 39.1294 42.0479 40.0518 42.0479 41.185C42.0479 42.3181 41.1232 43.2405 39.9854 43.2405ZM45.3333 37.7933C44.7964 38.3284 43.9265 38.3295 43.3885 37.7933C41.5106 35.9236 38.4675 35.9153 36.5831 37.7933C36.046 38.3286 35.1755 38.3286 34.6384 37.7933C34.1012 37.258 34.1012 36.3904 34.6384 35.8551C37.5929 32.9106 42.3776 32.9095 45.3333 35.8551C45.8704 36.3904 45.8704 37.258 45.3333 37.7933ZM49.222 33.9178C48.6858 34.4521 47.8143 34.4522 47.278 33.9178C43.2481 29.9015 36.7251 29.8999 32.6936 33.9178C32.1565 34.4531 31.2859 34.4531 30.7488 33.9178C30.2117 33.3825 30.2117 32.5149 30.7488 31.9796C35.8423 26.9033 44.1293 26.9042 49.222 31.9796C49.7591 32.5149 49.7591 33.3825 49.222 33.9178Z" fill="white"/>
<defs>
<linearGradient id="paint0_linear_903_85" x1="81.25" y1="-3.49988" x2="-5.25" y2="81.5001" gradientUnits="userSpaceOnUse">
<stop stop-color="#55A9D1"/>
<stop offset="1" stop-color="#455A64"/>
</linearGradient>
</defs>
</svg>
