<svg width="80" height="80" viewBox="0 0 80 80" fill="none" xmlns="http://www.w3.org/2000/svg">
<rect width="80" height="80" rx="16" fill="url(#paint0_linear_933_320)"/>
<path d="M53.6123 25.0633V20.9817H42.7793V14.0001L26.376 22.984L42.7793 31.8916V25.0633H53.6123Z" fill="white"/>
<path d="M26.3765 59.1716V55.09H37.2094V48.1085L53.6128 57.0923L37.2094 66V59.1716H26.3765Z" fill="white"/>
<path d="M26.4493 26.4248L22.3678 26.4451L22.4215 37.2778L15.4401 37.3125L24.5052 53.6711L33.3313 37.2237L26.5031 37.2576L26.4493 26.4248Z" fill="white"/>
<path d="M57.651 53.5929L53.5694 53.5727L53.6232 42.7399L46.6417 42.7053L55.7069 26.3467L64.533 42.7941L57.7047 42.7602L57.651 53.5929Z" fill="#6DE460"/>
<mask id="mask0_933_320" style="mask-type:alpha" maskUnits="userSpaceOnUse" x="0" y="0" width="80" height="80">
<rect width="80" height="80" rx="16" fill="url(#paint1_linear_933_320)"/>
</mask>
<g mask="url(#mask0_933_320)">
<circle cx="66" cy="66" r="17" fill="#FFD600"/>
<circle cx="66.0007" cy="66" r="14.6818" fill="#FFC702"/>
<path d="M65.4222 75.5547H67.8807V73.749C69.1865 73.5518 70.227 73.052 71.0023 72.2494C71.7844 71.4469 72.1755 70.4472 72.1755 69.2502C72.1755 68.2165 71.8933 67.3868 71.3288 66.7611C70.7711 66.1286 69.8564 65.6254 68.5846 65.2513L65.9425 64.4862C65.242 64.2822 64.7285 64.0408 64.4021 63.7619C64.0824 63.4763 63.9226 63.1294 63.9226 62.7214C63.9226 62.1773 64.1742 61.725 64.6775 61.3646C65.1808 61.0041 65.803 60.8307 66.5443 60.8443C67.3196 60.8647 67.9793 61.0994 68.5234 61.5482C69.0743 61.9903 69.4211 62.5752 69.5639 63.3029L72.0837 62.8438C71.8184 61.708 71.322 60.7831 70.5943 60.069C69.8734 59.3549 68.9689 58.8925 67.8807 58.6816V56.8148H65.4222V58.6306C64.2048 58.8075 63.2425 59.2699 62.5352 60.018C61.8347 60.7593 61.4845 61.7012 61.4845 62.8438C61.4845 64.714 62.5148 65.9654 64.5755 66.5979L68.1154 67.6996C68.6866 67.8765 69.1015 68.1009 69.3599 68.3729C69.6184 68.645 69.7476 68.9918 69.7476 69.4135C69.7476 70.0188 69.4755 70.522 68.9315 70.9233C68.3874 71.3245 67.6937 71.5252 66.8504 71.5252C65.9731 71.5252 65.2216 71.2803 64.5959 70.7907C63.9702 70.301 63.5587 69.6345 63.3615 68.7912L60.9336 69.1788C61.124 70.3962 61.6171 71.4027 62.4128 72.1984C63.2085 72.9941 64.2116 73.5008 65.4222 73.7184V75.5547Z" fill="white"/>
</g>
<defs>
<linearGradient id="paint0_linear_933_320" x1="80" y1="-9" x2="-1.24346e-06" y2="84.25" gradientUnits="userSpaceOnUse">
<stop stop-color="#058AE7"/>
<stop offset="1" stop-color="#0E5E95"/>
</linearGradient>
<linearGradient id="paint1_linear_933_320" x1="80" y1="-9" x2="-1.24346e-06" y2="84.25" gradientUnits="userSpaceOnUse">
<stop stop-color="#FF8844"/>
<stop offset="1" stop-color="#FF5D00"/>
</linearGradient>
</defs>
</svg>
