<svg width="80" height="80" viewBox="0 0 80 80" fill="none" xmlns="http://www.w3.org/2000/svg">
<rect width="80" height="80" rx="24" fill="url(#paint0_linear_492_2153)"/>
<path fill-rule="evenodd" clip-rule="evenodd" d="M40.8453 17.5255C42.8759 19.5574 42.8759 22.8611 40.8453 24.8916C38.8214 26.9156 35.5185 26.9292 33.4805 24.8916C31.4443 22.8554 31.4456 19.5604 33.4805 17.5255C35.5168 15.4915 38.8113 15.4915 40.8453 17.5255ZM38.4324 19.9397C37.7297 19.2365 36.5931 19.2396 35.8934 19.9397C35.1902 20.6425 35.1937 21.7791 35.8934 22.4788C36.594 23.1785 37.7328 23.1785 38.4324 22.4788C39.1321 21.7777 39.1321 20.639 38.4324 19.9397ZM57.8388 58.004L68.2274 51.9516C70.4632 50.6493 71.2561 47.844 70.0342 45.5629C69.8152 45.1546 69.5422 44.7892 69.228 44.4719C68.5133 43.7485 67.5874 43.2779 66.6017 43.1122L66.5713 43.1071C65.8103 42.9838 65.0134 43.042 64.2486 43.3086C64.1255 43.3516 64.0032 43.3999 63.882 43.4537L63.6746 43.5398L63.6597 43.5461C60.7626 44.7508 58.7895 45.6657 57.2928 46.3597L57.2927 46.3598L57.2923 46.36C56.5626 46.6983 55.9462 46.9842 55.391 47.2255C55.1856 47.3102 54.9841 47.3902 54.7848 47.4659C53.635 47.8964 52.524 48.183 51.0002 48.3837L50.9702 48.3863C52.1151 45.0535 49.6192 41.5414 46.0693 41.5414H40.3834C39.6463 41.5414 38.9625 41.1411 38.5564 40.4699C36.5592 37.1679 32.4794 37.2813 30.34 37.3408C29.8537 37.3544 29.4677 37.3651 29.2292 37.3323C25.418 37.3323 22.6653 39.2084 21.9079 42.1488H14.7066C13.7643 42.1488 13 42.9136 13 43.8555V51.375V58.8936C13 59.1294 13.0478 59.3539 13.1341 59.5581C13.3933 60.1706 13.9999 60.5998 14.7066 60.5998H21.6982V60.6024L41.8008 60.6024L48.218 60.6024C51.1727 60.6024 54.0886 59.9142 56.7262 58.6036C57.103 58.4164 57.4741 58.2165 57.8388 58.004ZM52.9564 29.6374C53.2135 29.8943 53.4382 30.1715 53.6304 30.4638C54.9583 32.4821 54.7363 35.2224 52.9564 37.0027C51.8269 38.1334 50.3059 38.6367 48.8279 38.5101C47.6483 38.4091 46.4959 37.907 45.5916 37.0027C44.703 36.1141 44.2032 34.982 44.0922 33.8196C44.0661 33.5466 44.0614 33.272 44.0782 32.9984C44.1533 31.774 44.6578 30.5712 45.5916 29.6374C47.6322 27.5968 50.9281 27.6069 52.9564 29.6374ZM50.5435 34.5898C50.4559 34.6774 50.3614 34.754 50.2619 34.8197C49.5651 35.2796 48.6182 35.2036 48.0045 34.5898C47.5672 34.1516 47.4032 33.5425 47.5125 32.9765C47.5781 32.6369 47.7421 32.313 48.0045 32.0508C48.705 31.3497 49.8416 31.3484 50.5435 32.0508C50.8102 32.3174 50.9758 32.6475 51.0396 32.993C51.1431 33.5538 50.9786 34.1547 50.5435 34.5898ZM50.1648 21.0282C50.0872 20.8813 49.9866 20.7434 49.8632 20.6196C49.1964 19.9529 48.1157 19.9529 47.4494 20.6196L43.2183 24.8503V24.851L36.5743 31.4952C35.9075 32.1615 35.9075 33.2418 36.5743 33.9085C37.2406 34.5748 38.3209 34.5748 38.9872 33.9085L43.2183 29.6774L49.8627 23.033L49.8632 23.0325C49.8728 23.0229 49.8824 23.0131 49.8918 23.0032C50.4086 22.4614 50.4996 21.6616 50.1648 21.0282Z" fill="url(#paint1_angular_492_2153)"/>
<mask id="mask0_492_2153" style="mask-type:alpha" maskUnits="userSpaceOnUse" x="0" y="0" width="80" height="80">
<rect width="80" height="80" rx="24" fill="url(#paint2_linear_492_2153)"/>
</mask>
<g mask="url(#mask0_492_2153)">
<g filter="url(#filter0_d_492_2153)">
<circle cx="64.25" cy="64.25" r="15.25" fill="#FFD600"/>
<g filter="url(#filter1_i_492_2153)">
<circle cx="64.2505" cy="64.25" r="13.1705" fill="#FFC702"/>
</g>
<path d="M63.7316 72.821H65.9371V71.2013C67.1084 71.0244 68.0418 70.5759 68.7373 69.8561C69.4389 69.1362 69.7897 68.2393 69.7897 67.1656C69.7897 66.2383 69.5365 65.494 69.0302 64.9327C68.5299 64.3653 67.7093 63.9139 66.5685 63.5783L64.1983 62.892C63.5699 62.7089 63.1093 62.4924 62.8165 62.2422C62.5298 61.986 62.3864 61.6749 62.3864 61.3088C62.3864 60.8207 62.6121 60.415 63.0636 60.0917C63.515 59.7684 64.0733 59.6128 64.7382 59.625C65.4337 59.6433 66.0255 59.8538 66.5136 60.2564C67.0078 60.653 67.3189 61.1776 67.447 61.8304L69.7074 61.4186C69.4694 60.3998 69.0241 59.5701 68.3713 58.9295C67.7246 58.2889 66.9132 57.8741 65.9371 57.6849V56.0103H63.7316V57.6392C62.6396 57.7978 61.7763 58.2126 61.1418 58.8837C60.5134 59.5487 60.1992 60.3937 60.1992 61.4186C60.1992 63.0963 61.1235 64.2189 62.9721 64.7863L66.1475 65.7746C66.66 65.9332 67.0322 66.1346 67.264 66.3786C67.4958 66.6226 67.6117 66.9338 67.6117 67.312C67.6117 67.855 67.3677 68.3064 66.8796 68.6664C66.3916 69.0263 65.7693 69.2063 65.0128 69.2063C64.2258 69.2063 63.5516 68.9867 62.9904 68.5474C62.4291 68.1082 62.06 67.5103 61.8831 66.7538L59.7051 67.1015C59.8759 68.1936 60.3182 69.0965 61.032 69.8103C61.7458 70.5241 62.6457 70.9786 63.7316 71.1738V72.821Z" fill="white"/>
</g>
</g>
<defs>
<filter id="filter0_d_492_2153" x="30.5" y="32.5" width="67.5" height="67.5" filterUnits="userSpaceOnUse" color-interpolation-filters="sRGB">
<feFlood flood-opacity="0" result="BackgroundImageFix"/>
<feColorMatrix in="SourceAlpha" type="matrix" values="0 0 0 0 0 0 0 0 0 0 0 0 0 0 0 0 0 0 127 0" result="hardAlpha"/>
<feOffset dy="2"/>
<feGaussianBlur stdDeviation="9.25"/>
<feComposite in2="hardAlpha" operator="out"/>
<feColorMatrix type="matrix" values="0 0 0 0 1 0 0 0 0 0.780392 0 0 0 0 0 0 0 0 1 0"/>
<feBlend mode="normal" in2="BackgroundImageFix" result="effect1_dropShadow_492_2153"/>
<feBlend mode="normal" in="SourceGraphic" in2="effect1_dropShadow_492_2153" result="shape"/>
</filter>
<filter id="filter1_i_492_2153" x="51.0801" y="51.0796" width="26.3408" height="26.3408" filterUnits="userSpaceOnUse" color-interpolation-filters="sRGB">
<feFlood flood-opacity="0" result="BackgroundImageFix"/>
<feBlend mode="normal" in="SourceGraphic" in2="BackgroundImageFix" result="shape"/>
<feColorMatrix in="SourceAlpha" type="matrix" values="0 0 0 0 0 0 0 0 0 0 0 0 0 0 0 0 0 0 127 0" result="hardAlpha"/>
<feOffset/>
<feGaussianBlur stdDeviation="1.15909"/>
<feComposite in2="hardAlpha" operator="arithmetic" k2="-1" k3="1"/>
<feColorMatrix type="matrix" values="0 0 0 0 0 0 0 0 0 0 0 0 0 0 0 0 0 0 0.09 0"/>
<feBlend mode="normal" in2="shape" result="effect1_innerShadow_492_2153"/>
</filter>
<linearGradient id="paint0_linear_492_2153" x1="80" y1="-9" x2="-1.24346e-06" y2="84.25" gradientUnits="userSpaceOnUse">
<stop stop-color="#FF8844"/>
<stop offset="1" stop-color="#FF5D00"/>
</linearGradient>
<radialGradient id="paint1_angular_492_2153" cx="0" cy="0" r="1" gradientUnits="userSpaceOnUse" gradientTransform="translate(37.5 50) rotate(-180) scale(24.5 43.4307)">
<stop stop-color="white"/>
<stop offset="1" stop-color="white" stop-opacity="0.24"/>
</radialGradient>
<linearGradient id="paint2_linear_492_2153" x1="80" y1="-9" x2="-1.24346e-06" y2="84.25" gradientUnits="userSpaceOnUse">
<stop stop-color="#FF8844"/>
<stop offset="1" stop-color="#FF5D00"/>
</linearGradient>
</defs>
</svg>
