<svg width="81" height="80" viewBox="0 0 81 80" fill="none" xmlns="http://www.w3.org/2000/svg">
<rect x="0.46228" y="6.10352e-05" width="80" height="80" rx="24" fill="url(#paint0_linear_911_53)"/>
<path fill-rule="evenodd" clip-rule="evenodd" d="M41.3498 14.8019C40.8369 14.3703 40.0877 14.3703 39.5748 14.8019L35.9202 17.8778H45.0043L41.3498 14.8019ZM57.9199 36.2438V28.7484L62.5483 32.644L57.9199 36.2438ZM17.0323 59.4696V35.0907L32.7044 47.2802L17.0323 59.4696ZM18.3763 32.644L23.0047 28.7484V36.2438L18.3763 32.644ZM35.4222 48.6584L18.8834 61.5219H62.0413L45.5024 48.6584H35.4222ZM63.8923 59.4696L48.2201 47.2802L63.8923 35.0906V59.4696ZM40.115 30.9586C38.997 30.9586 37.8407 32.0455 37.8407 33.8644C37.8407 35.7137 38.9686 36.9559 40.0222 36.9559C41.1315 36.9559 42.0413 35.6579 42.1067 34.0259L42.1084 33.6794C42.0589 32.0692 41.2532 30.9586 40.115 30.9586ZM55.1635 38.3877L45.5024 45.9019H35.4222L25.7611 38.3878V22.0125C25.7611 21.2514 26.3782 20.6343 27.1394 20.6343H53.7853C54.5464 20.6343 55.1635 21.2514 55.1635 22.0125V38.3877ZM31.6786 29.0932C30.4193 31.381 30.0883 34.0191 30.7465 36.5215C31.3164 38.6882 32.5468 40.5574 34.3053 41.9272C35.9978 43.2459 38.1062 44.0046 40.242 44.0637C40.255 44.064 40.2679 44.0642 40.2808 44.0642C41.0243 44.0642 41.6371 43.472 41.6578 42.7241C41.6789 41.9632 41.079 41.3293 40.3182 41.3083C37.0784 41.2186 34.2386 38.9619 33.4124 35.8202C32.4174 32.0371 34.5601 28.1435 38.2904 26.956C40.1828 26.3537 42.1921 26.5309 43.9474 27.4555C45.6966 28.3767 46.9762 29.9239 47.5526 31.8135C47.9117 33.1767 47.7897 34.4512 47.1458 36.0699C46.9872 36.4688 46.4981 37.3967 45.3859 37.3967C45.263 37.3967 45.1535 37.3051 45.0992 37.2504C44.9422 37.0927 44.8492 36.8582 44.8504 36.6231L44.8884 28.9661C44.8921 28.205 44.2781 27.5848 43.5169 27.5811H43.51C42.8375 27.5811 42.2775 28.0637 42.1569 28.7026C41.5351 28.3756 40.8432 28.202 40.115 28.202C38.7911 28.202 37.4943 28.797 36.5575 29.8344C35.6074 30.8864 35.0843 32.3176 35.0843 33.8643C35.0843 35.4042 35.5759 36.8509 36.4688 37.938C37.3949 39.0656 38.6901 39.7123 40.0222 39.7123C41.0419 39.7123 41.9786 39.3488 42.7511 38.7205C42.8685 38.8893 42.9996 39.0486 43.1452 39.1949C43.7602 39.813 44.556 40.1533 45.3859 40.1533C47.6733 40.1533 49.118 38.5702 49.7072 37.0887C50.579 34.8968 50.7341 33.0441 50.2102 31.0815C50.2064 31.0672 50.2024 31.0528 50.1981 31.0387C49.4098 28.4268 47.646 26.2881 45.2318 25.0166C42.818 23.7453 40.0557 23.5012 37.4543 24.3295C34.9884 25.1145 32.9372 26.8062 31.6786 29.0932Z" fill="white"/>
<defs>
<linearGradient id="paint0_linear_911_53" x1="81.7123" y1="-3.49994" x2="-4.78772" y2="81.5001" gradientUnits="userSpaceOnUse">
<stop stop-color="#0080D8"/>
<stop offset="1" stop-color="#0066AD"/>
</linearGradient>
</defs>
</svg>
