<svg width="81" height="80" viewBox="0 0 81 80" fill="none" xmlns="http://www.w3.org/2000/svg">
<rect x="0.462402" width="80" height="80" rx="24" fill="url(#paint0_linear_492_2100)"/>
<g filter="url(#filter0_d_492_2100)">
<path fill-rule="evenodd" clip-rule="evenodd" d="M41.3497 14.8017C40.8368 14.3701 40.0876 14.3701 39.5747 14.8017L35.9201 17.8776H45.0042L41.3497 14.8017ZM57.9198 36.2436V28.7483L62.5482 32.6438L57.9198 36.2436ZM17.0322 59.4694V35.0905L32.7043 47.28L17.0322 59.4694ZM18.3762 32.6438L23.0046 28.7483V36.2436L18.3762 32.6438ZM35.4221 48.6582L18.8833 61.5217H62.0411L45.5023 48.6582H35.4221ZM63.8921 59.4695L48.22 47.28L63.8921 35.0904V59.4695ZM40.1148 30.9584C38.9969 30.9584 37.8406 32.0454 37.8406 33.8643C37.8406 35.7135 38.9685 36.9557 40.022 36.9557C41.1314 36.9557 42.0412 35.6577 42.1066 34.0257L42.1083 33.6792C42.0588 32.0691 41.2531 30.9584 40.1148 30.9584ZM55.1634 38.3875L45.5023 45.9018H35.4221L25.761 38.3876V22.0124C25.761 21.2512 26.3781 20.6341 27.1393 20.6341H53.7851C54.5463 20.6341 55.1634 21.2512 55.1634 22.0124V38.3875ZM31.6784 29.093C30.4192 31.3808 30.0882 34.0189 30.7464 36.5213C31.3162 38.688 32.5467 40.5572 34.3052 41.927C35.9977 43.2457 38.1061 44.0044 40.2419 44.0635C40.2549 44.0638 40.2678 44.064 40.2807 44.064C41.0241 44.064 41.637 43.4718 41.6577 42.7239C41.6788 41.963 41.0789 41.3291 40.3181 41.3081C37.0783 41.2184 34.2385 38.9617 33.4122 35.8201C32.4173 32.0369 34.5599 28.1433 38.2903 26.9558C40.1827 26.3535 42.192 26.5308 43.9473 27.4553C45.6965 28.3765 46.9761 29.9237 47.5525 31.8134C47.9116 33.1765 47.7895 34.451 47.1457 36.0697C46.9871 36.4686 46.4979 37.3965 45.3858 37.3965C45.2629 37.3965 45.1533 37.3049 45.099 37.2502C44.9421 37.0925 44.8491 36.8581 44.8503 36.6229L44.8883 28.9659C44.892 28.2048 44.278 27.5847 43.5168 27.5809H43.5098C42.8374 27.5809 42.2773 28.0635 42.1568 28.7024C41.535 28.3754 40.843 28.2018 40.1149 28.2018C38.7909 28.2018 37.4942 28.7969 36.5574 29.8342C35.6073 30.8862 35.0841 32.3174 35.0841 33.8642C35.0841 35.404 35.5758 36.8507 36.4687 37.9379C37.3948 39.0654 38.69 39.7121 40.0221 39.7121C41.0418 39.7121 41.9785 39.3486 42.751 38.7203C42.8684 38.8891 42.9995 39.0484 43.1451 39.1947C43.7601 39.8128 44.5559 40.1531 45.3858 40.1531C47.6732 40.1531 49.1179 38.57 49.7071 37.0885C50.5789 34.8966 50.734 33.0439 50.2101 31.0813C50.2063 31.067 50.2023 31.0527 50.198 31.0385C49.4097 28.4266 47.6459 26.2879 45.2317 25.0165C42.8179 23.7451 40.0556 23.501 37.4542 24.3294C34.9883 25.1143 32.9371 26.806 31.6784 29.093Z" fill="white"/>
</g>
<defs>
<filter id="filter0_d_492_2100" x="8.03223" y="7.47803" width="64.8599" height="65.0437" filterUnits="userSpaceOnUse" color-interpolation-filters="sRGB">
<feFlood flood-opacity="0" result="BackgroundImageFix"/>
<feColorMatrix in="SourceAlpha" type="matrix" values="0 0 0 0 0 0 0 0 0 0 0 0 0 0 0 0 0 0 127 0" result="hardAlpha"/>
<feOffset dy="2"/>
<feGaussianBlur stdDeviation="4.5"/>
<feComposite in2="hardAlpha" operator="out"/>
<feColorMatrix type="matrix" values="0 0 0 0 0 0 0 0 0 0 0 0 0 0 0 0 0 0 0.15 0"/>
<feBlend mode="normal" in2="BackgroundImageFix" result="effect1_dropShadow_492_2100"/>
<feBlend mode="normal" in="SourceGraphic" in2="effect1_dropShadow_492_2100" result="shape"/>
</filter>
<linearGradient id="paint0_linear_492_2100" x1="81.7124" y1="-3.5" x2="-4.7876" y2="81.5" gradientUnits="userSpaceOnUse">
<stop stop-color="#0080D8"/>
<stop offset="1" stop-color="#0066AD"/>
</linearGradient>
</defs>
</svg>
