<svg width="81" height="81" viewBox="0 0 81 81" fill="none" xmlns="http://www.w3.org/2000/svg">
<rect x="0.462402" y="0.245972" width="80" height="80" rx="16" fill="url(#paint0_linear_933_156)"/>
<path fill-rule="evenodd" clip-rule="evenodd" d="M41.3499 15.0478C40.8371 14.6162 40.0878 14.6162 39.575 15.0478L35.9203 18.1237H45.0045L41.3499 15.0478ZM57.9201 36.4897V28.9943L62.5484 32.8899L57.9201 36.4897ZM17.0325 59.7155V35.3366L32.7046 47.5261L17.0325 59.7155ZM18.3764 32.8899L23.0048 28.9943V36.4897L18.3764 32.8899ZM35.4223 48.9043L18.8835 61.7678H62.0414L45.5026 48.9043H35.4223ZM63.8924 59.7155L48.2202 47.5261L63.8924 35.3365V59.7155ZM40.1151 31.2045C38.9972 31.2045 37.8408 32.2914 37.8408 34.1103C37.8408 35.9596 38.9688 37.2018 40.0223 37.2018C41.1317 37.2018 42.0414 35.9038 42.1068 34.2718L42.1086 33.9253C42.059 32.3152 41.2533 31.2045 40.1151 31.2045ZM55.1636 38.6336L45.5025 46.1479H35.4223L25.7613 38.6337V22.2585C25.7613 21.4973 26.3784 20.8802 27.1395 20.8802H53.7854C54.5465 20.8802 55.1636 21.4973 55.1636 22.2585V38.6336ZM31.6787 29.3391C30.4194 31.6269 30.0885 34.265 30.7466 36.7674C31.3165 38.9341 32.547 40.8033 34.3054 42.1731C35.998 43.4918 38.1063 44.2505 40.2421 44.3096C40.2552 44.3099 40.268 44.3101 40.281 44.3101C41.0244 44.3101 41.6372 43.7179 41.6579 42.97C41.679 42.2091 41.0792 41.5752 40.3184 41.5542C37.0785 41.4645 34.2387 39.2078 33.4125 36.0662C32.4175 32.283 34.5602 28.3894 38.2905 27.2019C40.1829 26.5996 42.1922 26.7769 43.9475 27.7014C45.6967 28.6226 46.9763 30.1698 47.5527 32.0594C47.9118 33.4226 47.7898 34.6971 47.146 36.3158C46.9874 36.7147 46.4982 37.6426 45.386 37.6426C45.2631 37.6426 45.1536 37.551 45.0993 37.4963C44.9423 37.3386 44.8494 37.1042 44.8506 36.869L44.8885 29.212C44.8923 28.4509 44.2782 27.8307 43.5171 27.827H43.5101C42.8376 27.827 42.2776 28.3096 42.157 28.9485C41.5353 28.6215 40.8433 28.4479 40.1151 28.4479C38.7912 28.4479 37.4945 29.043 36.5576 30.0803C35.6076 31.1323 35.0844 32.5635 35.0844 34.1103C35.0844 35.6501 35.576 37.0968 36.469 38.184C37.395 39.3115 38.6902 39.9582 40.0223 39.9582C41.042 39.9582 41.9788 39.5947 42.7512 38.9664C42.8687 39.1352 42.9998 39.2945 43.1453 39.4408C43.7604 40.0589 44.5562 40.3992 45.386 40.3992C47.6735 40.3992 49.1181 38.8161 49.7074 37.3346C50.5791 35.1427 50.7342 33.29 50.2103 31.3274C50.2066 31.3131 50.2025 31.2988 50.1982 31.2846C49.4099 28.6727 47.6462 26.534 45.232 25.2625C42.8181 23.9912 40.0559 23.7471 37.4544 24.5754C34.9885 25.3604 32.9374 27.0521 31.6787 29.3391Z" fill="white"/>
<defs>
<linearGradient id="paint0_linear_933_156" x1="81.7124" y1="-3.25403" x2="-4.7876" y2="81.746" gradientUnits="userSpaceOnUse">
<stop stop-color="#0080D8"/>
<stop offset="1" stop-color="#0066AD"/>
</linearGradient>
</defs>
</svg>
