<svg width="80" height="80" viewBox="0 0 80 80" fill="none" xmlns="http://www.w3.org/2000/svg">
<rect width="80" height="80" rx="16" fill="url(#paint0_linear_942_791)"/>
<path fill-rule="evenodd" clip-rule="evenodd" d="M15.0625 13.5099C15.1641 13.5095 15.2632 13.5223 15.3589 13.5427L23.1748 13.5429C23.9373 13.5433 24.5557 14.15 24.5558 14.8991C24.556 15.6479 23.9377 16.255 23.1747 16.2552L16.4433 16.2548L16.4429 22.8978C16.4435 23.6466 15.8249 24.2539 15.0617 24.2539C14.6805 24.2535 14.3354 24.1019 14.0857 23.8567C13.8359 23.6115 13.6809 23.2721 13.6815 22.898L13.6809 15.1902C13.6601 15.0962 13.6471 14.9993 13.6475 14.8991C13.6475 14.5156 13.8102 14.1718 14.0703 13.925C14.3217 13.6693 14.6724 13.5094 15.0625 13.5099ZM64.9371 13.5099C64.8355 13.5095 64.7363 13.5223 64.6407 13.5427L56.8247 13.5429C56.0622 13.5433 55.4439 14.15 55.4437 14.8991C55.4435 15.6479 56.0619 16.255 56.8249 16.2552L63.5563 16.2548L63.5566 22.8978C63.5561 23.6466 64.1746 24.2539 64.9378 24.2539C65.3191 24.2535 65.6641 24.1019 65.9139 23.8567C66.1636 23.6115 66.3186 23.2721 66.3181 22.898L66.3186 15.1902C66.3394 15.0962 66.3525 14.9993 66.3521 14.8991C66.3521 14.5156 66.1893 14.1718 65.9293 13.925C65.6779 13.6693 65.3272 13.5094 64.9371 13.5099ZM64.6407 67.1349C64.7363 67.1554 64.8355 67.1681 64.9371 67.1678C65.3272 67.1683 65.6779 67.0083 65.9293 66.7526C66.1893 66.5058 66.3521 66.1621 66.3521 65.7785C66.3525 65.6784 66.3394 65.5814 66.3186 65.4875L66.3181 57.7797C66.3186 57.4056 66.1636 57.0662 65.9139 56.821C65.6641 56.5758 65.3191 56.4242 64.9378 56.4238C64.1746 56.4238 63.5561 57.0311 63.5566 57.7799L63.5563 64.4228L56.8249 64.4225C56.0619 64.4227 55.4435 65.0298 55.4437 65.7785C55.4439 66.5277 56.0622 67.1344 56.8247 67.1348L64.6407 67.1349ZM15.0625 67.1678C15.1641 67.1681 15.2632 67.1554 15.3589 67.1349L23.1748 67.1348C23.9373 67.1344 24.5557 66.5277 24.5558 65.7785C24.556 65.0298 23.9377 64.4227 23.1747 64.4225L16.4433 64.4228L16.4429 57.7799C16.4435 57.0311 15.8249 56.4238 15.0617 56.4238C14.6805 56.4242 14.3354 56.5758 14.0857 56.821C13.8359 57.0662 13.6809 57.4056 13.6815 57.7797L13.6809 65.4875C13.6601 65.5814 13.6471 65.6784 13.6475 65.7785C13.6475 66.1621 13.8102 66.5058 14.0703 66.7526C14.3217 67.0083 14.6724 67.1683 15.0625 67.1678ZM47.0609 28.5456C47.0609 30.9057 41.9794 33.5452 35.1787 33.5452C28.378 33.5452 23.2965 30.9057 23.2965 28.5456C23.2965 26.1856 28.3781 23.546 35.1787 23.546C41.9793 23.546 47.0609 26.1856 47.0609 28.5456ZM35.1786 53.5446C36.1712 53.5446 37.1266 53.4879 38.0353 53.3846C37.2693 52.4181 36.6358 51.3455 36.1612 50.1936C35.8351 50.2044 35.5079 50.2118 35.1785 50.2118C31.2925 50.2118 27.6125 49.4559 24.8166 48.0833C24.266 47.813 23.7594 47.5227 23.2964 47.2153V48.545C23.2964 50.9049 28.3779 53.5446 35.1786 53.5446ZM35.2363 46.8778C35.2171 46.878 35.1979 46.8781 35.1786 46.8781C28.3779 46.8781 23.2964 44.2385 23.2963 41.8785V40.5489C23.7593 40.8561 24.2661 41.1465 24.8167 41.4168C27.6128 42.7894 31.2927 43.5453 35.1786 43.5453C35.2032 43.5453 35.2277 43.5447 35.2523 43.5444L35.2825 43.5441C35.2128 44.0899 35.1765 44.646 35.1765 45.2103C35.1765 45.7748 35.2129 46.3312 35.2825 46.8775L35.2363 46.8778ZM35.1786 40.2115C35.5154 40.2115 35.8477 40.2048 36.1758 40.1922C36.7028 38.9228 37.423 37.7504 38.3011 36.7106C37.2844 36.8206 36.2397 36.8789 35.1786 36.8789C31.2927 36.8789 27.6128 36.123 24.8167 34.7504C24.2661 34.48 23.7593 34.1897 23.2963 33.8824V35.2121C23.2964 37.5721 28.3779 40.2115 35.1786 40.2115ZM38.7542 43.3262C39.0124 42.002 39.5372 40.7698 40.2718 39.6856C41.7987 37.4321 44.2308 35.8187 47.0545 35.3499C47.6089 35.2579 48.1781 35.2092 48.7586 35.2092C54.3754 35.2092 58.945 39.6956 58.945 45.2103C58.945 50.7249 54.3754 55.2114 48.7586 55.2114C46.1172 55.2114 43.7076 54.2191 41.8957 52.5943C41.0239 51.8126 40.2908 50.8841 39.7367 49.8495C39.2086 48.8635 38.8433 47.7811 38.6761 46.6365C38.6081 46.1705 38.5721 45.6945 38.5721 45.2103C38.5721 44.5663 38.6351 43.9366 38.7542 43.3262Z" fill="white"/>
<defs>
<linearGradient id="paint0_linear_942_791" x1="81.25" y1="-3.5" x2="-5.25" y2="81.5" gradientUnits="userSpaceOnUse">
<stop stop-color="#C14E63"/>
<stop offset="1" stop-color="#822F3E"/>
</linearGradient>
</defs>
</svg>
