<svg width="80" height="80" viewBox="0 0 80 80" fill="none" xmlns="http://www.w3.org/2000/svg">
<rect width="80" height="80" rx="24" fill="url(#paint0_linear_492_2452)"/>
<g filter="url(#filter0_d_492_2452)">
<path d="M18.646 32.5144C18.646 30.9852 19.9464 29.7455 21.5505 29.7455H58.4491C60.0533 29.7455 61.3537 30.9852 61.3537 32.5144V56.9217C61.3537 58.4509 60.0533 59.6906 58.4491 59.6906H21.5505C19.9464 59.6906 18.646 58.4509 18.646 56.9217V32.5144Z" fill="#007ED5"/>
<path d="M18.3066 22.0388C18.4726 21.0427 19.3735 20.3094 20.4315 20.3094H59.5665C60.6245 20.3094 61.5255 21.0427 61.6914 22.0388L63.5044 32.9233H16.4937L18.3066 22.0388Z" fill="#0066AC"/>
<path d="M51.8882 32.9244H63.5064V34.0525C63.5064 37.111 60.9056 39.5903 57.6973 39.5903Lnan nanL57.6973 39.5903C54.489 39.5903 51.8882 37.111 51.8882 34.0525V32.9244Z" fill="#005086"/>
<path d="M40.0518 32.9244H51.8851V33.95C51.8851 37.065 49.2361 39.5903 45.9684 39.5903Lnan nanL45.9684 39.5903C42.7007 39.5903 40.0518 37.065 40.0518 33.95V32.9244Z" fill="#005086"/>
<path d="M28.3271 32.9244H40.0529V34.0012C40.0529 37.088 37.428 39.5903 34.19 39.5903Lnan nanL34.19 39.5903C30.9521 39.5903 28.3271 37.088 28.3271 34.0012V32.9244Z" fill="#005086"/>
<path d="M16.4937 32.9244H28.327V33.95C28.327 37.065 25.678 39.5903 22.4103 39.5903Lnan nanL22.4103 39.5903C19.1426 39.5903 16.4937 37.065 16.4937 33.95V32.9244Z" fill="#005086"/>
<mask id="mask0_492_2452" style="mask-type:alpha" maskUnits="userSpaceOnUse" x="18" y="29" width="44" height="31">
<path d="M18.646 32.5128C18.646 30.9836 19.9464 29.7439 21.5505 29.7439H58.4491C60.0533 29.7439 61.3537 30.9836 61.3537 32.5128V56.9201C61.3537 58.4494 60.0533 59.689 58.4491 59.689H21.5505C19.9464 59.689 18.646 58.4494 18.646 56.9201V32.5128Z" fill="#007ED5"/>
</mask>
<g mask="url(#mask0_492_2452)">
<path d="M27.6052 51.5293C29.3473 51.5293 31.0047 52.0444 32.492 52.9659C32.7253 53.1018 32.9601 53.2643 33.1925 53.427L32.1727 54.593L30.6438 52.5597L28.0094 55.5415L26.4581 53.3996L21.6138 58.9573L24.7153 63.3219L23.5045 64.6771L26.5644 69.0417L25.3535 70.3963L29.7305 76.6045L32.3211 73.5681L34.5743 76.8221C34.1277 77.2559 33.6391 77.6905 33.1086 78.0694C31.4935 79.235 29.6236 79.9114 27.6267 79.9114C21.4859 79.9114 16.4937 73.5421 16.4937 65.7082C16.472 57.9272 21.4651 51.5293 27.6052 51.5293ZM25.5652 64.8401L28.2211 61.8036L30.6012 65.1922L27.9448 68.2283L25.5652 64.8401ZM27.4567 70.6958L30.091 67.6325L32.492 71.0208L29.836 74.0574L27.4567 70.6958ZM23.6754 59.0661L26.3305 56.0296L28.7101 59.4182L26.0541 62.4545L23.6754 59.0661ZM28.5399 57.439L30.5159 55.1619L32.3011 57.6832L30.325 59.9871L28.5399 57.439ZM32.0672 67.876L34.0426 65.5988L35.8276 68.1464L33.8514 70.425L32.0672 67.876ZM33.8091 73.0002L35.7853 70.7226L37.5689 73.2437L35.5935 75.5474L33.8091 73.0002ZM34.6166 61.2885L35.9337 59.7702L37.1231 61.4516L35.8062 62.9693L34.6166 61.2885ZM32.9169 56.2733L34.2341 54.7284L35.4243 56.436L34.1062 57.9541L32.9169 56.2733ZM36.2949 66.3041L37.612 64.786L38.823 66.4668L37.4849 67.9846L36.2949 66.3041ZM30.3673 62.5358L32.3435 60.2586L34.1277 62.7793L32.1524 65.057L30.3673 62.5358Z" fill="url(#paint1_linear_492_2452)"/>
</g>
</g>
<defs>
<filter id="filter0_d_492_2452" x="7.49365" y="13.3094" width="65.0127" height="57.3812" filterUnits="userSpaceOnUse" color-interpolation-filters="sRGB">
<feFlood flood-opacity="0" result="BackgroundImageFix"/>
<feColorMatrix in="SourceAlpha" type="matrix" values="0 0 0 0 0 0 0 0 0 0 0 0 0 0 0 0 0 0 127 0" result="hardAlpha"/>
<feOffset dy="2"/>
<feGaussianBlur stdDeviation="4.5"/>
<feComposite in2="hardAlpha" operator="out"/>
<feColorMatrix type="matrix" values="0 0 0 0 0 0 0 0 0 0 0 0 0 0 0 0 0 0 0.15 0"/>
<feBlend mode="normal" in2="BackgroundImageFix" result="effect1_dropShadow_492_2452"/>
<feBlend mode="normal" in="SourceGraphic" in2="effect1_dropShadow_492_2452" result="shape"/>
</filter>
<linearGradient id="paint0_linear_492_2452" x1="81.25" y1="-3.5" x2="-5.25" y2="81.5" gradientUnits="userSpaceOnUse">
<stop stop-color="#BEE1FF"/>
<stop offset="1" stop-color="#97CEFF"/>
</linearGradient>
<linearGradient id="paint1_linear_492_2452" x1="34.4653" y1="51.5293" x2="10.7782" y2="68.1192" gradientUnits="userSpaceOnUse">
<stop stop-color="white" stop-opacity="0.31"/>
<stop offset="1" stop-color="#007ED5"/>
</linearGradient>
</defs>
</svg>
