<svg width="80" height="81" viewBox="0 0 80 81" fill="none" xmlns="http://www.w3.org/2000/svg">
<rect y="0.245972" width="80" height="80" rx="16" fill="url(#paint0_linear_933_188)"/>
<path d="M57.4766 54.431C60.3275 54.5862 62.8733 52.6089 63.2779 49.8329L66.5008 27.7193C66.9274 24.793 64.813 22.0874 61.7784 21.6761L51.2256 20.246L57.4766 54.431Z" fill="white"/>
<path fill-rule="evenodd" clip-rule="evenodd" d="M22.0534 64.1081C22.4551 64.2457 22.8869 64.2811 23.307 64.2108C23.7375 64.1259 24.137 63.9322 24.4644 63.6495L36.1127 53.8927L51.3543 59.1019C51.7638 59.2454 52.2052 59.2827 52.6342 59.2098C53.0632 59.1369 53.4648 58.9562 53.7986 58.6862C54.1304 58.4177 54.3835 58.0703 54.5329 57.6782C54.6823 57.2862 54.7227 56.8632 54.6501 56.4515L48.3278 21.8763C48.1024 20.4574 47.306 19.1812 46.1117 18.3244C44.9171 17.4676 43.4206 17.0993 41.9464 17.2991L18.4825 21.2887C17.0263 21.5871 15.7507 22.4268 14.9322 23.6258C14.1136 24.8249 13.8181 26.2867 14.1095 27.6945L20.4319 62.2697C20.509 62.6871 20.6998 63.0774 20.9847 63.4004C21.2696 63.7235 21.6384 63.9676 22.0534 64.1081ZM26.11 38.6256L26.0923 38.6101C25.3684 37.9613 24.2362 37.9987 23.56 38.6947C22.8822 39.3924 22.9193 40.4879 23.6428 41.1415L24.8701 39.8783C23.6428 41.1415 23.6433 41.1421 23.6439 41.1424L23.6451 41.1435L23.6477 41.1458L23.6541 41.1516L23.6716 41.167L23.7248 41.2134C23.7683 41.2506 23.8279 41.3007 23.9029 41.3614C24.0529 41.4826 24.2653 41.6472 24.5349 41.8376C25.0726 42.2173 25.8477 42.7073 26.8182 43.1642C28.7514 44.0746 31.5466 44.8922 34.7942 44.34C38.0417 43.7879 40.3783 42.0977 41.8721 40.6046C42.622 39.8551 43.1765 39.1391 43.547 38.6049C43.7329 38.3369 43.8741 38.1124 43.9721 37.9489C44.0211 37.8672 44.0593 37.8006 44.0869 37.7512L44.1206 37.6901L44.1316 37.6698L44.1355 37.6624L44.1379 37.658C44.1381 37.6572 44.1385 37.6567 42.5371 36.8743L44.1385 37.6567C44.5866 36.8039 44.2329 35.7622 43.3485 35.3301C42.4661 34.899 41.3889 35.2377 40.9388 36.0861L40.9277 36.1062C40.9155 36.1279 40.8939 36.1657 40.8628 36.2176C40.8006 36.3216 40.7008 36.4811 40.5629 36.6799C40.2858 37.0792 39.862 37.6274 39.2883 38.2008C38.1349 39.3536 36.444 40.5439 34.1708 40.9305C31.8973 41.317 29.8863 40.7561 28.3936 40.0532C27.6511 39.7037 27.0584 39.3283 26.6564 39.0445C26.4562 38.9031 26.3059 38.7862 26.2105 38.7089C26.1628 38.6705 26.1292 38.6419 26.11 38.6256ZM42.5371 36.8743L40.9359 36.0918L40.9364 36.0908C40.936 36.0913 40.9359 36.0918 42.5371 36.8743ZM24.8701 39.8783L26.0923 38.6101L26.094 38.6117L26.0955 38.6132L26.0964 38.6139C26.0969 38.6144 26.0974 38.6148 24.8701 39.8783Z" fill="white"/>
<defs>
<linearGradient id="paint0_linear_933_188" x1="81.25" y1="-3.25403" x2="-5.25" y2="81.746" gradientUnits="userSpaceOnUse">
<stop stop-color="#595959"/>
<stop offset="1" stop-color="#252525"/>
</linearGradient>
</defs>
</svg>
