<svg width="80" height="80" viewBox="0 0 80 80" fill="none" xmlns="http://www.w3.org/2000/svg">
<rect y="6.10352e-05" width="80" height="80" rx="24" fill="url(#paint0_linear_930_86)"/>
<path d="M48.4231 20.7692H46.0385V21.9615C46.0385 23.9339 44.4339 25.5385 42.4615 25.5385H30.5385C28.5661 25.5385 26.9615 23.9339 26.9615 21.9615V20.7692H24.5769C22.6045 20.7692 21 22.3738 21 24.3461V52.9615C21 54.9339 22.6045 56.6974 24.5769 56.6974H48.4231C50.3955 56.6974 52 54.9339 52 52.9615V24.3461C52 22.3738 50.3955 20.7692 48.4231 20.7692ZM34.9583 46.6506L30.1891 51.4199C29.9562 51.6528 29.6511 51.7692 29.3462 51.7692C29.0412 51.7692 28.736 51.6528 28.5032 51.4199L26.1186 49.0353C25.6529 48.5695 25.6529 47.815 26.1186 47.3493C26.5843 46.8835 27.3389 46.8835 27.8046 47.3493L29.3462 48.8909L33.2724 44.9646C33.7381 44.4989 34.4927 44.4989 34.9584 44.9646C35.4241 45.4304 35.4241 46.1849 34.9583 46.6506ZM34.9583 38.3045L30.1891 43.0737C29.9562 43.3066 29.6511 43.4231 29.3462 43.4231C29.0412 43.4231 28.736 43.3066 28.5032 43.0737L26.1186 40.6891C25.6529 40.2234 25.6529 39.4688 26.1186 39.0031C26.5843 38.5374 27.3389 38.5374 27.8046 39.0031L29.3462 40.5448L33.2724 36.6185C33.7381 36.1528 34.4927 36.1528 34.9584 36.6185C35.4241 37.0842 35.4241 37.8388 34.9583 38.3045ZM34.9583 29.9583L30.1891 34.7276C29.9562 34.9605 29.6511 35.0769 29.3462 35.0769C29.0412 35.0769 28.736 34.9605 28.5032 34.7276L26.1186 32.343C25.6529 31.8772 25.6529 31.1227 26.1186 30.657C26.5843 30.1912 27.3389 30.1912 27.8046 30.657L29.3462 32.1986L33.2724 28.2723C33.7381 27.8066 34.4927 27.8066 34.9584 28.2723C35.4241 28.7381 35.4241 29.4926 34.9583 29.9583ZM46.0385 49.3846H38.8846C38.2256 49.3846 37.6923 48.8513 37.6923 48.1923C37.6923 47.5333 38.2256 47 38.8846 47H46.0385C46.6975 47 47.2308 47.5333 47.2308 48.1923C47.2308 48.8513 46.6975 49.3846 46.0385 49.3846ZM46.0385 41.0385H38.8846C38.2256 41.0385 37.6923 40.5052 37.6923 39.8461C37.6923 39.1871 38.2256 38.6538 38.8846 38.6538H46.0385C46.6975 38.6538 47.2308 39.1871 47.2308 39.8461C47.2308 40.5052 46.6975 41.0385 46.0385 41.0385ZM46.0385 32.6923H38.8846C38.2256 32.6923 37.6923 32.159 37.6923 31.5C37.6923 30.841 38.2256 30.3077 38.8846 30.3077H46.0385C46.6975 30.3077 47.2308 30.841 47.2308 31.5C47.2308 32.159 46.6975 32.6923 46.0385 32.6923Z" fill="white"/>
<path d="M41.269 18.3846H39.0311L38.7494 17.5905C38.4117 16.6392 37.5082 16 36.4998 16C35.4914 16 34.5879 16.6392 34.2502 17.5905L33.9684 18.3846H31.7306C30.4135 18.3846 29.3459 19.4522 29.3459 20.7692V21.9615C29.3459 22.62 29.8798 23.1538 30.5383 23.1538H42.4613C43.1198 23.1538 43.6536 22.62 43.6536 21.9615V20.7692C43.6536 19.4522 42.586 18.3846 41.269 18.3846Z" fill="#FFA008"/>
<circle cx="52.75" cy="50.75" r="12.75" fill="#FFD600"/>
<circle cx="52.7501" cy="50.75" r="11.0114" fill="#FFC702"/>
<path d="M52.3166 57.916H54.1605V56.5618C55.1399 56.4139 55.9203 56.039 56.5018 55.4371C57.0883 54.8352 57.3816 54.0854 57.3816 53.1877C57.3816 52.4124 57.1699 51.7901 56.7466 51.3208C56.3283 50.8465 55.6423 50.469 54.6885 50.1885L52.7068 49.6147C52.1815 49.4616 51.7964 49.2806 51.5515 49.0714C51.3118 48.8572 51.1919 48.5971 51.1919 48.291C51.1919 47.883 51.3807 47.5438 51.7581 47.2734C52.1356 47.0031 52.6023 46.873 53.1583 46.8832C53.7397 46.8985 54.2345 47.0745 54.6426 47.4112C55.0557 47.7427 55.3158 48.1814 55.423 48.7271L57.3128 48.3828C57.1138 47.531 56.7415 46.8373 56.1957 46.3018C55.655 45.7662 54.9766 45.4193 54.1605 45.2612V43.8611H52.3166V45.223C51.4036 45.3556 50.6819 45.7024 50.1514 46.2635C49.626 46.8195 49.3634 47.5259 49.3634 48.3828C49.3634 49.7855 50.1361 50.724 51.6816 51.1984L54.3365 52.0247C54.765 52.1573 55.0761 52.3257 55.2699 52.5297C55.4638 52.7337 55.5607 52.9939 55.5607 53.3101C55.5607 53.7641 55.3567 54.1415 54.9486 54.4424C54.5405 54.7434 54.0203 54.8939 53.3878 54.8939C52.7298 54.8939 52.1662 54.7102 51.6969 54.343C51.2276 53.9757 50.9191 53.4759 50.7711 52.8434L48.9502 53.1341C49.093 54.0471 49.4628 54.802 50.0596 55.3988C50.6564 55.9956 51.4087 56.3756 52.3166 56.5388V57.916Z" fill="white"/>
<defs>
<linearGradient id="paint0_linear_930_86" x1="81.25" y1="-3.49994" x2="-5.25" y2="81.5001" gradientUnits="userSpaceOnUse">
<stop stop-color="#E53935"/>
<stop offset="1" stop-color="#B71C1C"/>
</linearGradient>
</defs>
</svg>
