<svg width="80" height="80" viewBox="0 0 80 80" fill="none" xmlns="http://www.w3.org/2000/svg">
<rect y="-0.00012207" width="80" height="80" rx="16" fill="url(#paint0_linear_933_115)"/>
<path d="M48.4231 20.769H46.0385V21.9614C46.0385 23.9337 44.4339 25.5383 42.4615 25.5383H30.5385C28.5661 25.5383 26.9615 23.9337 26.9615 21.9614V20.769H24.5769C22.6045 20.769 21 22.3736 21 24.346V52.9613C21 54.9337 22.6045 56.6972 24.5769 56.6972H48.4231C50.3955 56.6972 52 54.9337 52 52.9613V24.346C52 22.3736 50.3955 20.769 48.4231 20.769ZM34.9583 46.6505L30.1891 51.4197C29.9562 51.6526 29.6511 51.769 29.3462 51.769C29.0412 51.769 28.736 51.6526 28.5032 51.4197L26.1186 49.0351C25.6529 48.5694 25.6529 47.8148 26.1186 47.3491C26.5843 46.8834 27.3389 46.8834 27.8046 47.3491L29.3462 48.8907L33.2724 44.9645C33.7381 44.4987 34.4927 44.4987 34.9584 44.9645C35.4241 45.4302 35.4241 46.1848 34.9583 46.6505ZM34.9583 38.3043L30.1891 43.0735C29.9562 43.3064 29.6511 43.4229 29.3462 43.4229C29.0412 43.4229 28.736 43.3064 28.5032 43.0735L26.1186 40.6889C25.6529 40.2232 25.6529 39.4686 26.1186 39.0029C26.5843 38.5372 27.3389 38.5372 27.8046 39.0029L29.3462 40.5446L33.2724 36.6183C33.7381 36.1526 34.4927 36.1526 34.9584 36.6183C35.4241 37.084 35.4241 37.8386 34.9583 38.3043ZM34.9583 29.9582L30.1891 34.7274C29.9562 34.9603 29.6511 35.0767 29.3462 35.0767C29.0412 35.0767 28.736 34.9603 28.5032 34.7274L26.1186 32.3428C25.6529 31.8771 25.6529 31.1225 26.1186 30.6568C26.5843 30.1911 27.3389 30.1911 27.8046 30.6568L29.3462 32.1984L33.2724 28.2722C33.7381 27.8064 34.4927 27.8064 34.9584 28.2722C35.4241 28.7379 35.4241 29.4924 34.9583 29.9582ZM46.0385 49.3844H38.8846C38.2256 49.3844 37.6923 48.8511 37.6923 48.1921C37.6923 47.5331 38.2256 46.9998 38.8846 46.9998H46.0385C46.6975 46.9998 47.2308 47.5331 47.2308 48.1921C47.2308 48.8511 46.6975 49.3844 46.0385 49.3844ZM46.0385 41.0383H38.8846C38.2256 41.0383 37.6923 40.505 37.6923 39.846C37.6923 39.1869 38.2256 38.6537 38.8846 38.6537H46.0385C46.6975 38.6537 47.2308 39.1869 47.2308 39.846C47.2308 40.505 46.6975 41.0383 46.0385 41.0383ZM46.0385 32.6921H38.8846C38.2256 32.6921 37.6923 32.1588 37.6923 31.4998C37.6923 30.8408 38.2256 30.3075 38.8846 30.3075H46.0385C46.6975 30.3075 47.2308 30.8408 47.2308 31.4998C47.2308 32.1588 46.6975 32.6921 46.0385 32.6921Z" fill="white"/>
<path d="M41.2688 18.3844H39.0309L38.7491 17.5904C38.4115 16.6391 37.5079 15.9998 36.4995 15.9998C35.4912 15.9998 34.5876 16.6391 34.25 17.5904L33.9682 18.3844H31.7303C30.4133 18.3844 29.3457 19.452 29.3457 20.769V21.9614C29.3457 22.6198 29.8795 23.1537 30.538 23.1537H42.4611C43.1196 23.1537 43.6534 22.6198 43.6534 21.9614V20.769C43.6534 19.452 42.5858 18.3844 41.2688 18.3844Z" fill="#FFA008"/>
<circle cx="52.75" cy="50.7498" r="12.75" fill="#FFD600"/>
<circle cx="52.7501" cy="50.7498" r="11.0114" fill="#FFC702"/>
<path d="M52.3166 57.9158H54.1605V56.5616C55.1399 56.4137 55.9203 56.0388 56.5018 55.4369C57.0883 54.835 57.3816 54.0852 57.3816 53.1875C57.3816 52.4122 57.1699 51.7899 56.7466 51.3206C56.3283 50.8463 55.6423 50.4688 54.6885 50.1883L52.7068 49.6145C52.1815 49.4614 51.7964 49.2804 51.5515 49.0712C51.3118 48.857 51.1919 48.5969 51.1919 48.2908C51.1919 47.8828 51.3807 47.5436 51.7581 47.2733C52.1356 47.0029 52.6023 46.8729 53.1583 46.8831C53.7397 46.8984 54.2345 47.0743 54.6426 47.411C55.0557 47.7425 55.3158 48.1812 55.423 48.7269L57.3128 48.3827C57.1138 47.5308 56.7415 46.8371 56.1957 46.3016C55.655 45.766 54.9766 45.4192 54.1605 45.261V43.8609H52.3166V45.2228C51.4036 45.3554 50.6819 45.7022 50.1514 46.2633C49.626 46.8193 49.3634 47.5257 49.3634 48.3827C49.3634 49.7853 50.1361 50.7239 51.6816 51.1982L54.3365 52.0245C54.765 52.1572 55.0761 52.3255 55.2699 52.5295C55.4638 52.7335 55.5607 52.9937 55.5607 53.3099C55.5607 53.7639 55.3567 54.1413 54.9486 54.4423C54.5405 54.7432 54.0203 54.8937 53.3878 54.8937C52.7298 54.8937 52.1662 54.71 51.6969 54.3428C51.2276 53.9756 50.9191 53.4757 50.7711 52.8432L48.9502 53.1339C49.093 54.047 49.4628 54.8019 50.0596 55.3986C50.6564 55.9954 51.4087 56.3754 52.3166 56.5386V57.9158Z" fill="white"/>
<defs>
<linearGradient id="paint0_linear_933_115" x1="81.25" y1="-3.50012" x2="-5.25" y2="81.4999" gradientUnits="userSpaceOnUse">
<stop stop-color="#E53935"/>
<stop offset="1" stop-color="#B71C1C"/>
</linearGradient>
</defs>
</svg>
