<svg width="80" height="81" viewBox="0 0 80 81" fill="none" xmlns="http://www.w3.org/2000/svg">
<rect y="0.246094" width="80" height="80" rx="16" fill="url(#paint0_linear_933_303)"/>
<path d="M41.2693 38.2626V15.0955L60.7868 26.679L41.2693 38.2626Z" fill="#929DD1"/>
<path d="M63.3256 51.7503V28.1072L43.6494 40.1668L63.3256 51.7503Z" fill="#FFC759"/>
<path d="M61.1042 53.1784L41.1106 41.5949V64.9207L61.1042 53.1784Z" fill="#FFC759"/>
<path d="M38.8891 65.3967V41.5949L18.5781 52.8611L38.8891 65.3967Z" fill="#FFC759"/>
<path d="M36.9849 39.6907L16.6741 28.2658V51.7503L36.9849 39.6907Z" fill="#FFC759"/>
<path d="M38.8891 38.1039V15.0955L18.5781 26.5204L38.8891 38.1039Z" fill="#929DD1"/>
<mask id="mask0_933_303" style="mask-type:alpha" maskUnits="userSpaceOnUse" x="0" y="0" width="80" height="81">
<rect y="0.246094" width="80" height="80" rx="16" fill="url(#paint1_linear_933_303)"/>
</mask>
<g mask="url(#mask0_933_303)">
<circle cx="66.0002" cy="66.2461" r="17" fill="#FFD600"/>
<circle cx="66.0007" cy="66.2461" r="14.6818" fill="#FFC702"/>
<path d="M65.4224 75.8008H67.881V73.9951C69.1867 73.7979 70.2273 73.298 71.0026 72.4955C71.7847 71.693 72.1757 70.6933 72.1757 69.4963C72.1757 68.4626 71.8935 67.6329 71.329 67.0072C70.7714 66.3747 69.8566 65.8715 68.5849 65.4974L65.9427 64.7323C65.2422 64.5283 64.7287 64.2868 64.4023 64.008C64.0827 63.7224 63.9228 63.3755 63.9228 62.9675C63.9228 62.4234 64.1745 61.9711 64.6777 61.6107C65.181 61.2502 65.8033 61.0768 66.5446 61.0904C67.3199 61.1108 67.9796 61.3455 68.5237 61.7943C69.0745 62.2364 69.4214 62.8213 69.5642 63.5489L72.0839 63.0899C71.8187 61.9541 71.3222 61.0292 70.5945 60.3151C69.8736 59.601 68.9691 59.1386 67.881 58.9277V57.0609H65.4224V58.8767C64.2051 59.0535 63.2427 59.516 62.5355 60.2641C61.835 61.0054 61.4847 61.9473 61.4847 63.0899C61.4847 64.9601 62.515 66.2115 64.5757 66.844L68.1156 67.9457C68.6869 68.1226 69.1017 68.347 69.3602 68.619C69.6186 68.8911 69.7478 69.2379 69.7478 69.6596C69.7478 70.2648 69.4758 70.7681 68.9317 71.1694C68.3876 71.5706 67.6939 71.7712 66.8506 71.7712C65.9733 71.7712 65.2218 71.5264 64.5961 71.0367C63.9704 70.5471 63.559 69.8806 63.3618 69.0373L60.9338 69.4249C61.1243 70.6423 61.6173 71.6488 62.413 72.4445C63.2087 73.2402 64.2119 73.7469 65.4224 73.9645V75.8008Z" fill="white"/>
</g>
<defs>
<linearGradient id="paint0_linear_933_303" x1="80" y1="-8.75391" x2="-1.24346e-06" y2="84.4961" gradientUnits="userSpaceOnUse">
<stop stop-color="#ECEFF1"/>
<stop offset="1" stop-color="#D0DAE0"/>
</linearGradient>
<linearGradient id="paint1_linear_933_303" x1="80" y1="-8.75391" x2="-1.24346e-06" y2="84.4961" gradientUnits="userSpaceOnUse">
<stop stop-color="#FF8844"/>
<stop offset="1" stop-color="#FF5D00"/>
</linearGradient>
</defs>
</svg>
