<svg width="80" height="81" viewBox="0 0 80 81" fill="none" xmlns="http://www.w3.org/2000/svg">
<rect y="0.245895" width="80" height="80" rx="24" fill="url(#paint0_linear_873_43)"/>
<path d="M41.2694 38.2624V15.0953L60.7869 26.6788L41.2694 38.2624Z" fill="#929DD1"/>
<path d="M63.3258 51.7501V28.107L43.6497 40.1666L63.3258 51.7501Z" fill="#FFC759"/>
<path d="M61.1043 53.1782L41.1107 41.5947V64.9205L61.1043 53.1782Z" fill="#FFC759"/>
<path d="M38.8892 65.3965V41.5947L18.5782 52.8609L38.8892 65.3965Z" fill="#FFC759"/>
<path d="M36.985 39.6905L16.6742 28.2656V51.7501L36.985 39.6905Z" fill="#FFC759"/>
<path d="M38.8892 38.1037V15.0953L18.5782 26.5202L38.8892 38.1037Z" fill="#929DD1"/>
<mask id="mask0_873_43" style="mask-type:alpha" maskUnits="userSpaceOnUse" x="0" y="0" width="80" height="81">
<rect y="0.245895" width="80" height="80" rx="24" fill="url(#paint1_linear_873_43)"/>
</mask>
<g mask="url(#mask0_873_43)">
<circle cx="64.2502" cy="64.4959" r="15.25" fill="#FFD600"/>
<circle cx="64.2507" cy="64.4959" r="13.1705" fill="#FFC702"/>
<path d="M63.7319 73.067H65.9373V71.4473C67.1087 71.2703 68.0421 70.8219 68.7376 70.102C69.4392 69.3821 69.79 68.4853 69.79 67.4116C69.79 66.4842 69.5368 65.7399 69.0304 65.1787C68.5301 64.6113 67.7096 64.1598 66.5687 63.8243L64.1986 63.1379C63.5702 62.9549 63.1096 62.7383 62.8167 62.4882C62.53 62.232 62.3866 61.9208 62.3866 61.5548C62.3866 61.0667 62.6124 60.661 63.0638 60.3377C63.5153 60.0143 64.0735 59.8588 64.7385 59.871C65.434 59.8893 66.0258 60.0997 66.5138 60.5024C67.008 60.8989 67.3191 61.4236 67.4473 62.0764L69.7076 61.6646C69.4697 60.6458 69.0243 59.8161 68.3715 59.1755C67.7248 58.5349 66.9134 58.12 65.9373 57.9309V56.2562H63.7319V57.8851C62.6398 58.0438 61.7765 58.4586 61.1421 59.1297C60.5137 59.7947 60.1995 60.6397 60.1995 61.6646C60.1995 63.3423 61.1238 64.4649 62.9723 65.0322L66.1478 66.0206C66.6603 66.1792 67.0324 66.3805 67.2642 66.6246C67.4961 66.8686 67.612 67.1797 67.612 67.558C67.612 68.101 67.3679 68.5524 66.8799 68.9124C66.3918 69.2723 65.7695 69.4523 65.013 69.4523C64.226 69.4523 63.5519 69.2327 62.9906 68.7934C62.4293 68.3541 62.0602 67.7563 61.8833 66.9998L59.7053 67.3475C59.8761 68.4396 60.3185 69.3425 61.0322 70.0563C61.746 70.7701 62.6459 71.2246 63.7319 71.4198V73.067Z" fill="white"/>
</g>
<defs>
<linearGradient id="paint0_linear_873_43" x1="80" y1="-8.75411" x2="-1.24346e-06" y2="84.4959" gradientUnits="userSpaceOnUse">
<stop stop-color="#ECEFF1"/>
<stop offset="1" stop-color="#D0DAE0"/>
</linearGradient>
<linearGradient id="paint1_linear_873_43" x1="80" y1="-8.75411" x2="-1.24346e-06" y2="84.4959" gradientUnits="userSpaceOnUse">
<stop stop-color="#FF8844"/>
<stop offset="1" stop-color="#FF5D00"/>
</linearGradient>
</defs>
</svg>
