<svg width="80" height="80" viewBox="0 0 80 80" fill="none" xmlns="http://www.w3.org/2000/svg">
<rect width="80" height="80" rx="16" fill="url(#paint0_linear_933_500)"/>
<path d="M24 61.0001H42C42.7957 61.0001 43.5588 60.684 44.1214 60.1214C44.684 59.5588 45.0001 58.7957 45.0001 58.0001V55.7501H39C37.8069 55.7489 36.663 55.2744 35.8194 54.4307C34.9757 53.5871 34.5012 52.4432 34.5 51.2501V46.4501L26.2913 42.0723C26.0524 41.944 25.8528 41.7534 25.7136 41.5207C25.5744 41.288 25.5009 41.0219 25.5009 40.7508C25.5009 40.4797 25.5744 40.2136 25.7136 39.9809C25.8528 39.7482 26.0524 39.5576 26.2913 39.4293L34.5 35.05V30.25C34.5012 29.0569 34.9757 27.913 35.8194 27.0694C36.663 26.2257 37.8069 25.7512 39 25.75H45.0001V22C45.0001 21.2044 44.684 20.4413 44.1214 19.8787C43.5588 19.3161 42.7957 19 42 19H41.7135L40.0853 22.2565C39.8996 22.6311 39.6126 22.9462 39.257 23.166C38.9013 23.3857 38.4911 23.5015 38.073 23.5H27.927C27.5089 23.5015 27.0988 23.3857 26.7431 23.166C26.3874 22.9462 26.1005 22.6311 25.9148 22.2565L24.2865 19H24C23.2044 19 22.4413 19.3161 21.8787 19.8787C21.3161 20.4413 21 21.2044 21 22V58.0001C21 58.7957 21.3161 59.5588 21.8787 60.1214C22.4413 60.684 23.2044 61.0001 24 61.0001ZM27 58.0001H39C39.199 58.0001 39.3897 58.0791 39.5304 58.2198C39.671 58.3604 39.75 58.5512 39.75 58.7501C39.75 58.949 39.671 59.1398 39.5304 59.2804C39.3897 59.4211 39.199 59.5001 39 59.5001H27C26.8011 59.5001 26.6103 59.4211 26.4697 59.2804C26.329 59.1398 26.25 58.949 26.25 58.7501C26.25 58.5512 26.329 58.3604 26.4697 58.2198C26.6103 58.0791 26.8011 58.0001 27 58.0001V58.0001Z" fill="#E3F2FD"/>
<path d="M27.9269 22H38.0729C38.2123 22.0005 38.349 21.9618 38.4675 21.8885C38.586 21.8152 38.6816 21.7101 38.7434 21.5853L40.0364 19H25.9634L27.2564 21.5853C27.3182 21.7101 27.4138 21.8152 27.5323 21.8885C27.6508 21.9618 27.7875 22.0005 27.9269 22Z" fill="#E3F2FD"/>
<path d="M55.913 43.525C55.6307 43.2432 55.2482 43.085 54.8494 43.085C54.4507 43.085 54.0682 43.2432 53.7859 43.525L52.2957 45.0153C52.0141 45.3013 51.6395 45.477 51.2396 45.5107C50.8397 45.5444 50.4409 45.4338 50.1154 45.199C48.1587 43.798 46.4459 42.0846 45.0454 40.1275C44.8117 39.8027 44.7016 39.4051 44.735 39.0063C44.7684 38.6076 44.9431 38.2339 45.2277 37.9525L46.7254 36.463C46.8656 36.3236 46.9768 36.1579 47.0527 35.9754C47.1286 35.7929 47.1676 35.5971 47.1676 35.3995C47.1676 35.2018 47.1286 35.0061 47.0527 34.8236C46.9768 34.6411 46.8656 34.4754 46.7254 34.336L44.5797 32.1902C44.4403 32.0502 44.2746 31.9391 44.0922 31.8633C43.9097 31.7874 43.7141 31.7484 43.5165 31.7484C43.319 31.7484 43.1234 31.7874 42.9409 31.8633C42.7585 31.9391 42.5928 32.0502 42.4534 32.1902C40.7599 33.883 40.1149 36.5815 40.7284 39.4097C41.3974 42.4847 43.5237 44.404 45.1729 46.1088C47.3899 48.3063 49.7502 49.75 52.9024 49.75C53.8481 49.7798 54.7904 49.6229 55.6754 49.2883C56.5604 48.9537 57.3708 48.448 58.0602 47.8C58.2001 47.6606 58.3111 47.495 58.3869 47.3127C58.4626 47.1303 58.5016 46.9347 58.5016 46.7373C58.5016 46.5398 58.4626 46.3442 58.3869 46.1619C58.3111 45.9795 58.2001 45.8139 58.0602 45.6745L55.913 43.525Z" fill="#66BB6A"/>
<path d="M60.0001 27.25H39C38.2044 27.25 37.4413 27.5661 36.8787 28.1287C36.3161 28.6913 36 29.4544 36 30.25V35.5C36 35.6359 35.9631 35.7692 35.8932 35.8857C35.8233 36.0022 35.7231 36.0975 35.6033 36.1615L27 40.75L35.6055 45.337C35.7252 45.4015 35.8251 45.4972 35.8946 45.6139C35.964 45.7307 36.0005 45.8642 36 46V51.2501C36 52.0457 36.3161 52.8088 36.8787 53.3714C37.4413 53.934 38.2044 54.2501 39 54.2501H60.0001C60.7957 54.2501 61.5588 53.934 62.1214 53.3714C62.684 52.8088 63.0001 52.0457 63.0001 51.2501V30.25C63.0001 29.4544 62.684 28.6913 62.1214 28.1287C61.5588 27.5661 60.7957 27.25 60.0001 27.25V27.25ZM59.1188 48.8598C56.9101 51.0686 53.5996 51.6506 50.5238 50.9921C47.9699 50.3353 45.6686 48.9348 43.9118 46.9683C42.4935 45.499 40.044 43.3473 39.2573 39.7278C38.5373 36.3978 39.3323 33.1848 41.3888 31.1298C41.9608 30.5839 42.721 30.2794 43.5117 30.2794C44.3023 30.2794 45.0626 30.5839 45.6345 31.1298L47.7825 33.2778C48.3448 33.8417 48.6605 34.6055 48.6605 35.4018C48.6605 36.1981 48.3448 36.9619 47.7825 37.5258L46.2923 39.016C46.2611 39.0457 46.2408 39.085 46.2348 39.1276C46.2288 39.1703 46.2375 39.2137 46.2593 39.2508C47.5676 41.0799 49.1695 42.68 51.0001 43.9863C51.0381 44.0096 51.083 44.0189 51.1272 44.0128C51.1714 44.0066 51.2121 43.9853 51.2423 43.9525L52.7251 42.466C53.2972 41.9195 54.0579 41.6146 54.8491 41.6146C55.6402 41.6146 56.401 41.9195 56.9731 42.466L59.1188 44.6118C59.3982 44.8905 59.6199 45.2215 59.7711 45.586C59.9223 45.9505 60.0002 46.3412 60.0002 46.7358C60.0002 47.1304 59.9223 47.5211 59.7711 47.8856C59.6199 48.2501 59.3982 48.5811 59.1188 48.8598V48.8598Z" fill="white"/>
<defs>
<linearGradient id="paint0_linear_933_500" x1="81.25" y1="-3.5" x2="-5.25" y2="81.5" gradientUnits="userSpaceOnUse">
<stop stop-color="#26A69A"/>
<stop offset="1" stop-color="#00897B"/>
</linearGradient>
</defs>
</svg>
