<svg width="80" height="80" viewBox="0 0 80 80" fill="none" xmlns="http://www.w3.org/2000/svg">
<rect width="80" height="80" rx="16" fill="url(#paint0_linear_941_58)"/>
<path d="M35.792 48.616C35.792 47.464 35.88 46.384 36.056 45.376C36.248 44.368 36.6 43.408 37.112 42.496C37.544 41.632 38.048 40.936 38.624 40.408C39.216 39.864 39.856 39.336 40.544 38.824C41.248 38.296 41.984 37.624 42.752 36.808C43.392 36.104 43.816 35.392 44.024 34.672C44.248 33.952 44.36 33.176 44.36 32.344C44.36 31.736 44.288 31.168 44.144 30.64C44 30.112 43.76 29.656 43.424 29.272C42.912 28.632 42.264 28.184 41.48 27.928C40.696 27.656 39.88 27.52 39.032 27.52C38.264 27.52 37.528 27.624 36.824 27.832C36.136 28.04 35.56 28.36 35.096 28.792C34.6 29.208 34.232 29.728 33.992 30.352C33.768 30.96 33.664 31.624 33.68 32.344H28.4C28.528 30.84 28.912 29.432 29.552 28.12C30.192 26.808 31.056 25.744 32.144 24.928C33.072 24.192 34.128 23.648 35.312 23.296C36.496 22.928 37.68 22.744 38.864 22.744C40.56 22.744 42.16 23.008 43.664 23.536C45.184 24.064 46.448 24.92 47.456 26.104C48.192 26.936 48.744 27.888 49.112 28.96C49.496 30.016 49.688 31.112 49.688 32.248C49.688 33.768 49.36 35.176 48.704 36.472C48.064 37.768 47.24 38.952 46.232 40.024C45.704 40.584 45.168 41.096 44.624 41.56C44.08 42.008 43.576 42.448 43.112 42.88C42.648 43.312 42.264 43.784 41.96 44.296C41.528 45.032 41.28 45.696 41.216 46.288C41.152 46.864 41.12 47.64 41.12 48.616H35.792ZM35.816 58V52.192H41.12V58H35.816Z" fill="white"/>
<defs>
<linearGradient id="paint0_linear_941_58" x1="81.25" y1="-3.5" x2="-5.25" y2="81.5" gradientUnits="userSpaceOnUse">
<stop/>
<stop offset="1"/>
</linearGradient>
</defs>
</svg>
