<svg width="80" height="81" viewBox="0 0 80 81" fill="none" xmlns="http://www.w3.org/2000/svg">
<rect y="0.245972" width="80" height="80" rx="16" fill="#1E5072"/>
<g opacity="0.3">
<mask id="mask0_933_168" style="mask-type:alpha" maskUnits="userSpaceOnUse" x="0" y="0" width="80" height="81">
<rect y="0.245972" width="80" height="80" rx="24.1395" fill="url(#paint0_linear_933_168)"/>
</mask>
<g mask="url(#mask0_933_168)">
<path d="M63.3944 28.746C58.6744 28.746 54.1837 29.8441 50.1539 31.8083C49.5219 32.0979 48.8857 32.4444 48.2558 32.7912L51.019 35.2766L55.1613 30.9425L62.2991 37.2985L66.5024 32.7327L79.6277 44.5796L71.2245 53.8834L74.505 56.772L66.2143 66.0759L69.4952 68.9633L57.6359 82.1969L50.6169 75.7244L44.512 82.6607C45.7219 83.5854 47.0459 84.5118 48.4834 85.3195C52.8592 87.804 57.9258 89.246 63.3363 89.246C79.9743 89.246 93.5003 75.6689 93.5003 58.97C93.5591 42.384 80.0307 28.746 63.3944 28.746ZM68.9216 57.1195L61.7256 50.647L55.2769 57.8701L62.4743 64.342L68.9216 57.1195ZM63.7968 69.6018L56.6594 63.072L50.1539 70.2945L57.3502 76.7673L63.7968 69.6018ZM74.042 44.8115L66.8481 38.339L60.4008 45.5621L67.5971 52.0343L74.042 44.8115ZM60.862 41.3432L55.5079 36.4894L50.6712 41.8637L56.0253 46.7749L60.862 41.3432ZM51.305 63.591L45.9527 58.7369L41.1162 64.1674L46.4706 69.0245L51.305 63.591ZM46.5853 74.5138L41.2309 69.6588L36.3983 75.0329L41.7506 79.9434L46.5853 74.5138ZM44.3973 49.5489L40.8288 46.3125L37.6061 49.8966L41.1742 53.1318L44.3973 49.5489ZM49.0027 38.8584L45.4338 35.5652L42.2089 39.2052L45.7804 42.4413L49.0027 38.8584ZM39.8502 60.2403L36.2816 57.0043L33.0005 60.5872L36.6258 63.8224L39.8502 60.2403ZM55.9107 52.2077L50.5563 47.3536L45.7219 52.7268L51.0739 57.5818L55.9107 52.2077Z" fill="url(#paint1_linear_933_168)"/>
</g>
</g>
<path fill-rule="evenodd" clip-rule="evenodd" d="M41.6252 61.246C54.5118 61.246 64.9585 50.7993 64.9585 37.9126C64.9585 25.026 54.5118 14.5793 41.6252 14.5793C28.7385 14.5793 18.2918 25.026 18.2918 37.9126C18.2918 50.7993 28.7385 61.246 41.6252 61.246ZM41.6252 63.5793C55.8005 63.5793 67.2918 52.0879 67.2918 37.9126C67.2918 23.7373 55.8005 12.246 41.6252 12.246C27.4499 12.246 15.9585 23.7373 15.9585 37.9126C15.9585 52.0879 27.4499 63.5793 41.6252 63.5793Z" fill="#44CCEE"/>
<path d="M13.6255 31.566C13.6255 28.7761 13.6255 27.3811 14.2027 26.3311C14.6293 25.5551 15.268 24.9165 16.044 24.4899C17.094 23.9126 18.4889 23.9126 21.2788 23.9126H43.3055C46.0954 23.9126 47.4903 23.9126 48.5403 24.4899C49.3164 24.9165 49.955 25.5551 50.3816 26.3311C50.9588 27.3811 50.9588 28.7761 50.9588 31.566V60.5926C50.9588 63.3825 50.9588 64.7775 50.3816 65.8275C49.955 66.6035 49.3164 67.2421 48.5403 67.6687C47.4903 68.246 46.0954 68.246 43.3055 68.246H21.2788C18.4889 68.246 17.094 68.246 16.044 67.6687C15.268 67.2421 14.6293 66.6035 14.2027 65.8275C13.6255 64.7775 13.6255 63.3825 13.6255 60.5926V31.566Z" fill="white"/>
<path fill-rule="evenodd" clip-rule="evenodd" d="M43.3055 26.246H21.2788C19.8427 26.246 18.9154 26.248 18.2113 26.3093C17.5374 26.368 17.2905 26.4673 17.1681 26.5346C16.7801 26.7479 16.4607 27.0672 16.2474 27.4552C16.1801 27.5777 16.0809 27.8245 16.0222 28.4985C15.9609 29.2025 15.9588 30.1298 15.9588 31.566V60.5926C15.9588 62.0287 15.9609 62.9561 16.0222 63.6601C16.0809 64.3341 16.1801 64.5809 16.2474 64.7034C16.4607 65.0914 16.7801 65.4107 17.1681 65.624C17.2905 65.6913 17.5374 65.7906 18.2113 65.8493C18.9154 65.9106 19.8427 65.9126 21.2788 65.9126H43.3055C44.7416 65.9126 45.669 65.9106 46.373 65.8493C47.047 65.7906 47.2938 65.6913 47.4162 65.624C47.8042 65.4107 48.1236 65.0914 48.3369 64.7034C48.4042 64.5809 48.5034 64.3341 48.5621 63.6601C48.6234 62.9561 48.6255 62.0287 48.6255 60.5926V31.566C48.6255 30.1298 48.6234 29.2025 48.5621 28.4985C48.5034 27.8245 48.4042 27.5777 48.3369 27.4552C48.1236 27.0672 47.8042 26.7479 47.4162 26.5346C47.2938 26.4673 47.047 26.368 46.373 26.3093C45.669 26.248 44.7416 26.246 43.3055 26.246ZM14.2027 26.3311C13.6255 27.3811 13.6255 28.7761 13.6255 31.566V60.5926C13.6255 63.3825 13.6255 64.7775 14.2027 65.8275C14.6293 66.6035 15.268 67.2421 16.044 67.6687C17.094 68.246 18.4889 68.246 21.2788 68.246H43.3055C46.0954 68.246 47.4903 68.246 48.5403 67.6687C49.3163 67.2421 49.955 66.6035 50.3816 65.8275C50.9588 64.7775 50.9588 63.3825 50.9588 60.5926V31.566C50.9588 28.7761 50.9588 27.3811 50.3816 26.3311C49.955 25.5551 49.3163 24.9165 48.5403 24.4899C47.4903 23.9126 46.0954 23.9126 43.3055 23.9126H21.2788C18.4889 23.9126 17.094 23.9126 16.044 24.4899C15.268 24.9165 14.6293 25.5551 14.2027 26.3311Z" fill="#44CCEE"/>
<path fill-rule="evenodd" clip-rule="evenodd" d="M21.7918 28.5793V32.0793C21.7918 32.7236 22.3142 33.246 22.9585 33.246H26.6587C27.5869 33.246 28.4772 33.6147 29.1335 34.2711L30.1 35.2376C30.3188 35.4564 30.6156 35.5793 30.925 35.5793H33.6587C33.9681 35.5793 34.2648 35.4564 34.4836 35.2376L35.4501 34.2711C36.1065 33.6147 36.9967 33.246 37.925 33.246H41.6252C42.2695 33.246 42.7918 32.7236 42.7918 32.0793V28.5793H45.1252V32.0793C45.1252 34.0123 43.5582 35.5793 41.6252 35.5793H37.925C37.6156 35.5793 37.3188 35.7022 37.1 35.921L36.1335 36.8875C35.4772 37.5439 34.5869 37.9126 33.6587 37.9126H30.925C29.9967 37.9126 29.1065 37.5439 28.4501 36.8875L27.4836 35.921C27.2648 35.7022 26.9681 35.5793 26.6587 35.5793H22.9585C21.0255 35.5793 19.4585 34.0123 19.4585 32.0793V28.5793H21.7918Z" fill="#44CCEE"/>
<path d="M45.313 51.7247L64.4751 32.5625C65.3863 31.6513 66.8637 31.6513 67.7749 32.5625L67.9751 32.7627C68.8863 33.6739 68.8863 35.1513 67.9751 36.0625L48.813 55.2247C47.9192 56.1184 46.8532 56.8213 45.6796 57.2908L41.625 58.9126L43.2468 54.858C43.7163 53.6844 44.4192 52.6184 45.313 51.7247Z" fill="white"/>
<path fill-rule="evenodd" clip-rule="evenodd" d="M39.9755 60.5626C39.3155 59.9025 39.1123 58.9127 39.4589 58.0461L41.0808 53.9914C41.6676 52.5245 42.5462 51.192 43.6634 50.0748L62.8256 30.9126C64.648 29.0902 67.6028 29.0902 69.4252 30.9126L69.6254 31.1128C71.4478 32.9353 71.4478 35.89 69.6254 37.7125L67.9755 36.0626C68.8867 35.1513 68.8867 33.6739 67.9755 32.7627L67.7753 32.5626C66.8641 31.6513 65.3867 31.6513 64.4755 32.5626L45.3134 51.7247C44.4196 52.6184 43.7167 53.6844 43.2472 54.858L41.6254 58.9126L45.68 57.2908C46.8536 56.8214 47.9196 56.1184 48.8134 55.2247L67.9755 36.0626L69.6254 37.7125L50.4633 56.8746C49.3461 57.9918 48.0136 58.8704 46.5466 59.4572L42.492 61.0791C41.6253 61.4257 40.6355 61.2226 39.9755 60.5626Z" fill="#3389C3"/>
<defs>
<linearGradient id="paint0_linear_933_168" x1="81.25" y1="-3.25403" x2="-5.25" y2="81.746" gradientUnits="userSpaceOnUse">
<stop stop-color="#028AE9"/>
<stop offset="1" stop-color="#036CB5"/>
</linearGradient>
<linearGradient id="paint1_linear_933_168" x1="61.0005" y1="36.246" x2="96.7803" y2="99.0517" gradientUnits="userSpaceOnUse">
<stop stop-color="white" stop-opacity="0"/>
<stop offset="1" stop-color="white"/>
</linearGradient>
</defs>
</svg>
