<svg width="80" height="80" viewBox="0 0 80 80" fill="none" xmlns="http://www.w3.org/2000/svg">
<rect width="80" height="80" rx="24.1395" fill="#1E5072"/>
<g opacity="0.3">
<mask id="mask0_492_2112" style="mask-type:alpha" maskUnits="userSpaceOnUse" x="0" y="0" width="80" height="80">
<rect width="80" height="80" rx="24.1395" fill="url(#paint0_linear_492_2112)"/>
</mask>
<g mask="url(#mask0_492_2112)">
<path d="M63.3944 28.5C58.6744 28.5 54.1837 29.5981 50.1539 31.5624C49.5219 31.8519 48.8857 32.1984 48.2558 32.5453L51.019 35.0307L55.1614 30.6965L62.2991 37.0526L66.5024 32.4868L79.6277 44.3336L71.2245 53.6374L74.505 56.5261L66.2143 65.8299L69.4952 68.7173L57.6359 81.9509L50.6169 75.4784L44.512 82.4147C45.7219 83.3394 47.0459 84.2659 48.4834 85.0735C52.8592 87.5581 57.9258 89 63.3363 89C79.9743 89 93.5003 75.4229 93.5003 58.724C93.5591 42.138 80.0307 28.5 63.3944 28.5ZM68.9216 56.8735L61.7256 50.401L55.2769 57.6242L62.4743 64.096L68.9216 56.8735ZM63.7968 69.3558L56.6594 62.826L50.1539 70.0486L57.3502 76.5214L63.7968 69.3558ZM74.042 44.5655L66.8481 38.093L60.4008 45.3162L67.5971 51.7883L74.042 44.5655ZM60.862 41.0972L55.5079 36.2434L50.6712 41.6178L56.0253 46.5289L60.862 41.0972ZM51.305 63.3451L45.9527 58.4909L41.1162 63.9214L46.4706 68.7786L51.305 63.3451ZM46.5853 74.2678L41.2309 69.4128L36.3983 74.7869L41.7506 79.6974L46.5853 74.2678ZM44.3973 49.3029L40.8288 46.0665L37.6061 49.6507L41.1742 52.8858L44.3973 49.3029ZM49.0027 38.6124L45.4338 35.3193L42.2089 38.9592L45.7804 42.1953L49.0027 38.6124ZM39.8502 59.9944L36.2816 56.7583L33.0005 60.3412L36.6258 63.5764L39.8502 59.9944ZM55.9107 51.9618L50.5563 47.1076L45.7219 52.4808L51.0739 57.3359L55.9107 51.9618Z" fill="url(#paint1_linear_492_2112)"/>
</g>
</g>
<path fill-rule="evenodd" clip-rule="evenodd" d="M41.6252 61C54.5118 61 64.9585 50.5533 64.9585 37.6667C64.9585 24.78 54.5118 14.3333 41.6252 14.3333C28.7385 14.3333 18.2918 24.78 18.2918 37.6667C18.2918 50.5533 28.7385 61 41.6252 61ZM41.6252 63.3333C55.8005 63.3333 67.2918 51.842 67.2918 37.6667C67.2918 23.4914 55.8005 12 41.6252 12C27.4499 12 15.9585 23.4914 15.9585 37.6667C15.9585 51.842 27.4499 63.3333 41.6252 63.3333Z" fill="#44CCEE"/>
<path d="M13.6255 31.3201C13.6255 28.5302 13.6255 27.1352 14.2027 26.0852C14.6293 25.3092 15.268 24.6706 16.044 24.244C17.094 23.6667 18.4889 23.6667 21.2788 23.6667H43.3055C46.0954 23.6667 47.4903 23.6667 48.5403 24.244C49.3164 24.6706 49.955 25.3092 50.3816 26.0852C50.9588 27.1352 50.9588 28.5302 50.9588 31.3201V60.3467C50.9588 63.1367 50.9588 64.5316 50.3816 65.5816C49.955 66.3576 49.3164 66.9962 48.5403 67.4228C47.4903 68.0001 46.0954 68.0001 43.3055 68.0001H21.2788C18.4889 68.0001 17.094 68.0001 16.044 67.4228C15.268 66.9962 14.6293 66.3576 14.2027 65.5816C13.6255 64.5316 13.6255 63.1367 13.6255 60.3467V31.3201Z" fill="white"/>
<path fill-rule="evenodd" clip-rule="evenodd" d="M43.3055 26.0001H21.2788C19.8427 26.0001 18.9154 26.0021 18.2113 26.0634C17.5374 26.1221 17.2905 26.2214 17.1681 26.2887C16.7801 26.502 16.4607 26.8213 16.2474 27.2093C16.1801 27.3318 16.0809 27.5786 16.0222 28.2526C15.9609 28.9566 15.9588 29.884 15.9588 31.3201V60.3468C15.9588 61.7829 15.9609 62.7102 16.0222 63.4143C16.0809 64.0882 16.1801 64.335 16.2474 64.4575C16.4607 64.8455 16.7801 65.1648 17.1681 65.3781C17.2905 65.4455 17.5374 65.5447 18.2113 65.6034C18.9154 65.6647 19.8427 65.6668 21.2788 65.6668H43.3055C44.7416 65.6668 45.669 65.6647 46.373 65.6034C47.047 65.5447 47.2938 65.4455 47.4162 65.3781C47.8042 65.1648 48.1236 64.8455 48.3369 64.4575C48.4042 64.335 48.5034 64.0882 48.5621 63.4143C48.6234 62.7102 48.6255 61.7829 48.6255 60.3468V31.3201C48.6255 29.884 48.6234 28.9566 48.5621 28.2526C48.5034 27.5786 48.4042 27.3318 48.3369 27.2093C48.1236 26.8213 47.8042 26.502 47.4162 26.2887C47.2938 26.2214 47.047 26.1221 46.373 26.0634C45.669 26.0021 44.7416 26.0001 43.3055 26.0001ZM14.2027 26.0852C13.6255 27.1352 13.6255 28.5302 13.6255 31.3201V60.3468C13.6255 63.1367 13.6255 64.5316 14.2027 65.5816C14.6293 66.3576 15.268 66.9962 16.044 67.4228C17.094 68.0001 18.4889 68.0001 21.2788 68.0001H43.3055C46.0954 68.0001 47.4903 68.0001 48.5403 67.4228C49.3163 66.9962 49.955 66.3576 50.3816 65.5816C50.9588 64.5316 50.9588 63.1367 50.9588 60.3468V31.3201C50.9588 28.5302 50.9588 27.1352 50.3816 26.0852C49.955 25.3092 49.3163 24.6706 48.5403 24.244C47.4903 23.6667 46.0954 23.6667 43.3055 23.6667H21.2788C18.4889 23.6667 17.094 23.6667 16.044 24.244C15.268 24.6706 14.6293 25.3092 14.2027 26.0852Z" fill="#44CCEE"/>
<path fill-rule="evenodd" clip-rule="evenodd" d="M21.7918 28.3335V31.8335C21.7918 32.4778 22.3142 33.0002 22.9585 33.0002H26.6587C27.5869 33.0002 28.4772 33.3689 29.1335 34.0253L30.1 34.9918C30.3188 35.2106 30.6156 35.3335 30.925 35.3335H33.6587C33.9681 35.3335 34.2648 35.2106 34.4836 34.9918L35.4501 34.0253C36.1065 33.3689 36.9967 33.0002 37.925 33.0002H41.6252C42.2695 33.0002 42.7918 32.4778 42.7918 31.8335V28.3335H45.1252V31.8335C45.1252 33.7665 43.5582 35.3335 41.6252 35.3335H37.925C37.6156 35.3335 37.3188 35.4564 37.1 35.6752L36.1335 36.6417C35.4772 37.2981 34.5869 37.6668 33.6587 37.6668H30.925C29.9967 37.6668 29.1065 37.2981 28.4501 36.6417L27.4836 35.6752C27.2648 35.4564 26.9681 35.3335 26.6587 35.3335H22.9585C21.0255 35.3335 19.4585 33.7665 19.4585 31.8335V28.3335H21.7918Z" fill="#44CCEE"/>
<path d="M45.313 51.4786L64.4751 32.3165C65.3863 31.4053 66.8637 31.4053 67.7749 32.3165L67.9751 32.5166C68.8863 33.4279 68.8863 34.9053 67.9751 35.8165L48.813 54.9786C47.9192 55.8724 46.8532 56.5753 45.6796 57.0447L41.625 58.6666L43.2468 54.6119C43.7163 53.4384 44.4192 52.3724 45.313 51.4786Z" fill="white"/>
<path fill-rule="evenodd" clip-rule="evenodd" d="M39.9755 60.3165C39.3155 59.6565 39.1123 58.6667 39.4589 57.8001L41.0808 53.7454C41.6676 52.2785 42.5462 50.946 43.6634 49.8288L62.8256 30.6666C64.648 28.8442 67.6028 28.8442 69.4252 30.6666L69.6254 30.8668C71.4478 32.6893 71.4478 35.644 69.6254 37.4665L67.9755 35.8166C68.8867 34.9053 68.8867 33.4279 67.9755 32.5167L67.7753 32.3166C66.8641 31.4053 65.3867 31.4053 64.4755 32.3166L45.3134 51.4787C44.4196 52.3724 43.7167 53.4384 43.2472 54.612L41.6254 58.6666L45.68 57.0448C46.8536 56.5754 47.9196 55.8724 48.8134 54.9787L67.9755 35.8166L69.6254 37.4665L50.4633 56.6286C49.3461 57.7458 48.0136 58.6244 46.5466 59.2112L42.492 60.8331C41.6253 61.1797 40.6355 60.9766 39.9755 60.3165Z" fill="#3389C3"/>
<defs>
<linearGradient id="paint0_linear_492_2112" x1="81.25" y1="-3.5" x2="-5.25" y2="81.5" gradientUnits="userSpaceOnUse">
<stop stop-color="#028AE9"/>
<stop offset="1" stop-color="#036CB5"/>
</linearGradient>
<linearGradient id="paint1_linear_492_2112" x1="61.0005" y1="36" x2="96.7803" y2="98.8058" gradientUnits="userSpaceOnUse">
<stop stop-color="white" stop-opacity="0"/>
<stop offset="1" stop-color="white"/>
</linearGradient>
</defs>
</svg>
