<svg width="80" height="80" viewBox="0 0 80 80" fill="none" xmlns="http://www.w3.org/2000/svg">
<rect width="80" height="80" rx="16" fill="url(#paint0_linear_942_665)"/>
<path fill-rule="evenodd" clip-rule="evenodd" d="M31.0556 20.2914V44.8798L22.7303 36.5546C21.5687 35.9092 18.8969 35.5865 17.5029 37.1354C16.1089 38.6843 15.7604 39.6523 16.1476 41.782L29.8939 57.2708C30.3163 57.7776 30.687 58.3139 31.0737 58.8732L31.0737 58.8732C31.5734 59.596 32.0996 60.3572 32.7981 61.143C34.0372 62.5369 34.7342 63.0791 35.8958 63.4663H50.9974C52.159 63.2727 53.3346 62.859 54.676 62.3046C56.5181 61.5432 57.9369 60.3616 58.1609 60.1749L55.2568 56.6899L51.5782 59.7877L45.3827 53.0114L46.738 51.6561L42.8658 46.6222L44.4146 45.267L40.3488 40.4267L46.9315 34.4249L49.2548 36.7482L52.5462 33.6504L54.8695 35.5865L56.0312 34.6185C55.7086 34.3603 54.8309 33.7279 53.9015 33.2632C52.6788 32.6518 51.9653 32.4888 50.9974 32.2951H39.5744V20.2914C39.5457 20.2304 39.516 20.166 39.485 20.0988L39.4848 20.0983L39.4844 20.0974L39.4842 20.0969L39.484 20.0966L39.484 20.0965C38.9573 18.9545 38.0559 17 35.315 17C32.5742 17 31.6728 18.9545 31.1461 20.0965L31.146 20.0966L31.1459 20.0968L31.1455 20.0978C31.1143 20.1653 31.0845 20.2301 31.0556 20.2914ZM49.4485 43.7181L52.6919 47.3848L49.1442 50.5231L45.9007 46.8564L49.4485 43.7181ZM50.1186 41.0164L46.7467 37.335L43.1203 40.6565L46.4922 44.3379L50.1186 41.0164ZM52.5977 36.3757L55.133 39.0402L52.3709 41.6684L49.8356 39.004L52.5977 36.3757ZM59.4416 37.8168L57.82 36.0358L56.0314 37.6644L57.653 39.4454L59.4416 37.8168ZM55.1076 41.9374L57.6595 44.6567L55.019 47.1346L52.4671 44.4154L55.1076 41.9374ZM61.7379 43.1676L60.1238 41.447L58.3546 43.1067L59.9687 44.8273L61.7379 43.1676ZM52.1038 50.1214L55.3085 53.5906L51.8041 56.8279L48.5993 53.3587L52.1038 50.1214ZM59.9665 50.4237L57.5705 47.7973L54.8496 50.2795L57.2456 52.9059L59.9665 50.4237ZM62.4066 46.8562L64.0691 48.5396L62.3402 50.247L60.6778 48.5636L62.4066 46.8562ZM62.3779 56.1216L59.9182 53.5167L57.3975 55.8968L59.8573 58.5018L62.3779 56.1216Z" fill="white"/>
<defs>
<linearGradient id="paint0_linear_942_665" x1="81.25" y1="-3.5" x2="-5.25" y2="81.5" gradientUnits="userSpaceOnUse">
<stop stop-color="#02B3B3"/>
<stop offset="1" stop-color="#007397"/>
</linearGradient>
</defs>
</svg>
