<svg width="80" height="80" viewBox="0 0 80 80" fill="none" xmlns="http://www.w3.org/2000/svg">
<rect width="80" height="80" rx="16" fill="url(#paint0_linear_942_707)"/>
<g clip-path="url(#clip0_942_707)">
<path d="M50.5594 21.2726C46.5145 17.2277 41.1365 15 35.416 15C29.6955 15 24.3175 17.2277 20.2726 21.2726C16.2277 25.3175 14 30.6955 14 36.416C14 42.1365 16.2277 47.5145 20.2726 51.5594C24.3175 55.6044 29.6955 57.832 35.416 57.832C41.1365 57.832 46.5145 55.6044 50.5594 51.5594C54.6044 47.5145 56.832 42.1365 56.832 36.416C56.832 30.6955 54.6044 25.3175 50.5594 21.2726V21.2726Z" fill="#FFEB7A"/>
<path d="M50.5594 21.2726C46.5145 17.2277 41.1365 15 35.416 15V57.832C41.1365 57.832 46.5145 55.6044 50.5594 51.5594C54.6044 47.5145 56.832 42.1365 56.832 36.416C56.832 30.6955 54.6044 25.3175 50.5594 21.2726V21.2726Z" fill="#FFCB49"/>
<path d="M35.416 51.457C43.7229 51.457 50.457 44.7229 50.457 36.416C50.457 28.1091 43.7229 21.375 35.416 21.375C27.1091 21.375 20.375 28.1091 20.375 36.416C20.375 44.7229 27.1091 51.457 35.416 51.457Z" fill="#FFCB49"/>
<path d="M35.416 21.375V51.457C43.7097 51.457 50.457 44.7097 50.457 36.416C50.457 28.1223 43.7097 21.375 35.416 21.375Z" fill="#FFAD09"/>
<path d="M40.0977 39.2051C40.0977 36.8433 38.1762 34.9219 35.8145 34.9219H35.0176C34.3036 34.9219 33.7227 34.341 33.7227 33.627C33.7227 32.913 34.3036 32.332 35.0176 32.332H37.8066C38.6318 32.332 39.3008 31.6631 39.3008 30.8379C39.3008 30.0127 38.6318 29.3438 37.8066 29.3438H36.9102V28.4473C36.9102 27.6221 36.2412 26.9531 35.416 26.9531C34.5909 26.9531 33.9219 27.6221 33.9219 28.4473V29.4864C32.0893 29.9718 30.7344 31.6439 30.7344 33.627C30.7344 35.9887 32.6558 37.9102 35.0176 37.9102H35.8145C36.5285 37.9102 37.1094 38.4911 37.1094 39.2051C37.1094 39.9191 36.5285 40.5 35.8145 40.5H33.0254C32.2002 40.5 31.5312 41.169 31.5312 41.9941C31.5312 42.8193 32.2002 43.4883 33.0254 43.4883H33.9219V44.3848C33.9219 45.2099 34.5909 45.8789 35.416 45.8789C36.2412 45.8789 36.9102 45.2099 36.9102 44.3848V43.3456C38.7428 42.8602 40.0977 41.1881 40.0977 39.2051Z" fill="#FFEB7A"/>
<path d="M35.416 32.332H37.8066C38.6318 32.332 39.3008 31.6631 39.3008 30.8379C39.3008 30.0127 38.6318 29.3438 37.8066 29.3438H36.9102V28.4473C36.9102 27.6221 36.2412 26.9531 35.416 26.9531V32.332Z" fill="#FFCB49"/>
<path d="M35.8145 34.9219H35.416V37.9102H35.8145C36.5285 37.9102 37.1094 38.4911 37.1094 39.2051C37.1094 39.9191 36.5285 40.5 35.8145 40.5H35.416V45.8789C36.2412 45.8789 36.9102 45.2099 36.9102 44.3848V43.3456C38.7428 42.8602 40.0977 41.1881 40.0977 39.2051C40.0977 36.8433 38.1762 34.9219 35.8145 34.9219Z" fill="#FFCB49"/>
<path d="M64.5624 59.465L60.1028 55.0054L61.9122 53.6484C62.3956 53.2857 62.613 52.6676 62.463 52.0822C62.3131 51.4968 61.8252 51.0594 61.227 50.9739L50.0707 49.3801C49.6053 49.3141 49.1354 49.4702 48.8029 49.8028C48.4703 50.1353 48.3138 50.605 48.3802 51.0705L49.974 62.2267C50.0595 62.825 50.4969 63.3129 51.0823 63.4628C51.6678 63.6133 52.2859 63.3954 52.6485 62.9119L54.0055 61.1026L58.4651 65.5623C58.7568 65.854 59.1392 65.9999 59.5216 65.9999C59.904 65.9999 60.2864 65.854 60.578 65.5623L64.5624 61.5779C65.146 60.9945 65.146 60.0484 64.5624 59.465Z" fill="white"/>
</g>
<defs>
<linearGradient id="paint0_linear_942_707" x1="81.25" y1="-3.5" x2="-5.25" y2="81.5" gradientUnits="userSpaceOnUse">
<stop stop-color="#5C6BC0"/>
<stop offset="1" stop-color="#4556B5"/>
</linearGradient>
<clipPath id="clip0_942_707">
<rect width="51" height="51" fill="white" transform="translate(14 15)"/>
</clipPath>
</defs>
</svg>
