<svg width="80" height="80" viewBox="0 0 80 80" fill="none" xmlns="http://www.w3.org/2000/svg">
<rect width="80" height="80" rx="16" fill="url(#paint0_linear_942_805)"/>
<path d="M51.7957 22.9211V26.8423H49.1816V22.9211H30.7957V26.8423H28.1816V22.9211H19V29.4564H60.9999V22.9211H51.7957Z" fill="white"/>
<path d="M19 60.0415H41.2338C33.42 52.4292 38.8942 38.8441 49.9224 38.8673C54.7661 38.8672 58.9696 41.6652 60.9999 45.731V32.0706H19V60.0415ZM36.8953 35.3818H43.082V37.9959H36.8953V35.3818ZM24.5654 35.3818H30.7521V37.9959H24.5654V35.3818ZM24.5654 44.0954H30.7521V46.7095H24.5654V44.0954ZM24.5654 52.8091H30.7521V55.4232H24.5654V52.8091Z" fill="white"/>
<path d="M49.9223 41.4813C40.2175 41.5625 36.5768 54.0796 44.5461 59.3818C46.0883 60.4039 47.9373 61 49.9223 61C55.315 61.0172 59.7008 56.5596 59.6816 51.2406C59.6816 45.8591 55.3038 41.4813 49.9223 41.4813ZM53.3746 55.0137C52.9276 55.851 52.1852 56.4932 51.2947 56.8174V58.3859H48.6806C48.6806 58.1178 48.6806 57.2154 48.6806 56.9638C48.0863 56.8583 47.5417 56.6344 46.8542 56.1848L45.7606 55.4694L47.1914 53.2814L48.285 53.9976C48.9141 54.4089 49.1163 54.4403 49.9789 54.4351C50.8058 54.4298 51.1352 53.7807 51.1988 53.3981C51.2834 52.9006 51.0664 52.5573 50.5566 52.3769C49.4796 51.9961 48.3756 51.5596 47.5922 50.9452C45.7106 49.477 46.5432 46.3219 48.6806 45.5009V44.0083H51.2947V45.3127C52.5078 45.5865 53.1162 46.0518 54.0465 46.5274L52.8065 48.8287C52.0223 48.4609 50.8694 47.5195 49.7053 47.9059C49.2937 48.0554 49.0386 48.6083 49.206 48.8879C49.694 49.2705 50.6028 49.6208 51.428 49.9118C53.5838 50.6248 54.4355 53.0859 53.3755 55.0137H53.3746Z" fill="white"/>
<path d="M49.1816 19H51.7957V22.9212H49.1816V19Z" fill="white"/>
<path d="M28.1816 19H30.7957V22.9212H28.1816V19Z" fill="white"/>
<defs>
<linearGradient id="paint0_linear_942_805" x1="81.25" y1="-3.5" x2="-5.25" y2="81.5" gradientUnits="userSpaceOnUse">
<stop stop-color="#289526"/>
<stop offset="1" stop-color="#196F17"/>
</linearGradient>
</defs>
</svg>
