<svg width="80" height="83" viewBox="0 0 80 83" fill="none" xmlns="http://www.w3.org/2000/svg">
<rect width="80" height="80" rx="24" fill="url(#paint0_linear_492_2238)"/>
<g filter="url(#filter0_d_492_2238)">
<path d="M43.0371 34.5112L66.7978 42.3592L57.2347 71.3129L33.474 63.4649L43.0371 34.5112Z" fill="#20B7A1"/>
<path d="M33.4831 63.4793C30.8737 62.6177 29.4568 59.804 30.3184 57.1946L39.3345 29.8879C40.1961 27.2785 43.0098 25.8616 45.6193 26.7233L33.4831 63.4793Z" fill="#2896FF"/>
<path d="M57.0983 69.0103L33.9096 61.3149C32.3311 60.7937 31.474 59.0917 31.9952 57.5133C32.5164 55.9349 34.2184 55.0778 35.7968 55.599L36.0566 55.6848L66.4236 36.7879L65.7289 42.837L58.9854 63.2945L57.0983 69.0103Z" fill="white"/>
<path d="M49.9756 28.1604L67.3602 33.9024L58.8274 59.7365L41.4428 53.9945L49.9756 28.1604Z" fill="#82CD64"/>
<path d="M59.261 58.4815L46.3678 54.2245C44.8518 53.724 44.0286 52.0893 44.5292 50.5733L51.7371 28.7433L45.6194 26.7234L36.0567 55.685L57.8125 62.8684L59.261 58.4815Z" fill="#84CD62"/>
<path d="M57.8131 62.8682L57.0987 69.0105L65.7295 42.837L66.4243 36.7879L57.8131 62.8682Z" fill="#FAF58C"/>
<path d="M20.2817 25.137L45.1254 22.1442L48.7722 52.4175L23.9286 55.4102L20.2817 25.137Z" fill="#971D24"/>
<path d="M23.943 55.4194C21.2148 55.7483 18.7365 53.8034 18.4076 51.0751L14.9655 22.5253C14.6366 19.797 16.5815 17.3187 19.3098 16.9899L23.943 55.4194Z" fill="#D62F39"/>
<path d="M47.6705 50.3912L23.4094 53.279C21.7592 53.4779 20.2601 52.3015 20.0611 50.6512C19.8621 49.0009 21.0386 47.5018 22.6889 47.3028L22.9605 47.2702L42.4193 17.2601L44.361 23.0311L46.9498 44.4153L47.6705 50.3912Z" fill="white"/>
<path d="M23.8638 16.4397L42.0407 14.25L45.2946 41.2615L27.1177 43.4512L23.8638 16.4397Z" fill="#E85110"/>
<path d="M45.1539 39.9412L31.6737 41.5665C30.0887 41.7576 28.6488 40.6276 28.4578 39.0426L25.7061 16.2187L19.3098 16.9899L22.9605 47.2701L45.7068 44.5278L45.1539 39.9412Z" fill="#E85110"/>
<path d="M45.707 44.5275L47.6705 50.3912L44.3611 23.0308L42.4195 17.2598L45.707 44.5275Z" fill="#FAF58C"/>
</g>
<mask id="mask0_492_2238" style="mask-type:alpha" maskUnits="userSpaceOnUse" x="0" y="0" width="80" height="80">
<rect width="80" height="80" rx="24" fill="url(#paint1_linear_492_2238)"/>
</mask>
<g mask="url(#mask0_492_2238)">
<g filter="url(#filter1_d_492_2238)">
<circle cx="64.25" cy="64.25" r="15.25" fill="#FFD600"/>
<g filter="url(#filter2_i_492_2238)">
<circle cx="64.2505" cy="64.25" r="13.1705" fill="#FFC702"/>
</g>
<path d="M63.7316 72.821H65.9371V71.2013C67.1084 71.0244 68.0418 70.5759 68.7373 69.8561C69.4389 69.1362 69.7897 68.2393 69.7897 67.1656C69.7897 66.2383 69.5365 65.494 69.0302 64.9327C68.5299 64.3653 67.7093 63.9139 66.5685 63.5783L64.1983 62.892C63.5699 62.7089 63.1093 62.4924 62.8165 62.2422C62.5298 61.986 62.3864 61.6749 62.3864 61.3088C62.3864 60.8207 62.6121 60.415 63.0636 60.0917C63.515 59.7684 64.0733 59.6128 64.7382 59.625C65.4337 59.6433 66.0255 59.8538 66.5136 60.2564C67.0078 60.653 67.3189 61.1776 67.447 61.8304L69.7074 61.4186C69.4694 60.3998 69.0241 59.5701 68.3713 58.9295C67.7246 58.2889 66.9132 57.8741 65.9371 57.6849V56.0103H63.7316V57.6392C62.6396 57.7978 61.7763 58.2126 61.1418 58.8837C60.5134 59.5487 60.1992 60.3937 60.1992 61.4186C60.1992 63.0963 61.1235 64.2189 62.9721 64.7863L66.1475 65.7746C66.66 65.9332 67.0322 66.1346 67.264 66.3786C67.4958 66.6226 67.6117 66.9338 67.6117 67.312C67.6117 67.855 67.3677 68.3064 66.8796 68.6664C66.3916 69.0263 65.7693 69.2063 65.0128 69.2063C64.2258 69.2063 63.5516 68.9867 62.9904 68.5474C62.4291 68.1082 62.06 67.5103 61.8831 66.7538L59.7051 67.1015C59.8759 68.1936 60.3182 69.0965 61.032 69.8103C61.7458 70.5241 62.6457 70.9786 63.7316 71.1738V72.821Z" fill="white"/>
</g>
</g>
<defs>
<filter id="filter0_d_492_2238" x="5.9292" y="7.25" width="70.4312" height="75.063" filterUnits="userSpaceOnUse" color-interpolation-filters="sRGB">
<feFlood flood-opacity="0" result="BackgroundImageFix"/>
<feColorMatrix in="SourceAlpha" type="matrix" values="0 0 0 0 0 0 0 0 0 0 0 0 0 0 0 0 0 0 127 0" result="hardAlpha"/>
<feOffset dy="2"/>
<feGaussianBlur stdDeviation="4.5"/>
<feComposite in2="hardAlpha" operator="out"/>
<feColorMatrix type="matrix" values="0 0 0 0 0 0 0 0 0 0 0 0 0 0 0 0 0 0 0.25 0"/>
<feBlend mode="normal" in2="BackgroundImageFix" result="effect1_dropShadow_492_2238"/>
<feBlend mode="normal" in="SourceGraphic" in2="effect1_dropShadow_492_2238" result="shape"/>
</filter>
<filter id="filter1_d_492_2238" x="30.5" y="32.5" width="67.5" height="67.5" filterUnits="userSpaceOnUse" color-interpolation-filters="sRGB">
<feFlood flood-opacity="0" result="BackgroundImageFix"/>
<feColorMatrix in="SourceAlpha" type="matrix" values="0 0 0 0 0 0 0 0 0 0 0 0 0 0 0 0 0 0 127 0" result="hardAlpha"/>
<feOffset dy="2"/>
<feGaussianBlur stdDeviation="9.25"/>
<feComposite in2="hardAlpha" operator="out"/>
<feColorMatrix type="matrix" values="0 0 0 0 1 0 0 0 0 0.780392 0 0 0 0 0 0 0 0 1 0"/>
<feBlend mode="normal" in2="BackgroundImageFix" result="effect1_dropShadow_492_2238"/>
<feBlend mode="normal" in="SourceGraphic" in2="effect1_dropShadow_492_2238" result="shape"/>
</filter>
<filter id="filter2_i_492_2238" x="51.0801" y="51.0796" width="26.3408" height="26.3408" filterUnits="userSpaceOnUse" color-interpolation-filters="sRGB">
<feFlood flood-opacity="0" result="BackgroundImageFix"/>
<feBlend mode="normal" in="SourceGraphic" in2="BackgroundImageFix" result="shape"/>
<feColorMatrix in="SourceAlpha" type="matrix" values="0 0 0 0 0 0 0 0 0 0 0 0 0 0 0 0 0 0 127 0" result="hardAlpha"/>
<feOffset/>
<feGaussianBlur stdDeviation="1.15909"/>
<feComposite in2="hardAlpha" operator="arithmetic" k2="-1" k3="1"/>
<feColorMatrix type="matrix" values="0 0 0 0 0 0 0 0 0 0 0 0 0 0 0 0 0 0 0.09 0"/>
<feBlend mode="normal" in2="shape" result="effect1_innerShadow_492_2238"/>
</filter>
<linearGradient id="paint0_linear_492_2238" x1="80" y1="-9" x2="-1.24346e-06" y2="84.25" gradientUnits="userSpaceOnUse">
<stop stop-color="#4E9CF5"/>
<stop offset="1" stop-color="#1565C0"/>
</linearGradient>
<linearGradient id="paint1_linear_492_2238" x1="80" y1="-9" x2="-1.24346e-06" y2="84.25" gradientUnits="userSpaceOnUse">
<stop stop-color="#FF8844"/>
<stop offset="1" stop-color="#FF5D00"/>
</linearGradient>
</defs>
</svg>
