<svg width="80" height="80" viewBox="0 0 80 80" fill="none" xmlns="http://www.w3.org/2000/svg">
<rect width="80" height="80" rx="16" fill="url(#paint0_linear_933_334)"/>
<path d="M43.0371 34.5111L66.7978 42.3591L57.2347 71.3128L33.474 63.4648L43.0371 34.5111Z" fill="#20B7A1"/>
<path d="M33.4831 63.4793C30.8737 62.6177 29.4568 59.804 30.3184 57.1946L39.3345 29.8879C40.1961 27.2785 43.0098 25.8616 45.6193 26.7232L33.4831 63.4793Z" fill="#2896FF"/>
<path d="M57.0983 69.0103L33.9096 61.3149C32.3311 60.7937 31.474 59.0917 31.9952 57.5133C32.5164 55.9349 34.2184 55.0778 35.7968 55.599L36.0566 55.6848L66.4236 36.7879L65.7289 42.837L58.9854 63.2945L57.0983 69.0103Z" fill="white"/>
<path d="M49.9756 28.1604L67.3602 33.9024L58.8274 59.7365L41.4428 53.9945L49.9756 28.1604Z" fill="#82CD64"/>
<path d="M59.261 58.4814L46.3678 54.2244C44.8518 53.7239 44.0286 52.0891 44.5292 50.5732L51.7371 28.7432L45.6194 26.7232L36.0567 55.6849L57.8126 62.8683L59.261 58.4814Z" fill="#84CD62"/>
<path d="M57.8131 62.8681L57.0987 69.0104L65.7295 42.8369L66.4243 36.7878L57.8131 62.8681Z" fill="#FAF58C"/>
<path d="M20.2817 25.1367L45.1254 22.144L48.7722 52.4173L23.9286 55.41L20.2817 25.1367Z" fill="#971D24"/>
<path d="M23.943 55.4192C21.2148 55.7481 18.7365 53.8032 18.4076 51.0749L14.9655 22.5251C14.6366 19.7968 16.5815 17.3186 19.3098 16.9897L23.943 55.4192Z" fill="#D62F39"/>
<path d="M47.6705 50.3909L23.4094 53.2787C21.7592 53.4776 20.2601 52.3012 20.0611 50.6509C19.8621 49.0006 21.0386 47.5015 22.6889 47.3025L22.9605 47.2699L42.4193 17.2598L44.361 23.0308L46.9498 44.415L47.6705 50.3909Z" fill="white"/>
<path d="M23.8638 16.4395L42.0407 14.2499L45.2946 41.2614L27.1177 43.451L23.8638 16.4395Z" fill="#E85110"/>
<path d="M45.1539 39.9409L31.6737 41.5662C30.0887 41.7574 28.6488 40.6274 28.4578 39.0424L25.7061 16.2185L19.3098 16.9896L22.9605 47.2699L45.7068 44.5275L45.1539 39.9409Z" fill="#E85110"/>
<path d="M45.707 44.5273L47.6705 50.3909L44.3611 23.0306L42.4195 17.2596L45.707 44.5273Z" fill="#FAF58C"/>
<mask id="mask0_933_334" style="mask-type:alpha" maskUnits="userSpaceOnUse" x="0" y="0" width="80" height="80">
<rect width="80" height="80" rx="16" fill="url(#paint1_linear_933_334)"/>
</mask>
<g mask="url(#mask0_933_334)">
<circle cx="66" cy="66" r="17" fill="#FFD600"/>
<circle cx="66.0007" cy="66" r="14.6818" fill="#FFC702"/>
<path d="M65.4222 75.5547H67.8807V73.749C69.1865 73.5518 70.227 73.052 71.0023 72.2494C71.7844 71.4469 72.1755 70.4472 72.1755 69.2502C72.1755 68.2165 71.8933 67.3868 71.3288 66.7611C70.7711 66.1286 69.8564 65.6254 68.5846 65.2513L65.9425 64.4862C65.242 64.2822 64.7285 64.0408 64.4021 63.7619C64.0824 63.4763 63.9226 63.1294 63.9226 62.7214C63.9226 62.1773 64.1742 61.725 64.6775 61.3646C65.1808 61.0041 65.803 60.8307 66.5443 60.8443C67.3196 60.8647 67.9793 61.0994 68.5234 61.5482C69.0743 61.9903 69.4211 62.5752 69.5639 63.3029L72.0837 62.8438C71.8184 61.708 71.322 60.7831 70.5943 60.069C69.8734 59.3549 68.9689 58.8925 67.8807 58.6816V56.8148H65.4222V58.6306C64.2048 58.8075 63.2425 59.2699 62.5352 60.018C61.8347 60.7593 61.4845 61.7012 61.4845 62.8438C61.4845 64.714 62.5148 65.9654 64.5755 66.5979L68.1154 67.6996C68.6866 67.8765 69.1015 68.1009 69.3599 68.3729C69.6184 68.645 69.7476 68.9918 69.7476 69.4135C69.7476 70.0188 69.4755 70.522 68.9315 70.9233C68.3874 71.3245 67.6937 71.5252 66.8504 71.5252C65.9731 71.5252 65.2216 71.2803 64.5959 70.7907C63.9702 70.301 63.5587 69.6345 63.3615 68.7912L60.9336 69.1788C61.124 70.3962 61.6171 71.4027 62.4128 72.1984C63.2085 72.9941 64.2116 73.5008 65.4222 73.7184V75.5547Z" fill="white"/>
</g>
<defs>
<linearGradient id="paint0_linear_933_334" x1="80" y1="-9" x2="-1.24346e-06" y2="84.25" gradientUnits="userSpaceOnUse">
<stop stop-color="#4E9CF5"/>
<stop offset="1" stop-color="#1565C0"/>
</linearGradient>
<linearGradient id="paint1_linear_933_334" x1="80" y1="-9" x2="-1.24346e-06" y2="84.25" gradientUnits="userSpaceOnUse">
<stop stop-color="#FF8844"/>
<stop offset="1" stop-color="#FF5D00"/>
</linearGradient>
</defs>
</svg>
