<svg width="80" height="80" viewBox="0 0 80 80" fill="none" xmlns="http://www.w3.org/2000/svg">
<rect y="0.00012207" width="80" height="80" rx="24" fill="url(#paint0_linear_873_221)"/>
<path d="M43.0371 34.5113L66.7978 42.3592L57.2347 71.3129L33.474 63.465L43.0371 34.5113Z" fill="#20B7A1"/>
<path d="M33.4831 63.4794C30.8737 62.6178 29.4568 59.8041 30.3184 57.1947L39.3345 29.888C40.1961 27.2786 43.0098 25.8617 45.6193 26.7233L33.4831 63.4794Z" fill="#2896FF"/>
<path d="M57.0983 69.0105L33.9096 61.315C32.3311 60.7938 31.474 59.0919 31.9952 57.5134C32.5164 55.935 34.2184 55.0779 35.7968 55.5991L36.0566 55.6849L66.4236 36.788L65.7289 42.8371L58.9854 63.2946L57.0983 69.0105Z" fill="white"/>
<path d="M49.9753 28.1605L67.3599 33.9025L58.8272 59.7366L41.4426 53.9946L49.9753 28.1605Z" fill="#82CD64"/>
<path d="M59.261 58.4815L46.3678 54.2245C44.8518 53.724 44.0286 52.0893 44.5292 50.5733L51.7371 28.7433L45.6194 26.7234L36.0567 55.685L57.8126 62.8684L59.261 58.4815Z" fill="#84CD62"/>
<path d="M57.8128 62.8682L57.0985 69.0105L65.7292 42.837L66.424 36.7879L57.8128 62.8682Z" fill="#FAF58C"/>
<path d="M20.2817 25.1369L45.1254 22.1441L48.7722 52.4174L23.9286 55.4101L20.2817 25.1369Z" fill="#971D24"/>
<path d="M23.943 55.4193C21.2148 55.7482 18.7365 53.8033 18.4076 51.0751L14.9655 22.5252C14.6366 19.797 16.5815 17.3187 19.3098 16.9898L23.943 55.4193Z" fill="#D62F39"/>
<path d="M47.6705 50.3911L23.4094 53.2788C21.7592 53.4778 20.2601 52.3013 20.0611 50.651C19.8621 49.0007 21.0386 47.5016 22.6889 47.3026L22.9605 47.27L42.4193 17.2599L44.361 23.0309L46.9498 44.4151L47.6705 50.3911Z" fill="white"/>
<path d="M23.8638 16.4397L42.0407 14.25L45.2946 41.2615L27.1177 43.4511L23.8638 16.4397Z" fill="#E85110"/>
<path d="M45.1539 39.9411L31.6737 41.5663C30.0887 41.7575 28.6488 40.6275 28.4578 39.0425L25.7061 16.2186L19.3098 16.9898L22.9605 47.27L45.7068 44.5276L45.1539 39.9411Z" fill="#E85110"/>
<path d="M45.707 44.5274L47.6705 50.391L44.3611 23.0307L42.4195 17.2597L45.707 44.5274Z" fill="#FAF58C"/>
<mask id="mask0_873_221" style="mask-type:alpha" maskUnits="userSpaceOnUse" x="0" y="0" width="80" height="81">
<rect y="0.00012207" width="80" height="80" rx="24" fill="url(#paint1_linear_873_221)"/>
</mask>
<g mask="url(#mask0_873_221)">
<circle cx="64.2502" cy="64.2501" r="15.25" fill="#FFD600"/>
<g filter="url(#filter0_i_873_221)">
<circle cx="64.2505" cy="64.2501" r="13.1705" fill="#FFC702"/>
</g>
<path d="M63.7319 72.8212H65.9373V71.2015C67.1087 71.0245 68.0421 70.5761 68.7376 69.8562C69.4392 69.1363 69.79 68.2395 69.79 67.1658C69.79 66.2385 69.5368 65.4942 69.0304 64.9329C68.5301 64.3655 67.7096 63.914 66.5687 63.5785L64.1986 62.8922C63.5702 62.7091 63.1096 62.4926 62.8167 62.2424C62.53 61.9862 62.3866 61.675 62.3866 61.309C62.3866 60.8209 62.6124 60.4152 63.0638 60.0919C63.5153 59.7685 64.0735 59.613 64.7385 59.6252C65.434 59.6435 66.0258 59.854 66.5138 60.2566C67.008 60.6532 67.3191 61.1778 67.4473 61.8306L69.7076 61.4188C69.4697 60.4 69.0243 59.5703 68.3715 58.9297C67.7248 58.2891 66.9134 57.8742 65.9373 57.6851V56.0104H63.7319V57.6394C62.6398 57.798 61.7765 58.2128 61.1421 58.8839C60.5137 59.5489 60.1995 60.3939 60.1995 61.4188C60.1995 63.0965 61.1238 64.2191 62.9723 64.7865L66.1478 65.7748C66.6603 65.9334 67.0324 66.1347 67.2642 66.3788C67.4961 66.6228 67.612 66.9339 67.612 67.3122C67.612 67.8552 67.3679 68.3066 66.8799 68.6666C66.3918 69.0265 65.7695 69.2065 65.013 69.2065C64.226 69.2065 63.5519 68.9869 62.9906 68.5476C62.4293 68.1084 62.0602 67.5105 61.8833 66.754L59.7053 67.1017C59.8761 68.1938 60.3185 69.0967 61.0322 69.8105C61.746 70.5243 62.6459 70.9788 63.7319 71.174V72.8212Z" fill="white"/>
</g>
<defs>
<filter id="filter0_i_873_221" x="51.0801" y="51.0797" width="26.3408" height="26.3409" filterUnits="userSpaceOnUse" color-interpolation-filters="sRGB">
<feFlood flood-opacity="0" result="BackgroundImageFix"/>
<feBlend mode="normal" in="SourceGraphic" in2="BackgroundImageFix" result="shape"/>
<feColorMatrix in="SourceAlpha" type="matrix" values="0 0 0 0 0 0 0 0 0 0 0 0 0 0 0 0 0 0 127 0" result="hardAlpha"/>
<feOffset/>
<feGaussianBlur stdDeviation="1.15909"/>
<feComposite in2="hardAlpha" operator="arithmetic" k2="-1" k3="1"/>
<feColorMatrix type="matrix" values="0 0 0 0 0 0 0 0 0 0 0 0 0 0 0 0 0 0 0.09 0"/>
<feBlend mode="normal" in2="shape" result="effect1_innerShadow_873_221"/>
</filter>
<linearGradient id="paint0_linear_873_221" x1="80" y1="-8.99988" x2="-1.24346e-06" y2="84.2501" gradientUnits="userSpaceOnUse">
<stop stop-color="#4E9CF5"/>
<stop offset="1" stop-color="#1565C0"/>
</linearGradient>
<linearGradient id="paint1_linear_873_221" x1="80" y1="-8.99988" x2="-1.24346e-06" y2="84.2501" gradientUnits="userSpaceOnUse">
<stop stop-color="#FF8844"/>
<stop offset="1" stop-color="#FF5D00"/>
</linearGradient>
</defs>
</svg>
