<svg width="80" height="80" viewBox="0 0 80 80" fill="none" xmlns="http://www.w3.org/2000/svg">
<rect width="80" height="80" rx="16" fill="url(#paint0_linear_942_777)"/>
<path d="M54.4583 40.5C51.6976 40.5 48.9989 41.3186 46.7035 42.8524C44.4081 44.3862 42.619 46.5662 41.5625 49.1167C40.506 51.6673 40.2296 54.4738 40.7682 57.1815C41.3068 59.8891 42.6362 62.3763 44.5883 64.3284C46.5404 66.2805 49.0276 67.6099 51.7352 68.1485C54.4429 68.6871 57.2494 68.4106 59.8 67.3542C62.3505 66.2977 64.5305 64.5086 66.0643 62.2132C67.598 59.9177 68.4167 57.219 68.4167 54.4583C68.4126 50.7576 66.9407 47.2096 64.3239 44.5928C61.7071 41.976 58.1591 40.5041 54.4583 40.5ZM54.4583 53.0625C55.5933 53.0594 56.6916 53.4643 57.5529 54.2034C58.4142 54.9425 58.9811 55.9666 59.1503 57.0888C59.3196 58.2111 59.0798 59.3568 58.4747 60.317C57.8696 61.2772 56.9396 61.988 55.8542 62.3197V62.8333C55.8542 63.2035 55.7071 63.5586 55.4453 63.8203C55.1836 64.0821 54.8285 64.2292 54.4583 64.2292C54.0881 64.2292 53.7331 64.0821 53.4713 63.8203C53.2096 63.5586 53.0625 63.2035 53.0625 62.8333V62.3197C52.0957 62.0238 51.249 61.4262 50.6462 60.6145C50.0434 59.8027 49.7162 58.8194 49.7125 57.8083C49.7125 57.4381 49.8596 57.0831 50.1213 56.8213C50.3831 56.5596 50.7381 56.4125 51.1083 56.4125C51.4785 56.4125 51.8336 56.5596 52.0953 56.8213C52.3571 57.0831 52.5042 57.4381 52.5042 57.8083C52.5042 58.1948 52.6188 58.5727 52.8335 58.894C53.0482 59.2154 53.3534 59.4658 53.7105 59.6138C54.0676 59.7617 54.4605 59.8004 54.8396 59.725C55.2187 59.6495 55.5669 59.4634 55.8401 59.1901C56.1134 58.9168 56.2996 58.5686 56.375 58.1896C56.4504 57.8105 56.4117 57.4176 56.2638 57.0605C56.1159 56.7034 55.8654 56.3982 55.544 56.1835C55.2227 55.9688 54.8448 55.8542 54.4583 55.8542C53.3234 55.8573 52.2251 55.4524 51.3638 54.7133C50.5025 53.9742 49.9356 52.9501 49.7664 51.8278C49.5971 50.7056 49.8369 49.5599 50.442 48.5996C51.0471 47.6394 51.9771 46.9287 53.0625 46.597V46.0833C53.0625 45.7131 53.2096 45.3581 53.4713 45.0963C53.7331 44.8346 54.0881 44.6875 54.4583 44.6875C54.8285 44.6875 55.1836 44.8346 55.4453 45.0963C55.7071 45.3581 55.8542 45.7131 55.8542 46.0833V46.597C56.821 46.8929 57.6677 47.4904 58.2705 48.3022C58.8733 49.1139 59.2005 50.0973 59.2042 51.1083C59.2042 51.4785 59.0571 51.8336 58.7953 52.0953C58.5336 52.3571 58.1785 52.5042 57.8083 52.5042C57.4381 52.5042 57.0831 52.3571 56.8213 52.0953C56.5596 51.8336 56.4125 51.4785 56.4125 51.1083C56.4125 50.7218 56.2979 50.344 56.0832 50.0227C55.8684 49.7013 55.5632 49.4508 55.2062 49.3029C54.8491 49.155 54.4562 49.1163 54.0771 49.1917C53.698 49.2671 53.3498 49.4532 53.0765 49.7265C52.8032 49.9998 52.6171 50.348 52.5417 50.7271C52.4663 51.1062 52.505 51.4991 52.6529 51.8562C52.8008 52.2132 53.0513 52.5184 53.3727 52.7332C53.694 52.9479 54.0718 53.0625 54.4583 53.0625V53.0625Z" fill="white"/>
<path d="M33.521 20.9584C31.0364 20.9584 28.6075 21.6952 26.5416 23.0755C24.4758 24.4559 22.8656 26.4179 21.9148 28.7134C20.9639 31.0089 20.7152 33.5348 21.1999 35.9717C21.6846 38.4086 22.8811 40.647 24.638 42.4039C26.3949 44.1608 28.6333 45.3573 31.0702 45.842C33.5071 46.3267 36.033 46.0779 38.3285 45.1271C40.624 44.1763 42.586 42.5661 43.9663 40.5002C45.3467 38.4343 46.0835 36.0055 46.0835 33.5209C46.0783 30.1907 44.7531 26.9984 42.3983 24.6436C40.0435 22.2887 36.8512 20.9635 33.521 20.9584V20.9584ZM37.3037 37.3036C37.0391 37.5631 36.6833 37.7085 36.3127 37.7085C35.9421 37.7085 35.5862 37.5631 35.3216 37.3036L32.53 34.5119C32.2729 34.2458 32.1279 33.8909 32.1252 33.5209V25.1459C32.1252 24.7757 32.2722 24.4206 32.534 24.1589C32.7958 23.8971 33.1508 23.75 33.521 23.75C33.8912 23.75 34.2462 23.8971 34.508 24.1589C34.7698 24.4206 34.9168 24.7757 34.9168 25.1459V32.9486L37.3037 35.3215C37.5652 35.585 37.712 35.9413 37.712 36.3125C37.712 36.6838 37.5652 37.04 37.3037 37.3036V37.3036Z" fill="white"/>
<path d="M33.5211 12.5834C30.5964 12.5883 27.7052 13.2058 25.0338 14.3963C22.3624 15.5867 19.9701 17.3236 18.0109 19.495C16.0517 21.6665 14.5691 24.2243 13.6588 27.0036C12.7484 29.783 12.4305 32.7222 12.7254 35.632C13.0203 38.5417 13.9215 41.3574 15.3709 43.8976C16.8204 46.4378 18.786 48.6461 21.141 50.3803C23.496 52.1146 26.1882 53.3361 29.0441 53.9664C31.9001 54.5967 34.8564 54.6216 37.7225 54.0396C37.7627 51.9064 38.2178 49.8014 39.0625 47.8421C35.7785 49.1126 32.1576 49.2158 28.8065 48.1343C25.4555 47.0527 22.578 44.8523 20.6564 41.9016C18.7347 38.951 17.8856 35.4295 18.2514 31.9273C18.6171 28.4252 20.1755 25.1551 22.6654 22.6652C25.1553 20.1754 28.4254 18.6169 31.9275 18.2512C35.4297 17.8854 38.9512 18.7345 41.9018 20.6562C44.8525 22.5778 47.0529 25.4553 48.1345 28.8063C49.216 32.1574 49.1128 35.7783 47.8423 39.0623C49.8016 38.2176 51.9066 37.7625 54.0398 37.7223C54.6571 34.6796 54.5911 31.5378 53.8465 28.5238C53.1019 25.5097 51.6973 22.6986 49.7341 20.2934C47.771 17.8882 45.2982 15.9489 42.4944 14.6156C39.6906 13.2822 36.6257 12.5881 33.5211 12.5834V12.5834Z" fill="white"/>
<defs>
<linearGradient id="paint0_linear_942_777" x1="81.25" y1="-3.5" x2="-5.25" y2="81.5" gradientUnits="userSpaceOnUse">
<stop stop-color="#F18520"/>
<stop offset="1" stop-color="#D66700"/>
</linearGradient>
</defs>
</svg>
