<svg width="80" height="81" viewBox="0 0 80 81" fill="none" xmlns="http://www.w3.org/2000/svg">
<rect y="0.246094" width="80" height="80" rx="24" fill="url(#paint0_linear_492_2178)"/>
<path fill-rule="evenodd" clip-rule="evenodd" d="M18 24.1353C15.2386 24.1353 13 26.3738 13 29.1353V51.3575C13 54.1189 15.2386 56.3575 18 56.3575H52.4C55.1614 56.3575 57.4 54.1189 57.4 51.3575V45.3352L64.7178 49.8072C65.7173 50.418 67 49.6987 67 48.5273V32.6098C67 31.4384 65.7173 30.719 64.7178 31.3299L57.4 35.8018V29.1353C57.4 26.3738 55.1614 24.1353 52.4 24.1353H18Z" fill="url(#paint1_angular_492_2178)"/>
<mask id="mask0_492_2178" style="mask-type:alpha" maskUnits="userSpaceOnUse" x="0" y="0" width="80" height="81">
<rect y="0.246094" width="80" height="80" rx="24" fill="url(#paint2_linear_492_2178)"/>
</mask>
<g mask="url(#mask0_492_2178)">
<g filter="url(#filter0_d_492_2178)">
<circle cx="64.25" cy="64.4961" r="15.25" fill="#FFD600"/>
<g filter="url(#filter1_i_492_2178)">
<circle cx="64.2505" cy="64.4961" r="13.1705" fill="#FFC702"/>
</g>
<path d="M63.7316 73.0671H65.9371V71.4474C67.1084 71.2705 68.0418 70.822 68.7373 70.1021C69.4389 69.3822 69.7897 68.4854 69.7897 67.4117C69.7897 66.4844 69.5365 65.7401 69.0302 65.1788C68.5299 64.6114 67.7093 64.16 66.5685 63.8244L64.1983 63.1381C63.5699 62.955 63.1093 62.7385 62.8165 62.4883C62.5298 62.2321 62.3864 61.921 62.3864 61.5549C62.3864 61.0668 62.6121 60.6611 63.0636 60.3378C63.515 60.0144 64.0733 59.8589 64.7382 59.8711C65.4337 59.8894 66.0255 60.0999 66.5136 60.5025C67.0078 60.8991 67.3189 61.4237 67.447 62.0765L69.7074 61.6647C69.4694 60.6459 69.0241 59.8162 68.3713 59.1756C67.7246 58.535 66.9132 58.1201 65.9371 57.931V56.2563H63.7316V57.8853C62.6396 58.0439 61.7763 58.4587 61.1418 59.1298C60.5134 59.7948 60.1992 60.6398 60.1992 61.6647C60.1992 63.3424 61.1235 64.465 62.9721 65.0324L66.1475 66.0207C66.66 66.1793 67.0322 66.3806 67.264 66.6247C67.4958 66.8687 67.6117 67.1799 67.6117 67.5581C67.6117 68.1011 67.3677 68.5525 66.8796 68.9125C66.3916 69.2724 65.7693 69.4524 65.0128 69.4524C64.2258 69.4524 63.5516 69.2328 62.9904 68.7935C62.4291 68.3543 62.06 67.7564 61.8831 66.9999L59.7051 67.3476C59.8759 68.4397 60.3182 69.3426 61.032 70.0564C61.7458 70.7702 62.6457 71.2247 63.7316 71.4199V73.0671Z" fill="white"/>
</g>
</g>
<defs>
<filter id="filter0_d_492_2178" x="30.5" y="32.7461" width="67.5" height="67.5" filterUnits="userSpaceOnUse" color-interpolation-filters="sRGB">
<feFlood flood-opacity="0" result="BackgroundImageFix"/>
<feColorMatrix in="SourceAlpha" type="matrix" values="0 0 0 0 0 0 0 0 0 0 0 0 0 0 0 0 0 0 127 0" result="hardAlpha"/>
<feOffset dy="2"/>
<feGaussianBlur stdDeviation="9.25"/>
<feComposite in2="hardAlpha" operator="out"/>
<feColorMatrix type="matrix" values="0 0 0 0 1 0 0 0 0 0.780392 0 0 0 0 0 0 0 0 1 0"/>
<feBlend mode="normal" in2="BackgroundImageFix" result="effect1_dropShadow_492_2178"/>
<feBlend mode="normal" in="SourceGraphic" in2="effect1_dropShadow_492_2178" result="shape"/>
</filter>
<filter id="filter1_i_492_2178" x="51.0801" y="51.3257" width="26.3408" height="26.3408" filterUnits="userSpaceOnUse" color-interpolation-filters="sRGB">
<feFlood flood-opacity="0" result="BackgroundImageFix"/>
<feBlend mode="normal" in="SourceGraphic" in2="BackgroundImageFix" result="shape"/>
<feColorMatrix in="SourceAlpha" type="matrix" values="0 0 0 0 0 0 0 0 0 0 0 0 0 0 0 0 0 0 127 0" result="hardAlpha"/>
<feOffset/>
<feGaussianBlur stdDeviation="1.15909"/>
<feComposite in2="hardAlpha" operator="arithmetic" k2="-1" k3="1"/>
<feColorMatrix type="matrix" values="0 0 0 0 0 0 0 0 0 0 0 0 0 0 0 0 0 0 0.09 0"/>
<feBlend mode="normal" in2="shape" result="effect1_innerShadow_492_2178"/>
</filter>
<linearGradient id="paint0_linear_492_2178" x1="80" y1="-8.75391" x2="-1.24346e-06" y2="84.4961" gradientUnits="userSpaceOnUse">
<stop stop-color="#FF8844"/>
<stop offset="1" stop-color="#FF5D00"/>
</linearGradient>
<radialGradient id="paint1_angular_492_2178" cx="0" cy="0" r="1" gradientUnits="userSpaceOnUse" gradientTransform="translate(36.7 40.2464) rotate(-180) scale(23.7 45.82)">
<stop stop-color="white"/>
<stop offset="1" stop-color="white" stop-opacity="0.24"/>
</radialGradient>
<linearGradient id="paint2_linear_492_2178" x1="80" y1="-8.75391" x2="-1.24346e-06" y2="84.4961" gradientUnits="userSpaceOnUse">
<stop stop-color="#FF8844"/>
<stop offset="1" stop-color="#FF5D00"/>
</linearGradient>
</defs>
</svg>
