<svg width="80" height="81" viewBox="0 0 80 81" fill="none" xmlns="http://www.w3.org/2000/svg">
<rect x="0.000244141" y="0.245972" width="80" height="80" rx="24" fill="url(#paint0_linear_873_93)"/>
<path d="M40.4418 15.7542C44.2814 15.7542 47.9339 16.6331 51.2108 18.2054C51.7248 18.4366 52.2418 18.7149 52.7543 18.9931L50.5083 20.9851L47.1386 17.512L41.3344 22.6031L37.9161 18.9475L27.2414 28.4362L34.0765 35.8872L31.4079 38.1985L38.1503 45.6495L35.4816 47.9639L45.1284 58.5626L50.8368 53.3773L55.8016 58.9336C54.8177 59.6742 53.7411 60.4162 52.5718 61.0625C49.0135 63.0545 44.8927 64.2071 40.4905 64.2071C26.9601 64.2071 15.9584 53.3347 15.9584 39.9594C15.9128 26.6768 26.9144 15.7512 40.4434 15.7512L40.4418 15.7542ZM35.9469 38.4768L41.8013 33.2915L47.0444 39.0789L41.19 44.2612L35.9469 38.4753V38.4768ZM40.1134 48.4748L45.9221 43.2439L51.2108 49.0299L45.3565 54.2152L40.1134 48.4748ZM31.7835 28.6186L37.6333 23.4364L42.8794 29.2208L37.025 34.4061L31.7835 28.6186ZM42.5038 25.8435L46.8558 21.9553L50.7896 26.2586L46.4331 30.1925L42.5008 25.8435H42.5038ZM50.2742 43.6606L54.6262 39.7739L58.56 44.1228L54.2049 48.0126L50.2726 43.6606H50.2742ZM54.1122 52.4087L58.4672 48.5205L62.398 52.8238L58.0445 56.7576L54.1122 52.4087ZM55.8913 32.4126L58.7957 29.823L61.4157 32.6924L58.5144 35.2835L55.8898 32.4126H55.8913ZM52.146 23.8515L55.0504 21.2147L57.6735 24.1313L54.7691 26.7239L52.1475 23.853L52.146 23.8515ZM59.5925 40.9782L62.4938 38.3855L65.161 41.255L62.211 43.8461L59.5925 40.9782ZM46.5304 34.5429L50.8839 30.6563L54.8162 34.9596L50.4642 38.8478L46.5304 34.5429Z" fill="#D8E4EC"/>
<mask id="mask0_873_93" style="mask-type:alpha" maskUnits="userSpaceOnUse" x="0" y="0" width="81" height="81">
<rect x="0.000244141" y="0.245972" width="80" height="80" rx="24" fill="url(#paint1_linear_873_93)"/>
</mask>
<g mask="url(#mask0_873_93)">
<circle cx="64.2505" cy="64.496" r="15.25" fill="#FFD600"/>
<circle cx="64.2508" cy="64.4959" r="13.1705" fill="#FFC702"/>
<path d="M63.7321 73.0671H65.9375V71.4473C67.1089 71.2704 68.0423 70.822 68.7378 70.1021C69.4394 69.3822 69.7902 68.4854 69.7902 67.4116C69.7902 66.4843 69.537 65.74 69.0307 65.1787C68.5304 64.6113 67.7098 64.1599 66.569 63.8243L64.1988 63.138C63.5704 62.955 63.1098 62.7384 62.817 62.4883C62.5302 62.232 62.3869 61.9209 62.3869 61.5548C62.3869 61.0668 62.6126 60.6611 63.0641 60.3377C63.5155 60.0144 64.0737 59.8588 64.7387 59.871C65.4342 59.8893 66.026 60.0998 66.5141 60.5024C67.0082 60.899 67.3194 61.4237 67.4475 62.0764L69.7079 61.6646C69.4699 60.6458 69.0246 59.8161 68.3718 59.1755C67.7251 58.5349 66.9137 58.1201 65.9375 57.9309V56.2563H63.7321V57.8852C62.6401 58.0438 61.7768 58.4587 61.1423 59.1298C60.5139 59.7947 60.1997 60.6397 60.1997 61.6646C60.1997 63.3424 61.124 64.4649 62.9726 65.0323L66.148 66.0206C66.6605 66.1792 67.0326 66.3806 67.2645 66.6246C67.4963 66.8686 67.6122 67.1798 67.6122 67.558C67.6122 68.101 67.3682 68.5525 66.8801 68.9124C66.3921 69.2724 65.7698 69.4523 65.0133 69.4523C64.2263 69.4523 63.5521 69.2327 62.9909 68.7934C62.4296 68.3542 62.0605 67.7563 61.8836 66.9998L59.7056 67.3476C59.8764 68.4396 60.3187 69.3425 61.0325 70.0563C61.7463 70.7701 62.6462 71.2246 63.7321 71.4198V73.0671Z" fill="white"/>
</g>
<defs>
<linearGradient id="paint0_linear_873_93" x1="80.0002" y1="-8.75403" x2="0.000242897" y2="84.496" gradientUnits="userSpaceOnUse">
<stop stop-color="#5498B9"/>
<stop offset="1" stop-color="#1B5673"/>
</linearGradient>
<linearGradient id="paint1_linear_873_93" x1="80.0002" y1="-8.75403" x2="0.000242897" y2="84.496" gradientUnits="userSpaceOnUse">
<stop stop-color="#FF8844"/>
<stop offset="1" stop-color="#FF5D00"/>
</linearGradient>
</defs>
</svg>
