<svg width="80" height="81" viewBox="0 0 80 81" fill="none" xmlns="http://www.w3.org/2000/svg">
<rect y="0.246094" width="80" height="80" rx="16" fill="url(#paint0_linear_933_209)"/>
<path d="M40.4416 15.7543C44.2812 15.7543 47.9337 16.6333 51.2106 18.2056C51.7246 18.4367 52.2416 18.715 52.754 18.9933L50.5081 20.9853L47.1384 17.5122L41.3342 22.6032L37.9158 18.9476L27.2411 28.4363L34.0763 35.8873L31.4076 38.1986L38.15 45.6497L35.4813 47.964L45.1281 58.5627L50.8365 53.3774L55.8013 58.9338C54.8175 59.6743 53.7409 60.4164 52.5715 61.0626C49.0133 63.0546 44.8924 64.2073 40.4903 64.2073C26.9598 64.2073 15.9581 53.3348 15.9581 39.9595C15.9125 26.6769 26.9142 15.7513 40.4431 15.7513L40.4416 15.7543ZM35.9467 38.4769L41.801 33.2916L47.0441 39.0791L41.1897 44.2613L35.9467 38.4754V38.4769ZM40.1131 48.475L45.9219 43.244L51.2106 49.03L45.3562 54.2153L40.1131 48.475ZM31.7832 28.6188L37.633 23.4365L42.8791 29.2209L37.0248 34.4062L31.7832 28.6188ZM42.5035 25.8436L46.8556 21.9554L50.7894 26.2588L46.4328 30.1926L42.5005 25.8436H42.5035ZM50.2739 43.6607L54.6259 39.774L58.5597 44.123L54.2047 48.0127L50.2724 43.6607H50.2739ZM54.1119 52.4088L58.467 48.5206L62.3978 52.8239L58.0443 56.7578L54.1119 52.4088ZM55.8911 32.4127L58.7954 29.8231L61.4155 32.6925L58.5141 35.2836L55.8895 32.4127H55.8911ZM52.1458 23.8516L55.0502 21.2149L57.6732 24.1314L54.7688 26.7241L52.1473 23.8531L52.1458 23.8516ZM59.5922 40.9783L62.4936 38.3857L65.1607 41.2551L62.2107 43.8462L59.5922 40.9783ZM46.5301 34.5431L50.8837 30.6564L54.816 34.9597L50.464 38.8479L46.5301 34.5431Z" fill="#D8E4EC"/>
<mask id="mask0_933_209" style="mask-type:alpha" maskUnits="userSpaceOnUse" x="0" y="0" width="80" height="81">
<rect y="0.246094" width="80" height="80" rx="16" fill="url(#paint1_linear_933_209)"/>
</mask>
<g mask="url(#mask0_933_209)">
<circle cx="66" cy="66.2461" r="17" fill="#FFD600"/>
<circle cx="66.0007" cy="66.2461" r="14.6818" fill="#FFC702"/>
<path d="M65.4222 75.8008H67.8807V73.9951C69.1865 73.7979 70.227 73.298 71.0023 72.4955C71.7844 71.693 72.1755 70.6933 72.1755 69.4963C72.1755 68.4626 71.8933 67.6329 71.3288 67.0072C70.7711 66.3747 69.8564 65.8714 68.5846 65.4974L65.9425 64.7323C65.242 64.5282 64.7285 64.2868 64.4021 64.008C64.0824 63.7223 63.9226 63.3755 63.9226 62.9674C63.9226 62.4234 64.1742 61.9711 64.6775 61.6107C65.1808 61.2502 65.803 61.0768 66.5443 61.0904C67.3196 61.1108 67.9793 61.3454 68.5234 61.7943C69.0743 62.2363 69.4211 62.8212 69.5639 63.5489L72.0837 63.0899C71.8184 61.9541 71.322 61.0292 70.5943 60.3151C69.8734 59.601 68.9689 59.1385 67.8807 58.9277V57.0609H65.4222V58.8767C64.2048 59.0535 63.2425 59.516 62.5352 60.2641C61.8347 61.0054 61.4845 61.9473 61.4845 63.0899C61.4845 64.9601 62.5148 66.2115 64.5755 66.844L68.1154 67.9457C68.6866 68.1225 69.1015 68.347 69.3599 68.619C69.6184 68.891 69.7476 69.2379 69.7476 69.6595C69.7476 70.2648 69.4755 70.7681 68.9315 71.1693C68.3874 71.5706 67.6937 71.7712 66.8504 71.7712C65.9731 71.7712 65.2216 71.5264 64.5959 71.0367C63.9702 70.5471 63.5587 69.8806 63.3615 69.0373L60.9336 69.4249C61.124 70.6423 61.6171 71.6488 62.4128 72.4445C63.2085 73.2402 64.2116 73.7469 65.4222 73.9645V75.8008Z" fill="white"/>
</g>
<defs>
<linearGradient id="paint0_linear_933_209" x1="80" y1="-8.75391" x2="-1.24346e-06" y2="84.4961" gradientUnits="userSpaceOnUse">
<stop stop-color="#5498B9"/>
<stop offset="1" stop-color="#1B5673"/>
</linearGradient>
<linearGradient id="paint1_linear_933_209" x1="80" y1="-8.75391" x2="-1.24346e-06" y2="84.4961" gradientUnits="userSpaceOnUse">
<stop stop-color="#FF8844"/>
<stop offset="1" stop-color="#FF5D00"/>
</linearGradient>
</defs>
</svg>
