<svg width="81" height="80" viewBox="0 0 81 80" fill="none" xmlns="http://www.w3.org/2000/svg">
<rect x="0.5" width="80" height="80" rx="16" fill="url(#paint0_linear_933_364)"/>
<path d="M24.9981 33.367H17.7778V38.1805H24.9981V33.367Z" fill="#81D4FA"/>
<path d="M18.3793 30.9602C19.3762 30.9602 20.1844 30.1521 20.1844 29.1552C20.1844 28.1583 19.3762 27.3501 18.3793 27.3501C17.3824 27.3501 16.5742 28.1583 16.5742 29.1552C16.5742 30.1521 17.3824 30.9602 18.3793 30.9602Z" fill="#81D4FA"/>
<path d="M12.9642 44.1975H17.7777C18.0284 44.1974 18.2728 44.2757 18.4769 44.4213L24.4246 48.6695L23.7946 45.646C23.7582 45.471 23.7612 45.29 23.8035 45.1162C23.8458 44.9424 23.9263 44.7803 24.0391 44.6416C24.152 44.5028 24.2943 44.391 24.4558 44.3142C24.6173 44.2373 24.7939 44.1975 24.9727 44.1975H34.6251C35.5825 44.1975 36.5008 43.8171 37.1778 43.1401C37.8549 42.463 38.2352 41.5448 38.2352 40.5873V26.1467C38.2352 25.1892 37.8549 24.271 37.1778 23.5939C36.5008 22.9169 35.5825 22.5366 34.6251 22.5366H12.9642C12.0067 22.5366 11.0884 22.9169 10.4114 23.5939C9.73436 24.271 9.354 25.1892 9.354 26.1467V40.5873C9.354 41.5448 9.73436 42.463 10.4114 43.1401C11.0884 43.8171 12.0067 44.1975 12.9642 44.1975V44.1975ZM17.8556 24.9754C18.5003 24.8946 19.155 24.9647 19.7679 25.1801C20.3809 25.3955 20.9355 25.7504 21.3878 26.2168C21.7736 25.8182 22.2344 25.4998 22.7438 25.28C23.2531 25.0602 23.8009 24.9433 24.3556 24.9361C24.9102 24.9289 25.4609 25.0314 25.9757 25.2379C26.4906 25.4444 26.9596 25.7506 27.3556 26.1391C27.7516 26.5275 28.0669 26.9904 28.2833 27.5012C28.4997 28.012 28.6129 28.5606 28.6164 29.1153C28.6199 29.67 28.5136 30.2199 28.3037 30.7334C28.0938 31.2469 27.7844 31.7138 27.3933 32.1072C27.3944 32.1269 27.4048 32.1436 27.4048 32.1636V32.6232L30.4753 31.0827C30.6588 30.9907 30.8628 30.9471 31.0678 30.9561C31.2729 30.9651 31.4722 31.0264 31.6469 31.1342C31.8215 31.242 31.9657 31.3927 32.0657 31.5719C32.1658 31.7511 32.2183 31.953 32.2183 32.1582V39.3334C32.2182 39.5371 32.1664 39.7375 32.0678 39.9158C31.9691 40.094 31.8268 40.2443 31.6542 40.3525C31.4816 40.4608 31.2844 40.5234 31.0809 40.5346C30.8775 40.5458 30.6746 40.5051 30.4911 40.4164L27.4048 38.9244V39.3839C27.4048 39.7031 27.278 40.0092 27.0523 40.2349C26.8266 40.4605 26.5205 40.5873 26.2014 40.5873H16.5743C16.2552 40.5873 15.9491 40.4605 15.7234 40.2349C15.4977 40.0092 15.3709 39.7031 15.3709 39.3839V32.1636C15.3709 32.1436 15.3813 32.1269 15.3824 32.1072C14.83 31.5484 14.4451 30.8461 14.2714 30.0799C14.0977 29.3136 14.1421 28.514 14.3996 27.7716C14.657 27.0293 15.1172 26.3739 15.728 25.8797C16.3388 25.3854 17.0759 25.0722 17.8556 24.9754V24.9754Z" fill="white"/>
<path d="M50.2689 63.0732V55.8529C50.2678 54.8957 49.8871 53.9781 49.2103 53.3013C48.5335 52.6245 47.6159 52.2438 46.6587 52.2427L44.208 52.1965C44.0255 52.1931 43.8462 52.1482 43.6836 52.0652C43.5211 51.9822 43.3795 51.8634 43.2696 51.7176C43.1598 51.5718 43.0845 51.403 43.0496 51.2238C43.0146 51.0447 43.0208 50.8599 43.0678 50.6836L43.6044 48.6696L37.6287 52.0842C37.4469 52.1881 37.2411 52.2427 37.0317 52.2427H27.4046C26.4471 52.2427 25.5289 52.6231 24.8518 53.3001C24.1748 53.9771 23.7944 54.8954 23.7944 55.8529V63.0732C23.7944 64.0306 24.1748 64.9489 24.8518 65.6259C25.5289 66.303 26.4471 66.6833 27.4046 66.6833H46.6587C47.6162 66.6833 48.5345 66.303 49.2115 65.6259C49.8885 64.9489 50.2689 64.0306 50.2689 63.0732ZM41.8452 55.8529H47.8621V58.2596H41.8452V55.8529ZM26.2012 55.8529H39.4384V58.2596H26.2012V55.8529ZM26.2012 63.0732V60.6664H47.8621V63.0732H26.2012Z" fill="white"/>
<path d="M29.8116 34.1109L27.4048 35.3143V36.2334L29.8116 37.4368V34.1109Z" fill="#81D4FA"/>
<path d="M24.3964 30.9602C25.3933 30.9602 26.2015 30.1521 26.2015 29.1552C26.2015 28.1583 25.3933 27.3501 24.3964 27.3501C23.3995 27.3501 22.5913 28.1583 22.5913 29.1552C22.5913 30.1521 23.3995 30.9602 24.3964 30.9602Z" fill="#81D4FA"/>
<path d="M58.1773 23.2232C59.3266 23.2232 60.2584 22.2915 60.2584 21.1421C60.2584 19.9928 59.3266 19.061 58.1773 19.061C57.0279 19.061 56.0962 19.9928 56.0962 21.1421C56.0962 22.2915 57.0279 23.2232 58.1773 23.2232Z" fill="#FFCA28"/>
<path d="M57.5865 31.3046L49.8547 25.5057L42.6196 30.9315C42.7338 31.6651 43.1061 32.3338 43.6694 32.8175C44.2327 33.3011 44.95 33.5679 45.6925 33.5699H55.064C55.2182 33.5699 55.3704 33.6041 55.5097 33.6702C55.649 33.7362 55.7719 33.8324 55.8695 33.9517C55.9671 34.071 56.037 34.2106 56.074 34.3602C56.1111 34.5099 56.1145 34.6659 56.0839 34.817L55.5532 37.4368L60.6961 33.7634C60.8725 33.6375 61.0839 33.5699 61.3006 33.5699H66.5033C67.2395 33.5683 67.9514 33.3065 68.5131 32.8307C69.0749 32.3549 69.4503 31.6958 69.5729 30.97L64.4222 27.5362L58.7929 31.3341C58.6137 31.4552 58.4012 31.5174 58.185 31.5121C57.9688 31.5068 57.7596 31.4343 57.5865 31.3046Z" fill="#9CCC65"/>
<path d="M66.5033 14.8401H45.6924C44.8648 14.841 44.0713 15.1702 43.4861 15.7554C42.9009 16.3406 42.5717 17.1341 42.5708 17.9617V28.3671L49.2303 23.3725C49.4102 23.2375 49.6292 23.1645 49.8542 23.1645C50.0792 23.1645 50.2982 23.2375 50.4781 23.3725L58.2141 29.1736L63.8446 25.4199C64.0156 25.3061 64.2164 25.2454 64.4218 25.2454C64.6272 25.2454 64.828 25.3061 64.999 25.4199L69.6249 28.504V17.9617C69.624 17.1341 69.2948 16.3406 68.7096 15.7554C68.1244 15.1702 67.3309 14.841 66.5033 14.8401V14.8401ZM58.1789 25.2455C57.3557 25.2455 56.551 25.0014 55.8666 24.5441C55.1821 24.0867 54.6486 23.4367 54.3336 22.6761C54.0186 21.9156 53.9361 21.0787 54.0967 20.2713C54.2573 19.464 54.6537 18.7223 55.2358 18.1402C55.8179 17.5582 56.5596 17.1617 57.3669 17.0011C58.1743 16.8405 59.0112 16.923 59.7717 17.238C60.5323 17.553 61.1823 18.0865 61.6397 18.771C62.097 19.4554 62.3411 20.2601 62.3411 21.0833C62.3399 22.1869 61.901 23.2448 61.1207 24.0251C60.3404 24.8055 59.2825 25.2443 58.1789 25.2455Z" fill="white"/>
<mask id="mask0_933_364" style="mask-type:alpha" maskUnits="userSpaceOnUse" x="0" y="0" width="81" height="80">
<rect x="0.5" width="80" height="80" rx="16" fill="url(#paint1_linear_933_364)"/>
</mask>
<g mask="url(#mask0_933_364)">
<circle cx="66.5" cy="66" r="17" fill="#FFD600"/>
<circle cx="66.5007" cy="66" r="14.6818" fill="#FFC702"/>
<path d="M65.9222 75.5547H68.3807V73.749C69.6865 73.5518 70.727 73.052 71.5023 72.2494C72.2844 71.4469 72.6755 70.4472 72.6755 69.2502C72.6755 68.2165 72.3933 67.3868 71.8288 66.7611C71.2711 66.1286 70.3564 65.6254 69.0846 65.2513L66.4425 64.4862C65.742 64.2822 65.2285 64.0408 64.9021 63.7619C64.5824 63.4763 64.4226 63.1294 64.4226 62.7214C64.4226 62.1773 64.6742 61.725 65.1775 61.3646C65.6808 61.0041 66.303 60.8307 67.0443 60.8443C67.8196 60.8647 68.4793 61.0994 69.0234 61.5482C69.5743 61.9903 69.9211 62.5752 70.0639 63.3029L72.5837 62.8438C72.3184 61.708 71.822 60.7831 71.0943 60.069C70.3734 59.3549 69.4689 58.8925 68.3807 58.6816V56.8148H65.9222V58.6306C64.7048 58.8075 63.7425 59.2699 63.0352 60.018C62.3347 60.7593 61.9845 61.7012 61.9845 62.8438C61.9845 64.714 63.0148 65.9654 65.0755 66.5979L68.6154 67.6996C69.1866 67.8765 69.6015 68.1009 69.8599 68.3729C70.1184 68.645 70.2476 68.9918 70.2476 69.4135C70.2476 70.0188 69.9755 70.522 69.4315 70.9233C68.8874 71.3245 68.1937 71.5252 67.3504 71.5252C66.4731 71.5252 65.7216 71.2803 65.0959 70.7907C64.4702 70.301 64.0587 69.6345 63.8615 68.7912L61.4336 69.1788C61.624 70.3962 62.1171 71.4027 62.9128 72.1984C63.7085 72.9941 64.7116 73.5008 65.9222 73.7184V75.5547Z" fill="white"/>
</g>
<defs>
<linearGradient id="paint0_linear_933_364" x1="80.5" y1="-9" x2="0.499999" y2="84.25" gradientUnits="userSpaceOnUse">
<stop stop-color="#0B6BED"/>
<stop offset="1" stop-color="#0048AA"/>
</linearGradient>
<linearGradient id="paint1_linear_933_364" x1="80.5" y1="-9" x2="0.499999" y2="84.25" gradientUnits="userSpaceOnUse">
<stop stop-color="#FF8844"/>
<stop offset="1" stop-color="#FF5D00"/>
</linearGradient>
</defs>
</svg>
