<svg width="81" height="80" viewBox="0 0 81 80" fill="none" xmlns="http://www.w3.org/2000/svg">
<rect x="0.5" width="80" height="80" rx="24" fill="url(#paint0_linear_492_2268)"/>
<g filter="url(#filter0_d_492_2268)">
<path d="M24.9981 33.3669H17.7778V38.1805H24.9981V33.3669Z" fill="#81D4FA"/>
<path d="M18.3793 30.9602C19.3762 30.9602 20.1844 30.1521 20.1844 29.1552C20.1844 28.1583 19.3762 27.3501 18.3793 27.3501C17.3824 27.3501 16.5742 28.1583 16.5742 29.1552C16.5742 30.1521 17.3824 30.9602 18.3793 30.9602Z" fill="#81D4FA"/>
<path d="M12.9642 44.1975H17.7777C18.0284 44.1975 18.2728 44.2757 18.4769 44.4214L24.4246 48.6696L23.7946 45.6461C23.7582 45.471 23.7612 45.29 23.8035 45.1163C23.8458 44.9425 23.9263 44.7804 24.0391 44.6416C24.152 44.5029 24.2943 44.391 24.4558 44.3142C24.6173 44.2374 24.7939 44.1975 24.9727 44.1975H34.6251C35.5825 44.1975 36.5008 43.8172 37.1778 43.1401C37.8549 42.4631 38.2352 41.5448 38.2352 40.5874V26.1468C38.2352 25.1893 37.8549 24.271 37.1778 23.594C36.5008 22.917 35.5825 22.5366 34.6251 22.5366H12.9642C12.0067 22.5366 11.0884 22.917 10.4114 23.594C9.73436 24.271 9.354 25.1893 9.354 26.1468V40.5874C9.354 41.5448 9.73436 42.4631 10.4114 43.1401C11.0884 43.8172 12.0067 44.1975 12.9642 44.1975ZM17.8556 24.9754C18.5003 24.8946 19.155 24.9647 19.7679 25.1802C20.3809 25.3956 20.9355 25.7505 21.3878 26.2169C21.7736 25.8182 22.2344 25.4999 22.7438 25.2801C23.2531 25.0603 23.8009 24.9434 24.3556 24.9362C24.9102 24.9289 25.4609 25.0315 25.9757 25.238C26.4906 25.4444 26.9596 25.7507 27.3556 26.1391C27.7516 26.5276 28.0669 26.9905 28.2833 27.5013C28.4997 28.0121 28.6129 28.5606 28.6164 29.1154C28.6199 29.6701 28.5136 30.22 28.3037 30.7335C28.0938 31.247 27.7844 31.7139 27.3933 32.1073C27.3944 32.127 27.4048 32.1437 27.4048 32.1637V32.6232L30.4753 31.0828C30.6588 30.9907 30.8628 30.9471 31.0678 30.9562C31.2729 30.9652 31.4722 31.0265 31.6469 31.1343C31.8215 31.2421 31.9657 31.3927 32.0657 31.572C32.1658 31.7512 32.2183 31.953 32.2183 32.1583V39.3335C32.2182 39.5372 32.1664 39.7376 32.0678 39.9158C31.9691 40.0941 31.8268 40.2444 31.6542 40.3526C31.4816 40.4608 31.2844 40.5235 31.0809 40.5347C30.8775 40.5458 30.6746 40.5052 30.4911 40.4165L27.4048 38.9245V39.384C27.4048 39.7032 27.278 40.0092 27.0523 40.2349C26.8266 40.4606 26.5205 40.5874 26.2014 40.5874H16.5743C16.2552 40.5874 15.9491 40.4606 15.7234 40.2349C15.4977 40.0092 15.3709 39.7032 15.3709 39.384V32.1637C15.3709 32.1437 15.3813 32.127 15.3824 32.1073C14.83 31.5485 14.4451 30.8462 14.2714 30.0799C14.0977 29.3136 14.1421 28.514 14.3996 27.7717C14.657 27.0293 15.1172 26.3739 15.728 25.8797C16.3388 25.3855 17.0759 25.0722 17.8556 24.9754Z" fill="white"/>
<path d="M50.2689 63.073V55.8527C50.2678 54.8956 49.8871 53.978 49.2103 53.3012C48.5335 52.6244 47.6159 52.2437 46.6587 52.2426L44.208 52.1964C44.0255 52.193 43.8462 52.1481 43.6836 52.0651C43.5211 51.9821 43.3795 51.8633 43.2696 51.7175C43.1598 51.5717 43.0845 51.4029 43.0496 51.2237C43.0146 51.0446 43.0208 50.8598 43.0678 50.6834L43.6044 48.6694L37.6287 52.084C37.4469 52.1879 37.2411 52.2426 37.0317 52.2426H27.4046C26.4471 52.2426 25.5289 52.6229 24.8518 53.3C24.1748 53.977 23.7944 54.8953 23.7944 55.8527V63.073C23.7944 64.0305 24.1748 64.9488 24.8518 65.6258C25.5289 66.3028 26.4471 66.6832 27.4046 66.6832H46.6587C47.6162 66.6832 48.5345 66.3028 49.2115 65.6258C49.8885 64.9488 50.2689 64.0305 50.2689 63.073ZM41.8452 55.8527H47.8621V58.2595H41.8452V55.8527ZM26.2012 55.8527H39.4384V58.2595H26.2012V55.8527ZM26.2012 63.073V60.6663H47.8621V63.073H26.2012Z" fill="white"/>
<path d="M29.8116 34.1108L27.4048 35.3142V36.2333L29.8116 37.4367V34.1108Z" fill="#81D4FA"/>
<path d="M24.3964 30.9602C25.3933 30.9602 26.2015 30.1521 26.2015 29.1552C26.2015 28.1583 25.3933 27.3501 24.3964 27.3501C23.3995 27.3501 22.5913 28.1583 22.5913 29.1552C22.5913 30.1521 23.3995 30.9602 24.3964 30.9602Z" fill="#81D4FA"/>
<path d="M58.1773 23.2232C59.3266 23.2232 60.2584 22.2915 60.2584 21.1421C60.2584 19.9928 59.3266 19.061 58.1773 19.061C57.0279 19.061 56.0962 19.9928 56.0962 21.1421C56.0962 22.2915 57.0279 23.2232 58.1773 23.2232Z" fill="#FFCA28"/>
<path d="M57.5865 31.3046L49.8547 25.5056L42.6196 30.9314C42.7338 31.665 43.1061 32.3338 43.6694 32.8174C44.2327 33.3011 44.95 33.5679 45.6925 33.5698H55.064C55.2182 33.5698 55.3704 33.6041 55.5097 33.6701C55.649 33.7361 55.7719 33.8323 55.8695 33.9516C55.9671 34.071 56.037 34.2105 56.074 34.3602C56.1111 34.5098 56.1145 34.6658 56.0839 34.8169L55.5532 37.4367L60.6961 33.7634C60.8725 33.6375 61.0839 33.5698 61.3006 33.5698H66.5033C67.2395 33.5683 67.9514 33.3064 68.5131 32.8307C69.0749 32.3549 69.4503 31.6958 69.5729 30.9699L64.4222 27.5361L58.7929 31.3341C58.6137 31.4551 58.4012 31.5174 58.185 31.5121C57.9688 31.5068 57.7596 31.4342 57.5865 31.3046Z" fill="#9CCC65"/>
<path d="M66.5033 14.8401H45.6924C44.8648 14.841 44.0713 15.1702 43.4861 15.7554C42.9009 16.3406 42.5717 17.1341 42.5708 17.9617V28.3671L49.2303 23.3725C49.4102 23.2375 49.6292 23.1645 49.8542 23.1645C50.0792 23.1645 50.2982 23.2375 50.4781 23.3725L58.2141 29.1736L63.8446 25.4199C64.0156 25.3061 64.2164 25.2454 64.4218 25.2454C64.6272 25.2454 64.828 25.3061 64.999 25.4199L69.6249 28.504V17.9617C69.624 17.1341 69.2948 16.3406 68.7096 15.7554C68.1244 15.1702 67.3309 14.841 66.5033 14.8401ZM58.1789 25.2455C57.3557 25.2455 56.551 25.0014 55.8666 24.5441C55.1821 24.0867 54.6486 23.4367 54.3336 22.6761C54.0186 21.9156 53.9361 21.0787 54.0967 20.2713C54.2573 19.464 54.6537 18.7223 55.2358 18.1402C55.8179 17.5582 56.5596 17.1617 57.3669 17.0011C58.1743 16.8405 59.0112 16.923 59.7717 17.238C60.5323 17.553 61.1823 18.0865 61.6397 18.771C62.097 19.4554 62.3411 20.2601 62.3411 21.0833C62.3399 22.1869 61.901 23.2448 61.1207 24.0251C60.3404 24.8055 59.2825 25.2443 58.1789 25.2455Z" fill="white"/>
</g>
<mask id="mask0_492_2268" style="mask-type:alpha" maskUnits="userSpaceOnUse" x="0" y="0" width="81" height="80">
<rect x="0.5" width="80" height="80" rx="24" fill="url(#paint1_linear_492_2268)"/>
</mask>
<g mask="url(#mask0_492_2268)">
<g filter="url(#filter1_d_492_2268)">
<circle cx="64.75" cy="64.25" r="15.25" fill="#FFD600"/>
<g filter="url(#filter2_i_492_2268)">
<circle cx="64.7505" cy="64.25" r="13.1705" fill="#FFC702"/>
</g>
<path d="M64.2316 72.821H66.4371V71.2013C67.6084 71.0244 68.5418 70.5759 69.2373 69.8561C69.9389 69.1362 70.2897 68.2393 70.2897 67.1656C70.2897 66.2383 70.0365 65.494 69.5302 64.9327C69.0299 64.3653 68.2093 63.9139 67.0685 63.5783L64.6983 62.892C64.0699 62.7089 63.6093 62.4924 63.3165 62.2422C63.0298 61.986 62.8864 61.6749 62.8864 61.3088C62.8864 60.8207 63.1121 60.415 63.5636 60.0917C64.015 59.7684 64.5733 59.6128 65.2382 59.625C65.9337 59.6433 66.5255 59.8538 67.0136 60.2564C67.5078 60.653 67.8189 61.1776 67.947 61.8304L70.2074 61.4186C69.9694 60.3998 69.5241 59.5701 68.8713 58.9295C68.2246 58.2889 67.4132 57.8741 66.4371 57.6849V56.0103H64.2316V57.6392C63.1396 57.7978 62.2763 58.2126 61.6418 58.8837C61.0134 59.5487 60.6992 60.3937 60.6992 61.4186C60.6992 63.0963 61.6235 64.2189 63.4721 64.7863L66.6475 65.7746C67.16 65.9332 67.5322 66.1346 67.764 66.3786C67.9958 66.6226 68.1117 66.9338 68.1117 67.312C68.1117 67.855 67.8677 68.3064 67.3796 68.6664C66.8916 69.0263 66.2693 69.2063 65.5128 69.2063C64.7258 69.2063 64.0516 68.9867 63.4904 68.5474C62.9291 68.1082 62.56 67.5103 62.3831 66.7538L60.2051 67.1015C60.3759 68.1936 60.8182 69.0965 61.532 69.8103C62.2458 70.5241 63.1457 70.9786 64.2316 71.1738V72.821Z" fill="white"/>
</g>
</g>
<defs>
<filter id="filter0_d_492_2268" x="0.354004" y="7.84009" width="78.271" height="69.843" filterUnits="userSpaceOnUse" color-interpolation-filters="sRGB">
<feFlood flood-opacity="0" result="BackgroundImageFix"/>
<feColorMatrix in="SourceAlpha" type="matrix" values="0 0 0 0 0 0 0 0 0 0 0 0 0 0 0 0 0 0 127 0" result="hardAlpha"/>
<feOffset dy="2"/>
<feGaussianBlur stdDeviation="4.5"/>
<feComposite in2="hardAlpha" operator="out"/>
<feColorMatrix type="matrix" values="0 0 0 0 0 0 0 0 0 0 0 0 0 0 0 0 0 0 0.25 0"/>
<feBlend mode="normal" in2="BackgroundImageFix" result="effect1_dropShadow_492_2268"/>
<feBlend mode="normal" in="SourceGraphic" in2="effect1_dropShadow_492_2268" result="shape"/>
</filter>
<filter id="filter1_d_492_2268" x="31" y="32.5" width="67.5" height="67.5" filterUnits="userSpaceOnUse" color-interpolation-filters="sRGB">
<feFlood flood-opacity="0" result="BackgroundImageFix"/>
<feColorMatrix in="SourceAlpha" type="matrix" values="0 0 0 0 0 0 0 0 0 0 0 0 0 0 0 0 0 0 127 0" result="hardAlpha"/>
<feOffset dy="2"/>
<feGaussianBlur stdDeviation="9.25"/>
<feComposite in2="hardAlpha" operator="out"/>
<feColorMatrix type="matrix" values="0 0 0 0 1 0 0 0 0 0.780392 0 0 0 0 0 0 0 0 1 0"/>
<feBlend mode="normal" in2="BackgroundImageFix" result="effect1_dropShadow_492_2268"/>
<feBlend mode="normal" in="SourceGraphic" in2="effect1_dropShadow_492_2268" result="shape"/>
</filter>
<filter id="filter2_i_492_2268" x="51.5801" y="51.0796" width="26.3408" height="26.3408" filterUnits="userSpaceOnUse" color-interpolation-filters="sRGB">
<feFlood flood-opacity="0" result="BackgroundImageFix"/>
<feBlend mode="normal" in="SourceGraphic" in2="BackgroundImageFix" result="shape"/>
<feColorMatrix in="SourceAlpha" type="matrix" values="0 0 0 0 0 0 0 0 0 0 0 0 0 0 0 0 0 0 127 0" result="hardAlpha"/>
<feOffset/>
<feGaussianBlur stdDeviation="1.15909"/>
<feComposite in2="hardAlpha" operator="arithmetic" k2="-1" k3="1"/>
<feColorMatrix type="matrix" values="0 0 0 0 0 0 0 0 0 0 0 0 0 0 0 0 0 0 0.09 0"/>
<feBlend mode="normal" in2="shape" result="effect1_innerShadow_492_2268"/>
</filter>
<linearGradient id="paint0_linear_492_2268" x1="80.5" y1="-9" x2="0.499999" y2="84.25" gradientUnits="userSpaceOnUse">
<stop stop-color="#0B6BED"/>
<stop offset="1" stop-color="#0048AA"/>
</linearGradient>
<linearGradient id="paint1_linear_492_2268" x1="80.5" y1="-9" x2="0.499999" y2="84.25" gradientUnits="userSpaceOnUse">
<stop stop-color="#FF8844"/>
<stop offset="1" stop-color="#FF5D00"/>
</linearGradient>
</defs>
</svg>
