<svg width="80" height="81" viewBox="0 0 80 81" fill="none" xmlns="http://www.w3.org/2000/svg">
<g clip-path="url(#clip0_866_1475)">
<rect y="0.946533" width="80" height="80" rx="16" fill="url(#paint0_linear_866_1475)"/>
<path d="M54.484 14.9465C45.9717 14.9465 39.0315 21.7815 38.968 30.2183L29.3122 43.9834C26.6123 43.7454 24.2937 44.3005 22.2291 45.5375L0 37.4465V52.169L16.8294 57.8754C17.4086 60.4519 18.8438 62.7537 20.8988 64.4024C22.9539 66.051 25.5065 66.9483 28.1369 66.9465C34.1242 66.9465 39.0951 62.3792 39.635 56.5433L54.5159 45.7437C63.044 45.7437 70 38.8611 70 30.3294C69.9842 21.8609 63.044 14.9465 54.484 14.9465ZM28.121 63.9017C26.5798 63.9064 25.0664 63.4897 23.7431 62.6963C22.4198 61.9028 21.3365 60.7626 20.6096 59.3979C21.9913 59.9212 23.4046 60.5079 24.7864 61.0471C25.6087 61.3846 26.4893 61.5559 27.3776 61.5512C28.2659 61.5466 29.1446 61.366 29.9633 61.0198C30.782 60.6736 31.5247 60.1687 32.1488 59.5339C32.773 58.8991 33.2663 58.1469 33.6005 57.3204C33.9303 56.4991 34.0945 55.6202 34.0835 54.7347C34.0725 53.8492 33.8865 52.9746 33.5364 52.1618C33.1863 51.349 32.679 50.6141 32.0439 49.9996C31.4088 49.3852 30.6586 48.9034 29.8367 48.5823L26.295 47.1551C26.8993 47.0162 27.5174 46.947 28.1372 46.949C29.253 46.9387 30.3597 47.1505 31.3934 47.5724C32.427 47.9942 33.3672 48.6177 34.1594 49.4066C34.9517 50.1956 35.5803 51.1345 36.0089 52.169C36.4376 53.2034 36.6577 54.313 36.6567 55.4334C36.6556 56.5538 36.4334 57.663 36.0028 58.6966C35.5722 59.7303 34.9419 60.6679 34.1482 61.4554C33.3544 62.2429 32.4131 62.8646 31.3787 63.2845C30.3442 63.7044 29.2367 63.9142 28.121 63.9017ZM54.4997 40.669C48.7507 40.669 44.0816 36.07 44.0816 30.3446C44.0816 24.652 48.7348 20.0202 54.4997 20.0202C60.2011 20.0202 64.8702 24.6509 64.8702 30.3446C64.8867 36.07 60.2013 40.6849 54.4997 40.669Z" fill="white"/>
<path d="M54.5 36.9465C58.0899 36.9465 61 34.0364 61 30.4465C61 26.8567 58.0899 23.9465 54.5 23.9465C50.9101 23.9465 48 26.8567 48 30.4465C48 34.0364 50.9101 36.9465 54.5 36.9465Z" fill="white"/>
</g>
<defs>
<linearGradient id="paint0_linear_866_1475" x1="81.25" y1="-2.55347" x2="-5.25" y2="82.4465" gradientUnits="userSpaceOnUse">
<stop stop-color="#1384B5"/>
<stop offset="1" stop-color="#101C2F"/>
</linearGradient>
<clipPath id="clip0_866_1475">
<rect width="80" height="80" fill="white" transform="translate(0 0.946533)"/>
</clipPath>
</defs>
</svg>
