<svg width="80" height="80" viewBox="0 0 80 80" fill="none" xmlns="http://www.w3.org/2000/svg">
<rect y="-6.10352e-05" width="80" height="80" rx="16" fill="url(#paint0_linear_942_721)"/>
<g clip-path="url(#clip0_942_721)">
<path d="M46.2789 32.4326C61.8954 32.4326 60.7417 32.4293 60.9821 32.4386C60.8409 31.8992 60.5601 31.389 60.1381 30.967L55.8566 26.6855C54.9314 25.7602 53.511 25.4912 52.3217 26.0165C51.6831 26.2987 50.9222 26.1563 50.4283 25.6623C49.9343 25.1685 49.792 24.4076 50.074 23.769C50.5993 22.58 50.3305 21.1594 49.405 20.234L45.1236 15.9525C43.8545 14.6836 41.7898 14.6835 40.5207 15.9525L35.1641 21.3091C36.6736 22.8199 44.7733 30.9258 46.2789 32.4326Z" fill="white"/>
<path d="M33.1674 23.3057L24.0405 32.4326H42.2856C42.2526 32.3995 41.5543 31.7005 33.1674 23.3057V23.3057Z" fill="white"/>
<path d="M61.9735 47.5384C63.1856 47.0691 64 45.8744 64 44.5658V38.5109C64 36.7162 62.5399 35.2561 60.7453 35.2561H54.1177V62.9993H60.7453C62.5399 62.9993 64 61.5391 64 59.7445V53.6896C64 52.3811 63.1857 51.1864 61.9736 50.717C61.3225 50.4648 60.885 49.8261 60.885 49.1276C60.885 48.4292 61.3225 47.7905 61.9735 47.5384V47.5384Z" fill="white"/>
<path d="M16 38.5109V44.5658C16 45.8744 16.8144 47.0691 18.0264 47.5383C18.6776 47.7905 19.1149 48.4292 19.1149 49.1276C19.1149 49.8261 18.6775 50.4648 18.0264 50.717C16.8143 51.1864 16 52.381 16 53.6896V59.7445C16 61.5391 17.4601 62.9993 19.2548 62.9993H51.2941V35.2561H19.2548C17.4601 35.2561 16 36.7162 16 38.5109V38.5109ZM25.8824 41.8228H47.0588V44.6463H25.8824V41.8228ZM25.8824 47.4698H47.0588V50.2934H25.8824V47.4698ZM25.8824 53.1169H47.0588V55.9404H25.8824V53.1169Z" fill="white"/>
</g>
<defs>
<linearGradient id="paint0_linear_942_721" x1="81.25" y1="-3.50006" x2="-5.25" y2="81.4999" gradientUnits="userSpaceOnUse">
<stop stop-color="#DB5F39"/>
<stop offset="1" stop-color="#CD441A"/>
</linearGradient>
<clipPath id="clip0_942_721">
<rect width="48" height="48" fill="white" transform="translate(16 16)"/>
</clipPath>
</defs>
</svg>
