<svg width="80" height="80" viewBox="0 0 80 80" fill="none" xmlns="http://www.w3.org/2000/svg">
<rect width="80" height="80" rx="24" fill="url(#paint0_linear_860_1188)"/>
<path d="M57.2884 31.6526L34.0775 54.864C33.0283 55.9127 31.3277 55.9127 30.279 54.864L16.6201 41.205C15.5713 40.1559 15.5713 38.4553 16.6201 37.4066L39.831 14.1953C40.8801 13.1465 42.5807 13.1465 43.6295 14.1953L57.2884 27.8542C58.3375 28.9029 58.3375 30.6039 57.2884 31.6526Z" fill="#FF5858"/>
<path d="M57.2884 27.8542L55.584 26.1494C56.518 27.0835 56.4246 28.691 55.3758 29.7397L32.1645 52.951C31.1158 54.0002 29.5083 54.0932 28.5742 53.1592L30.279 54.8639C31.3277 55.9127 33.0283 55.9127 34.0774 54.8639L57.2884 31.6526C58.3375 30.6039 58.3375 28.9029 57.2884 27.8542Z" fill="#E93A3A"/>
<path d="M21.0833 40.2498C20.8964 40.2498 20.7099 40.1783 20.5674 40.0359C20.2825 39.751 20.2825 39.2895 20.5674 39.0046L31.9366 27.6354C32.2215 27.3505 32.6834 27.3505 32.9679 27.6354C33.2528 27.9203 33.2528 28.3822 32.9679 28.6667L21.5987 40.0363C21.4563 40.1783 21.2698 40.2498 21.0833 40.2498Z" fill="#252D4C"/>
<path d="M24.6964 43.8629C24.5095 43.8629 24.323 43.7915 24.1806 43.6491C23.8957 43.3642 23.8957 42.9027 24.1806 42.6178L35.5498 31.2486C35.8347 30.9637 36.2966 30.9637 36.5811 31.2486C36.866 31.5335 36.866 31.9954 36.5811 32.2799L25.2119 43.6491C25.0694 43.7915 24.8829 43.8629 24.6964 43.8629Z" fill="#252D4C"/>
<path d="M39.4519 19.4858L37.1773 21.7599C36.2832 22.6541 36.2832 24.1036 37.1773 24.9978C38.0715 25.8919 39.5214 25.8919 40.4155 24.9978L42.6897 22.7236C43.5838 21.8295 43.5838 20.38 42.6897 19.4858C41.7955 18.5916 40.3456 18.5916 39.4519 19.4858V19.4858Z" fill="#FFCD34"/>
<path d="M59.4801 38.5073H26.6545C25.1712 38.5073 23.9686 39.7099 23.9686 41.1932V60.51C23.9686 61.9933 25.1712 63.1959 26.6545 63.1959H59.4801C60.9638 63.1959 62.166 61.9933 62.166 60.51V41.1932C62.1664 39.7099 60.9638 38.5073 59.4801 38.5073V38.5073Z" fill="#FFCD34"/>
<path d="M59.4801 38.5073H57.076C58.5594 38.5073 59.7619 39.7099 59.7619 41.1932V60.51C59.7619 61.9933 58.5594 63.1959 57.076 63.1959H59.4801C60.9638 63.1959 62.166 61.9933 62.166 60.51V41.1932C62.1664 39.7099 60.9638 38.5073 59.4801 38.5073V38.5073Z" fill="#E69012"/>
<path d="M23.9686 44.5758H62.1664V49.2164H23.9686V44.5758Z" fill="#575B7A"/>
<path d="M59.762 44.5758H62.166V49.2164H59.762V44.5758Z" fill="#252D4C"/>
<path d="M52.7781 56.6315V59.4936C52.7781 59.715 52.9574 59.8943 53.1788 59.8943H57.7313C57.9527 59.8943 58.132 59.715 58.132 59.4936V56.6315C58.132 56.41 57.9527 56.2307 57.7313 56.2307H53.1788C52.9574 56.2307 52.7781 56.41 52.7781 56.6315V56.6315Z" fill="#E9E9EA"/>
<path d="M39.0519 56.6315V59.4936C39.0519 59.715 39.2315 59.8943 39.4526 59.8943H49.0817C49.3032 59.8943 49.4825 59.715 49.4825 59.4936V56.6315C49.4825 56.41 49.3032 56.2307 49.0817 56.2307H39.4526C39.2315 56.2307 39.0519 56.41 39.0519 56.6315V56.6315Z" fill="#E9E9EA"/>
<path d="M35.127 60.6235H30.3299C29.9269 60.6235 29.6006 60.2969 29.6006 59.8942C29.6006 59.4912 29.9269 59.1649 30.3299 59.1649H35.127C35.53 59.1649 35.8563 59.4912 35.8563 59.8942C35.8563 60.2969 35.53 60.6235 35.127 60.6235Z" fill="#252D4C"/>
<defs>
<linearGradient id="paint0_linear_860_1188" x1="81.25" y1="-3.5" x2="-5.25" y2="81.5" gradientUnits="userSpaceOnUse">
<stop stop-color="#9CCC65"/>
<stop offset="1" stop-color="#66BB6A"/>
</linearGradient>
</defs>
</svg>
