<svg width="80" height="80" viewBox="0 0 80 80" fill="none" xmlns="http://www.w3.org/2000/svg">
<rect width="80" height="80" rx="16" fill="url(#paint0_linear_933_535)"/>
<path d="M57.2884 31.6526L34.0775 54.864C33.0283 55.9127 31.3277 55.9127 30.279 54.864L16.6201 41.205C15.5713 40.1559 15.5713 38.4553 16.6201 37.4066L39.831 14.1953C40.8801 13.1465 42.5807 13.1465 43.6295 14.1953L57.2884 27.8542C58.3375 28.9029 58.3375 30.6039 57.2884 31.6526Z" fill="#FF5858"/>
<path d="M57.2884 27.8542L55.584 26.1494C56.518 27.0835 56.4246 28.691 55.3758 29.7397L32.1645 52.951C31.1158 54.0002 29.5083 54.0932 28.5742 53.1592L30.279 54.8639C31.3277 55.9127 33.0283 55.9127 34.0774 54.8639L57.2884 31.6526C58.3375 30.6039 58.3375 28.9029 57.2884 27.8542Z" fill="#E93A3A"/>
<path d="M21.0835 40.2498C20.8966 40.2498 20.7101 40.1783 20.5677 40.0359C20.2828 39.751 20.2828 39.2895 20.5677 39.0046L31.9369 27.6354C32.2218 27.3505 32.6836 27.3505 32.9682 27.6354C33.253 27.9203 33.253 28.3822 32.9682 28.6667L21.599 40.0363C21.4565 40.1783 21.27 40.2498 21.0835 40.2498Z" fill="#252D4C"/>
<path d="M24.6963 43.8629C24.5094 43.8629 24.3229 43.7915 24.1805 43.6491C23.8956 43.3642 23.8956 42.9027 24.1805 42.6178L35.5497 31.2486C35.8345 30.9637 36.2964 30.9637 36.5809 31.2486C36.8658 31.5335 36.8658 31.9954 36.5809 32.2799L25.2117 43.6491C25.0693 43.7915 24.8828 43.8629 24.6963 43.8629Z" fill="#252D4C"/>
<path d="M39.452 19.4858L37.1775 21.7599C36.2833 22.6541 36.2833 24.1036 37.1775 24.9978C38.0716 25.8919 39.5215 25.8919 40.4157 24.9978L42.6898 22.7236C43.584 21.8295 43.584 20.38 42.6898 19.4858C41.7956 18.5916 40.3458 18.5916 39.452 19.4858V19.4858Z" fill="#FFCD34"/>
<path d="M59.4803 38.5073H26.6546C25.1713 38.5073 23.9688 39.7099 23.9688 41.1932V60.51C23.9688 61.9933 25.1713 63.1959 26.6546 63.1959H59.4803C60.9639 63.1959 62.1662 61.9933 62.1662 60.51V41.1932C62.1665 39.7099 60.9639 38.5073 59.4803 38.5073V38.5073Z" fill="#FFCD34"/>
<path d="M59.4802 38.5073H57.0762C58.5595 38.5073 59.7621 39.7099 59.7621 41.1932V60.51C59.7621 61.9933 58.5595 63.1959 57.0762 63.1959H59.4802C60.9639 63.1959 62.1661 61.9933 62.1661 60.51V41.1932C62.1665 39.7099 60.9639 38.5073 59.4802 38.5073V38.5073Z" fill="#E69012"/>
<path d="M23.9688 44.5758H62.1665V49.2164H23.9688V44.5758Z" fill="#575B7A"/>
<path d="M59.7617 44.5758H62.1658V49.2164H59.7617V44.5758Z" fill="#252D4C"/>
<path d="M52.7783 56.6315V59.4936C52.7783 59.715 52.9576 59.8943 53.1791 59.8943H57.7315C57.953 59.8943 58.1323 59.715 58.1323 59.4936V56.6315C58.1323 56.41 57.953 56.2307 57.7315 56.2307H53.1791C52.9576 56.2307 52.7783 56.41 52.7783 56.6315V56.6315Z" fill="#E9E9EA"/>
<path d="M39.0518 56.6315V59.4936C39.0518 59.715 39.2314 59.8943 39.4525 59.8943H49.0816C49.3031 59.8943 49.4824 59.715 49.4824 59.4936V56.6315C49.4824 56.41 49.3031 56.2307 49.0816 56.2307H39.4525C39.2314 56.2307 39.0518 56.41 39.0518 56.6315V56.6315Z" fill="#E9E9EA"/>
<path d="M35.127 60.6235H30.3299C29.9269 60.6235 29.6006 60.2969 29.6006 59.8942C29.6006 59.4912 29.9269 59.1649 30.3299 59.1649H35.127C35.53 59.1649 35.8563 59.4912 35.8563 59.8942C35.8563 60.2969 35.53 60.6235 35.127 60.6235Z" fill="#252D4C"/>
<defs>
<linearGradient id="paint0_linear_933_535" x1="81.25" y1="-3.5" x2="-5.25" y2="81.5" gradientUnits="userSpaceOnUse">
<stop stop-color="#9CCC65"/>
<stop offset="1" stop-color="#66BB6A"/>
</linearGradient>
</defs>
</svg>
