<svg width="80" height="80" viewBox="0 0 80 80" fill="none" xmlns="http://www.w3.org/2000/svg">
<rect width="80" height="80" rx="16" fill="url(#paint0_linear_933_480)"/>
<path d="M52.0828 56.3161L45.5 54.3479V52.1477H34.5V54.3479L27.9172 56.3161C27.1902 56.5337 26.7777 57.2976 26.9951 58.0231C27.2134 58.7476 27.9799 59.1587 28.7078 58.9421L35.3895 56.9439H44.6105L51.2922 58.9421C52.0154 59.1573 52.7854 58.7518 53.0049 58.0231C53.2223 57.2976 52.8098 56.5337 52.0828 56.3161V56.3161ZM60.625 21.9999H19.375C18.6156 21.9999 18 22.6134 18 23.3702V48.0366C18 48.7935 18.6156 49.407 19.375 49.407H60.625C61.3844 49.407 62 48.7935 62 48.0366V23.3702C62 22.6135 61.3844 21.9999 60.625 21.9999ZM39.9854 43.2404C38.8484 43.2404 37.9229 42.3179 37.9229 41.1848C37.9229 40.0517 38.8484 39.1293 39.9854 39.1293C41.1232 39.1293 42.0479 40.0517 42.0479 41.1848C42.0479 42.3179 41.1232 43.2404 39.9854 43.2404V43.2404ZM45.3333 37.7932C44.7964 38.3282 43.9265 38.3294 43.3885 37.7932C41.5106 35.9234 38.4675 35.9152 36.5831 37.7932C36.046 38.3285 35.1755 38.3285 34.6384 37.7932C34.1013 37.2579 34.1013 36.3903 34.6384 35.855C37.5929 32.9105 42.3776 32.9094 45.3333 35.855C45.8704 36.3903 45.8704 37.2579 45.3333 37.7932ZM49.222 33.9177C48.6858 34.452 47.8143 34.4521 47.278 33.9177C43.2481 29.9013 36.7251 29.8998 32.6936 33.9177C32.1565 34.453 31.2859 34.453 30.7488 33.9177C30.2117 33.3824 30.2117 32.5148 30.7488 31.9795C35.8423 26.9032 44.1293 26.904 49.222 31.9795C49.7591 32.5148 49.7591 33.3824 49.222 33.9177Z" fill="white"/>
<defs>
<linearGradient id="paint0_linear_933_480" x1="81.25" y1="-3.5" x2="-5.25" y2="81.5" gradientUnits="userSpaceOnUse">
<stop stop-color="#55A9D1"/>
<stop offset="1" stop-color="#455A64"/>
</linearGradient>
</defs>
</svg>
