<svg width="80" height="80" viewBox="0 0 80 80" fill="none" xmlns="http://www.w3.org/2000/svg">
<rect width="80" height="80" rx="16" fill="url(#paint0_linear_942_661)"/>
<path fill-rule="evenodd" clip-rule="evenodd" d="M19 23C16.7909 23 15 24.7909 15 27V54C15 56.2091 16.7909 58 19 58H62C64.2091 58 66 56.2091 66 54V27C66 24.7909 64.2091 23 62 23H19ZM43.65 37.35V30H50.9999V37.35H43.65ZM45.75 35.25H48.9V32.1H45.75V35.25ZM34.2 39.45H30V41.55H34.2V39.45ZM36.3 39.45H39.45V41.55H36.3V39.45ZM39.45 37.35V39.45L41.55 39.45V41.55H42.6V43.65H40.5V46.8H37.35V43.65H30V51H37.35V48.9H40.5V51H44.7V48.9H46.8V51H49.95V48.9H48.9V46.8H51V44.7H48.9V39.45L41.55 39.45V37.35H39.45ZM39.45 34.2H37.35V30H30V37.35H37.35H39.45V34.2ZM42.6 46.8V43.65H44.7V41.55H46.8V44.7H48.9V46.8L46.8 46.8H44.7H42.6ZM42.6 46.8V48.9H40.5V46.8H42.6ZM39.45 30V34.2H41.55V30H39.45ZM32.1 35.25H35.25V32.1H32.1V35.25ZM32.1 48.9H35.25V45.75H32.1V48.9Z" fill="white"/>
<defs>
<linearGradient id="paint0_linear_942_661" x1="81.25" y1="-3.5" x2="-5.25" y2="81.5" gradientUnits="userSpaceOnUse">
<stop stop-color="#005BB6"/>
<stop offset="1" stop-color="#004D99"/>
</linearGradient>
</defs>
</svg>
