<svg width="80" height="81" viewBox="0 0 80 81" fill="none" xmlns="http://www.w3.org/2000/svg">
<rect y="0.245972" width="80" height="80" rx="16" fill="#6528C9"/>
<g opacity="0.3">
<mask id="mask0_933_193" style="mask-type:alpha" maskUnits="userSpaceOnUse" x="0" y="0" width="80" height="81">
<rect y="0.245972" width="80" height="80" rx="16" fill="url(#paint0_linear_933_193)"/>
</mask>
<g mask="url(#mask0_933_193)">
<path d="M63.3937 33.746C58.6737 33.746 54.1829 34.8441 50.1531 36.8083C49.5211 37.0979 48.885 37.4444 48.2551 37.7912L51.0182 40.2766L55.1606 35.9425L62.2984 42.2985L66.5017 37.7327L79.627 49.5796L71.2237 58.8834L74.5043 61.772L66.2136 71.0759L69.4944 73.9633L57.6352 87.1969L50.6161 80.7244L44.5113 87.6607C45.7212 88.5854 47.0452 89.5118 48.4826 90.3195C52.8584 92.804 57.925 94.246 63.3355 94.246C79.9736 94.246 93.4996 80.6689 93.4996 63.97C93.5583 47.384 80.03 33.746 63.3937 33.746ZM68.9209 62.1195L61.7249 55.647L55.2761 62.8701L62.4736 69.342L68.9209 62.1195ZM63.7961 74.6018L56.6586 68.072L50.1531 75.2945L57.3494 81.7673L63.7961 74.6018ZM74.0413 49.8115L66.8474 43.339L60.4001 50.5621L67.5964 57.0343L74.0413 49.8115ZM60.8613 46.3432L55.5072 41.4894L50.6705 46.8637L56.0246 51.7749L60.8613 46.3432ZM51.3042 68.591L45.9519 63.7369L41.1155 69.1674L46.4699 74.0245L51.3042 68.591ZM46.5845 79.5138L41.2302 74.6588L36.3976 80.0329L41.7498 84.9434L46.5845 79.5138ZM44.3966 54.5489L40.828 51.3125L37.6054 54.8966L41.1734 58.1318L44.3966 54.5489ZM49.002 43.8584L45.4331 40.5652L42.2081 44.2052L45.7797 47.4413L49.002 43.8584ZM39.8494 65.2403L36.2809 62.0043L32.9998 65.5872L36.6251 68.8224L39.8494 65.2403ZM55.9099 57.2077L50.5555 52.3536L45.7212 57.7268L51.0732 62.5818L55.9099 57.2077Z" fill="url(#paint1_linear_933_193)"/>
</g>
</g>
<circle cx="58.5002" cy="60.746" r="10.5" fill="#E24338"/>
<circle cx="21" cy="60.746" r="10.5" fill="#27AE60"/>
<circle cx="39.5" cy="29.746" r="20.5" fill="white"/>
<path d="M22.1759 12.4218C17.5812 17.0165 15 23.2482 15 29.746C15 36.2438 17.5812 42.4754 22.1759 47.0701L23.3095 45.9364C19.0155 41.6425 16.6032 35.8186 16.6032 29.746C16.6032 23.6733 19.0155 17.8495 23.3095 13.5555L22.1759 12.4218Z" fill="url(#paint2_radial_933_193)"/>
<path d="M19.3475 9.59342C14.0027 14.9382 11 22.1873 11 29.746C11 37.3046 14.0027 44.5537 19.3475 49.8985L20.6662 48.5798C15.6711 43.5847 12.8649 36.81 12.8649 29.746C12.8649 22.6819 15.6711 15.9072 20.6662 10.9121L19.3475 9.59342Z" fill="url(#paint3_radial_933_193)"/>
<path d="M56.8241 47.0701C61.4188 42.4754 64 36.2438 64 29.746C64 23.2482 61.4188 17.0165 56.8241 12.4218L55.6905 13.5555C59.9845 17.8495 62.3968 23.6733 62.3968 29.746C62.3968 35.8186 59.9845 41.6425 55.6905 45.9364L56.8241 47.0701Z" fill="url(#paint4_radial_933_193)"/>
<path d="M59.6525 49.8985C64.9973 44.5537 68 37.3046 68 29.746C68 22.1873 64.9973 14.9382 59.6525 9.59341L58.3338 10.9121C63.3289 15.9072 66.1351 22.6819 66.1351 29.746C66.1351 36.81 63.3289 43.5847 58.3338 48.5798L59.6525 49.8985Z" fill="url(#paint5_radial_933_193)"/>
<path fill-rule="evenodd" clip-rule="evenodd" d="M29.8498 23.5909C29.0165 23.5909 28.3411 24.2664 28.3411 25.0996V35.4396C28.3411 36.2729 29.0165 36.9483 29.8498 36.9483H45.238C46.0712 36.9483 46.7467 36.2729 46.7467 35.4396V32.3794L49.9608 34.3436C50.2959 34.5483 50.7259 34.3072 50.7259 33.9144V26.892C50.7259 26.4992 50.2959 26.258 49.9608 26.4628L46.7467 28.427V25.0996C46.7467 24.2664 46.0712 23.5909 45.238 23.5909H29.8498Z" fill="#6528C9"/>
<path d="M53.2706 63.0481L52.2099 61.9875C52.1111 61.8894 52.0338 61.7718 51.983 61.6421C51.9322 61.5124 51.9091 61.3736 51.9151 61.2345C51.9211 61.0953 51.9561 60.959 52.0178 60.8342C52.0795 60.7094 52.1666 60.5988 52.2736 60.5096C53.4797 59.5399 54.8965 58.8666 56.4101 58.5438C57.8072 58.2324 59.2557 58.2324 60.6528 58.5438C62.1726 58.8687 63.5946 59.547 64.8035 60.5237C64.9101 60.6127 64.997 60.7228 65.0587 60.8472C65.1204 60.9716 65.1555 61.1074 65.1619 61.2461C65.1682 61.3848 65.1456 61.5233 65.0954 61.6527C65.0453 61.7822 64.9687 61.8998 64.8707 61.9981L63.81 63.0587C63.6401 63.232 63.413 63.3376 63.171 63.3558C62.9291 63.374 62.6887 63.3036 62.4948 63.1577C62.1106 62.8631 61.6943 62.6128 61.2538 62.4117C61.0797 62.3327 60.9319 62.2055 60.8279 62.0451C60.7238 61.8847 60.668 61.6978 60.6669 61.5066L60.6669 60.6086C59.2785 60.2268 57.8127 60.2268 56.4243 60.6086L56.4243 61.5066C56.4232 61.6978 56.3674 61.8847 56.2633 62.0451C56.1593 62.2055 56.0115 62.3327 55.8374 62.4117C55.3969 62.6128 54.9806 62.8631 54.5964 63.1577C54.4004 63.3052 54.1571 63.3756 53.9126 63.3554C53.6682 63.3352 53.4397 63.2258 53.2706 63.0481Z" fill="white"/>
<path d="M26.0102 63.7626V65.2626C26.0108 65.4019 25.9823 65.5397 25.9265 65.6673C25.8707 65.7949 25.7889 65.9094 25.6863 66.0036C25.5836 66.0977 25.4625 66.1694 25.3306 66.214C25.1987 66.2586 25.0589 66.2752 24.9202 66.2626C23.3816 66.0955 21.9037 65.5697 20.6052 64.7276C19.3971 63.96 18.3729 62.9357 17.6052 61.7276C16.7602 60.4232 16.2343 58.9381 16.0702 57.3926C16.0577 57.2544 16.0742 57.115 16.1185 56.9834C16.1628 56.8519 16.234 56.731 16.3276 56.6284C16.4212 56.5259 16.5351 56.444 16.6621 56.3879C16.7891 56.3318 16.9264 56.3028 17.0652 56.3026H18.5652C18.8079 56.3002 19.0431 56.3862 19.2271 56.5444C19.4111 56.7026 19.5313 56.9224 19.5652 57.1626C19.6285 57.6427 19.7459 58.114 19.9152 58.5676C19.9825 58.7466 19.9971 58.9411 19.9572 59.1281C19.9173 59.3151 19.8247 59.4867 19.6902 59.6226L19.0552 60.2576C19.767 61.5094 20.8034 62.5459 22.0552 63.2576L22.6902 62.6226C22.8262 62.4882 22.9978 62.3956 23.1848 62.3557C23.3718 62.3158 23.5663 62.3304 23.7452 62.3976C24.1989 62.5669 24.6702 62.6843 25.1502 62.7476C25.3931 62.7819 25.6149 62.9042 25.7735 63.0914C25.9321 63.2785 26.0163 63.5174 26.0102 63.7626Z" fill="white"/>
<defs>
<linearGradient id="paint0_linear_933_193" x1="81.25" y1="-3.25403" x2="-5.25" y2="81.746" gradientUnits="userSpaceOnUse">
<stop stop-color="#028AE9"/>
<stop offset="1" stop-color="#036CB5"/>
</linearGradient>
<linearGradient id="paint1_linear_933_193" x1="60.9998" y1="41.246" x2="96.7795" y2="104.052" gradientUnits="userSpaceOnUse">
<stop stop-color="white" stop-opacity="0"/>
<stop offset="1" stop-color="white"/>
</linearGradient>
<radialGradient id="paint2_radial_933_193" cx="0" cy="0" r="1" gradientUnits="userSpaceOnUse" gradientTransform="translate(39.5 29.746) rotate(90) scale(18.5 28.5)">
<stop offset="0.560903" stop-color="white"/>
<stop offset="1" stop-color="white" stop-opacity="0"/>
</radialGradient>
<radialGradient id="paint3_radial_933_193" cx="0" cy="0" r="1" gradientUnits="userSpaceOnUse" gradientTransform="translate(39.5 29.746) rotate(90) scale(18.5 28.5)">
<stop offset="0.560903" stop-color="white"/>
<stop offset="1" stop-color="white" stop-opacity="0"/>
</radialGradient>
<radialGradient id="paint4_radial_933_193" cx="0" cy="0" r="1" gradientUnits="userSpaceOnUse" gradientTransform="translate(39.5 29.746) rotate(90) scale(18.5 28.5)">
<stop offset="0.560903" stop-color="white"/>
<stop offset="1" stop-color="white" stop-opacity="0"/>
</radialGradient>
<radialGradient id="paint5_radial_933_193" cx="0" cy="0" r="1" gradientUnits="userSpaceOnUse" gradientTransform="translate(39.5 29.746) rotate(90) scale(18.5 28.5)">
<stop offset="0.560903" stop-color="white"/>
<stop offset="1" stop-color="white" stop-opacity="0"/>
</radialGradient>
</defs>
</svg>
