<svg width="80" height="80" viewBox="0 0 80 80" fill="none" xmlns="http://www.w3.org/2000/svg">
<rect width="80" height="80" rx="24" fill="url(#paint0_linear_873_199)"/>
<path fill-rule="evenodd" clip-rule="evenodd" d="M19.3072 22.9631H44.6423C47.9838 22.9631 50.7178 25.6363 50.7178 29.0386V49.5132C50.7178 52.8548 47.9838 55.5888 44.6423 55.5888H19.3072C15.9657 55.5888 13.2317 52.8548 13.2317 49.5132V29.0386C13.2317 25.6971 15.9657 22.9631 19.3072 22.9631ZM63.2335 26.7299C63.5373 26.5477 63.9018 26.3654 64.2663 26.3046C66.6358 25.7578 68.7622 27.5805 68.7622 29.8285V48.6019C68.7622 49.2702 68.58 49.8778 68.2762 50.4246C67.2433 52.1865 65.0561 52.7941 63.2942 51.7612L53.7556 46.2932V32.1979L63.2335 26.7299Z" fill="white"/>
<path d="M27.641 31.4658C28.19 31.0267 28.9586 31.0266 29.5075 31.5756L32.9111 35.3086C33.3503 35.8576 33.3503 36.6261 32.8013 37.0653L29.0684 40.359C28.5194 40.7982 27.7508 40.7982 27.2019 40.2493L23.7983 36.5163C23.3591 35.9673 23.3591 35.1988 23.9081 34.7596L27.641 31.4658ZM33.3503 32.0148C32.9111 31.5756 33.0209 30.9169 33.4601 30.4777L35.4363 28.721C35.8755 28.2819 36.5343 28.3916 36.9734 28.8308L38.7301 30.8071C39.1693 31.2463 39.0595 31.905 38.6203 32.3442L36.6441 34.1009C36.2049 34.54 35.5461 34.4302 35.107 33.9911L33.3503 32.0148ZM43.8904 30.8071C43.561 31.1365 42.9022 31.1365 42.5729 30.6973L41.3652 29.3798C41.0358 29.0504 41.0358 28.3916 41.4749 28.0623L42.7925 26.8545C43.1218 26.5252 43.7806 26.5252 44.11 26.9643L45.3177 28.2818C45.6471 28.6112 45.6471 29.27 45.2079 29.5994C45.2079 29.7091 43.8904 30.8071 43.8904 30.8071ZM41.5847 35.089L43.7806 37.6142C44.11 37.9436 44.0002 38.4926 43.6708 38.7121L30.3859 50.46L29.7271 51.0089C28.2998 52.3265 26.104 52.2167 24.7865 50.7894L19.9555 45.4095L18.1989 43.4333C17.8695 43.1039 17.9793 42.5549 18.3087 42.3353L20.5045 40.359C20.8339 40.0297 21.3829 40.0297 21.6024 40.359L27.0921 46.0683C27.4215 46.3977 27.8606 46.3977 28.2998 46.0683L40.4868 34.9792C40.7064 34.7596 41.2554 34.7596 41.5847 35.089Z" fill="#1880C5"/>
<mask id="mask0_873_199" style="mask-type:alpha" maskUnits="userSpaceOnUse" x="0" y="0" width="80" height="80">
<rect width="80" height="80" rx="24" fill="url(#paint1_linear_873_199)"/>
</mask>
<g mask="url(#mask0_873_199)">
<circle cx="64.2502" cy="64.25" r="15.25" fill="#FFD600"/>
<g filter="url(#filter0_i_873_199)">
<circle cx="64.2507" cy="64.25" r="13.1705" fill="#FFC702"/>
</g>
<path d="M63.7319 72.8211H65.9373V71.2013C67.1087 71.0244 68.0421 70.576 68.7376 69.8561C69.4392 69.1362 69.79 68.2394 69.79 67.1657C69.79 66.2383 69.5368 65.494 69.0304 64.9328C68.5301 64.3654 67.7096 63.9139 66.5687 63.5784L64.1986 62.892C63.5702 62.709 63.1096 62.4924 62.8167 62.2423C62.53 61.9861 62.3866 61.6749 62.3866 61.3089C62.3866 60.8208 62.6124 60.4151 63.0638 60.0918C63.5153 59.7684 64.0735 59.6128 64.7385 59.625C65.434 59.6434 66.0258 59.8538 66.5138 60.2565C67.008 60.653 67.3191 61.1777 67.4473 61.8305L69.7076 61.4187C69.4697 60.3999 69.0243 59.5701 68.3715 58.9296C67.7248 58.289 66.9134 57.8741 65.9373 57.685V56.0103H63.7319V57.6392C62.6398 57.7979 61.7765 58.2127 61.1421 58.8838C60.5137 59.5488 60.1995 60.3938 60.1995 61.4187C60.1995 63.0964 61.1238 64.219 62.9723 64.7863L66.1478 65.7747C66.6603 65.9333 67.0324 66.1346 67.2642 66.3786C67.4961 66.6227 67.612 66.9338 67.612 67.3121C67.612 67.855 67.3679 68.3065 66.8799 68.6665C66.3918 69.0264 65.7695 69.2064 65.013 69.2064C64.226 69.2064 63.5519 68.9867 62.9906 68.5475C62.4293 68.1082 62.0602 67.5103 61.8833 66.7538L59.7053 67.1016C59.8761 68.1936 60.3185 69.0966 61.0322 69.8104C61.746 70.5242 62.6459 70.9787 63.7319 71.1739V72.8211Z" fill="white"/>
</g>
<defs>
<filter id="filter0_i_873_199" x="51.0802" y="51.0795" width="26.3409" height="26.3409" filterUnits="userSpaceOnUse" color-interpolation-filters="sRGB">
<feFlood flood-opacity="0" result="BackgroundImageFix"/>
<feBlend mode="normal" in="SourceGraphic" in2="BackgroundImageFix" result="shape"/>
<feColorMatrix in="SourceAlpha" type="matrix" values="0 0 0 0 0 0 0 0 0 0 0 0 0 0 0 0 0 0 127 0" result="hardAlpha"/>
<feOffset/>
<feGaussianBlur stdDeviation="1.15909"/>
<feComposite in2="hardAlpha" operator="arithmetic" k2="-1" k3="1"/>
<feColorMatrix type="matrix" values="0 0 0 0 0 0 0 0 0 0 0 0 0 0 0 0 0 0 0.09 0"/>
<feBlend mode="normal" in2="shape" result="effect1_innerShadow_873_199"/>
</filter>
<linearGradient id="paint0_linear_873_199" x1="80" y1="-9" x2="-1.24346e-06" y2="84.25" gradientUnits="userSpaceOnUse">
<stop stop-color="#6674EE"/>
<stop offset="1" stop-color="#292EA6"/>
</linearGradient>
<linearGradient id="paint1_linear_873_199" x1="80" y1="-9" x2="-1.24346e-06" y2="84.25" gradientUnits="userSpaceOnUse">
<stop stop-color="#FF8844"/>
<stop offset="1" stop-color="#FF5D00"/>
</linearGradient>
</defs>
</svg>
