<svg width="80" height="80" viewBox="0 0 80 80" fill="none" xmlns="http://www.w3.org/2000/svg">
<rect width="80" height="80" rx="24" fill="url(#paint0_linear_492_2288)"/>
<g filter="url(#filter0_d_492_2288)">
<path fill-rule="evenodd" clip-rule="evenodd" d="M19.307 22.9631H44.642C47.9836 22.9631 50.7176 25.6364 50.7176 29.0387V49.5133C50.7176 52.8549 47.9836 55.5888 44.642 55.5888H19.307C15.9654 55.5888 13.2314 52.8549 13.2314 49.5133V29.0387C13.2314 25.6971 15.9654 22.9631 19.307 22.9631ZM63.2332 26.73C63.537 26.5477 63.9015 26.3655 64.2661 26.3047C66.6355 25.7579 68.762 27.5806 68.762 29.8285V48.602C68.762 49.2703 68.5797 49.8778 68.2759 50.4247C67.2431 52.1866 65.0559 52.7941 63.294 51.7613L53.7554 46.2933V32.198L63.2332 26.73Z" fill="white"/>
</g>
<g filter="url(#filter1_i_492_2288)">
<path d="M27.641 31.4657C28.19 31.0266 28.9586 31.0265 29.5075 31.5755L32.9111 35.3085C33.3503 35.8574 33.3503 36.626 32.8013 37.0651L29.0684 40.3589C28.5194 40.7981 27.7508 40.7981 27.2019 40.2491L23.7983 36.5162C23.3591 35.9672 23.3591 35.1987 23.9081 34.7595L27.641 31.4657ZM33.3503 32.0147C32.9111 31.5755 33.0209 30.9167 33.4601 30.4776L35.4363 28.7209C35.8755 28.2817 36.5343 28.3915 36.9734 28.8307L38.7301 30.807C39.1693 31.2461 39.0595 31.9049 38.6203 32.3441L36.6441 34.1007C36.2049 34.5399 35.5461 34.4301 35.107 33.9909L33.3503 32.0147ZM43.8904 30.807C43.561 31.1363 42.9022 31.1363 42.5729 30.6972L41.3652 29.3796C41.0358 29.0503 41.0358 28.3915 41.4749 28.0621L42.7925 26.8544C43.1218 26.525 43.7806 26.525 44.11 26.9642L45.3177 28.2817C45.6471 28.6111 45.6471 29.2699 45.2079 29.5992C45.2079 29.709 43.8904 30.807 43.8904 30.807ZM41.5847 35.0889L43.7806 37.6141C44.11 37.9435 44.0002 38.4924 43.6708 38.712L30.3859 50.4599L29.7271 51.0088C28.2998 52.3263 26.104 52.2165 24.7865 50.7892L19.9555 45.4094L18.1989 43.4331C17.8695 43.1038 17.9793 42.5548 18.3087 42.3352L20.5045 40.3589C20.8339 40.0295 21.3829 40.0295 21.6024 40.3589L27.0921 46.0682C27.4215 46.3975 27.8606 46.3975 28.2998 46.0682L40.4868 34.9791C40.7064 34.7595 41.2554 34.7595 41.5847 35.0889Z" fill="#1880C5"/>
</g>
<mask id="mask0_492_2288" style="mask-type:alpha" maskUnits="userSpaceOnUse" x="0" y="0" width="80" height="80">
<rect width="80" height="80" rx="24" fill="url(#paint1_linear_492_2288)"/>
</mask>
<g mask="url(#mask0_492_2288)">
<g filter="url(#filter2_d_492_2288)">
<circle cx="64.25" cy="64.25" r="15.25" fill="#FFD600"/>
<g filter="url(#filter3_i_492_2288)">
<circle cx="64.2505" cy="64.25" r="13.1705" fill="#FFC702"/>
</g>
<path d="M63.7316 72.821H65.9371V71.2013C67.1084 71.0244 68.0418 70.5759 68.7373 69.8561C69.4389 69.1362 69.7897 68.2393 69.7897 67.1656C69.7897 66.2383 69.5365 65.494 69.0302 64.9327C68.5299 64.3653 67.7093 63.9139 66.5685 63.5783L64.1983 62.892C63.5699 62.7089 63.1093 62.4924 62.8165 62.2422C62.5298 61.986 62.3864 61.6749 62.3864 61.3088C62.3864 60.8207 62.6121 60.415 63.0636 60.0917C63.515 59.7684 64.0733 59.6128 64.7382 59.625C65.4337 59.6433 66.0255 59.8538 66.5136 60.2564C67.0078 60.653 67.3189 61.1776 67.447 61.8304L69.7074 61.4186C69.4694 60.3998 69.0241 59.5701 68.3713 58.9295C67.7246 58.2889 66.9132 57.8741 65.9371 57.6849V56.0103H63.7316V57.6392C62.6396 57.7978 61.7763 58.2126 61.1418 58.8837C60.5134 59.5487 60.1992 60.3937 60.1992 61.4186C60.1992 63.0963 61.1235 64.2189 62.9721 64.7863L66.1475 65.7746C66.66 65.9332 67.0322 66.1346 67.264 66.3786C67.4958 66.6226 67.6117 66.9338 67.6117 67.312C67.6117 67.855 67.3677 68.3064 66.8796 68.6664C66.3916 69.0263 65.7693 69.2063 65.0128 69.2063C64.2258 69.2063 63.5516 68.9867 62.9904 68.5474C62.4291 68.1082 62.06 67.5103 61.8831 66.7538L59.7051 67.1015C59.8759 68.1936 60.3182 69.0965 61.032 69.8103C61.7458 70.5241 62.6457 70.9786 63.7316 71.1738V72.821Z" fill="white"/>
</g>
</g>
<defs>
<filter id="filter0_d_492_2288" x="4.23145" y="15.9631" width="73.5308" height="50.6257" filterUnits="userSpaceOnUse" color-interpolation-filters="sRGB">
<feFlood flood-opacity="0" result="BackgroundImageFix"/>
<feColorMatrix in="SourceAlpha" type="matrix" values="0 0 0 0 0 0 0 0 0 0 0 0 0 0 0 0 0 0 127 0" result="hardAlpha"/>
<feOffset dy="2"/>
<feGaussianBlur stdDeviation="4.5"/>
<feComposite in2="hardAlpha" operator="out"/>
<feColorMatrix type="matrix" values="0 0 0 0 0 0 0 0 0 0 0 0 0 0 0 0 0 0 0.15 0"/>
<feBlend mode="normal" in2="BackgroundImageFix" result="effect1_dropShadow_492_2288"/>
<feBlend mode="normal" in="SourceGraphic" in2="effect1_dropShadow_492_2288" result="shape"/>
</filter>
<filter id="filter1_i_492_2288" x="18" y="26.6196" width="27.5522" height="27.3125" filterUnits="userSpaceOnUse" color-interpolation-filters="sRGB">
<feFlood flood-opacity="0" result="BackgroundImageFix"/>
<feBlend mode="normal" in="SourceGraphic" in2="BackgroundImageFix" result="shape"/>
<feColorMatrix in="SourceAlpha" type="matrix" values="0 0 0 0 0 0 0 0 0 0 0 0 0 0 0 0 0 0 127 0" result="hardAlpha"/>
<feOffset dy="2"/>
<feGaussianBlur stdDeviation="2"/>
<feComposite in2="hardAlpha" operator="arithmetic" k2="-1" k3="1"/>
<feColorMatrix type="matrix" values="0 0 0 0 0 0 0 0 0 0 0 0 0 0 0 0 0 0 0.15 0"/>
<feBlend mode="normal" in2="shape" result="effect1_innerShadow_492_2288"/>
</filter>
<filter id="filter2_d_492_2288" x="30.5" y="32.5" width="67.5" height="67.5" filterUnits="userSpaceOnUse" color-interpolation-filters="sRGB">
<feFlood flood-opacity="0" result="BackgroundImageFix"/>
<feColorMatrix in="SourceAlpha" type="matrix" values="0 0 0 0 0 0 0 0 0 0 0 0 0 0 0 0 0 0 127 0" result="hardAlpha"/>
<feOffset dy="2"/>
<feGaussianBlur stdDeviation="9.25"/>
<feComposite in2="hardAlpha" operator="out"/>
<feColorMatrix type="matrix" values="0 0 0 0 1 0 0 0 0 0.780392 0 0 0 0 0 0 0 0 1 0"/>
<feBlend mode="normal" in2="BackgroundImageFix" result="effect1_dropShadow_492_2288"/>
<feBlend mode="normal" in="SourceGraphic" in2="effect1_dropShadow_492_2288" result="shape"/>
</filter>
<filter id="filter3_i_492_2288" x="51.0801" y="51.0796" width="26.3408" height="26.3408" filterUnits="userSpaceOnUse" color-interpolation-filters="sRGB">
<feFlood flood-opacity="0" result="BackgroundImageFix"/>
<feBlend mode="normal" in="SourceGraphic" in2="BackgroundImageFix" result="shape"/>
<feColorMatrix in="SourceAlpha" type="matrix" values="0 0 0 0 0 0 0 0 0 0 0 0 0 0 0 0 0 0 127 0" result="hardAlpha"/>
<feOffset/>
<feGaussianBlur stdDeviation="1.15909"/>
<feComposite in2="hardAlpha" operator="arithmetic" k2="-1" k3="1"/>
<feColorMatrix type="matrix" values="0 0 0 0 0 0 0 0 0 0 0 0 0 0 0 0 0 0 0.09 0"/>
<feBlend mode="normal" in2="shape" result="effect1_innerShadow_492_2288"/>
</filter>
<linearGradient id="paint0_linear_492_2288" x1="80" y1="-9" x2="-1.24346e-06" y2="84.25" gradientUnits="userSpaceOnUse">
<stop stop-color="#6674EE"/>
<stop offset="1" stop-color="#292EA6"/>
</linearGradient>
<linearGradient id="paint1_linear_492_2288" x1="80" y1="-9" x2="-1.24346e-06" y2="84.25" gradientUnits="userSpaceOnUse">
<stop stop-color="#FF8844"/>
<stop offset="1" stop-color="#FF5D00"/>
</linearGradient>
</defs>
</svg>
