<svg width="80" height="80" viewBox="0 0 80 80" fill="none" xmlns="http://www.w3.org/2000/svg">
<rect width="80" height="80" rx="16" fill="url(#paint0_linear_933_384)"/>
<path fill-rule="evenodd" clip-rule="evenodd" d="M19.3072 22.9631H44.6423C47.9838 22.9631 50.7178 25.6363 50.7178 29.0386V49.5132C50.7178 52.8548 47.9838 55.5888 44.6423 55.5888H19.3072C15.9657 55.5888 13.2317 52.8548 13.2317 49.5132V29.0386C13.2317 25.6971 15.9657 22.9631 19.3072 22.9631ZM63.2335 26.7299C63.5373 26.5477 63.9018 26.3654 64.2663 26.3046C66.6358 25.7578 68.7622 27.5805 68.7622 29.8285V48.6019C68.7622 49.2702 68.58 49.8778 68.2762 50.4246C67.2433 52.1865 65.0561 52.7941 63.2942 51.7612L53.7556 46.2932V32.1979L63.2335 26.7299Z" fill="white"/>
<path d="M27.641 31.4658C28.19 31.0267 28.9586 31.0266 29.5075 31.5756L32.9111 35.3086C33.3503 35.8576 33.3503 36.6261 32.8013 37.0653L29.0684 40.359C28.5194 40.7982 27.7508 40.7982 27.2019 40.2493L23.7983 36.5163C23.3591 35.9673 23.3591 35.1988 23.9081 34.7596L27.641 31.4658ZM33.3503 32.0148C32.9111 31.5756 33.0209 30.9169 33.4601 30.4777L35.4363 28.721C35.8755 28.2819 36.5343 28.3916 36.9734 28.8308L38.7301 30.8071C39.1693 31.2463 39.0595 31.905 38.6203 32.3442L36.6441 34.1009C36.2049 34.54 35.5461 34.4302 35.107 33.9911L33.3503 32.0148ZM43.8904 30.8071C43.561 31.1365 42.9022 31.1365 42.5729 30.6973L41.3652 29.3798C41.0358 29.0504 41.0358 28.3916 41.4749 28.0623L42.7925 26.8545C43.1218 26.5252 43.7806 26.5252 44.11 26.9643L45.3177 28.2818C45.6471 28.6112 45.6471 29.27 45.2079 29.5994C45.2079 29.7091 43.8904 30.8071 43.8904 30.8071ZM41.5847 35.089L43.7806 37.6142C44.11 37.9436 44.0002 38.4926 43.6708 38.7121L30.3859 50.46L29.7271 51.0089C28.2998 52.3265 26.104 52.2167 24.7865 50.7894L19.9555 45.4095L18.1989 43.4333C17.8695 43.1039 17.9793 42.5549 18.3087 42.3353L20.5045 40.359C20.8339 40.0297 21.3829 40.0297 21.6024 40.359L27.0921 46.0683C27.4215 46.3977 27.8606 46.3977 28.2998 46.0683L40.4868 34.9792C40.7064 34.7596 41.2554 34.7596 41.5847 35.089Z" fill="#1880C5"/>
<mask id="mask0_933_384" style="mask-type:alpha" maskUnits="userSpaceOnUse" x="0" y="0" width="80" height="80">
<rect width="80" height="80" rx="16" fill="url(#paint1_linear_933_384)"/>
</mask>
<g mask="url(#mask0_933_384)">
<circle cx="66.0002" cy="66" r="17" fill="#FFD600"/>
<circle cx="66.0007" cy="66" r="14.6818" fill="#FFC702"/>
<path d="M65.4224 75.5547H67.881V73.749C69.1867 73.5518 70.2273 73.052 71.0026 72.2494C71.7847 71.4469 72.1757 70.4472 72.1757 69.2502C72.1757 68.2165 71.8935 67.3868 71.329 66.7611C70.7714 66.1286 69.8566 65.6254 68.5849 65.2513L65.9427 64.4862C65.2422 64.2822 64.7287 64.0408 64.4023 63.7619C64.0827 63.4763 63.9228 63.1294 63.9228 62.7214C63.9228 62.1773 64.1745 61.725 64.6777 61.3646C65.181 61.0041 65.8033 60.8307 66.5446 60.8443C67.3199 60.8647 67.9796 61.0994 68.5237 61.5482C69.0745 61.9903 69.4214 62.5752 69.5642 63.3029L72.0839 62.8438C71.8187 61.708 71.3222 60.7831 70.5945 60.069C69.8736 59.3549 68.9691 58.8925 67.881 58.6816V56.8148H65.4224V58.6306C64.2051 58.8075 63.2427 59.2699 62.5355 60.018C61.835 60.7593 61.4847 61.7012 61.4847 62.8438C61.4847 64.714 62.515 65.9654 64.5757 66.5979L68.1156 67.6996C68.6869 67.8765 69.1017 68.1009 69.3602 68.3729C69.6186 68.645 69.7478 68.9918 69.7478 69.4135C69.7478 70.0188 69.4758 70.522 68.9317 70.9233C68.3876 71.3245 67.6939 71.5252 66.8506 71.5252C65.9733 71.5252 65.2218 71.2803 64.5961 70.7907C63.9704 70.301 63.559 69.6345 63.3618 68.7912L60.9338 69.1788C61.1243 70.3962 61.6173 71.4027 62.413 72.1984C63.2087 72.9941 64.2119 73.5008 65.4224 73.7184V75.5547Z" fill="white"/>
</g>
<defs>
<linearGradient id="paint0_linear_933_384" x1="80" y1="-9" x2="-1.24346e-06" y2="84.25" gradientUnits="userSpaceOnUse">
<stop stop-color="#6674EE"/>
<stop offset="1" stop-color="#292EA6"/>
</linearGradient>
<linearGradient id="paint1_linear_933_384" x1="80" y1="-9" x2="-1.24346e-06" y2="84.25" gradientUnits="userSpaceOnUse">
<stop stop-color="#FF8844"/>
<stop offset="1" stop-color="#FF5D00"/>
</linearGradient>
</defs>
</svg>
