<svg width="80" height="80" viewBox="0 0 80 80" fill="none" xmlns="http://www.w3.org/2000/svg">
<rect width="80" height="80" rx="24.1395" fill="#6528C9"/>
<g opacity="0.3">
<mask id="mask0_492_2137" style="mask-type:alpha" maskUnits="userSpaceOnUse" x="0" y="0" width="80" height="80">
<rect width="80" height="80" rx="24.1395" fill="url(#paint0_linear_492_2137)"/>
</mask>
<g mask="url(#mask0_492_2137)">
<path d="M63.3939 33.5C58.6739 33.5 54.1832 34.5981 50.1534 36.5624C49.5214 36.8519 48.8852 37.1984 48.2553 37.5453L51.0185 40.0307L55.1609 35.6965L62.2986 42.0526L66.5019 37.4868L79.6272 49.3336L71.224 58.6374L74.5045 61.5261L66.2138 70.8299L69.4947 73.7173L57.6354 86.9509L50.6164 80.4784L44.5115 87.4147C45.7215 88.3394 47.0454 89.2659 48.4829 90.0735C52.8587 92.5581 57.9253 94 63.3358 94C79.9739 94 93.4998 80.4229 93.4998 63.724C93.5586 47.138 80.0302 33.5 63.3939 33.5ZM68.9212 61.8735L61.7252 55.401L55.2764 62.6242L62.4739 69.096L68.9212 61.8735ZM63.7963 74.3558L56.6589 67.826L50.1534 75.0486L57.3497 81.5214L63.7963 74.3558ZM74.0415 49.5655L66.8476 43.093L60.4003 50.3162L67.5966 56.7883L74.0415 49.5655ZM60.8615 46.0972L55.5074 41.2434L50.6707 46.6178L56.0248 51.5289L60.8615 46.0972ZM51.3045 68.3451L45.9522 63.4909L41.1158 68.9214L46.4701 73.7786L51.3045 68.3451ZM46.5848 79.2678L41.2304 74.4128L36.3978 79.7869L41.7501 84.6974L46.5848 79.2678ZM44.3969 54.3029L40.8283 51.0665L37.6056 54.6507L41.1737 57.8858L44.3969 54.3029ZM49.0022 43.6124L45.4334 40.3193L42.2084 43.9592L45.7799 47.1953L49.0022 43.6124ZM39.8497 64.9944L36.2811 61.7583L33 65.3412L36.6253 68.5764L39.8497 64.9944ZM55.9102 56.9618L50.5558 52.1076L45.7214 57.4808L51.0735 62.3359L55.9102 56.9618Z" fill="url(#paint1_linear_492_2137)"/>
</g>
</g>
<circle cx="58.5" cy="60.5" r="10.5" fill="#E24338"/>
<circle cx="21" cy="60.5" r="10.5" fill="#27AE60"/>
<circle cx="39.5" cy="29.5" r="20.5" fill="white"/>
<path d="M22.1759 12.1758C17.5812 16.7705 15 23.0022 15 29.5C15 35.9978 17.5812 42.2294 22.1759 46.8241L23.3095 45.6904C19.0155 41.3965 16.6032 35.5726 16.6032 29.5C16.6032 23.4273 19.0155 17.6035 23.3095 13.3095L22.1759 12.1758Z" fill="url(#paint2_radial_492_2137)"/>
<path d="M19.3475 9.34742C14.0027 14.6922 11 21.9413 11 29.5C11 37.0586 14.0027 44.3077 19.3475 49.6525L20.6662 48.3338C15.6711 43.3387 12.8649 36.564 12.8649 29.5C12.8649 22.4359 15.6711 15.6612 20.6662 10.6661L19.3475 9.34742Z" fill="url(#paint3_radial_492_2137)"/>
<path d="M56.8241 46.8241C61.4188 42.2294 64 35.9978 64 29.5C64 23.0022 61.4188 16.7705 56.8241 12.1758L55.6905 13.3095C59.9845 17.6035 62.3968 23.4273 62.3968 29.5C62.3968 35.5726 59.9845 41.3965 55.6905 45.6904L56.8241 46.8241Z" fill="url(#paint4_radial_492_2137)"/>
<path d="M59.6525 49.6525C64.9973 44.3077 68 37.0586 68 29.5C68 21.9413 64.9973 14.6922 59.6525 9.34741L58.3338 10.6661C63.3289 15.6612 66.1351 22.4359 66.1351 29.5C66.1351 36.564 63.3289 43.3387 58.3338 48.3338L59.6525 49.6525Z" fill="url(#paint5_radial_492_2137)"/>
<path fill-rule="evenodd" clip-rule="evenodd" d="M29.85 23.345C29.0168 23.345 28.3413 24.0204 28.3413 24.8537V35.1937C28.3413 36.0269 29.0168 36.7024 29.85 36.7024H45.2382C46.0715 36.7024 46.7469 36.0269 46.7469 35.1937V32.1335L49.961 34.0976C50.2961 34.3024 50.7261 34.0612 50.7261 33.6685V26.646C50.7261 26.2533 50.2961 26.0121 49.961 26.2169L46.7469 28.181V24.8537C46.7469 24.0204 46.0715 23.345 45.2382 23.345H29.85Z" fill="#6528C9"/>
<path d="M53.2706 62.8021L52.2099 61.7415C52.1111 61.6434 52.0338 61.5258 51.983 61.3961C51.9322 61.2664 51.9091 61.1276 51.9151 60.9885C51.9211 60.8493 51.9561 60.713 52.0178 60.5882C52.0795 60.4634 52.1666 60.3528 52.2736 60.2636C53.4797 59.2939 54.8965 58.6206 56.4101 58.2978C57.8072 57.9864 59.2557 57.9864 60.6528 58.2978C62.1726 58.6227 63.5946 59.301 64.8035 60.2777C64.9101 60.3667 64.997 60.4768 65.0587 60.6012C65.1204 60.7256 65.1555 60.8614 65.1619 61.0001C65.1682 61.1388 65.1456 61.2773 65.0954 61.4067C65.0453 61.5362 64.9687 61.6538 64.8707 61.7521L63.81 62.8127C63.6401 62.986 63.413 63.0916 63.171 63.1098C62.9291 63.128 62.6887 63.0576 62.4948 62.9117C62.1106 62.617 61.6943 62.3668 61.2538 62.1657C61.0797 62.0867 60.9319 61.9595 60.8279 61.7991C60.7238 61.6387 60.668 61.4518 60.6669 61.2606L60.6669 60.3626C59.2785 59.9808 57.8127 59.9808 56.4243 60.3626L56.4243 61.2606C56.4232 61.4518 56.3674 61.6387 56.2633 61.7991C56.1593 61.9595 56.0115 62.0867 55.8374 62.1657C55.3969 62.3668 54.9806 62.6171 54.5964 62.9117C54.4004 63.0592 54.1571 63.1296 53.9126 63.1094C53.6682 63.0892 53.4397 62.9798 53.2706 62.8021Z" fill="white"/>
<path d="M26.0105 63.5167V65.0167C26.011 65.1559 25.9825 65.2938 25.9267 65.4214C25.8709 65.549 25.7891 65.6635 25.6865 65.7576C25.5839 65.8518 25.4628 65.9234 25.3308 65.968C25.1989 66.0127 25.0592 66.0292 24.9205 66.0167C23.3819 65.8495 21.904 65.3238 20.6055 64.4817C19.3974 63.714 18.3731 62.6898 17.6055 61.4817C16.7605 60.1773 16.2346 58.6922 16.0705 57.1467C16.058 57.0084 16.0744 56.8691 16.1187 56.7375C16.163 56.6059 16.2343 56.485 16.3278 56.3825C16.4214 56.28 16.5354 56.198 16.6624 56.142C16.7894 56.0859 16.9266 56.0568 17.0655 56.0567H18.5655C18.8081 56.0543 19.0434 56.1402 19.2273 56.2985C19.4113 56.4567 19.5315 56.6764 19.5655 56.9167C19.6288 57.3967 19.7462 57.8681 19.9155 58.3217C19.9827 58.5007 19.9973 58.6951 19.9574 58.8821C19.9175 59.0691 19.8249 59.2407 19.6905 59.3767L19.0555 60.0117C19.7672 61.2635 20.8037 62.2999 22.0555 63.0117L22.6905 62.3767C22.8264 62.2423 22.998 62.1496 23.185 62.1097C23.372 62.0699 23.5665 62.0844 23.7455 62.1517C24.1991 62.321 24.6704 62.4384 25.1505 62.5017C25.3933 62.536 25.6152 62.6583 25.7737 62.8454C25.9323 63.0326 26.0165 63.2715 26.0105 63.5167Z" fill="white"/>
<defs>
<linearGradient id="paint0_linear_492_2137" x1="81.25" y1="-3.5" x2="-5.25" y2="81.5" gradientUnits="userSpaceOnUse">
<stop stop-color="#028AE9"/>
<stop offset="1" stop-color="#036CB5"/>
</linearGradient>
<linearGradient id="paint1_linear_492_2137" x1="61" y1="41" x2="96.7798" y2="103.806" gradientUnits="userSpaceOnUse">
<stop stop-color="white" stop-opacity="0"/>
<stop offset="1" stop-color="white"/>
</linearGradient>
<radialGradient id="paint2_radial_492_2137" cx="0" cy="0" r="1" gradientUnits="userSpaceOnUse" gradientTransform="translate(39.5 29.5) rotate(90) scale(18.5 28.5)">
<stop offset="0.560903" stop-color="white"/>
<stop offset="1" stop-color="white" stop-opacity="0"/>
</radialGradient>
<radialGradient id="paint3_radial_492_2137" cx="0" cy="0" r="1" gradientUnits="userSpaceOnUse" gradientTransform="translate(39.5 29.5) rotate(90) scale(18.5 28.5)">
<stop offset="0.560903" stop-color="white"/>
<stop offset="1" stop-color="white" stop-opacity="0"/>
</radialGradient>
<radialGradient id="paint4_radial_492_2137" cx="0" cy="0" r="1" gradientUnits="userSpaceOnUse" gradientTransform="translate(39.5 29.5) rotate(90) scale(18.5 28.5)">
<stop offset="0.560903" stop-color="white"/>
<stop offset="1" stop-color="white" stop-opacity="0"/>
</radialGradient>
<radialGradient id="paint5_radial_492_2137" cx="0" cy="0" r="1" gradientUnits="userSpaceOnUse" gradientTransform="translate(39.5 29.5) rotate(90) scale(18.5 28.5)">
<stop offset="0.560903" stop-color="white"/>
<stop offset="1" stop-color="white" stop-opacity="0"/>
</radialGradient>
</defs>
</svg>
