<svg width="24" height="24" viewBox="0 0 24 24" fill="none" xmlns="http://www.w3.org/2000/svg">
<path d="M12.0005 3.26953C9.63028 3.26953 9.33283 3.2799 8.40192 3.32226C7.47283 3.3648 6.83864 3.51189 6.28373 3.72771C5.70973 3.95062 5.22282 4.2488 4.73773 4.73408C4.25228 5.21917 3.9541 5.70608 3.73046 6.27989C3.5141 6.83499 3.36682 7.46935 3.32501 8.39808C3.28337 9.32899 3.27246 9.62662 3.27246 11.9968C3.27246 14.367 3.28301 14.6635 3.32519 15.5944C3.36792 16.5235 3.51501 17.1577 3.73064 17.7126C3.95373 18.2866 4.25192 18.7735 4.73719 19.2586C5.2221 19.7441 5.70901 20.043 6.28264 20.2659C6.83792 20.4817 7.47228 20.6288 8.40119 20.6714C9.3321 20.7137 9.62937 20.7241 11.9994 20.7241C14.3697 20.7241 14.6663 20.7137 15.5972 20.6714C16.5263 20.6288 17.1612 20.4817 17.7165 20.2659C18.2903 20.043 18.7765 19.7441 19.2614 19.2586C19.7468 18.7735 20.045 18.2866 20.2686 17.7128C20.4832 17.1577 20.6305 16.5233 20.6741 15.5946C20.7159 14.6637 20.7268 14.367 20.7268 11.9968C20.7268 9.62662 20.7159 9.32917 20.6741 8.39826C20.6305 7.46917 20.4832 6.83499 20.2686 6.28008C20.045 5.70608 19.7468 5.21917 19.2614 4.73408C18.7759 4.24862 18.2905 3.95044 17.7159 3.72771C17.1596 3.51189 16.525 3.3648 15.5959 3.32226C14.665 3.2799 14.3686 3.26953 11.9977 3.26953H12.0005ZM11.2176 4.84226C11.4499 4.84189 11.7092 4.84226 12.0005 4.84226C14.3306 4.84226 14.6068 4.85062 15.527 4.89244C16.3779 4.93135 16.8397 5.07353 17.1474 5.19299C17.5546 5.35117 17.845 5.54026 18.1503 5.84571C18.4557 6.15117 18.6448 6.44208 18.8034 6.84935C18.9228 7.15662 19.0652 7.61844 19.1039 8.46935C19.1457 9.38935 19.1548 9.66571 19.1548 11.9948C19.1548 14.3239 19.1457 14.6003 19.1039 15.5203C19.065 16.3712 18.9228 16.833 18.8034 17.1403C18.6452 17.5475 18.4557 17.8375 18.1503 18.1428C17.8448 18.4483 17.5548 18.6373 17.1474 18.7955C16.8401 18.9155 16.3779 19.0573 15.527 19.0963C14.607 19.1381 14.3306 19.1472 12.0005 19.1472C9.6701 19.1472 9.39392 19.1381 8.47392 19.0963C7.62301 19.057 7.16119 18.9148 6.85337 18.7953C6.4461 18.6372 6.15519 18.4481 5.84973 18.1426C5.54428 17.8372 5.35519 17.547 5.19664 17.1395C5.07719 16.8323 4.93482 16.3704 4.8961 15.5195C4.85428 14.5995 4.84592 14.3232 4.84592 11.9926C4.84592 9.66208 4.85428 9.38717 4.8961 8.46717C4.93501 7.61626 5.07719 7.15444 5.19664 6.8468C5.35482 6.43953 5.54428 6.14862 5.84973 5.84317C6.15519 5.53771 6.4461 5.34862 6.85337 5.19008C7.16101 5.07008 7.62301 4.92826 8.47392 4.88917C9.27901 4.8528 9.59101 4.84189 11.2176 4.84008V4.84226ZM16.659 6.29135C16.0808 6.29135 15.6117 6.75989 15.6117 7.33826C15.6117 7.91644 16.0808 8.38553 16.659 8.38553C17.2372 8.38553 17.7063 7.91644 17.7063 7.33826C17.7063 6.76008 17.2372 6.29099 16.659 6.29099V6.29135ZM12.0005 7.51499C9.52537 7.51499 7.51864 9.52171 7.51864 11.9968C7.51864 14.4719 9.52537 16.4777 12.0005 16.4777C14.4756 16.4777 16.4816 14.4719 16.4816 11.9968C16.4816 9.52171 14.4754 7.51499 12.0003 7.51499H12.0005ZM12.0005 9.08771C13.607 9.08771 14.9096 10.3901 14.9096 11.9968C14.9096 13.6033 13.607 14.9059 12.0005 14.9059C10.3937 14.9059 9.09137 13.6033 9.09137 11.9968C9.09137 10.3901 10.3937 9.08771 12.0005 9.08771Z" fill="white"/>
</svg>
