<svg width="24" height="24" viewBox="0 0 24 24" fill="none" xmlns="http://www.w3.org/2000/svg">
<path d="M12.0476 3.5C9.63201 3.5 7.67383 5.45825 7.67383 7.87379C7.67383 10.2894 9.63201 12.2478 12.0476 12.2478C14.4632 12.2478 16.4214 10.2894 16.4214 7.87379C16.4214 5.45825 14.4632 3.5 12.0476 3.5ZM12.0476 9.68194C11.0491 9.68194 10.2396 8.87238 10.2396 7.87385C10.2396 6.87532 11.0491 6.06582 12.0476 6.06582C13.0461 6.06582 13.8556 6.87532 13.8556 7.87385C13.8556 8.87238 13.0461 9.68194 12.0476 9.68194Z" fill="white"/>
<path d="M13.5923 15.7265C15.3433 15.3697 16.3926 14.5405 16.4481 14.496C16.9605 14.0851 17.0428 13.3366 16.6319 12.8242C16.221 12.3118 15.4726 12.2295 14.9601 12.6404C14.9493 12.6491 13.8302 13.5076 11.9888 13.5089C10.1475 13.5076 9.00465 12.6491 8.99383 12.6404C8.48132 12.2295 7.73291 12.3118 7.32206 12.8242C6.91115 13.3366 6.99345 14.0851 7.50583 14.496C7.5621 14.5412 8.6547 15.392 10.4548 15.7403L7.94604 18.3621C7.49012 18.835 7.50383 19.5878 7.97665 20.0437C8.20742 20.2662 8.50486 20.3768 8.80204 20.3768C9.11363 20.3768 9.4249 20.2551 9.65824 20.0131L11.9888 17.5304L14.5549 20.0291C15.0198 20.4933 15.7726 20.4926 16.2367 20.0278C16.7008 19.563 16.7002 18.81 16.2354 18.346L13.5923 15.7265Z" fill="white"/>
</svg>
