<svg width="24" height="24" viewBox="0 0 24 24" fill="none" xmlns="http://www.w3.org/2000/svg">
<path d="M19.6931 7.22957C19.1271 7.48073 18.5191 7.65052 17.8799 7.72684C18.5323 7.3362 19.0321 6.71717 19.268 5.98042C18.6483 6.34848 17.9701 6.6076 17.2629 6.74651C16.6874 6.13302 15.8666 5.75 14.9586 5.75C13.2158 5.75 11.8023 7.1629 11.8023 8.90679C11.8023 9.15388 11.8301 9.39494 11.8836 9.62639C9.25996 9.49453 6.93392 8.23777 5.37698 6.32812C5.10512 6.79451 4.94951 7.33677 4.94951 7.91534C4.94951 9.01041 5.50688 9.97661 6.35381 10.5426C5.85244 10.527 5.36208 10.3917 4.92372 10.1479V10.1878C4.92372 11.7174 6.0117 12.9929 7.45593 13.283C7.19063 13.3557 6.91221 13.3937 6.62417 13.3937C6.42051 13.3937 6.22293 13.3744 6.02991 13.3381C6.43164 14.5918 7.59749 15.5044 8.97848 15.5302C7.89808 16.3771 6.53672 16.882 5.05814 16.882C4.80347 16.882 4.55178 16.8668 4.30469 16.837C5.70194 17.733 7.36095 18.256 9.14375 18.256C14.95 18.256 18.1255 13.4457 18.1255 9.27421C18.1255 9.13726 18.1225 9.00133 18.1159 8.86588C18.7346 8.41838 19.2687 7.8643 19.6931 7.22957Z" fill="white"/>
</svg>
