<svg width="32" height="32" viewBox="0 0 32 32" fill="none" xmlns="http://www.w3.org/2000/svg">
<path fill-rule="evenodd" clip-rule="evenodd" d="M22.9763 9.97959C23.7608 10.1964 24.3801 10.8157 24.5866 11.6002C24.9685 13.0248 24.9685 15.9977 24.9685 15.9977C24.9685 15.9977 24.9685 18.9706 24.5969 20.3951C24.3801 21.1899 23.7711 21.8093 22.9866 22.0157C21.5621 22.3977 15.8847 22.3977 15.8847 22.3977C15.8847 22.3977 10.2072 22.3977 8.79304 22.0157C8.00852 21.7989 7.38917 21.1796 7.18272 20.3951C6.80078 18.9706 6.80078 15.9977 6.80078 15.9977C6.80078 15.9977 6.80078 13.0248 7.17239 11.6002C7.38917 10.8054 7.9982 10.186 8.78272 9.97959C10.2072 9.59766 15.8847 9.59766 15.8847 9.59766C15.8847 9.59766 21.5621 9.59766 22.9763 9.97959ZM18.7757 15.9897L14.0273 18.6942V13.2852L18.7757 15.9897Z" fill="white"/>
</svg>
