<svg width="24" height="24" viewBox="0 0 24 24" fill="none" xmlns="http://www.w3.org/2000/svg">
<path fill-rule="evenodd" clip-rule="evenodd" d="M17.2322 7.48567C17.8206 7.64825 18.2851 8.11277 18.4399 8.70115C18.7264 9.76954 18.7264 11.9992 18.7264 11.9992C18.7264 11.9992 18.7264 14.2289 18.4477 15.2973C18.2851 15.8934 17.8283 16.3579 17.2399 16.5128C16.1716 16.7992 11.9135 16.7992 11.9135 16.7992C11.9135 16.7992 7.65542 16.7992 6.59478 16.5128C6.00639 16.3502 5.54188 15.8857 5.38704 15.2973C5.10059 14.2289 5.10059 11.9992 5.10059 11.9992C5.10059 11.9992 5.10059 9.76954 5.3793 8.70115C5.54188 8.10503 5.99865 7.64051 6.58704 7.48567C7.65543 7.19922 11.9135 7.19922 11.9135 7.19922C11.9135 7.19922 16.1716 7.19922 17.2322 7.48567ZM14.0818 11.9932L10.5205 14.0216V9.96484L14.0818 11.9932Z" fill="white"/>
</svg>
