<svg width="32" height="32" viewBox="0 0 32 32" fill="none" xmlns="http://www.w3.org/2000/svg">
<path fill-rule="evenodd" clip-rule="evenodd" d="M25.385 11.6864C25.5286 11.2074 25.385 10.8555 24.7014 10.8555H22.441C21.8663 10.8555 21.6013 11.1595 21.4576 11.4947C21.4576 11.4947 20.3081 14.2966 18.6797 16.1166C18.1528 16.6435 17.9133 16.8111 17.626 16.8111C17.4823 16.8111 17.2743 16.6435 17.2743 16.1645V11.6864C17.2743 11.1116 17.1075 10.8555 16.6285 10.8555H13.0764C12.7173 10.8555 12.5013 11.1222 12.5013 11.375C12.5013 11.9199 13.3154 12.0455 13.3994 13.5782V16.9069C13.3994 17.6367 13.2676 17.769 12.9802 17.769C12.2139 17.769 10.3499 14.9546 9.24435 11.7342C9.02769 11.1083 8.81039 10.8555 8.23269 10.8555H5.97227C5.32644 10.8555 5.19727 11.1595 5.19727 11.4947C5.19727 12.0935 5.9636 15.063 8.76543 18.9903C10.6333 21.6724 13.265 23.1263 15.6598 23.1263C17.0966 23.1263 17.2744 22.8034 17.2744 22.2472V20.2201C17.2744 19.5742 17.4105 19.4453 17.8655 19.4453C18.2007 19.4453 18.7755 19.613 20.1166 20.9061C21.6492 22.4387 21.9019 23.1263 22.7639 23.1263H25.0244C25.6702 23.1263 25.9931 22.8034 25.8068 22.1661C25.603 21.531 24.8712 20.6095 23.9003 19.5172C23.3734 18.8945 22.5831 18.224 22.3436 17.8887C22.0084 17.4577 22.1042 17.2661 22.3436 16.883C22.3436 16.883 25.0976 13.0035 25.385 11.6864Z" fill="white"/>
<path d="M17.025 23.0583C9.73171 23.0583 5.57177 18.0583 5.39844 9.73828H9.05177C9.17177 15.8449 11.865 18.4316 13.9984 18.9649V9.73828H17.4385V15.0049C19.5452 14.7783 21.7582 12.3783 22.5049 9.73828H25.945C25.3716 12.9916 22.9716 15.3916 21.265 16.3783C22.9716 17.1783 25.7051 19.2716 26.7451 23.0583H22.9583C22.145 20.5249 20.1185 18.5649 17.4385 18.2983V23.0583H17.025Z" fill="white"/>
</svg>
