<svg width="33" height="32" viewBox="0 0 33 32" fill="none" xmlns="http://www.w3.org/2000/svg">
<mask id="mask0_351_2054" style="mask-type:alpha" maskUnits="userSpaceOnUse" x="0" y="0" width="33" height="32">
<rect x="0.666687" width="32" height="32" rx="8" fill="#C4C4C4"/>
</mask>
<g mask="url(#mask0_351_2054)">
<path fill-rule="evenodd" clip-rule="evenodd" d="M15.6667 22C11.8007 22 8.66669 18.866 8.66669 15C8.66669 11.134 11.8007 8 15.6667 8C19.5327 8 22.6667 11.134 22.6667 15C22.6667 18.866 19.5327 22 15.6667 22ZM6.66669 15C6.66669 19.9706 10.6961 24 15.6667 24C17.7917 24 19.7447 23.2635 21.2844 22.0319L24.9596 25.7071C25.3501 26.0976 25.9833 26.0976 26.3738 25.7071C26.7643 25.3166 26.7643 24.6834 26.3738 24.2929L22.6986 20.6177C23.9302 19.078 24.6667 17.125 24.6667 15C24.6667 10.0294 20.6372 6 15.6667 6C10.6961 6 6.66669 10.0294 6.66669 15Z" fill="#101828"/>
</g>
</svg>
