<svg width="80" height="80" viewBox="0 0 80 80" fill="none" xmlns="http://www.w3.org/2000/svg">
<rect width="80" height="80" rx="24" fill="url(#paint0_linear_409_2007)"/>
<path d="M57.4768 54.185C60.3277 54.3402 62.8735 52.363 63.2781 49.5869L66.501 27.4733C66.9276 24.547 64.8132 21.8414 61.7786 21.4301L51.2258 20L57.4768 54.185Z" fill="white"/>
<path fill-rule="evenodd" clip-rule="evenodd" d="M22.0534 63.8621C22.4551 63.9997 22.8869 64.0351 23.307 63.9649C23.7375 63.8799 24.137 63.6863 24.4644 63.4035L36.1127 53.6467L51.3543 58.8559C51.7638 58.9994 52.2052 59.0368 52.6342 58.9638C53.0632 58.8909 53.4648 58.7102 53.7986 58.4402C54.1304 58.1717 54.3835 57.8243 54.5329 57.4322C54.6823 57.0403 54.7227 56.6173 54.6501 56.2056L48.3278 21.6304C48.1024 20.2114 47.306 18.9352 46.1117 18.0784C44.9171 17.2217 43.4206 16.8533 41.9464 17.0532L18.4825 21.0427C17.0263 21.3411 15.7507 22.1808 14.9322 23.3799C14.1136 24.5789 13.8181 26.0407 14.1095 27.4485L20.4319 62.0237C20.509 62.4411 20.6998 62.8314 20.9847 63.1544C21.2696 63.4775 21.6384 63.7216 22.0534 63.8621ZM26.11 38.3796L26.0923 38.3642C25.3684 37.7154 24.2362 37.7527 23.56 38.4488C22.8822 39.1464 22.9193 40.2419 23.6428 40.8956L24.8701 39.6323C23.6428 40.8956 23.6433 40.8961 23.6439 40.8965L23.6451 40.8975L23.6477 40.8999L23.6541 40.9056L23.6716 40.9211L23.7248 40.9674C23.7683 41.0046 23.8279 41.0547 23.9029 41.1154C24.0529 41.2367 24.2653 41.4012 24.5349 41.5916C25.0726 41.9713 25.8477 42.4613 26.8182 42.9183C28.7514 43.8286 31.5466 44.6462 34.7942 44.0941C38.0417 43.5419 40.3783 41.8517 41.8721 40.3587C42.622 39.6091 43.1765 38.8931 43.547 38.3589C43.7329 38.091 43.8741 37.8664 43.9721 37.703C44.0211 37.6212 44.0593 37.5546 44.0869 37.5052L44.1206 37.4441L44.1316 37.4238L44.1355 37.4165L44.1379 37.412C44.1381 37.4113 44.1385 37.4107 42.5371 36.6283L44.1385 37.4107C44.5866 36.5579 44.2329 35.5163 43.3485 35.0841C42.4661 34.653 41.3889 34.9918 40.9388 35.8401L40.9277 35.8602C40.9156 35.882 40.8939 35.9197 40.8628 35.9716C40.8006 36.0756 40.7008 36.2351 40.5629 36.4339C40.2858 36.8332 39.862 37.3815 39.2883 37.9548C38.1349 39.1076 36.444 40.298 34.1708 40.6845C31.8973 41.071 29.8863 40.5101 28.3936 39.8072C27.6511 39.4577 27.0584 39.0823 26.6564 38.7985C26.4562 38.6571 26.3059 38.5402 26.2105 38.4629C26.1628 38.4245 26.1292 38.396 26.11 38.3796ZM42.5371 36.6283L40.9359 35.8459L40.9364 35.8448C40.936 35.8453 40.9359 35.8459 42.5371 36.6283ZM24.8701 39.6323L26.0923 38.3642L26.094 38.3658L26.0955 38.3672L26.0964 38.3679C26.0969 38.3685 26.0974 38.3688 24.8701 39.6323Z" fill="white"/>
<defs>
<linearGradient id="paint0_linear_409_2007" x1="81.25" y1="-3.5" x2="-5.25" y2="81.5" gradientUnits="userSpaceOnUse">
<stop stop-color="#595959"/>
<stop offset="1" stop-color="#252525"/>
</linearGradient>
</defs>
</svg>
