<svg width="32" height="32" viewBox="0 0 32 32" fill="none" xmlns="http://www.w3.org/2000/svg">
<path d="M26.2581 9.64072C25.5034 9.97561 24.6928 10.202 23.8406 10.3038C24.7104 9.7829 25.3767 8.95753 25.6914 7.9752C24.8651 8.46595 23.9608 8.81143 23.0179 8.99665C22.2505 8.17867 21.1562 7.66797 19.9455 7.66797C17.6217 7.66797 15.737 9.55184 15.737 11.877C15.737 12.2065 15.7741 12.5279 15.8455 12.8365C12.3473 12.6607 9.24588 10.985 7.16996 8.43879C6.80748 9.06065 6.59999 9.78366 6.59999 10.5551C6.59999 12.0152 7.34316 13.3034 8.4724 14.0581C7.80391 14.0374 7.15009 13.8569 6.5656 13.5318V13.585C6.5656 15.6246 8.01625 17.3252 9.9419 17.7119C9.58816 17.8089 9.21693 17.8595 8.83287 17.8595C8.56134 17.8595 8.29789 17.8338 8.04053 17.7854C8.57617 19.4571 10.1306 20.6739 11.972 20.7083C10.5314 21.8375 8.71628 22.5106 6.74484 22.5106C6.40528 22.5106 6.06969 22.4904 5.74023 22.4507C7.60324 23.6453 9.81525 24.3426 12.1923 24.3426C19.934 24.3426 24.168 17.9289 24.168 12.3669C24.168 12.1843 24.164 12.0031 24.1552 11.8225C24.9801 11.2258 25.6922 10.487 26.2581 9.64072Z" fill="white"/>
</svg>
