<svg width="20" height="20" viewBox="0 0 20 20" fill="none" xmlns="http://www.w3.org/2000/svg">
<path d="M10.0004 2.72705C8.02523 2.72705 7.77735 2.73569 7.0016 2.77099C6.22735 2.80644 5.69887 2.92902 5.23644 3.10887C4.75811 3.29463 4.35235 3.54311 3.94811 3.94751C3.54357 4.35175 3.29508 4.75751 3.10872 5.23569C2.92841 5.69826 2.80569 6.2269 2.77084 7.00084C2.73614 7.7766 2.72705 8.02463 2.72705 9.99978C2.72705 11.9749 2.73584 12.2221 2.77099 12.9978C2.8066 13.7721 2.92917 14.3005 3.10887 14.763C3.29478 15.2413 3.54326 15.6471 3.94766 16.0513C4.35175 16.4558 4.75751 16.7049 5.23554 16.8907C5.69826 17.0705 6.2269 17.1931 7.00099 17.2286C7.77675 17.2639 8.02448 17.2725 9.99948 17.2725C11.9748 17.2725 12.2219 17.2639 12.9977 17.2286C13.7719 17.1931 14.301 17.0705 14.7637 16.8907C15.2419 16.7049 15.6471 16.4558 16.0511 16.0513C16.4557 15.6471 16.7042 15.2413 16.8905 14.7631C17.0693 14.3005 17.1921 13.7719 17.2284 12.998C17.2633 12.2222 17.2724 11.9749 17.2724 9.99978C17.2724 8.02463 17.2633 7.77675 17.2284 7.00099C17.1921 6.22675 17.0693 5.69826 16.8905 5.23584C16.7042 4.75751 16.4557 4.35175 16.0511 3.94751C15.6466 3.54296 15.2421 3.29448 14.7633 3.10887C14.2996 2.92902 13.7708 2.80644 12.9966 2.77099C12.2208 2.73569 11.9739 2.72705 9.99811 2.72705H10.0004ZM9.34796 4.03766C9.5416 4.03735 9.75766 4.03766 10.0004 4.03766C11.9422 4.03766 12.1724 4.04463 12.9392 4.07948C13.6483 4.1119 14.0331 4.23038 14.2895 4.32993C14.6289 4.46175 14.8708 4.61932 15.1252 4.87387C15.3798 5.12841 15.5374 5.37084 15.6695 5.71023C15.769 5.96629 15.8877 6.35114 15.9199 7.06023C15.9548 7.8269 15.9624 8.0572 15.9624 9.99811C15.9624 11.939 15.9548 12.1693 15.9199 12.936C15.8875 13.6451 15.769 14.0299 15.6695 14.286C15.5377 14.6254 15.3798 14.8671 15.1252 15.1214C14.8707 15.376 14.629 15.5336 14.2895 15.6654C14.0334 15.7654 13.6483 15.8836 12.9392 15.916C12.1725 15.9508 11.9422 15.9584 10.0004 15.9584C8.05841 15.9584 7.82826 15.9508 7.0616 15.916C6.35251 15.8833 5.96766 15.7648 5.71114 15.6652C5.37175 15.5334 5.12932 15.3758 4.87478 15.1213C4.62023 14.8667 4.46266 14.6249 4.33054 14.2854C4.23099 14.0293 4.11235 13.6445 4.08008 12.9354C4.04523 12.1687 4.03826 11.9384 4.03826 9.99629C4.03826 8.05417 4.04523 7.82508 4.08008 7.05841C4.11251 6.34932 4.23099 5.96448 4.33054 5.70811C4.46235 5.36872 4.62023 5.12629 4.87478 4.87175C5.12932 4.6172 5.37175 4.45963 5.71114 4.32751C5.96751 4.22751 6.35251 4.10932 7.0616 4.07675C7.73251 4.04644 7.99251 4.03735 9.34796 4.03584V4.03766ZM13.8825 5.24523C13.4007 5.24523 13.0098 5.63569 13.0098 6.11766C13.0098 6.59947 13.4007 6.99038 13.8825 6.99038C14.3643 6.99038 14.7552 6.59947 14.7552 6.11766C14.7552 5.63584 14.3643 5.24493 13.8825 5.24493V5.24523ZM10.0004 6.26493C7.93781 6.26493 6.26554 7.9372 6.26554 9.99978C6.26554 12.0624 7.93781 13.7339 10.0004 13.7339C12.063 13.7339 13.7346 12.0624 13.7346 9.99978C13.7346 7.9372 12.0628 6.26493 10.0002 6.26493H10.0004ZM10.0004 7.57554C11.3392 7.57554 12.4246 8.66084 12.4246 9.99978C12.4246 11.3386 11.3392 12.424 10.0004 12.424C8.66144 12.424 7.57614 11.3386 7.57614 9.99978C7.57614 8.66084 8.66144 7.57554 10.0004 7.57554V7.57554Z" fill="white"/>
</svg>
