<svg width="32" height="22" viewBox="0 0 32 22" fill="none" xmlns="http://www.w3.org/2000/svg">
<path d="M0 4C0 1.79086 1.79086 0 4 0H28C30.2091 0 32 1.79086 32 4V18C32 20.2091 30.2091 22 28 22H4C1.79086 22 0 20.2091 0 18V4Z" fill="#D9D9D9"/>
<path d="M0 4C0 1.79086 1.79086 0 4 0H8V22H4C1.79086 22 0 20.2091 0 18V4Z" fill="#66BB88"/>
<path d="M8 0H28C30.2091 0 32 1.79086 32 4V18C32 20.2091 30.2091 22 28 22H8V0Z" fill="#F54848"/>
<path d="M11 11C11 12.6569 9.65685 14 8 14C6.34315 14 5 12.6569 5 11C5 9.34315 6.34315 8 8 8C9.65685 8 11 9.34315 11 11Z" fill="#F8D880"/>
</svg>
