<svg width="32" height="22" viewBox="0 0 32 22" fill="none" xmlns="http://www.w3.org/2000/svg">
<mask id="mask0_360_2464" style="mask-type:alpha" maskUnits="userSpaceOnUse" x="0" y="0" width="32" height="22">
<path d="M0 4C0 1.79086 1.79086 0 4 0H28C30.2091 0 32 1.79086 32 4V18C32 20.2091 30.2091 22 28 22H4C1.79086 22 0 20.2091 0 18V4Z" fill="#D9D9D9"/>
</mask>
<g mask="url(#mask0_360_2464)">
<path d="M0 4C0 1.79086 1.79086 0 4 0H28C30.2091 0 32 1.79086 32 4V18C32 20.2091 30.2091 22 28 22H4C1.79086 22 0 20.2091 0 18V4Z" fill="#0080D8"/>
<path fill-rule="evenodd" clip-rule="evenodd" d="M16 12.2135L31.4335 22.824L32.5665 21.176L17.7651 11L32.5665 0.824048L31.4335 -0.824036L16 9.78648L0.566529 -0.824036L-0.566528 0.824048L14.2349 11L-0.566528 21.176L0.566528 22.824L16 12.2135Z" fill="#F54848"/>
<path fill-rule="evenodd" clip-rule="evenodd" d="M31.6909 24.2146L15.9999 13.4271L0.308961 24.2146L-1.95715 20.9185L12.4697 11L-1.95715 1.08157L0.308962 -2.2146L15.9999 8.57295L31.6909 -2.2146L33.957 1.08157L19.5302 11L33.957 20.9185L31.6909 24.2146ZM32.5665 21.176L31.4334 22.8241L15.9999 12.2135L0.566474 22.8241L-0.566583 21.176L14.2348 11L-0.566583 0.824055L0.566475 -0.824029L15.9999 9.78648L31.4334 -0.824029L32.5665 0.824055L17.7651 11L32.5665 21.176Z" fill="white"/>
<path fill-rule="evenodd" clip-rule="evenodd" d="M14 13V22H18V13H32V9H18V0H14V9H0V13H14Z" fill="#F54848"/>
<path fill-rule="evenodd" clip-rule="evenodd" d="M13 23V14H-1V8H13V-1H19V8H33V14H19V23H13ZM18 13H32V9H18V0H14V9H0V13H14V22H18V13Z" fill="white"/>
</g>
</svg>
