<svg width="80" height="80" viewBox="0 0 80 80" fill="none" xmlns="http://www.w3.org/2000/svg">
<rect width="80" height="80" rx="24.1395" fill="#1E5072"/>
<g opacity="0.3">
<mask id="mask0_100_421" style="mask-type:alpha" maskUnits="userSpaceOnUse" x="0" y="0" width="80" height="80">
<rect width="80" height="80" rx="24.1395" fill="url(#paint0_linear_100_421)"/>
</mask>
<g mask="url(#mask0_100_421)">
<path d="M63.3944 28.5C58.6744 28.5 54.1837 29.5981 50.1539 31.5624C49.5219 31.8519 48.8857 32.1984 48.2558 32.5453L51.019 35.0307L55.1614 30.6965L62.2991 37.0526L66.5024 32.4868L79.6277 44.3336L71.2245 53.6374L74.505 56.5261L66.2143 65.8299L69.4952 68.7173L57.6359 81.9509L50.6169 75.4784L44.512 82.4147C45.7219 83.3394 47.0459 84.2659 48.4834 85.0735C52.8592 87.5581 57.9258 89 63.3363 89C79.9743 89 93.5003 75.4229 93.5003 58.724C93.5591 42.138 80.0307 28.5 63.3944 28.5ZM68.9216 56.8735L61.7256 50.401L55.2769 57.6242L62.4743 64.096L68.9216 56.8735ZM63.7968 69.3558L56.6594 62.826L50.1539 70.0486L57.3502 76.5214L63.7968 69.3558ZM74.042 44.5655L66.8481 38.093L60.4008 45.3162L67.5971 51.7883L74.042 44.5655ZM60.862 41.0972L55.5079 36.2434L50.6712 41.6178L56.0253 46.5289L60.862 41.0972ZM51.305 63.3451L45.9527 58.4909L41.1162 63.9214L46.4706 68.7786L51.305 63.3451ZM46.5853 74.2678L41.2309 69.4128L36.3983 74.7869L41.7506 79.6974L46.5853 74.2678ZM44.3973 49.3029L40.8288 46.0665L37.6061 49.6507L41.1742 52.8858L44.3973 49.3029ZM49.0027 38.6124L45.4338 35.3193L42.2089 38.9592L45.7804 42.1953L49.0027 38.6124ZM39.8502 59.9944L36.2816 56.7583L33.0005 60.3412L36.6258 63.5764L39.8502 59.9944ZM55.9107 51.9618L50.5563 47.1076L45.7219 52.4808L51.0739 57.3359L55.9107 51.9618Z" fill="url(#paint1_linear_100_421)"/>
</g>
</g>
<path fill-rule="evenodd" clip-rule="evenodd" d="M41.6252 61C54.5118 61 64.9585 50.5533 64.9585 37.6667C64.9585 24.78 54.5118 14.3333 41.6252 14.3333C28.7385 14.3333 18.2918 24.78 18.2918 37.6667C18.2918 50.5533 28.7385 61 41.6252 61ZM41.6252 63.3333C55.8005 63.3333 67.2918 51.842 67.2918 37.6667C67.2918 23.4914 55.8005 12 41.6252 12C27.4499 12 15.9585 23.4914 15.9585 37.6667C15.9585 51.842 27.4499 63.3333 41.6252 63.3333Z" fill="#44CCEE"/>
<path d="M13.6255 31.32C13.6255 28.5301 13.6255 27.1351 14.2027 26.0851C14.6293 25.3091 15.268 24.6705 16.044 24.2439C17.094 23.6666 18.4889 23.6666 21.2788 23.6666H43.3055C46.0954 23.6666 47.4903 23.6666 48.5403 24.2439C49.3164 24.6705 49.955 25.3091 50.3816 26.0851C50.9588 27.1351 50.9588 28.5301 50.9588 31.32V60.3466C50.9588 63.1365 50.9588 64.5315 50.3816 65.5815C49.955 66.3575 49.3164 66.9961 48.5403 67.4227C47.4903 68 46.0954 68 43.3055 68H21.2788C18.4889 68 17.094 68 16.044 67.4227C15.268 66.9961 14.6293 66.3575 14.2027 65.5815C13.6255 64.5315 13.6255 63.1365 13.6255 60.3466V31.32Z" fill="white"/>
<path fill-rule="evenodd" clip-rule="evenodd" d="M43.3055 26H21.2788C19.8427 26 18.9154 26.002 18.2113 26.0633C17.5374 26.122 17.2905 26.2212 17.1681 26.2886C16.7801 26.5019 16.4607 26.8212 16.2474 27.2092C16.1801 27.3317 16.0809 27.5785 16.0222 28.2525C15.9609 28.9565 15.9588 29.8838 15.9588 31.32V60.3466C15.9588 61.7827 15.9609 62.7101 16.0222 63.4141C16.0809 64.0881 16.1801 64.3349 16.2474 64.4574C16.4607 64.8454 16.7801 65.1647 17.1681 65.378C17.2905 65.4453 17.5374 65.5446 18.2113 65.6033C18.9154 65.6646 19.8427 65.6666 21.2788 65.6666H43.3055C44.7416 65.6666 45.669 65.6646 46.373 65.6033C47.047 65.5446 47.2938 65.4453 47.4162 65.378C47.8042 65.1647 48.1236 64.8454 48.3369 64.4574C48.4042 64.3349 48.5034 64.0881 48.5621 63.4141C48.6234 62.7101 48.6255 61.7827 48.6255 60.3466V31.32C48.6255 29.8838 48.6234 28.9565 48.5621 28.2525C48.5034 27.5785 48.4042 27.3317 48.3369 27.2092C48.1236 26.8212 47.8042 26.5019 47.4162 26.2886C47.2938 26.2212 47.047 26.122 46.373 26.0633C45.669 26.002 44.7416 26 43.3055 26ZM14.2027 26.0851C13.6255 27.1351 13.6255 28.5301 13.6255 31.32V60.3466C13.6255 63.1365 13.6255 64.5315 14.2027 65.5815C14.6293 66.3575 15.268 66.9961 16.044 67.4227C17.094 68 18.4889 68 21.2788 68H43.3055C46.0954 68 47.4903 68 48.5403 67.4227C49.3163 66.9961 49.955 66.3575 50.3816 65.5815C50.9588 64.5315 50.9588 63.1365 50.9588 60.3466V31.32C50.9588 28.5301 50.9588 27.1351 50.3816 26.0851C49.955 25.3091 49.3163 24.6705 48.5403 24.2439C47.4903 23.6666 46.0954 23.6666 43.3055 23.6666H21.2788C18.4889 23.6666 17.094 23.6666 16.044 24.2439C15.268 24.6705 14.6293 25.3091 14.2027 26.0851Z" fill="#44CCEE"/>
<path fill-rule="evenodd" clip-rule="evenodd" d="M21.7918 28.3333V31.8333C21.7918 32.4776 22.3142 32.9999 22.9585 32.9999H26.6587C27.5869 32.9999 28.4772 33.3687 29.1335 34.025L30.1 34.9915C30.3188 35.2103 30.6156 35.3333 30.925 35.3333H33.6587C33.9681 35.3333 34.2648 35.2103 34.4836 34.9915L35.4501 34.025C36.1065 33.3687 36.9967 32.9999 37.925 32.9999H41.6252C42.2695 32.9999 42.7918 32.4776 42.7918 31.8333V28.3333H45.1252V31.8333C45.1252 33.7662 43.5582 35.3333 41.6252 35.3333H37.925C37.6156 35.3333 37.3188 35.4562 37.1 35.675L36.1335 36.6415C35.4772 37.2978 34.5869 37.6666 33.6587 37.6666H30.925C29.9967 37.6666 29.1065 37.2978 28.4501 36.6415L27.4836 35.675C27.2648 35.4562 26.9681 35.3333 26.6587 35.3333H22.9585C21.0255 35.3333 19.4585 33.7662 19.4585 31.8333V28.3333H21.7918Z" fill="#44CCEE"/>
<path d="M45.313 51.4787L64.4751 32.3166C65.3863 31.4054 66.8637 31.4054 67.7749 32.3166L67.9751 32.5168C68.8863 33.428 68.8863 34.9054 67.9751 35.8166L48.813 54.9787C47.9192 55.8725 46.8532 56.5754 45.6796 57.0448L41.625 58.6667L43.2468 54.6121C43.7163 53.4385 44.4192 52.3725 45.313 51.4787Z" fill="white"/>
<path fill-rule="evenodd" clip-rule="evenodd" d="M39.9755 60.3165C39.3155 59.6565 39.1123 58.6667 39.4589 57.8001L41.0808 53.7454C41.6676 52.2785 42.5462 50.946 43.6634 49.8288L62.8256 30.6666C64.648 28.8442 67.6028 28.8442 69.4252 30.6666L69.6254 30.8668C71.4478 32.6893 71.4478 35.644 69.6254 37.4665L67.9755 35.8166C68.8867 34.9053 68.8867 33.4279 67.9755 32.5167L67.7753 32.3166C66.8641 31.4053 65.3867 31.4053 64.4755 32.3166L45.3134 51.4787C44.4196 52.3724 43.7167 53.4384 43.2472 54.612L41.6254 58.6666L45.68 57.0448C46.8536 56.5754 47.9196 55.8724 48.8134 54.9787L67.9755 35.8166L69.6254 37.4665L50.4633 56.6286C49.3461 57.7458 48.0136 58.6244 46.5466 59.2112L42.492 60.8331C41.6253 61.1797 40.6355 60.9766 39.9755 60.3165Z" fill="#3389C3"/>
<defs>
<linearGradient id="paint0_linear_100_421" x1="81.25" y1="-3.5" x2="-5.25" y2="81.5" gradientUnits="userSpaceOnUse">
<stop stop-color="#028AE9"/>
<stop offset="1" stop-color="#036CB5"/>
</linearGradient>
<linearGradient id="paint1_linear_100_421" x1="61.0005" y1="36" x2="96.7803" y2="98.8058" gradientUnits="userSpaceOnUse">
<stop stop-color="white" stop-opacity="0"/>
<stop offset="1" stop-color="white"/>
</linearGradient>
</defs>
</svg>
