<?xml version="1.0"?>
<svg xmlns="http://www.w3.org/2000/svg" xmlns:xlink="http://www.w3.org/1999/xlink" xmlns:svgjs="http://svgjs.com/svgjs" version="1.1" width="512" height="512" x="0" y="0" viewBox="0 0 512 512" style="enable-background:new 0 0 512 512" xml:space="preserve" class=""><g><path xmlns="http://www.w3.org/2000/svg" d="m359.49 494a18 18 0 0 1 -18 18h-232.1a75.533 75.533 0 0 1 -75.448-75.447v-361.105a75.533 75.533 0 0 1 75.444-75.448h232.1a18 18 0 0 1 0 36h-232.1a39.492 39.492 0 0 0 -39.448 39.448v361.105a39.492 39.492 0 0 0 39.448 39.447h232.1a18 18 0 0 1 18.004 18zm113.3-250.728-117-117a18 18 0 0 0 -25.455 25.456l86.271 86.272h-209.806a18 18 0 0 0 0 36h209.806l-86.272 86.273a18 18 0 1 0 25.455 25.456l117-117a18 18 0 0 0 .001-25.457z" fill="#758793" data-original="#000000" class=""/></g></svg>
