<svg width="33" height="32" viewBox="0 0 33 32" fill="none" xmlns="http://www.w3.org/2000/svg">
<path fill-rule="evenodd" clip-rule="evenodd" d="M0.5 8C0.5 3.58172 4.08172 0 8.5 0H24.5C28.9183 0 32.5 3.58172 32.5 8V24C32.5 28.4183 28.9183 32 24.5 32H8.5C4.08172 32 0.5 28.4183 0.5 24V8ZM10.9237 4.36213C11.4595 4.22818 12.0024 4.55394 12.1364 5.08973C12.67 7.22403 14.5287 8.33227 16.4996 8.33227C18.4705 8.33227 20.3292 7.22403 20.8628 5.08973C20.9967 4.55394 21.5397 4.22818 22.0755 4.36213C22.6112 4.49607 22.937 5.03901 22.8031 5.5748C22.0033 8.77384 19.1953 10.3323 16.4996 10.3323C13.8038 10.3323 10.9959 8.77384 10.1961 5.5748C10.0622 5.03901 10.3879 4.49607 10.9237 4.36213ZM6.08789 18.1875H4.47363V19.998H3.51855V15.7324H4.47363V17.4492H6.08789V15.7324H7.04004V19.998H6.08789V18.1875ZM11.6391 15.7324H10.684V18.5332C10.684 18.7168 10.6566 18.8672 10.602 18.9844C10.5492 19.0996 10.4701 19.1846 10.3646 19.2393C10.2611 19.292 10.1352 19.3184 9.98672 19.3184C9.83828 19.3184 9.71133 19.292 9.60586 19.2393C9.50039 19.1846 9.41934 19.0996 9.3627 18.9844C9.30801 18.8672 9.28066 18.7168 9.28066 18.5332V15.7324H8.32266V18.5332C8.32266 18.8652 8.39297 19.1445 8.53359 19.3711C8.67617 19.5977 8.87148 19.7686 9.11953 19.8838C9.36953 19.999 9.65859 20.0566 9.98672 20.0566C10.3129 20.0566 10.6 19.999 10.848 19.8838C11.0961 19.7686 11.2895 19.5977 11.4281 19.3711C11.5688 19.1445 11.6391 18.8652 11.6391 18.5332V15.7324ZM14.9783 15.7324H14.7322H14.325H14.0877L12.5086 19.998H13.5281L13.7991 19.1484H15.2721L15.5437 19.998H16.5633L14.9783 15.7324ZM15.036 18.4102H14.0345L14.5346 16.8421L15.036 18.4102ZM18.4875 19.998H18.0451L17.1193 15.7324H18.0656L18.6025 18.5605L19.2463 15.7324H19.5656H19.7355H20.0549L20.7047 18.5637L21.2385 15.7324H22.1818L21.2561 19.998H20.8166H20.6525H20.2834L19.6487 17.3723L19.0236 19.998H18.6545H18.4875ZM26.1217 19.2598V19.998H24.1764H23.8512H23.2213V15.7324H23.8512H24.1764H26.1246V16.4736H24.1764V17.4492H25.8287V18.1641H24.1764V19.2598H26.1217ZM28.207 19.998V15.7324H27.2549V19.998H28.207Z" fill="#EE0000"/>
</svg>
