<svg width="138" height="32" viewBox="0 0 138 32" fill="none" xmlns="http://www.w3.org/2000/svg">
<path d="M15.9239 0.75C18.4204 0.75 20.7957 1.30358 22.9271 2.29384C23.2614 2.43981 23.5979 2.6145 23.9311 2.78935L22.4696 4.04232L20.2786 1.85732L16.5032 5.06162L14.28 2.75986L7.33767 8.73223L11.7824 13.4226L10.0472 14.8788L14.4324 19.5692L12.697 21.0249L18.9697 27.6963L22.6822 24.4333L25.9112 27.9301C25.2713 28.3963 24.571 28.8634 23.8107 29.2705C21.4962 30.5231 18.8164 31.25 15.9546 31.25C7.15433 31.25 0.000100849 24.4053 0.000100849 15.9869C-0.0309767 7.62535 7.12451 0.75 15.9239 0.75ZM13.0004 15.054L16.8065 11.791L20.2174 15.4324L16.4105 18.6951L13.0004 15.054ZM15.711 21.3467L19.4862 18.0549L22.9271 21.696L19.1208 24.9591L15.711 21.3467ZM10.2921 8.84915L14.0971 5.58616L17.5073 9.22757L13.701 12.4904L10.2921 8.84915ZM17.2633 7.10066L20.0952 4.65369L22.6535 7.36309L19.8216 9.83896L17.2633 7.10066ZM22.3183 18.3165L25.1493 15.8694L27.7074 18.6071L24.8753 21.0557L22.3183 18.3165ZM24.8147 23.823L27.6467 21.3755L30.2028 24.0847L27.3719 26.5603L24.8147 23.823ZM25.9719 11.2374L27.8594 9.60586L29.564 11.4127L27.6767 13.0437L25.9719 11.2374ZM23.536 5.84798L25.4237 4.18782L27.1295 6.02283L25.2404 7.65424L23.536 5.84798ZM28.377 16.6273L30.2645 14.9959L32 16.8022L30.0825 18.4331L28.377 16.6273ZM19.8822 12.5778L22.7143 10.1307L25.2713 12.8395L22.4405 15.2871L19.8822 12.5778Z" fill="#036CB5"/>
<path d="M48.4249 11.6705H48.28L45.5602 21.615H43.3371L40 7.48706H42.3066L44.6137 18.0288H44.7578L47.4351 7.48706H49.2689L52.1321 18.0288H52.2762L54.3775 7.48706H56.7877L53.4497 21.615H51.225L48.4249 11.6705Z" fill="#036CB5"/>
<path d="M59.7137 15.6023H64.4297C64.3274 13.5107 63.2763 12.6745 62.1644 12.6745C60.908 12.6745 59.9393 13.6109 59.7137 15.6023ZM66.0773 19.3496V20.8643C65.1506 21.3822 63.9154 21.781 62.4315 21.781C58.9719 21.781 57.5508 19.7087 57.5508 16.5607C57.5508 13.5306 59.1365 11.3386 62.2262 11.3386C64.8002 11.3386 66.3872 12.9538 66.3872 16.201V16.9384H59.6724C59.6724 19.3288 60.681 20.3852 62.8034 20.3852C63.9154 20.3852 64.9453 20.0059 66.0773 19.3496Z" fill="#036CB5"/>
<path d="M71.1762 20.1822C71.8354 20.4611 72.5569 20.5024 73.0727 20.5024C74.5966 20.5024 75.7488 19.5845 75.7488 16.3572C75.7488 13.8266 74.8014 13.0095 73.422 13.0095C72.5974 13.0095 72.0003 13.2294 71.1762 13.6669V20.1822H71.1762ZM71.1978 12.1928C71.8142 11.875 72.8645 11.4551 73.9773 11.4551C76.5317 11.4551 77.9119 13.1687 77.9119 16.3572C77.9119 20.0837 76.0578 21.897 73.0727 21.897C71.9802 21.897 70.2912 21.5582 69.0547 20.9191V7.01186L71.1979 6.5144V12.1928H71.1978Z" fill="#036CB5"/>
<path d="M87.1844 18.6182H87.2876L91.6946 7.47925H94.2501V21.6082H92.0256V11.3652H91.8399L87.6373 21.6082H86.3203L82.1168 11.6047H81.9321V21.6082H80.0781V7.47925H82.5712L87.1844 18.6182Z" fill="#036CB5"/>
<path d="M103.338 16.5601C103.338 13.8702 102.206 12.7349 100.805 12.7349C99.4464 12.7349 98.2713 13.8702 98.2713 16.5601C98.2713 19.2903 99.3437 20.3852 100.805 20.3852C102.267 20.3852 103.338 19.2903 103.338 16.5601ZM96.1094 16.5601C96.1094 13.0717 98.0873 11.3386 100.805 11.3386C103.525 11.3386 105.502 13.0717 105.502 16.5601C105.502 19.9668 103.628 21.781 100.805 21.781C97.9836 21.781 96.1094 19.9668 96.1094 16.5601Z" fill="#036CB5"/>
<path d="M107.133 12.8143C108.06 12.2754 110.017 11.3386 112.385 11.3386C114.857 11.3386 115.782 12.2754 115.782 14.3273V21.5417H113.641V14.7862C113.641 13.2123 112.84 12.9334 111.788 12.9334C110.965 12.9334 109.913 13.2926 109.275 13.6512V21.5417H107.133V12.8143H107.133Z" fill="#036CB5"/>
<path d="M120.315 15.6023H125.031C124.93 13.5107 123.878 12.6745 122.766 12.6745C121.509 12.6745 120.542 13.6109 120.315 15.6023ZM126.678 19.3496V20.8643C125.752 21.3822 124.516 21.781 123.033 21.781C119.574 21.781 118.152 19.7087 118.152 16.5607C118.152 13.5306 119.737 11.3386 122.827 11.3386C125.403 11.3386 126.99 12.9538 126.99 16.201V16.9384H120.274C120.274 19.3288 121.283 20.3852 123.405 20.3852C124.516 20.3852 125.548 20.0059 126.678 19.3496Z" fill="#036CB5"/>
<path d="M135.545 11.3386H137.749L134.021 21.3006C132.989 24.0507 131.734 25.4855 129.366 25.4855V23.8526C130.768 23.8526 131.631 22.7761 132.127 21.3006L128.172 11.3386H130.438L133.074 18.6714H133.198L135.545 11.3386Z" fill="#036CB5"/>
</svg>
