<svg width="24" height="24" viewBox="0 0 24 24" fill="none" xmlns="http://www.w3.org/2000/svg">
<mask id="mask0_679_6087" style="mask-type:alpha" maskUnits="userSpaceOnUse" x="0" y="3" width="24" height="18">
<rect y="3" width="24" height="18" rx="4" fill="#F54848"/>
</mask>
<g mask="url(#mask0_679_6087)">
<rect y="3" width="24" height="18" rx="4" fill="#0080D8"/>
<path fill-rule="evenodd" clip-rule="evenodd" d="M12.0001 12.9923L23.5752 21.6736L24.425 20.3252L13.3239 11.9994L24.425 3.67363L23.5752 2.3252L12.0001 11.0065L0.424989 2.3252L-0.424805 3.67363L10.6762 11.9994L-0.424805 20.3252L0.424988 21.6736L12.0001 12.9923Z" fill="#F54848"/>
<path fill-rule="evenodd" clip-rule="evenodd" d="M23.7683 22.8124L12.0001 13.9862L0.231812 22.8124L-1.46777 20.1155L9.35235 12.0004L-1.46777 3.88534L0.231813 1.18848L12.0001 10.0147L23.7683 1.18848L25.4679 3.88534L14.6478 12.0004L25.4679 20.1155L23.7683 22.8124ZM24.4249 20.3262L23.5752 21.6746L12.0001 12.9933L0.424947 21.6746L-0.424845 20.3262L10.6762 12.0004L-0.424845 3.67465L0.424948 2.32622L12.0001 11.0075L23.5752 2.32622L24.4249 3.67465L13.3239 12.0004L24.4249 20.3262Z" fill="white"/>
<path fill-rule="evenodd" clip-rule="evenodd" d="M10.5 13.6364V21H13.5V13.6364H24V10.3636H13.5V3H10.5V10.3636H0V13.6364H10.5Z" fill="#F54848"/>
<path fill-rule="evenodd" clip-rule="evenodd" d="M9.75 21.818V14.4544H-0.75V9.54528H9.75V2.18164H14.25V9.54528H24.75V14.4544H14.25V21.818H9.75ZM13.5 13.6362H24V10.3635H13.5V2.99982H10.5V10.3635H0V13.6362H10.5V20.9998H13.5V13.6362Z" fill="white"/>
</g>
</svg>
