<svg width="24" height="24" viewBox="0 0 24 24" fill="none" xmlns="http://www.w3.org/2000/svg">
<rect y="3" width="24" height="18" rx="4" fill="#F54848"/>
<path d="M16 10L16.4721 11.5279H18L16.7639 12.4721L17.2361 14L16 13.0557L14.7639 14L15.2361 12.4721L14 11.5279H15.5279L16 10Z" fill="white"/>
<path fill-rule="evenodd" clip-rule="evenodd" d="M16 7.7524C15.3474 7.39969 14.6036 7.2 13.8143 7.2C11.2248 7.2 9.12571 9.34903 9.12571 12C9.12571 14.651 11.2248 16.8 13.8143 16.8C14.6036 16.8 15.3474 16.6003 16 16.2476C14.9398 17.3305 13.4766 18 11.8607 18C8.62393 18 6 15.3137 6 12C6 8.68629 8.62393 6 11.8607 6C13.4766 6 14.9398 6.66953 16 7.7524Z" fill="white"/>
</svg>
